<svg width="170" height="51" viewBox="0 0 170 51" fill="none" xmlns="http://www.w3.org/2000/svg">
<mask id="path-1-outside-1_2028_4" maskUnits="userSpaceOnUse" x="-1" y="3" width="173" height="42" fill="black">
<rect fill="white" x="-1" y="3" width="173" height="42"/>
<path d="M9.05555 41.265C8.22255 41.804 7.24255 42.049 6.31155 42.049C5.28255 42.098 4.20455 41.804 3.42055 41.167C2.19555 40.187 1.46055 38.57 1.26455 37.051C0.872551 34.013 1.55855 30.877 2.29355 27.937C3.76355 22.351 6.26255 16.912 9.64355 12.257C10.7706 10.689 12.1916 9.219 13.7106 7.945C14.3966 7.406 15.2296 6.867 16.1116 6.671C17.4346 6.377 18.8066 6.328 20.1296 6.573C22.1876 6.916 24.1476 7.994 25.6666 9.366C27.9206 11.522 29.5376 14.315 30.9586 17.108C32.3306 19.852 33.3106 22.841 34.0456 25.879C34.6826 28.819 35.0746 31.906 34.7316 34.895C34.4376 37.149 33.0166 39.55 31.0566 40.775C29.2436 41.853 26.8916 42.245 24.8826 41.755C24.0986 41.559 23.3146 41.167 22.7266 40.628C21.8936 39.893 21.3056 38.864 20.8646 37.835C20.0316 35.973 19.5906 33.964 19.4436 31.955C17.6306 32.102 15.8176 32.2 14.0046 32.151C13.3676 34.111 12.7796 36.12 11.7996 37.933C11.1626 39.207 10.2806 40.481 9.05555 41.265ZM17.0916 17.745C15.6216 19.558 14.8866 21.861 14.4946 24.164C15.1806 24.115 18.9536 23.723 19.5906 23.625C19.4436 22.449 19.3946 21.224 19.2476 20.048C19.1496 19.068 18.9046 18.088 18.4636 17.255C18.3656 17.059 18.0226 17.059 17.8266 17.108C17.5326 17.206 17.2876 17.5 17.0916 17.745ZM52.6805 42.637C51.0145 42.735 49.2995 42.686 47.6335 42.441C45.3795 42.098 43.0765 41.216 41.4595 39.648C40.1365 38.374 39.3035 36.659 38.7645 34.895C38.1765 32.739 38.0295 30.436 38.0295 28.182C38.0295 23.821 38.5195 19.46 39.6955 15.295C40.0385 13.972 40.5285 12.698 41.2145 11.522C42.2925 9.66 43.8605 7.945 45.8205 6.965C47.4375 6.083 49.3975 5.985 51.2595 5.838C53.5135 5.691 55.8655 5.74 58.0705 6.132C59.7365 6.426 61.4025 7.014 62.7255 8.043C63.6565 8.778 64.4895 9.856 64.9305 10.983C65.6165 12.551 65.6655 14.413 65.2735 16.03C64.6855 18.431 63.1175 20.538 61.4025 22.253C64.0485 23.184 66.2535 25.83 66.9885 28.525C67.3805 29.995 67.4785 31.612 67.0865 33.082C66.5965 35.042 65.3715 36.708 64.0485 38.227C63.0685 39.305 61.9415 40.383 60.6185 41.02C58.2175 42.196 55.3755 42.441 52.6805 42.637ZM50.8185 18.97C52.1905 19.068 53.8075 18.823 54.9345 17.941C55.4245 17.598 55.8655 17.108 55.9635 16.52C56.1595 15.393 55.1795 14.168 54.1015 13.825C53.4645 13.629 52.7785 13.727 52.0925 13.727C51.2105 15.295 50.6715 17.157 50.8185 18.97ZM51.0635 34.307C52.8275 34.405 54.8855 33.964 56.2575 32.788C57.9725 31.318 56.7965 28.623 54.4935 28.329C53.3665 28.182 52.1905 28.182 51.0635 28.329C51.0635 28.378 51.0145 28.427 51.0145 28.427C50.8185 29.652 50.7205 30.926 50.7695 32.151C50.8185 32.886 50.8185 33.621 51.0635 34.307ZM87.8142 42.441C85.2172 42.686 82.5222 42.294 80.0722 41.461C77.1812 40.481 74.5842 38.227 72.9182 35.679C72.2322 34.601 71.5462 33.474 71.1542 32.249C70.1252 29.211 70.1252 25.879 70.4682 22.743C70.8602 19.215 72.4282 15.736 74.5352 12.796C76.0052 10.787 77.9162 8.925 80.1212 7.651C82.1302 6.426 84.5802 5.789 86.9322 5.789C89.2352 5.838 91.5382 6.23 93.6942 6.916C95.8502 7.651 97.7122 9.415 99.0352 11.277C100.064 12.698 100.75 14.462 101.142 16.226C101.73 18.725 101.877 21.273 101.828 23.821C101.73 27.692 100.701 31.71 98.6922 34.993C97.5162 37.051 95.8502 38.962 93.8412 40.236C92.0772 41.412 89.9702 42.196 87.8142 42.441ZM85.6092 30.485C87.2262 31.367 88.9902 30.093 89.8722 28.525C91.1462 26.369 91.5382 23.625 91.1462 21.175C90.9502 19.999 90.5582 18.823 89.8232 17.843C89.4312 17.304 88.7942 16.765 88.1082 16.618C87.4222 16.422 86.6382 16.618 86.0502 17.059C83.2572 18.921 82.4732 24.262 83.5022 27.447C83.8942 28.623 84.5312 29.897 85.6092 30.485ZM127.8 42.245C126.134 42.49 124.468 42.588 122.802 42.441C122.704 42.441 122.312 42.392 122.263 42.392C119.862 42.49 117.412 42.147 115.207 41.216C113.002 40.285 111.091 38.619 109.67 36.708C108.004 34.356 106.632 31.71 106.093 28.917C105.162 24.556 105.064 19.999 105.554 15.54C105.848 13.286 106.338 10.885 107.71 9.072C108.935 7.406 110.797 6.377 112.806 6.23C114.57 6.083 116.432 7.161 117.608 8.435C118.294 9.121 118.735 10.101 119.029 11.032C119.617 13.041 119.519 15.197 119.372 17.304C119.176 20.391 118.735 23.527 118.882 26.614C118.98 28.721 119.715 30.828 120.842 32.641C121.332 33.425 122.361 34.209 123.341 34.111C123.39 34.111 123.488 34.111 123.586 34.111C123.978 34.209 124.615 33.621 124.909 33.327C125.399 32.788 125.742 32.151 126.036 31.514C127.065 29.554 127.408 27.202 127.359 24.948C127.31 22.008 126.869 19.068 126.771 16.079C126.673 13.972 126.771 11.669 127.751 9.758C128.682 7.945 130.74 6.475 132.749 6.328C134.366 6.181 136.081 6.867 137.355 7.945C138.237 8.68 138.923 9.66 139.413 10.689C140.148 12.404 140.491 14.315 140.736 16.177C141.128 19.901 141.03 23.723 140.442 27.447C139.805 31.563 137.845 35.728 134.856 38.717C132.994 40.579 130.397 41.853 127.8 42.245ZM162.382 38.472C161.304 40.579 159.197 41.853 156.894 41.853C155.277 41.804 153.611 40.922 152.533 39.697C151.504 38.472 150.867 36.953 150.426 35.483C149.887 33.474 149.642 31.367 149.691 29.26C149.789 25.781 150.279 22.302 150.867 18.872C149.74 18.872 148.564 18.774 147.535 18.382C146.359 17.941 145.33 17.206 144.497 16.324C142.635 14.364 142.929 10.64 144.595 8.533C145.33 7.602 146.359 6.916 147.437 6.524C148.123 6.328 148.809 6.23 149.495 6.23C151.259 6.132 153.023 6.279 154.787 6.279C155.179 6.279 155.571 6.23 155.963 6.23C156.012 6.23 156.208 6.328 156.257 6.328C158.315 6.23 160.373 6.083 162.431 6.083C163.754 6.132 165.077 6.328 166.204 6.916C168.605 8.239 169.83 11.032 169.291 13.629C168.948 15.197 167.723 16.569 166.4 17.353C165.371 17.941 164.097 18.235 162.872 18.235C163.264 23.037 164.048 27.79 163.852 32.592C163.754 34.601 163.313 36.659 162.382 38.472Z"/>
</mask>
<path d="M9.05555 41.265C8.22255 41.804 7.24255 42.049 6.31155 42.049C5.28255 42.098 4.20455 41.804 3.42055 41.167C2.19555 40.187 1.46055 38.57 1.26455 37.051C0.872551 34.013 1.55855 30.877 2.29355 27.937C3.76355 22.351 6.26255 16.912 9.64355 12.257C10.7706 10.689 12.1916 9.219 13.7106 7.945C14.3966 7.406 15.2296 6.867 16.1116 6.671C17.4346 6.377 18.8066 6.328 20.1296 6.573C22.1876 6.916 24.1476 7.994 25.6666 9.366C27.9206 11.522 29.5376 14.315 30.9586 17.108C32.3306 19.852 33.3106 22.841 34.0456 25.879C34.6826 28.819 35.0746 31.906 34.7316 34.895C34.4376 37.149 33.0166 39.55 31.0566 40.775C29.2436 41.853 26.8916 42.245 24.8826 41.755C24.0986 41.559 23.3146 41.167 22.7266 40.628C21.8936 39.893 21.3056 38.864 20.8646 37.835C20.0316 35.973 19.5906 33.964 19.4436 31.955C17.6306 32.102 15.8176 32.2 14.0046 32.151C13.3676 34.111 12.7796 36.12 11.7996 37.933C11.1626 39.207 10.2806 40.481 9.05555 41.265ZM17.0916 17.745C15.6216 19.558 14.8866 21.861 14.4946 24.164C15.1806 24.115 18.9536 23.723 19.5906 23.625C19.4436 22.449 19.3946 21.224 19.2476 20.048C19.1496 19.068 18.9046 18.088 18.4636 17.255C18.3656 17.059 18.0226 17.059 17.8266 17.108C17.5326 17.206 17.2876 17.5 17.0916 17.745ZM52.6805 42.637C51.0145 42.735 49.2995 42.686 47.6335 42.441C45.3795 42.098 43.0765 41.216 41.4595 39.648C40.1365 38.374 39.3035 36.659 38.7645 34.895C38.1765 32.739 38.0295 30.436 38.0295 28.182C38.0295 23.821 38.5195 19.46 39.6955 15.295C40.0385 13.972 40.5285 12.698 41.2145 11.522C42.2925 9.66 43.8605 7.945 45.8205 6.965C47.4375 6.083 49.3975 5.985 51.2595 5.838C53.5135 5.691 55.8655 5.74 58.0705 6.132C59.7365 6.426 61.4025 7.014 62.7255 8.043C63.6565 8.778 64.4895 9.856 64.9305 10.983C65.6165 12.551 65.6655 14.413 65.2735 16.03C64.6855 18.431 63.1175 20.538 61.4025 22.253C64.0485 23.184 66.2535 25.83 66.9885 28.525C67.3805 29.995 67.4785 31.612 67.0865 33.082C66.5965 35.042 65.3715 36.708 64.0485 38.227C63.0685 39.305 61.9415 40.383 60.6185 41.02C58.2175 42.196 55.3755 42.441 52.6805 42.637ZM50.8185 18.97C52.1905 19.068 53.8075 18.823 54.9345 17.941C55.4245 17.598 55.8655 17.108 55.9635 16.52C56.1595 15.393 55.1795 14.168 54.1015 13.825C53.4645 13.629 52.7785 13.727 52.0925 13.727C51.2105 15.295 50.6715 17.157 50.8185 18.97ZM51.0635 34.307C52.8275 34.405 54.8855 33.964 56.2575 32.788C57.9725 31.318 56.7965 28.623 54.4935 28.329C53.3665 28.182 52.1905 28.182 51.0635 28.329C51.0635 28.378 51.0145 28.427 51.0145 28.427C50.8185 29.652 50.7205 30.926 50.7695 32.151C50.8185 32.886 50.8185 33.621 51.0635 34.307ZM87.8142 42.441C85.2172 42.686 82.5222 42.294 80.0722 41.461C77.1812 40.481 74.5842 38.227 72.9182 35.679C72.2322 34.601 71.5462 33.474 71.1542 32.249C70.1252 29.211 70.1252 25.879 70.4682 22.743C70.8602 19.215 72.4282 15.736 74.5352 12.796C76.0052 10.787 77.9162 8.925 80.1212 7.651C82.1302 6.426 84.5802 5.789 86.9322 5.789C89.2352 5.838 91.5382 6.23 93.6942 6.916C95.8502 7.651 97.7122 9.415 99.0352 11.277C100.064 12.698 100.75 14.462 101.142 16.226C101.73 18.725 101.877 21.273 101.828 23.821C101.73 27.692 100.701 31.71 98.6922 34.993C97.5162 37.051 95.8502 38.962 93.8412 40.236C92.0772 41.412 89.9702 42.196 87.8142 42.441ZM85.6092 30.485C87.2262 31.367 88.9902 30.093 89.8722 28.525C91.1462 26.369 91.5382 23.625 91.1462 21.175C90.9502 19.999 90.5582 18.823 89.8232 17.843C89.4312 17.304 88.7942 16.765 88.1082 16.618C87.4222 16.422 86.6382 16.618 86.0502 17.059C83.2572 18.921 82.4732 24.262 83.5022 27.447C83.8942 28.623 84.5312 29.897 85.6092 30.485ZM127.8 42.245C126.134 42.49 124.468 42.588 122.802 42.441C122.704 42.441 122.312 42.392 122.263 42.392C119.862 42.49 117.412 42.147 115.207 41.216C113.002 40.285 111.091 38.619 109.67 36.708C108.004 34.356 106.632 31.71 106.093 28.917C105.162 24.556 105.064 19.999 105.554 15.54C105.848 13.286 106.338 10.885 107.71 9.072C108.935 7.406 110.797 6.377 112.806 6.23C114.57 6.083 116.432 7.161 117.608 8.435C118.294 9.121 118.735 10.101 119.029 11.032C119.617 13.041 119.519 15.197 119.372 17.304C119.176 20.391 118.735 23.527 118.882 26.614C118.98 28.721 119.715 30.828 120.842 32.641C121.332 33.425 122.361 34.209 123.341 34.111C123.39 34.111 123.488 34.111 123.586 34.111C123.978 34.209 124.615 33.621 124.909 33.327C125.399 32.788 125.742 32.151 126.036 31.514C127.065 29.554 127.408 27.202 127.359 24.948C127.31 22.008 126.869 19.068 126.771 16.079C126.673 13.972 126.771 11.669 127.751 9.758C128.682 7.945 130.74 6.475 132.749 6.328C134.366 6.181 136.081 6.867 137.355 7.945C138.237 8.68 138.923 9.66 139.413 10.689C140.148 12.404 140.491 14.315 140.736 16.177C141.128 19.901 141.03 23.723 140.442 27.447C139.805 31.563 137.845 35.728 134.856 38.717C132.994 40.579 130.397 41.853 127.8 42.245ZM162.382 38.472C161.304 40.579 159.197 41.853 156.894 41.853C155.277 41.804 153.611 40.922 152.533 39.697C151.504 38.472 150.867 36.953 150.426 35.483C149.887 33.474 149.642 31.367 149.691 29.26C149.789 25.781 150.279 22.302 150.867 18.872C149.74 18.872 148.564 18.774 147.535 18.382C146.359 17.941 145.33 17.206 144.497 16.324C142.635 14.364 142.929 10.64 144.595 8.533C145.33 7.602 146.359 6.916 147.437 6.524C148.123 6.328 148.809 6.23 149.495 6.23C151.259 6.132 153.023 6.279 154.787 6.279C155.179 6.279 155.571 6.23 155.963 6.23C156.012 6.23 156.208 6.328 156.257 6.328C158.315 6.23 160.373 6.083 162.431 6.083C163.754 6.132 165.077 6.328 166.204 6.916C168.605 8.239 169.83 11.032 169.291 13.629C168.948 15.197 167.723 16.569 166.4 17.353C165.371 17.941 164.097 18.235 162.872 18.235C163.264 23.037 164.048 27.79 163.852 32.592C163.754 34.601 163.313 36.659 162.382 38.472Z" fill="#D724D6"/>
<path d="M9.05555 41.265L7.97743 39.5804L7.96905 39.5859L9.05555 41.265ZM6.31155 42.049V40.049H6.26396L6.21642 40.0513L6.31155 42.049ZM3.42055 41.167L4.68174 39.6148L4.67586 39.61L4.66994 39.6053L3.42055 41.167ZM1.26455 37.051L-0.719005 37.3069L1.26455 37.051ZM2.29355 27.937L0.359402 27.428L0.35626 27.44L0.353266 27.4519L2.29355 27.937ZM9.64355 12.257L11.2618 13.4323L11.2676 13.4243L9.64355 12.257ZM13.7106 7.945L12.4749 6.37236L12.4498 6.39209L12.4253 6.41261L13.7106 7.945ZM16.1116 6.671L16.5454 8.62337H16.5454L16.1116 6.671ZM20.1296 6.573L19.7654 8.53956L19.783 8.54283L19.8008 8.54578L20.1296 6.573ZM25.6666 9.366L27.049 7.92072L27.0283 7.90096L27.0071 7.88179L25.6666 9.366ZM30.9586 17.108L32.7475 16.2136L32.7411 16.2011L30.9586 17.108ZM34.0456 25.879L36.0002 25.4555L35.9951 25.432L35.9895 25.4087L34.0456 25.879ZM34.7316 34.895L36.7148 35.1537L36.7168 35.1384L36.7185 35.123L34.7316 34.895ZM31.0566 40.775L32.0787 42.4941L32.0978 42.4827L32.1166 42.471L31.0566 40.775ZM24.8826 41.755L24.3975 43.6953L24.4086 43.698L24.8826 41.755ZM22.7266 40.628L24.078 39.1537L24.064 39.1409L24.0498 39.1283L22.7266 40.628ZM20.8646 37.835L22.7028 37.0472L22.6966 37.0327L22.6902 37.0183L20.8646 37.835ZM19.4436 31.955L21.4382 31.809L21.2911 29.7986L19.2819 29.9615L19.4436 31.955ZM14.0046 32.151L14.0586 30.1517L12.5645 30.1113L12.1025 31.5328L14.0046 32.151ZM11.7996 37.933L10.0401 36.982L10.025 37.01L10.0107 37.0386L11.7996 37.933ZM17.0916 17.745L18.6451 19.0046L18.6533 18.9944L17.0916 17.745ZM14.4946 24.164L12.5229 23.8284L12.0953 26.3405L14.637 26.1589L14.4946 24.164ZM19.5906 23.625L19.8947 25.6017L21.8163 25.3061L21.5751 23.3769L19.5906 23.625ZM19.2476 20.048L17.2575 20.247L17.2599 20.2716L17.263 20.2961L19.2476 20.048ZM18.4636 17.255L16.6747 18.1494L16.6851 18.1702L16.696 18.1908L18.4636 17.255ZM17.8266 17.108L17.3415 15.1677L17.267 15.1863L17.1941 15.2106L17.8266 17.108ZM7.96905 39.5859C7.4995 39.8897 6.90731 40.049 6.31155 40.049V44.049C7.57779 44.049 8.9456 43.7183 10.1421 42.9441L7.96905 39.5859ZM6.21642 40.0513C5.59216 40.081 5.02139 39.8907 4.68174 39.6148L2.15937 42.7192C3.38771 43.7173 4.97294 44.115 6.40668 44.0467L6.21642 40.0513ZM4.66994 39.6053C3.94524 39.0255 3.39532 37.936 3.24811 36.7951L-0.719005 37.3069C-0.474221 39.204 0.445862 41.3485 2.17116 42.7287L4.66994 39.6053ZM3.24811 36.7951C2.91007 34.1753 3.49491 31.3778 4.23384 28.4221L0.353266 27.4519C-0.377804 30.3762 -1.16497 33.8507 -0.719005 37.3069L3.24811 36.7951ZM4.2277 28.446C5.63908 23.0828 8.03646 17.873 11.2618 13.4323L8.02534 11.0817C4.48865 15.951 1.88803 21.6192 0.359402 27.428L4.2277 28.446ZM11.2676 13.4243C12.2804 12.0151 13.5802 10.6646 14.9958 9.47738L12.4253 6.41261C10.8029 7.77339 9.26069 9.36289 8.01952 11.0897L11.2676 13.4243ZM14.9462 9.51764C15.5665 9.03029 16.1112 8.71987 16.5454 8.62337L15.6777 4.71863C14.3479 5.01413 13.2266 5.78171 12.4749 6.37236L14.9462 9.51764ZM16.5454 8.62337C17.6318 8.38194 18.7314 8.34809 19.7654 8.53956L20.4937 4.60643C18.8817 4.3079 17.2373 4.37205 15.6777 4.71863L16.5454 8.62337ZM19.8008 8.54578C21.4118 8.81429 23.0329 9.68228 24.326 10.8502L27.0071 7.88179C25.2622 6.30572 22.9634 5.01771 20.4584 4.60021L19.8008 8.54578ZM24.2841 10.8113C26.2805 12.7209 27.7728 15.2568 29.176 18.0149L32.7411 16.2011C31.3023 13.3732 29.5606 10.3231 27.049 7.92072L24.2841 10.8113ZM29.1697 18.0024C30.4547 20.5725 31.3902 23.4088 32.1016 26.3493L35.9895 25.4087C35.2309 22.2732 34.2064 19.1315 32.7474 16.2136L29.1697 18.0024ZM32.0909 26.3025C32.7067 29.1446 33.052 31.9884 32.7446 34.667L36.7185 35.123C37.0971 31.8236 36.6584 28.4934 36.0002 25.4555L32.0909 26.3025ZM32.7483 34.6363C32.5242 36.3549 31.4021 38.2005 29.9966 39.079L32.1166 42.471C34.631 40.8995 36.3509 37.9431 36.7148 35.1537L32.7483 34.6363ZM30.0344 39.0559C28.6441 39.8826 26.8265 40.1705 25.3565 39.812L24.4086 43.698C26.9566 44.3195 29.843 43.8234 32.0787 42.4941L30.0344 39.0559ZM25.3676 39.8147C24.861 39.6881 24.388 39.4379 24.078 39.1537L21.3751 42.1023C22.2411 42.8961 23.3361 43.4299 24.3975 43.6953L25.3676 39.8147ZM24.0498 39.1283C23.5401 38.6786 23.0952 37.9627 22.7028 37.0472L19.0263 38.6228C19.5159 39.7653 20.2471 41.1075 21.4033 42.1277L24.0498 39.1283ZM22.6902 37.0183C21.968 35.404 21.5714 33.6288 21.4382 31.809L17.4489 32.1009C17.6097 34.2992 18.0951 36.542 19.0389 38.6517L22.6902 37.0183ZM19.2819 29.9615C17.5 30.106 15.768 30.1979 14.0586 30.1517L13.9505 34.1503C15.8671 34.2021 17.7611 34.098 19.6052 33.9485L19.2819 29.9615ZM12.1025 31.5328C11.4359 33.5837 10.9112 35.3705 10.0401 36.982L13.559 38.884C14.6479 36.8695 15.2992 34.6383 15.9066 32.7692L12.1025 31.5328ZM10.0107 37.0386C9.44419 38.1716 8.76397 39.0771 7.97744 39.5805L10.1337 42.9495C11.7971 41.8849 12.8809 40.2424 13.5884 38.8274L10.0107 37.0386ZM15.538 16.4854C13.7593 18.6791 12.9416 21.3683 12.5229 23.8284L16.4662 24.4996C16.8315 22.3537 17.4838 20.4369 18.6451 19.0046L15.538 16.4854ZM14.637 26.1589C15.3557 26.1076 19.1863 25.7107 19.8947 25.6017L19.2864 21.6483C18.7208 21.7353 15.0054 22.1224 14.3521 22.1691L14.637 26.1589ZM21.5751 23.3769C21.5078 22.8388 21.462 22.2817 21.4124 21.6738C21.364 21.0812 21.3118 20.4378 21.2321 19.7999L17.263 20.2961C17.3303 20.8342 17.3761 21.3913 17.4257 21.9992C17.4741 22.5918 17.5263 23.2352 17.606 23.8731L21.5751 23.3769ZM21.2376 19.849C21.1217 18.6894 20.8253 17.4415 20.2311 16.3192L16.696 18.1908C16.9838 18.7345 17.1774 19.4466 17.2575 20.247L21.2376 19.849ZM20.2524 16.3606C19.7622 15.3801 18.8205 15.1631 18.4785 15.1118C18.0582 15.0487 17.6558 15.0891 17.3415 15.1677L18.3116 19.0483C18.1933 19.0779 18.0604 19.0938 17.8851 19.0675C17.7881 19.0529 17.067 18.9339 16.6747 18.1494L20.2524 16.3606ZM17.1941 15.2106C16.6543 15.3906 16.2701 15.7074 16.0448 15.9214C15.8129 16.1417 15.6275 16.3735 15.5298 16.4956L18.6533 18.9944C18.6989 18.9373 18.7306 18.8986 18.7585 18.8664C18.7717 18.8513 18.7817 18.8402 18.7891 18.8324C18.7966 18.8244 18.8 18.8211 18.7998 18.8214C18.7996 18.8216 18.794 18.8269 18.7832 18.8357C18.7724 18.8446 18.7543 18.8586 18.729 18.8756C18.6801 18.9084 18.5896 18.9618 18.459 19.0054L17.1941 15.2106ZM52.6805 42.637L52.7979 44.6335L52.8117 44.6327L52.8256 44.6317L52.6805 42.637ZM47.6335 42.441L47.3326 44.4183L47.3425 44.4197L47.6335 42.441ZM41.4595 39.648L42.8518 38.2122L42.8468 38.2074L41.4595 39.648ZM38.7645 34.895L36.835 35.4212L36.8429 35.4505L36.8518 35.4794L38.7645 34.895ZM39.6955 15.295L41.6202 15.8385L41.6261 15.8178L41.6315 15.7969L39.6955 15.295ZM41.2145 11.522L42.942 12.5297L42.9453 12.5241L41.2145 11.522ZM45.8205 6.965L46.7149 8.75385L46.7468 8.73789L46.7782 8.72079L45.8205 6.965ZM51.2595 5.838L51.1293 3.84224L51.1157 3.84313L51.1021 3.8442L51.2595 5.838ZM58.0705 6.132L57.7204 8.10112L57.7229 8.10156L58.0705 6.132ZM62.7255 8.043L63.9648 6.47323L63.9591 6.46874L63.9534 6.4643L62.7255 8.043ZM64.9305 10.983L63.068 11.7118L63.0824 11.7485L63.0982 11.7846L64.9305 10.983ZM65.2735 16.03L67.2161 16.5057L67.2172 16.5012L65.2735 16.03ZM61.4025 22.253L59.9883 20.8388L57.7419 23.0852L60.7387 24.1396L61.4025 22.253ZM66.9885 28.525L68.921 28.0097L68.918 27.9988L66.9885 28.525ZM67.0865 33.082L65.154 32.5667L65.15 32.5818L65.1462 32.5969L67.0865 33.082ZM64.0485 38.227L65.5284 39.5723L65.5427 39.5566L65.5566 39.5406L64.0485 38.227ZM60.6185 41.02L59.7508 39.218L59.7387 39.2239L60.6185 41.02ZM50.8185 18.97L48.825 19.1316L48.9638 20.8426L50.676 20.9649L50.8185 18.97ZM54.9345 17.941L53.7876 16.3025L53.7439 16.3331L53.7019 16.366L54.9345 17.941ZM55.9635 16.52L53.993 16.1773L53.9907 16.1912L55.9635 16.52ZM54.1015 13.825L54.7079 11.9191L54.6988 11.9163L54.6897 11.9134L54.1015 13.825ZM52.0925 13.727V11.727H50.9228L50.3493 12.7465L52.0925 13.727ZM51.0635 34.307L49.18 34.9797L49.6266 36.2303L50.9525 36.3039L51.0635 34.307ZM56.2575 32.788L54.9559 31.2695L56.2575 32.788ZM54.4935 28.329L54.2348 30.3122L54.2402 30.3129L54.4935 28.329ZM51.0635 28.329L50.8048 26.3458L49.0635 26.5729V28.329H51.0635ZM51.0145 28.427L49.6003 27.0128L49.142 27.4711L49.0396 28.111L51.0145 28.427ZM50.7695 32.151L48.7711 32.2309L48.7721 32.2575L48.7739 32.284L50.7695 32.151ZM52.563 40.6404C51.0129 40.7316 49.4363 40.6846 47.9245 40.4623L47.3425 44.4197C49.1626 44.6874 51.0161 44.7384 52.7979 44.6335L52.563 40.6404ZM47.9344 40.4638C45.9378 40.1599 44.0751 39.3984 42.8518 38.2122L40.0672 41.0838C42.0779 43.0336 44.8211 44.0361 47.3326 44.4182L47.9344 40.4638ZM42.8468 38.2074C41.8602 37.2573 41.1619 35.8968 40.6772 34.3106L36.8518 35.4794C37.4451 37.4212 38.4128 39.4907 40.0722 41.0886L42.8468 38.2074ZM40.694 34.3688C40.1746 32.4644 40.0295 30.3668 40.0295 28.182H36.0295C36.0295 30.5052 36.1783 33.0136 36.835 35.4212L40.694 34.3688ZM40.0295 28.182C40.0295 23.9674 40.5034 19.794 41.6202 15.8385L37.7707 14.7515C36.5356 19.126 36.0295 23.6746 36.0295 28.182H40.0295ZM41.6315 15.7969C41.937 14.6185 42.364 13.5207 42.942 12.5297L39.4869 10.5143C38.693 11.8753 38.14 13.3255 37.7595 14.7931L41.6315 15.7969ZM42.9453 12.5241C43.8845 10.9019 45.1942 9.51421 46.7149 8.75385L44.9261 5.17614C42.5268 6.37579 40.7005 8.41809 39.4836 10.5199L42.9453 12.5241ZM46.7782 8.72079C47.9372 8.0886 49.3972 7.99124 51.4169 7.83179L51.1021 3.8442C49.3978 3.97875 46.9378 4.0774 44.8628 5.20921L46.7782 8.72079ZM51.3896 7.83376C53.5349 7.69385 55.7179 7.74512 57.7204 8.10112L58.4205 4.16287C56.0131 3.73488 53.4921 3.68814 51.1293 3.84224L51.3896 7.83376ZM57.7229 8.10156C59.1892 8.36033 60.514 8.8567 61.4976 9.6217L63.9534 6.4643C62.2909 5.1713 60.2837 4.49167 58.4181 4.16243L57.7229 8.10156ZM61.4862 9.61277C62.1598 10.1445 62.7659 10.9398 63.068 11.7118L66.793 10.2542C66.213 8.77215 65.1532 7.41146 63.9648 6.47323L61.4862 9.61277ZM63.0982 11.7846C63.5759 12.8766 63.64 14.2793 63.3298 15.5588L67.2172 16.5012C67.691 14.5467 67.6571 12.2254 66.7628 10.1814L63.0982 11.7846ZM63.3309 15.5543C62.868 17.4443 61.5882 19.2389 59.9883 20.8388L62.8167 23.6672C64.6468 21.8371 66.5029 19.4177 67.2161 16.5057L63.3309 15.5543ZM60.7387 24.1396C62.6787 24.8222 64.4713 26.8964 65.059 29.0512L68.918 27.9988C68.0357 24.7636 65.4183 21.5458 62.0663 20.3664L60.7387 24.1396ZM65.056 29.0403C65.3819 30.2623 65.4348 31.5139 65.154 32.5667L69.019 33.5973C69.5222 31.7101 69.3791 29.7277 68.921 28.0097L65.056 29.0403ZM65.1462 32.5969C64.7764 34.076 63.8202 35.444 62.5403 36.9134L65.5566 39.5406C66.9228 37.972 68.4165 36.008 69.0268 33.5671L65.1462 32.5969ZM62.5686 36.8817C61.627 37.9174 60.7126 38.7549 59.7509 39.218L61.4861 42.822C63.1703 42.0111 64.51 40.6926 65.5284 39.5723L62.5686 36.8817ZM59.7387 39.2239C57.7398 40.203 55.287 40.4422 52.5354 40.6423L52.8256 44.6317C55.464 44.4398 58.6952 44.189 61.4982 42.8161L59.7387 39.2239ZM50.676 20.9649C52.299 21.0808 54.4926 20.8265 56.1671 19.516L53.7019 16.366C53.1224 16.8195 52.082 17.0552 50.961 16.9751L50.676 20.9649ZM56.0814 19.5795C56.7667 19.0998 57.7107 18.2023 57.9363 16.8488L53.9907 16.1912C54.0076 16.0899 54.0432 16.0607 54.0107 16.103C53.9957 16.1225 53.9699 16.1519 53.9304 16.1885C53.891 16.2249 53.8431 16.2637 53.7876 16.3025L56.0814 19.5795ZM57.9339 16.8627C58.1503 15.6184 57.7007 14.4925 57.1295 13.7046C56.5552 12.9125 55.7027 12.2357 54.7079 11.9191L53.4951 15.7308C53.525 15.7404 53.5899 15.7685 53.6731 15.8311C53.7552 15.8928 53.8315 15.9704 53.891 16.0524C54.0302 16.2445 53.9727 16.2946 53.9931 16.1773L57.9339 16.8627ZM54.6897 11.9134C54.0949 11.7304 53.5359 11.7025 53.1154 11.7025C52.9049 11.7025 52.6986 11.7101 52.5345 11.716C52.3581 11.7224 52.2223 11.727 52.0925 11.727V15.727C52.3057 15.727 52.5128 15.7194 52.6779 15.7135C52.8553 15.7071 52.989 15.7025 53.1154 15.7025C53.3685 15.7025 53.4711 15.7236 53.5133 15.7366L54.6897 11.9134ZM50.3493 12.7465C49.3212 14.5743 48.6386 16.832 48.825 19.1316L52.8119 18.8084C52.7044 17.482 53.0998 16.0157 53.8356 14.7075L50.3493 12.7465ZM50.9525 36.3039C53.038 36.4198 55.6696 35.926 57.5591 34.3065L54.9559 31.2695C54.1013 32.002 52.617 32.3902 51.1744 32.3101L50.9525 36.3039ZM57.5591 34.3065C59.1555 32.9381 59.3838 30.943 58.7321 29.3573C58.0999 27.8189 56.6342 26.5861 54.7467 26.3451L54.2402 30.3129C54.6557 30.3659 54.9296 30.6276 55.0324 30.8777C55.081 30.9962 55.0771 31.0762 55.0698 31.1115C55.0658 31.1312 55.0544 31.185 54.9559 31.2695L57.5591 34.3065ZM54.7522 26.3458C53.4534 26.1764 52.1035 26.1764 50.8048 26.3458L51.3222 30.3122C52.2774 30.1876 53.2795 30.1876 54.2348 30.3122L54.7522 26.3458ZM49.0635 28.329C49.0635 28.0153 49.1397 27.77 49.1989 27.6222C49.2596 27.4703 49.3283 27.3569 49.3749 27.287C49.4236 27.2138 49.4695 27.1568 49.5036 27.117C49.5216 27.096 49.5387 27.0771 49.5545 27.0602C49.5624 27.0516 49.5702 27.0434 49.5778 27.0356C49.5816 27.0317 49.5854 27.0278 49.5891 27.024C49.591 27.0221 49.5929 27.0202 49.5947 27.0184C49.5956 27.0174 49.5966 27.0165 49.5975 27.0156C49.598 27.0151 49.5984 27.0146 49.5989 27.0142C49.5991 27.0139 49.5995 27.0136 49.5996 27.0135C49.5999 27.0131 49.6003 27.0128 51.0145 28.427C52.4287 29.8412 52.429 29.8409 52.4294 29.8405C52.4295 29.8404 52.4298 29.8401 52.4301 29.8398C52.4305 29.8394 52.431 29.8389 52.4315 29.8384C52.4324 29.8375 52.4334 29.8365 52.4343 29.8356C52.4362 29.8337 52.4381 29.8317 52.4401 29.8297C52.444 29.8257 52.4481 29.8216 52.4522 29.8173C52.4605 29.8087 52.4694 29.7994 52.4787 29.7894C52.4972 29.7696 52.5181 29.7465 52.5406 29.7202C52.584 29.6696 52.6421 29.5973 52.7031 29.5058C52.7817 29.3878 53.0635 28.9547 53.0635 28.329H49.0635ZM49.0396 28.111C48.8267 29.4415 48.7158 30.8501 48.7711 32.2309L52.7679 32.0711C52.7251 31.0019 52.8102 29.8625 52.9894 28.743L49.0396 28.111ZM48.7739 32.284C48.8098 32.8226 48.8142 33.9554 49.18 34.9797L52.947 33.6343C52.8228 33.2866 52.8271 32.9494 52.7651 32.018L48.7739 32.284ZM87.8142 42.441L88.0021 44.4322L88.0211 44.4304L88.0401 44.4282L87.8142 42.441ZM80.0722 41.461L80.716 39.5675L80.7143 39.5669L80.0722 41.461ZM72.9182 35.679L71.2309 36.7528L71.2375 36.7632L71.2443 36.7735L72.9182 35.679ZM71.1542 32.249L73.0591 31.6394L73.0539 31.6234L73.0485 31.6074L71.1542 32.249ZM70.4682 22.743L68.4805 22.5221L68.4801 22.5255L70.4682 22.743ZM74.5352 12.796L72.9212 11.615L72.9154 11.6229L72.9096 11.631L74.5352 12.796ZM80.1212 7.651L81.1218 9.38273L81.1423 9.3709L81.1625 9.35859L80.1212 7.651ZM86.9322 5.789L86.9748 3.78945L86.9535 3.789H86.9322V5.789ZM93.6942 6.916L94.3396 5.02298L94.3202 5.01636L94.3007 5.01015L93.6942 6.916ZM99.0352 11.277L97.4049 12.4354L97.4101 12.4427L97.4154 12.45L99.0352 11.277ZM101.142 16.226L99.1899 16.6599L99.1926 16.672L99.1954 16.6841L101.142 16.226ZM101.828 23.821L103.828 23.8716L103.828 23.8595L101.828 23.821ZM98.6922 34.993L96.9863 33.9491L96.9706 33.9747L96.9558 34.0007L98.6922 34.993ZM93.8412 40.236L92.7702 38.547L92.7509 38.5592L92.7318 38.5719L93.8412 40.236ZM85.6092 30.485L86.567 28.7292H86.5669L85.6092 30.485ZM89.8722 28.525L88.1504 27.5075L88.1395 27.5259L88.1291 27.5445L89.8722 28.525ZM91.1462 21.175L93.1212 20.859L93.119 20.8462L91.1462 21.175ZM89.8232 17.843L88.2058 19.0193L88.2144 19.0312L88.2232 19.043L89.8232 17.843ZM88.1082 16.618L87.5588 18.541L87.6235 18.5595L87.6892 18.5736L88.1082 16.618ZM86.0502 17.059L87.1596 18.7231L87.2058 18.6923L87.2503 18.659L86.0502 17.059ZM83.5022 27.447L81.5991 28.0619L81.602 28.0707L81.6049 28.0795L83.5022 27.447ZM87.6264 40.4498C85.3468 40.6649 82.9358 40.3222 80.716 39.5675L79.4284 43.3545C82.1087 44.2658 85.0877 44.7071 88.0021 44.4322L87.6264 40.4498ZM80.7143 39.5669C78.3237 38.7565 76.0617 36.832 74.5922 34.5845L71.2443 36.7735C73.1068 39.622 76.0388 42.2055 79.4302 43.3551L80.7143 39.5669ZM74.6056 34.6052C73.9153 33.5205 73.3633 32.5901 73.0591 31.6394L69.2494 32.8586C69.7292 34.3579 70.5492 35.6815 71.2309 36.7528L74.6056 34.6052ZM73.0485 31.6074C72.1555 28.9708 72.1266 25.976 72.4564 22.9605L68.4801 22.5255C68.1239 25.782 68.095 29.4512 69.26 32.8906L73.0485 31.6074ZM72.456 22.9639C72.8013 19.8566 74.2005 16.6964 76.1609 13.961L72.9096 11.631C70.656 14.7756 68.9192 18.5734 68.4805 22.5221L72.456 22.9639ZM76.1493 13.977C77.4892 12.1459 79.2025 10.4916 81.1218 9.38273L79.1207 5.91927C76.63 7.35835 74.5213 9.42814 72.9212 11.615L76.1493 13.977ZM81.1625 9.35859C82.8341 8.3393 84.9188 7.789 86.9322 7.789V3.789C84.2417 3.789 81.4264 4.5127 79.08 5.94341L81.1625 9.35859ZM86.8897 7.78855C88.9976 7.83339 91.1108 8.1928 93.0878 8.82185L94.3007 5.01015C91.9657 4.2672 89.4729 3.8426 86.9748 3.78945L86.8897 7.78855ZM93.0489 8.80902C94.655 9.35656 96.2111 10.7553 97.4049 12.4354L100.666 10.1186C99.2134 8.07471 97.0455 5.94543 94.3396 5.02298L93.0489 8.80902ZM97.4154 12.45C98.242 13.5915 98.8391 15.0816 99.1899 16.6599L103.095 15.7921C102.661 13.8424 101.887 11.8045 100.655 10.104L97.4154 12.45ZM99.1954 16.6841C99.7318 18.9636 99.8758 21.331 99.8286 23.7825L103.828 23.8595C103.879 21.215 103.729 18.4863 103.089 15.7679L99.1954 16.6841ZM99.8289 23.7704C99.7384 27.3464 98.7848 31.0102 96.9863 33.9491L100.398 36.0369C102.618 32.4098 103.722 28.0376 103.828 23.8716L99.8289 23.7704ZM96.9558 34.0007C95.9078 35.8346 94.4518 37.4806 92.7702 38.547L94.9123 41.925C97.2487 40.4434 99.1247 38.2674 100.429 35.9853L96.9558 34.0007ZM92.7318 38.5719C91.2289 39.5739 89.4241 40.2452 87.5884 40.4538L88.0401 44.4282C90.5164 44.1468 92.9256 43.2501 94.9506 41.9001L92.7318 38.5719ZM84.6515 32.2408C86.1853 33.0774 87.7603 32.8309 88.962 32.1861C90.115 31.5674 91.0279 30.5499 91.6154 29.5055L88.1291 27.5445C87.8345 28.0681 87.4245 28.4716 87.0707 28.6614C86.7657 28.8251 86.6502 28.7746 86.567 28.7292L84.6515 32.2408ZM91.5941 29.5425C93.1387 26.9285 93.5757 23.7001 93.1211 20.859L89.1714 21.491C89.5008 23.5499 89.1538 25.8095 88.1504 27.5075L91.5941 29.5425ZM93.119 20.8462C92.8903 19.4738 92.4121 17.9614 91.4232 16.643L88.2232 19.043C88.7044 19.6846 89.0102 20.5242 89.1735 21.5038L93.119 20.8462ZM91.4407 16.6667C90.8811 15.8972 89.8656 14.9492 88.5273 14.6624L87.6892 18.5736C87.6774 18.5711 87.7466 18.5864 87.876 18.6835C88.0005 18.7769 88.1195 18.9007 88.2058 19.0193L91.4407 16.6667ZM88.6577 14.695C87.2658 14.2973 85.8451 14.7129 84.8503 15.459L87.2503 18.659C87.3219 18.6053 87.4058 18.5678 87.4799 18.5512C87.5536 18.5347 87.5784 18.5466 87.5588 18.541L88.6577 14.695ZM84.9408 15.3949C82.9185 16.7431 81.8519 19.1452 81.3864 21.3424C80.9116 23.5836 80.958 26.0774 81.5991 28.0619L85.4054 26.8321C85.0175 25.6316 84.9414 23.8624 85.2996 22.1714C85.6671 20.4363 86.389 19.2369 87.1596 18.7231L84.9408 15.3949ZM81.6049 28.0795C82.0201 29.325 82.8576 31.2623 84.6515 32.2408L86.5669 28.7292C86.2049 28.5317 85.7684 27.921 85.3996 26.8145L81.6049 28.0795ZM127.8 42.245L128.091 44.2237L128.098 44.2226L127.8 42.245ZM122.802 42.441L122.978 40.4487L122.89 40.441H122.802V42.441ZM122.263 42.392V40.392H122.222L122.181 40.3937L122.263 42.392ZM115.207 41.216L114.429 43.0585L115.207 41.216ZM109.67 36.708L108.038 37.864L108.051 37.8829L108.065 37.9014L109.67 36.708ZM106.093 28.917L108.057 28.538L108.053 28.5187L108.049 28.4994L106.093 28.917ZM105.554 15.54L103.571 15.2813L103.568 15.3014L103.566 15.3215L105.554 15.54ZM107.71 9.072L109.305 10.2789L109.313 10.2679L109.321 10.2568L107.71 9.072ZM112.806 6.23L112.952 8.22467L112.962 8.22393L112.972 8.22309L112.806 6.23ZM117.608 8.435L116.138 9.79156L116.165 9.82094L116.194 9.84921L117.608 8.435ZM119.029 11.032L120.948 10.4702L120.942 10.4499L120.936 10.4297L119.029 11.032ZM119.372 17.304L117.377 17.1648L117.376 17.1773L119.372 17.304ZM118.882 26.614L120.88 26.5211L120.88 26.5189L118.882 26.614ZM120.842 32.641L119.143 33.6969L119.146 33.701L120.842 32.641ZM123.341 34.111V32.111H123.241L123.142 32.1209L123.341 34.111ZM123.586 34.111L124.071 32.1707L123.832 32.111H123.586V34.111ZM124.909 33.327L126.323 34.7412L126.357 34.7076L126.389 34.6723L124.909 33.327ZM126.036 31.514L124.265 30.5843L124.241 30.6295L124.22 30.6759L126.036 31.514ZM127.359 24.948L125.359 24.9813L125.359 24.9915L127.359 24.948ZM126.771 16.079L128.77 16.0135L128.769 15.9998L128.769 15.9861L126.771 16.079ZM127.751 9.758L125.972 8.84439L125.971 8.84536L127.751 9.758ZM132.749 6.328L132.895 8.32267L132.912 8.32138L132.93 8.31978L132.749 6.328ZM137.355 7.945L136.063 9.47177L136.069 9.47663L136.074 9.48144L137.355 7.945ZM139.413 10.689L141.251 9.90116L141.235 9.86482L141.219 9.82913L139.413 10.689ZM140.736 16.177L142.725 15.9676L142.722 15.9418L142.719 15.9161L140.736 16.177ZM140.442 27.447L138.466 27.1351L138.465 27.1411L140.442 27.447ZM134.856 38.717L133.442 37.3028L134.856 38.717ZM127.509 40.2663C125.955 40.4948 124.45 40.5787 122.978 40.4487L122.626 44.4333C124.485 44.5973 126.313 44.4852 128.091 44.2237L127.509 40.2663ZM122.802 40.441C122.834 40.441 122.858 40.4419 122.867 40.4423C122.878 40.4428 122.884 40.4432 122.885 40.4433C122.886 40.4433 122.879 40.4429 122.861 40.4413C122.827 40.4382 122.78 40.4335 122.723 40.4275C122.674 40.4223 122.606 40.4149 122.556 40.4099C122.53 40.4073 122.498 40.4041 122.467 40.4014C122.452 40.4001 122.429 40.3983 122.404 40.3967C122.388 40.3956 122.332 40.392 122.263 40.392V44.392C122.2 44.392 122.153 44.3888 122.148 44.3884C122.14 44.3879 122.134 44.3875 122.131 44.3873C122.128 44.387 122.125 44.3868 122.125 44.3868C122.125 44.3868 122.132 44.3874 122.152 44.3894C122.192 44.3936 122.237 44.3984 122.305 44.4055C122.364 44.4118 122.437 44.4193 122.505 44.4254C122.539 44.4284 122.579 44.4318 122.62 44.4345C122.653 44.4367 122.722 44.441 122.802 44.441V40.441ZM122.181 40.3937C120.015 40.4821 117.868 40.1687 115.985 39.3735L114.429 43.0585C116.956 44.1253 119.709 44.4979 122.344 44.3903L122.181 40.3937ZM115.985 39.3735C114.173 38.6085 112.529 37.2014 111.275 35.5146L108.065 37.9014C109.653 40.0366 111.831 41.9615 114.429 43.0585L115.985 39.3735ZM111.302 35.552C109.733 33.337 108.523 30.9556 108.057 28.538L104.129 29.296C104.74 32.4644 106.275 35.375 108.038 37.864L111.302 35.552ZM108.049 28.4994C107.17 24.385 107.071 20.0471 107.542 15.7585L103.566 15.3215C103.057 19.9509 103.153 24.727 104.137 29.3346L108.049 28.4994ZM107.537 15.7987C107.828 13.5689 108.276 11.6384 109.305 10.2789L106.115 7.86511C104.4 10.1316 103.868 13.0031 103.571 15.2813L107.537 15.7987ZM109.321 10.2568C110.204 9.05542 111.534 8.32838 112.952 8.22467L112.66 4.23533C110.059 4.42561 107.665 5.75658 106.098 7.88722L109.321 10.2568ZM112.972 8.22309C113.889 8.1467 115.191 8.76501 116.138 9.79156L119.077 7.07844C117.673 5.55699 115.251 4.01929 112.64 4.23691L112.972 8.22309ZM116.194 9.84921C116.542 10.1978 116.863 10.8146 117.122 11.6343L120.936 10.4297C120.607 9.38735 120.045 8.04422 119.022 7.02079L116.194 9.84921ZM117.109 11.5938C117.584 13.2163 117.525 15.0358 117.377 17.1648L121.367 17.4432C121.512 15.3582 121.649 12.8657 120.948 10.4702L117.109 11.5938ZM117.376 17.1773C117.193 20.0535 116.73 23.4772 116.884 26.7091L120.88 26.5189C120.739 23.5768 121.158 20.7285 121.368 17.4307L117.376 17.1773ZM116.884 26.7069C117 29.2046 117.864 31.6388 119.143 33.6969L122.54 31.5851C121.566 30.0172 120.959 28.2374 120.88 26.5211L116.884 26.7069ZM119.146 33.701C119.549 34.3466 120.141 34.9516 120.831 35.3921C121.51 35.8263 122.461 36.209 123.54 36.1011L123.142 32.1209C123.241 32.111 123.187 32.1507 122.984 32.0214C122.792 31.8984 122.624 31.7194 122.538 31.581L119.146 33.701ZM123.341 36.111C123.341 36.111 123.341 36.111 123.341 36.111C123.341 36.111 123.341 36.111 123.341 36.111C123.341 36.111 123.342 36.111 123.342 36.111C123.342 36.111 123.342 36.111 123.342 36.111C123.342 36.111 123.342 36.111 123.342 36.111C123.342 36.111 123.342 36.111 123.343 36.111C123.343 36.111 123.343 36.111 123.343 36.111C123.343 36.111 123.343 36.111 123.343 36.111C123.343 36.111 123.343 36.111 123.343 36.111C123.344 36.111 123.344 36.111 123.344 36.111C123.344 36.111 123.344 36.111 123.344 36.111C123.344 36.111 123.344 36.111 123.344 36.111C123.344 36.111 123.345 36.111 123.345 36.111C123.345 36.111 123.345 36.111 123.345 36.111C123.345 36.111 123.345 36.111 123.345 36.111C123.345 36.111 123.345 36.111 123.346 36.111C123.346 36.111 123.346 36.111 123.346 36.111C123.346 36.111 123.346 36.111 123.346 36.111C123.346 36.111 123.346 36.111 123.346 36.111C123.347 36.111 123.347 36.111 123.347 36.111C123.347 36.111 123.347 36.111 123.347 36.111C123.347 36.111 123.347 36.111 123.347 36.111C123.347 36.111 123.348 36.111 123.348 36.111C123.348 36.111 123.348 36.111 123.348 36.111C123.348 36.111 123.348 36.111 123.348 36.111C123.348 36.111 123.349 36.111 123.349 36.111C123.349 36.111 123.349 36.111 123.349 36.111C123.349 36.111 123.349 36.111 123.349 36.111C123.349 36.111 123.349 36.111 123.35 36.111C123.35 36.111 123.35 36.111 123.35 36.111C123.35 36.111 123.35 36.111 123.35 36.111C123.35 36.111 123.35 36.111 123.351 36.111C123.351 36.111 123.351 36.111 123.351 36.111C123.351 36.111 123.351 36.111 123.351 36.111C123.351 36.111 123.351 36.111 123.352 36.111C123.352 36.111 123.352 36.111 123.352 36.111C123.352 36.111 123.352 36.111 123.352 36.111C123.352 36.111 123.352 36.111 123.352 36.111C123.353 36.111 123.353 36.111 123.353 36.111C123.353 36.111 123.353 36.111 123.353 36.111C123.353 36.111 123.353 36.111 123.353 36.111C123.354 36.111 123.354 36.111 123.354 36.111C123.354 36.111 123.354 36.111 123.354 36.111C123.354 36.111 123.354 36.111 123.354 36.111C123.355 36.111 123.355 36.111 123.355 36.111C123.355 36.111 123.355 36.111 123.355 36.111C123.355 36.111 123.355 36.111 123.355 36.111C123.356 36.111 123.356 36.111 123.356 36.111C123.356 36.111 123.356 36.111 123.356 36.111C123.356 36.111 123.356 36.111 123.356 36.111C123.357 36.111 123.357 36.111 123.357 36.111C123.357 36.111 123.357 36.111 123.357 36.111C123.357 36.111 123.357 36.111 123.358 36.111C123.358 36.111 123.358 36.111 123.358 36.111C123.358 36.111 123.358 36.111 123.358 36.111C123.358 36.111 123.358 36.111 123.359 36.111C123.359 36.111 123.359 36.111 123.359 36.111C123.359 36.111 123.359 36.111 123.359 36.111C123.359 36.111 123.359 36.111 123.36 36.111C123.36 36.111 123.36 36.111 123.36 36.111C123.36 36.111 123.36 36.111 123.36 36.111C123.36 36.111 123.361 36.111 123.361 36.111C123.361 36.111 123.361 36.111 123.361 36.111C123.361 36.111 123.361 36.111 123.361 36.111C123.361 36.111 123.362 36.111 123.362 36.111C123.362 36.111 123.362 36.111 123.362 36.111C123.362 36.111 123.362 36.111 123.362 36.111C123.363 36.111 123.363 36.111 123.363 36.111C123.363 36.111 123.363 36.111 123.363 36.111C123.363 36.111 123.363 36.111 123.363 36.111C123.364 36.111 123.364 36.111 123.364 36.111C123.364 36.111 123.364 36.111 123.364 36.111C123.364 36.111 123.364 36.111 123.365 36.111C123.365 36.111 123.365 36.111 123.365 36.111C123.365 36.111 123.365 36.111 123.365 36.111C123.365 36.111 123.366 36.111 123.366 36.111C123.366 36.111 123.366 36.111 123.366 36.111C123.366 36.111 123.366 36.111 123.366 36.111C123.367 36.111 123.367 36.111 123.367 36.111C123.367 36.111 123.367 36.111 123.367 36.111C123.367 36.111 123.367 36.111 123.368 36.111C123.368 36.111 123.368 36.111 123.368 36.111C123.368 36.111 123.368 36.111 123.368 36.111C123.368 36.111 123.369 36.111 123.369 36.111C123.369 36.111 123.369 36.111 123.369 36.111C123.369 36.111 123.369 36.111 123.369 36.111C123.37 36.111 123.37 36.111 123.37 36.111C123.37 36.111 123.37 36.111 123.37 36.111C123.37 36.111 123.37 36.111 123.371 36.111C123.371 36.111 123.371 36.111 123.371 36.111C123.371 36.111 123.371 36.111 123.371 36.111C123.371 36.111 123.372 36.111 123.372 36.111C123.372 36.111 123.372 36.111 123.372 36.111C123.372 36.111 123.372 36.111 123.372 36.111C123.373 36.111 123.373 36.111 123.373 36.111C123.373 36.111 123.373 36.111 123.373 36.111C123.373 36.111 123.373 36.111 123.374 36.111C123.374 36.111 123.374 36.111 123.374 36.111C123.374 36.111 123.374 36.111 123.374 36.111C123.374 36.111 123.375 36.111 123.375 36.111C123.375 36.111 123.375 36.111 123.375 36.111C123.375 36.111 123.375 36.111 123.376 36.111C123.376 36.111 123.376 36.111 123.376 36.111C123.376 36.111 123.376 36.111 123.376 36.111C123.376 36.111 123.377 36.111 123.377 36.111C123.377 36.111 123.377 36.111 123.377 36.111C123.377 36.111 123.377 36.111 123.377 36.111C123.378 36.111 123.378 36.111 123.378 36.111C123.378 36.111 123.378 36.111 123.378 36.111C123.378 36.111 123.379 36.111 123.379 36.111C123.379 36.111 123.379 36.111 123.379 36.111C123.379 36.111 123.379 36.111 123.379 36.111C123.38 36.111 123.38 36.111 123.38 36.111C123.38 36.111 123.38 36.111 123.38 36.111C123.38 36.111 123.381 36.111 123.381 36.111C123.381 36.111 123.381 36.111 123.381 36.111C123.381 36.111 123.381 36.111 123.381 36.111C123.382 36.111 123.382 36.111 123.382 36.111C123.382 36.111 123.382 36.111 123.382 36.111C123.382 36.111 123.383 36.111 123.383 36.111C123.383 36.111 123.383 36.111 123.383 36.111C123.383 36.111 123.383 36.111 123.383 36.111C123.384 36.111 123.384 36.111 123.384 36.111C123.384 36.111 123.384 36.111 123.384 36.111C123.384 36.111 123.385 36.111 123.385 36.111C123.385 36.111 123.385 36.111 123.385 36.111C123.385 36.111 123.385 36.111 123.386 36.111C123.386 36.111 123.386 36.111 123.386 36.111C123.386 36.111 123.386 36.111 123.386 36.111C123.386 36.111 123.387 36.111 123.387 36.111C123.387 36.111 123.387 36.111 123.387 36.111C123.387 36.111 123.387 36.111 123.388 36.111C123.388 36.111 123.388 36.111 123.388 36.111C123.388 36.111 123.388 36.111 123.388 36.111C123.389 36.111 123.389 36.111 123.389 36.111C123.389 36.111 123.389 36.111 123.389 36.111C123.389 36.111 123.39 36.111 123.39 36.111C123.39 36.111 123.39 36.111 123.39 36.111C123.39 36.111 123.39 36.111 123.391 36.111C123.391 36.111 123.391 36.111 123.391 36.111C123.391 36.111 123.391 36.111 123.391 36.111C123.392 36.111 123.392 36.111 123.392 36.111C123.392 36.111 123.392 36.111 123.392 36.111C123.392 36.111 123.393 36.111 123.393 36.111C123.393 36.111 123.393 36.111 123.393 36.111C123.393 36.111 123.393 36.111 123.394 36.111C123.394 36.111 123.394 36.111 123.394 36.111C123.394 36.111 123.394 36.111 123.394 36.111C123.395 36.111 123.395 36.111 123.395 36.111C123.395 36.111 123.395 36.111 123.395 36.111C123.395 36.111 123.396 36.111 123.396 36.111C123.396 36.111 123.396 36.111 123.396 36.111C123.396 36.111 123.396 36.111 123.397 36.111C123.397 36.111 123.397 36.111 123.397 36.111C123.397 36.111 123.397 36.111 123.397 36.111C123.398 36.111 123.398 36.111 123.398 36.111C123.398 36.111 123.398 36.111 123.398 36.111C123.398 36.111 123.399 36.111 123.399 36.111C123.399 36.111 123.399 36.111 123.399 36.111C123.399 36.111 123.399 36.111 123.4 36.111C123.4 36.111 123.4 36.111 123.4 36.111C123.4 36.111 123.4 36.111 123.4 36.111C123.401 36.111 123.401 36.111 123.401 36.111C123.401 36.111 123.401 36.111 123.401 36.111C123.401 36.111 123.402 36.111 123.402 36.111C123.402 36.111 123.402 36.111 123.402 36.111C123.402 36.111 123.403 36.111 123.403 36.111C123.403 36.111 123.403 36.111 123.403 36.111C123.403 36.111 123.403 36.111 123.404 36.111C123.404 36.111 123.404 36.111 123.404 36.111C123.404 36.111 123.404 36.111 123.404 36.111C123.405 36.111 123.405 36.111 123.405 36.111C123.405 36.111 123.405 36.111 123.405 36.111C123.405 36.111 123.406 36.111 123.406 36.111C123.406 36.111 123.406 36.111 123.406 36.111C123.406 36.111 123.407 36.111 123.407 36.111C123.407 36.111 123.407 36.111 123.407 36.111C123.407 36.111 123.407 36.111 123.408 36.111C123.408 36.111 123.408 36.111 123.408 36.111C123.408 36.111 123.408 36.111 123.409 36.111C123.409 36.111 123.409 36.111 123.409 36.111C123.409 36.111 123.409 36.111 123.409 36.111C123.41 36.111 123.41 36.111 123.41 36.111C123.41 36.111 123.41 36.111 123.41 36.111C123.41 36.111 123.411 36.111 123.411 36.111C123.411 36.111 123.411 36.111 123.411 36.111C123.411 36.111 123.412 36.111 123.412 36.111C123.412 36.111 123.412 36.111 123.412 36.111C123.412 36.111 123.412 36.111 123.413 36.111C123.413 36.111 123.413 36.111 123.413 36.111C123.413 36.111 123.413 36.111 123.414 36.111C123.414 36.111 123.414 36.111 123.414 36.111C123.414 36.111 123.414 36.111 123.414 36.111C123.415 36.111 123.415 36.111 123.415 36.111C123.415 36.111 123.415 36.111 123.415 36.111C123.416 36.111 123.416 36.111 123.416 36.111C123.416 36.111 123.416 36.111 123.416 36.111C123.416 36.111 123.417 36.111 123.417 36.111C123.417 36.111 123.417 36.111 123.417 36.111C123.417 36.111 123.418 36.111 123.418 36.111C123.418 36.111 123.418 36.111 123.418 36.111C123.418 36.111 123.418 36.111 123.419 36.111C123.419 36.111 123.419 36.111 123.419 36.111C123.419 36.111 123.419 36.111 123.42 36.111C123.42 36.111 123.42 36.111 123.42 36.111C123.42 36.111 123.42 36.111 123.421 36.111C123.421 36.111 123.421 36.111 123.421 36.111C123.421 36.111 123.421 36.111 123.421 36.111C123.422 36.111 123.422 36.111 123.422 36.111C123.422 36.111 123.422 36.111 123.422 36.111C123.423 36.111 123.423 36.111 123.423 36.111C123.423 36.111 123.423 36.111 123.423 36.111C123.424 36.111 123.424 36.111 123.424 36.111C123.424 36.111 123.424 36.111 123.424 36.111C123.424 36.111 123.425 36.111 123.425 36.111C123.425 36.111 123.425 36.111 123.425 36.111C123.425 36.111 123.426 36.111 123.426 36.111C123.426 36.111 123.426 36.111 123.426 36.111C123.426 36.111 123.427 36.111 123.427 36.111C123.427 36.111 123.427 36.111 123.427 36.111C123.427 36.111 123.428 36.111 123.428 36.111C123.428 36.111 123.428 36.111 123.428 36.111C123.428 36.111 123.428 36.111 123.429 36.111C123.429 36.111 123.429 36.111 123.429 36.111C123.429 36.111 123.429 36.111 123.43 36.111C123.43 36.111 123.43 36.111 123.43 36.111C123.43 36.111 123.43 36.111 123.431 36.111C123.431 36.111 123.431 36.111 123.431 36.111C123.431 36.111 123.431 36.111 123.432 36.111C123.432 36.111 123.432 36.111 123.432 36.111C123.432 36.111 123.432 36.111 123.433 36.111C123.433 36.111 123.433 36.111 123.433 36.111C123.433 36.111 123.433 36.111 123.434 36.111C123.434 36.111 123.434 36.111 123.434 36.111C123.434 36.111 123.434 36.111 123.434 36.111C123.435 36.111 123.435 36.111 123.435 36.111C123.435 36.111 123.435 36.111 123.435 36.111C123.436 36.111 123.436 36.111 123.436 36.111C123.436 36.111 123.436 36.111 123.436 36.111C123.437 36.111 123.437 36.111 123.437 36.111C123.437 36.111 123.437 36.111 123.437 36.111C123.438 36.111 123.438 36.111 123.438 36.111C123.438 36.111 123.438 36.111 123.438 36.111C123.439 36.111 123.439 36.111 123.439 36.111C123.439 36.111 123.439 36.111 123.439 36.111C123.44 36.111 123.44 36.111 123.44 36.111C123.44 36.111 123.44 36.111 123.44 36.111C123.441 36.111 123.441 36.111 123.441 36.111C123.441 36.111 123.441 36.111 123.441 36.111C123.442 36.111 123.442 36.111 123.442 36.111C123.442 36.111 123.442 36.111 123.442 36.111C123.443 36.111 123.443 36.111 123.443 36.111C123.443 36.111 123.443 36.111 123.443 36.111C123.444 36.111 123.444 36.111 123.444 36.111C123.444 36.111 123.444 36.111 123.444 36.111C123.445 36.111 123.445 36.111 123.445 36.111C123.445 36.111 123.445 36.111 123.445 36.111C123.446 36.111 123.446 36.111 123.446 36.111C123.446 36.111 123.446 36.111 123.446 36.111C123.447 36.111 123.447 36.111 123.447 36.111C123.447 36.111 123.447 36.111 123.447 36.111C123.448 36.111 123.448 36.111 123.448 36.111C123.448 36.111 123.448 36.111 123.448 36.111C123.449 36.111 123.449 36.111 123.449 36.111C123.449 36.111 123.449 36.111 123.449 36.111C123.45 36.111 123.45 36.111 123.45 36.111C123.45 36.111 123.45 36.111 123.45 36.111C123.451 36.111 123.451 36.111 123.451 36.111C123.451 36.111 123.451 36.111 123.451 36.111C123.452 36.111 123.452 36.111 123.452 36.111C123.452 36.111 123.452 36.111 123.452 36.111C123.453 36.111 123.453 36.111 123.453 36.111C123.453 36.111 123.453 36.111 123.454 36.111C123.454 36.111 123.454 36.111 123.454 36.111C123.454 36.111 123.454 36.111 123.455 36.111C123.455 36.111 123.455 36.111 123.455 36.111C123.455 36.111 123.455 36.111 123.456 36.111C123.456 36.111 123.456 36.111 123.456 36.111C123.456 36.111 123.456 36.111 123.457 36.111C123.457 36.111 123.457 36.111 123.457 36.111C123.457 36.111 123.457 36.111 123.458 36.111C123.458 36.111 123.458 36.111 123.458 36.111C123.458 36.111 123.458 36.111 123.459 36.111C123.459 36.111 123.459 36.111 123.459 36.111C123.459 36.111 123.46 36.111 123.46 36.111C123.46 36.111 123.46 36.111 123.46 36.111C123.46 36.111 123.461 36.111 123.461 36.111C123.461 36.111 123.461 36.111 123.461 36.111C123.461 36.111 123.462 36.111 123.462 36.111C123.462 36.111 123.462 36.111 123.462 36.111C123.462 36.111 123.463 36.111 123.463 36.111C123.463 36.111 123.463 36.111 123.463 36.111C123.464 36.111 123.464 36.111 123.464 36.111C123.464 36.111 123.464 36.111 123.464 36.111C123.465 36.111 123.465 36.111 123.465 36.111C123.465 36.111 123.465 36.111 123.465 36.111C123.466 36.111 123.466 36.111 123.466 36.111C123.466 36.111 123.466 36.111 123.466 36.111C123.467 36.111 123.467 36.111 123.467 36.111C123.467 36.111 123.467 36.111 123.468 36.111C123.468 36.111 123.468 36.111 123.468 36.111C123.468 36.111 123.468 36.111 123.469 36.111C123.469 36.111 123.469 36.111 123.469 36.111C123.469 36.111 123.469 36.111 123.47 36.111C123.47 36.111 123.47 36.111 123.47 36.111C123.47 36.111 123.471 36.111 123.471 36.111C123.471 36.111 123.471 36.111 123.471 36.111C123.471 36.111 123.472 36.111 123.472 36.111C123.472 36.111 123.472 36.111 123.472 36.111C123.472 36.111 123.473 36.111 123.473 36.111C123.473 36.111 123.473 36.111 123.473 36.111C123.474 36.111 123.474 36.111 123.474 36.111C123.474 36.111 123.474 36.111 123.474 36.111C123.475 36.111 123.475 36.111 123.475 36.111C123.475 36.111 123.475 36.111 123.475 36.111C123.476 36.111 123.476 36.111 123.476 36.111C123.476 36.111 123.476 36.111 123.477 36.111C123.477 36.111 123.477 36.111 123.477 36.111C123.477 36.111 123.477 36.111 123.478 36.111C123.478 36.111 123.478 36.111 123.478 36.111C123.478 36.111 123.478 36.111 123.479 36.111C123.479 36.111 123.479 36.111 123.479 36.111C123.479 36.111 123.48 36.111 123.48 36.111C123.48 36.111 123.48 36.111 123.48 36.111C123.48 36.111 123.481 36.111 123.481 36.111C123.481 36.111 123.481 36.111 123.481 36.111C123.481 36.111 123.482 36.111 123.482 36.111C123.482 36.111 123.482 36.111 123.482 36.111C123.483 36.111 123.483 36.111 123.483 36.111C123.483 36.111 123.483 36.111 123.483 36.111C123.484 36.111 123.484 36.111 123.484 36.111C123.484 36.111 123.484 36.111 123.485 36.111C123.485 36.111 123.485 36.111 123.485 36.111C123.485 36.111 123.485 36.111 123.486 36.111C123.486 36.111 123.486 36.111 123.486 36.111C123.486 36.111 123.487 36.111 123.487 36.111C123.487 36.111 123.487 36.111 123.487 36.111C123.487 36.111 123.488 36.111 123.488 36.111C123.488 36.111 123.488 36.111 123.488 36.111C123.489 36.111 123.489 36.111 123.489 36.111C123.489 36.111 123.489 36.111 123.489 36.111C123.49 36.111 123.49 36.111 123.49 36.111C123.49 36.111 123.49 36.111 123.49 36.111C123.491 36.111 123.491 36.111 123.491 36.111C123.491 36.111 123.491 36.111 123.492 36.111C123.492 36.111 123.492 36.111 123.492 36.111C123.492 36.111 123.492 36.111 123.493 36.111C123.493 36.111 123.493 36.111 123.493 36.111C123.493 36.111 123.494 36.111 123.494 36.111C123.494 36.111 123.494 36.111 123.494 36.111C123.494 36.111 123.495 36.111 123.495 36.111C123.495 36.111 123.495 36.111 123.495 36.111C123.496 36.111 123.496 36.111 123.496 36.111C123.496 36.111 123.496 36.111 123.496 36.111C123.497 36.111 123.497 36.111 123.497 36.111C123.497 36.111 123.497 36.111 123.498 36.111C123.498 36.111 123.498 36.111 123.498 36.111C123.498 36.111 123.498 36.111 123.499 36.111C123.499 36.111 123.499 36.111 123.499 36.111C123.499 36.111 123.5 36.111 123.5 36.111C123.5 36.111 123.5 36.111 123.5 36.111C123.501 36.111 123.501 36.111 123.501 36.111C123.501 36.111 123.501 36.111 123.501 36.111C123.502 36.111 123.502 36.111 123.502 36.111C123.502 36.111 123.502 36.111 123.503 36.111C123.503 36.111 123.503 36.111 123.503 36.111C123.503 36.111 123.503 36.111 123.504 36.111C123.504 36.111 123.504 36.111 123.504 36.111C123.504 36.111 123.505 36.111 123.505 36.111C123.505 36.111 123.505 36.111 123.505 36.111C123.505 36.111 123.506 36.111 123.506 36.111C123.506 36.111 123.506 36.111 123.506 36.111C123.507 36.111 123.507 36.111 123.507 36.111C123.507 36.111 123.507 36.111 123.507 36.111C123.508 36.111 123.508 36.111 123.508 36.111C123.508 36.111 123.508 36.111 123.509 36.111C123.509 36.111 123.509 36.111 123.509 36.111C123.509 36.111 123.51 36.111 123.51 36.111C123.51 36.111 123.51 36.111 123.51 36.111C123.51 36.111 123.511 36.111 123.511 36.111C123.511 36.111 123.511 36.111 123.511 36.111C123.512 36.111 123.512 36.111 123.512 36.111C123.512 36.111 123.512 36.111 123.512 36.111C123.513 36.111 123.513 36.111 123.513 36.111C123.513 36.111 123.513 36.111 123.514 36.111C123.514 36.111 123.514 36.111 123.514 36.111C123.514 36.111 123.515 36.111 123.515 36.111C123.515 36.111 123.515 36.111 123.515 36.111C123.515 36.111 123.516 36.111 123.516 36.111C123.516 36.111 123.516 36.111 123.516 36.111C123.517 36.111 123.517 36.111 123.517 36.111C123.517 36.111 123.517 36.111 123.518 36.111C123.518 36.111 123.518 36.111 123.518 36.111C123.518 36.111 123.518 36.111 123.519 36.111C123.519 36.111 123.519 36.111 123.519 36.111C123.519 36.111 123.52 36.111 123.52 36.111C123.52 36.111 123.52 36.111 123.52 36.111C123.52 36.111 123.521 36.111 123.521 36.111C123.521 36.111 123.521 36.111 123.521 36.111C123.522 36.111 123.522 36.111 123.522 36.111C123.522 36.111 123.522 36.111 123.523 36.111C123.523 36.111 123.523 36.111 123.523 36.111C123.523 36.111 123.523 36.111 123.524 36.111C123.524 36.111 123.524 36.111 123.524 36.111C123.524 36.111 123.525 36.111 123.525 36.111C123.525 36.111 123.525 36.111 123.525 36.111C123.526 36.111 123.526 36.111 123.526 36.111C123.526 36.111 123.526 36.111 123.526 36.111C123.527 36.111 123.527 36.111 123.527 36.111C123.527 36.111 123.527 36.111 123.528 36.111C123.528 36.111 123.528 36.111 123.528 36.111C123.528 36.111 123.529 36.111 123.529 36.111C123.529 36.111 123.529 36.111 123.529 36.111C123.529 36.111 123.53 36.111 123.53 36.111C123.53 36.111 123.53 36.111 123.53 36.111C123.531 36.111 123.531 36.111 123.531 36.111C123.531 36.111 123.531 36.111 123.532 36.111C123.532 36.111 123.532 36.111 123.532 36.111C123.532 36.111 123.532 36.111 123.533 36.111C123.533 36.111 123.533 36.111 123.533 36.111C123.533 36.111 123.534 36.111 123.534 36.111C123.534 36.111 123.534 36.111 123.534 36.111C123.535 36.111 123.535 36.111 123.535 36.111C123.535 36.111 123.535 36.111 123.535 36.111C123.536 36.111 123.536 36.111 123.536 36.111C123.536 36.111 123.536 36.111 123.537 36.111C123.537 36.111 123.537 36.111 123.537 36.111C123.537 36.111 123.538 36.111 123.538 36.111C123.538 36.111 123.538 36.111 123.538 36.111C123.539 36.111 123.539 36.111 123.539 36.111C123.539 36.111 123.539 36.111 123.539 36.111C123.54 36.111 123.54 36.111 123.54 36.111C123.54 36.111 123.54 36.111 123.541 36.111C123.541 36.111 123.541 36.111 123.541 36.111C123.541 36.111 123.542 36.111 123.542 36.111C123.542 36.111 123.542 36.111 123.542 36.111C123.542 36.111 123.543 36.111 123.543 36.111C123.543 36.111 123.543 36.111 123.543 36.111C123.544 36.111 123.544 36.111 123.544 36.111C123.544 36.111 123.544 36.111 123.545 36.111C123.545 36.111 123.545 36.111 123.545 36.111C123.545 36.111 123.546 36.111 123.546 36.111C123.546 36.111 123.546 36.111 123.546 36.111C123.546 36.111 123.547 36.111 123.547 36.111C123.547 36.111 123.547 36.111 123.547 36.111C123.548 36.111 123.548 36.111 123.548 36.111C123.548 36.111 123.548 36.111 123.549 36.111C123.549 36.111 123.549 36.111 123.549 36.111C123.549 36.111 123.55 36.111 123.55 36.111C123.55 36.111 123.55 36.111 123.55 36.111C123.55 36.111 123.551 36.111 123.551 36.111C123.551 36.111 123.551 36.111 123.551 36.111C123.552 36.111 123.552 36.111 123.552 36.111C123.552 36.111 123.552 36.111 123.553 36.111C123.553 36.111 123.553 36.111 123.553 36.111C123.553 36.111 123.553 36.111 123.554 36.111C123.554 36.111 123.554 36.111 123.554 36.111C123.554 36.111 123.555 36.111 123.555 36.111C123.555 36.111 123.555 36.111 123.555 36.111C123.556 36.111 123.556 36.111 123.556 36.111C123.556 36.111 123.556 36.111 123.557 36.111C123.557 36.111 123.557 36.111 123.557 36.111C123.557 36.111 123.557 36.111 123.558 36.111C123.558 36.111 123.558 36.111 123.558 36.111C123.558 36.111 123.559 36.111 123.559 36.111C123.559 36.111 123.559 36.111 123.559 36.111C123.56 36.111 123.56 36.111 123.56 36.111C123.56 36.111 123.56 36.111 123.561 36.111C123.561 36.111 123.561 36.111 123.561 36.111C123.561 36.111 123.562 36.111 123.562 36.111C123.562 36.111 123.562 36.111 123.562 36.111C123.562 36.111 123.563 36.111 123.563 36.111C123.563 36.111 123.563 36.111 123.563 36.111C123.564 36.111 123.564 36.111 123.564 36.111C123.564 36.111 123.564 36.111 123.565 36.111C123.565 36.111 123.565 36.111 123.565 36.111C123.565 36.111 123.566 36.111 123.566 36.111C123.566 36.111 123.566 36.111 123.566 36.111C123.566 36.111 123.567 36.111 123.567 36.111C123.567 36.111 123.567 36.111 123.567 36.111C123.568 36.111 123.568 36.111 123.568 36.111C123.568 36.111 123.568 36.111 123.569 36.111C123.569 36.111 123.569 36.111 123.569 36.111C123.569 36.111 123.57 36.111 123.57 36.111C123.57 36.111 123.57 36.111 123.57 36.111C123.57 36.111 123.571 36.111 123.571 36.111C123.571 36.111 123.571 36.111 123.571 36.111C123.572 36.111 123.572 36.111 123.572 36.111C123.572 36.111 123.572 36.111 123.573 36.111C123.573 36.111 123.573 36.111 123.573 36.111C123.573 36.111 123.574 36.111 123.574 36.111C123.574 36.111 123.574 36.111 123.574 36.111C123.574 36.111 123.575 36.111 123.575 36.111C123.575 36.111 123.575 36.111 123.575 36.111C123.576 36.111 123.576 36.111 123.576 36.111C123.576 36.111 123.576 36.111 123.577 36.111C123.577 36.111 123.577 36.111 123.577 36.111C123.577 36.111 123.578 36.111 123.578 36.111C123.578 36.111 123.578 36.111 123.578 36.111C123.579 36.111 123.579 36.111 123.579 36.111C123.579 36.111 123.579 36.111 123.579 36.111C123.58 36.111 123.58 36.111 123.58 36.111C123.58 36.111 123.58 36.111 123.581 36.111C123.581 36.111 123.581 36.111 123.581 36.111C123.581 36.111 123.582 36.111 123.582 36.111C123.582 36.111 123.582 36.111 123.582 36.111C123.583 36.111 123.583 36.111 123.583 36.111C123.583 36.111 123.583 36.111 123.583 36.111C123.584 36.111 123.584 36.111 123.584 36.111C123.584 36.111 123.584 36.111 123.585 36.111C123.585 36.111 123.585 36.111 123.585 36.111C123.585 36.111 123.586 36.111 123.586 36.111V32.111C123.586 32.111 123.585 32.111 123.585 32.111C123.585 32.111 123.585 32.111 123.585 32.111C123.584 32.111 123.584 32.111 123.584 32.111C123.584 32.111 123.584 32.111 123.583 32.111C123.583 32.111 123.583 32.111 123.583 32.111C123.583 32.111 123.583 32.111 123.582 32.111C123.582 32.111 123.582 32.111 123.582 32.111C123.582 32.111 123.581 32.111 123.581 32.111C123.581 32.111 123.581 32.111 123.581 32.111C123.58 32.111 123.58 32.111 123.58 32.111C123.58 32.111 123.58 32.111 123.579 32.111C123.579 32.111 123.579 32.111 123.579 32.111C123.579 32.111 123.579 32.111 123.578 32.111C123.578 32.111 123.578 32.111 123.578 32.111C123.578 32.111 123.577 32.111 123.577 32.111C123.577 32.111 123.577 32.111 123.577 32.111C123.576 32.111 123.576 32.111 123.576 32.111C123.576 32.111 123.576 32.111 123.575 32.111C123.575 32.111 123.575 32.111 123.575 32.111C123.575 32.111 123.574 32.111 123.574 32.111C123.574 32.111 123.574 32.111 123.574 32.111C123.574 32.111 123.573 32.111 123.573 32.111C123.573 32.111 123.573 32.111 123.573 32.111C123.572 32.111 123.572 32.111 123.572 32.111C123.572 32.111 123.572 32.111 123.571 32.111C123.571 32.111 123.571 32.111 123.571 32.111C123.571 32.111 123.57 32.111 123.57 32.111C123.57 32.111 123.57 32.111 123.57 32.111C123.57 32.111 123.569 32.111 123.569 32.111C123.569 32.111 123.569 32.111 123.569 32.111C123.568 32.111 123.568 32.111 123.568 32.111C123.568 32.111 123.568 32.111 123.567 32.111C123.567 32.111 123.567 32.111 123.567 32.111C123.567 32.111 123.566 32.111 123.566 32.111C123.566 32.111 123.566 32.111 123.566 32.111C123.566 32.111 123.565 32.111 123.565 32.111C123.565 32.111 123.565 32.111 123.565 32.111C123.564 32.111 123.564 32.111 123.564 32.111C123.564 32.111 123.564 32.111 123.563 32.111C123.563 32.111 123.563 32.111 123.563 32.111C123.563 32.111 123.562 32.111 123.562 32.111C123.562 32.111 123.562 32.111 123.562 32.111C123.562 32.111 123.561 32.111 123.561 32.111C123.561 32.111 123.561 32.111 123.561 32.111C123.56 32.111 123.56 32.111 123.56 32.111C123.56 32.111 123.56 32.111 123.559 32.111C123.559 32.111 123.559 32.111 123.559 32.111C123.559 32.111 123.558 32.111 123.558 32.111C123.558 32.111 123.558 32.111 123.558 32.111C123.557 32.111 123.557 32.111 123.557 32.111C123.557 32.111 123.557 32.111 123.557 32.111C123.556 32.111 123.556 32.111 123.556 32.111C123.556 32.111 123.556 32.111 123.555 32.111C123.555 32.111 123.555 32.111 123.555 32.111C123.555 32.111 123.554 32.111 123.554 32.111C123.554 32.111 123.554 32.111 123.554 32.111C123.553 32.111 123.553 32.111 123.553 32.111C123.553 32.111 123.553 32.111 123.553 32.111C123.552 32.111 123.552 32.111 123.552 32.111C123.552 32.111 123.552 32.111 123.551 32.111C123.551 32.111 123.551 32.111 123.551 32.111C123.551 32.111 123.55 32.111 123.55 32.111C123.55 32.111 123.55 32.111 123.55 32.111C123.55 32.111 123.549 32.111 123.549 32.111C123.549 32.111 123.549 32.111 123.549 32.111C123.548 32.111 123.548 32.111 123.548 32.111C123.548 32.111 123.548 32.111 123.547 32.111C123.547 32.111 123.547 32.111 123.547 32.111C123.547 32.111 123.546 32.111 123.546 32.111C123.546 32.111 123.546 32.111 123.546 32.111C123.546 32.111 123.545 32.111 123.545 32.111C123.545 32.111 123.545 32.111 123.545 32.111C123.544 32.111 123.544 32.111 123.544 32.111C123.544 32.111 123.544 32.111 123.543 32.111C123.543 32.111 123.543 32.111 123.543 32.111C123.543 32.111 123.542 32.111 123.542 32.111C123.542 32.111 123.542 32.111 123.542 32.111C123.542 32.111 123.541 32.111 123.541 32.111C123.541 32.111 123.541 32.111 123.541 32.111C123.54 32.111 123.54 32.111 123.54 32.111C123.54 32.111 123.54 32.111 123.539 32.111C123.539 32.111 123.539 32.111 123.539 32.111C123.539 32.111 123.539 32.111 123.538 32.111C123.538 32.111 123.538 32.111 123.538 32.111C123.538 32.111 123.537 32.111 123.537 32.111C123.537 32.111 123.537 32.111 123.537 32.111C123.536 32.111 123.536 32.111 123.536 32.111C123.536 32.111 123.536 32.111 123.535 32.111C123.535 32.111 123.535 32.111 123.535 32.111C123.535 32.111 123.535 32.111 123.534 32.111C123.534 32.111 123.534 32.111 123.534 32.111C123.534 32.111 123.533 32.111 123.533 32.111C123.533 32.111 123.533 32.111 123.533 32.111C123.532 32.111 123.532 32.111 123.532 32.111C123.532 32.111 123.532 32.111 123.532 32.111C123.531 32.111 123.531 32.111 123.531 32.111C123.531 32.111 123.531 32.111 123.53 32.111C123.53 32.111 123.53 32.111 123.53 32.111C123.53 32.111 123.529 32.111 123.529 32.111C123.529 32.111 123.529 32.111 123.529 32.111C123.529 32.111 123.528 32.111 123.528 32.111C123.528 32.111 123.528 32.111 123.528 32.111C123.527 32.111 123.527 32.111 123.527 32.111C123.527 32.111 123.527 32.111 123.526 32.111C123.526 32.111 123.526 32.111 123.526 32.111C123.526 32.111 123.526 32.111 123.525 32.111C123.525 32.111 123.525 32.111 123.525 32.111C123.525 32.111 123.524 32.111 123.524 32.111C123.524 32.111 123.524 32.111 123.524 32.111C123.523 32.111 123.523 32.111 123.523 32.111C123.523 32.111 123.523 32.111 123.523 32.111C123.522 32.111 123.522 32.111 123.522 32.111C123.522 32.111 123.522 32.111 123.521 32.111C123.521 32.111 123.521 32.111 123.521 32.111C123.521 32.111 123.52 32.111 123.52 32.111C123.52 32.111 123.52 32.111 123.52 32.111C123.52 32.111 123.519 32.111 123.519 32.111C123.519 32.111 123.519 32.111 123.519 32.111C123.518 32.111 123.518 32.111 123.518 32.111C123.518 32.111 123.518 32.111 123.518 32.111C123.517 32.111 123.517 32.111 123.517 32.111C123.517 32.111 123.517 32.111 123.516 32.111C123.516 32.111 123.516 32.111 123.516 32.111C123.516 32.111 123.515 32.111 123.515 32.111C123.515 32.111 123.515 32.111 123.515 32.111C123.515 32.111 123.514 32.111 123.514 32.111C123.514 32.111 123.514 32.111 123.514 32.111C123.513 32.111 123.513 32.111 123.513 32.111C123.513 32.111 123.513 32.111 123.512 32.111C123.512 32.111 123.512 32.111 123.512 32.111C123.512 32.111 123.512 32.111 123.511 32.111C123.511 32.111 123.511 32.111 123.511 32.111C123.511 32.111 123.51 32.111 123.51 32.111C123.51 32.111 123.51 32.111 123.51 32.111C123.51 32.111 123.509 32.111 123.509 32.111C123.509 32.111 123.509 32.111 123.509 32.111C123.508 32.111 123.508 32.111 123.508 32.111C123.508 32.111 123.508 32.111 123.507 32.111C123.507 32.111 123.507 32.111 123.507 32.111C123.507 32.111 123.507 32.111 123.506 32.111C123.506 32.111 123.506 32.111 123.506 32.111C123.506 32.111 123.505 32.111 123.505 32.111C123.505 32.111 123.505 32.111 123.505 32.111C123.505 32.111 123.504 32.111 123.504 32.111C123.504 32.111 123.504 32.111 123.504 32.111C123.503 32.111 123.503 32.111 123.503 32.111C123.503 32.111 123.503 32.111 123.503 32.111C123.502 32.111 123.502 32.111 123.502 32.111C123.502 32.111 123.502 32.111 123.501 32.111C123.501 32.111 123.501 32.111 123.501 32.111C123.501 32.111 123.501 32.111 123.5 32.111C123.5 32.111 123.5 32.111 123.5 32.111C123.5 32.111 123.499 32.111 123.499 32.111C123.499 32.111 123.499 32.111 123.499 32.111C123.498 32.111 123.498 32.111 123.498 32.111C123.498 32.111 123.498 32.111 123.498 32.111C123.497 32.111 123.497 32.111 123.497 32.111C123.497 32.111 123.497 32.111 123.496 32.111C123.496 32.111 123.496 32.111 123.496 32.111C123.496 32.111 123.496 32.111 123.495 32.111C123.495 32.111 123.495 32.111 123.495 32.111C123.495 32.111 123.494 32.111 123.494 32.111C123.494 32.111 123.494 32.111 123.494 32.111C123.494 32.111 123.493 32.111 123.493 32.111C123.493 32.111 123.493 32.111 123.493 32.111C123.492 32.111 123.492 32.111 123.492 32.111C123.492 32.111 123.492 32.111 123.492 32.111C123.491 32.111 123.491 32.111 123.491 32.111C123.491 32.111 123.491 32.111 123.49 32.111C123.49 32.111 123.49 32.111 123.49 32.111C123.49 32.111 123.49 32.111 123.489 32.111C123.489 32.111 123.489 32.111 123.489 32.111C123.489 32.111 123.489 32.111 123.488 32.111C123.488 32.111 123.488 32.111 123.488 32.111C123.488 32.111 123.487 32.111 123.487 32.111C123.487 32.111 123.487 32.111 123.487 32.111C123.487 32.111 123.486 32.111 123.486 32.111C123.486 32.111 123.486 32.111 123.486 32.111C123.485 32.111 123.485 32.111 123.485 32.111C123.485 32.111 123.485 32.111 123.485 32.111C123.484 32.111 123.484 32.111 123.484 32.111C123.484 32.111 123.484 32.111 123.483 32.111C123.483 32.111 123.483 32.111 123.483 32.111C123.483 32.111 123.483 32.111 123.482 32.111C123.482 32.111 123.482 32.111 123.482 32.111C123.482 32.111 123.481 32.111 123.481 32.111C123.481 32.111 123.481 32.111 123.481 32.111C123.481 32.111 123.48 32.111 123.48 32.111C123.48 32.111 123.48 32.111 123.48 32.111C123.48 32.111 123.479 32.111 123.479 32.111C123.479 32.111 123.479 32.111 123.479 32.111C123.478 32.111 123.478 32.111 123.478 32.111C123.478 32.111 123.478 32.111 123.478 32.111C123.477 32.111 123.477 32.111 123.477 32.111C123.477 32.111 123.477 32.111 123.477 32.111C123.476 32.111 123.476 32.111 123.476 32.111C123.476 32.111 123.476 32.111 123.475 32.111C123.475 32.111 123.475 32.111 123.475 32.111C123.475 32.111 123.475 32.111 123.474 32.111C123.474 32.111 123.474 32.111 123.474 32.111C123.474 32.111 123.474 32.111 123.473 32.111C123.473 32.111 123.473 32.111 123.473 32.111C123.473 32.111 123.472 32.111 123.472 32.111C123.472 32.111 123.472 32.111 123.472 32.111C123.472 32.111 123.471 32.111 123.471 32.111C123.471 32.111 123.471 32.111 123.471 32.111C123.471 32.111 123.47 32.111 123.47 32.111C123.47 32.111 123.47 32.111 123.47 32.111C123.469 32.111 123.469 32.111 123.469 32.111C123.469 32.111 123.469 32.111 123.469 32.111C123.468 32.111 123.468 32.111 123.468 32.111C123.468 32.111 123.468 32.111 123.468 32.111C123.467 32.111 123.467 32.111 123.467 32.111C123.467 32.111 123.467 32.111 123.466 32.111C123.466 32.111 123.466 32.111 123.466 32.111C123.466 32.111 123.466 32.111 123.465 32.111C123.465 32.111 123.465 32.111 123.465 32.111C123.465 32.111 123.465 32.111 123.464 32.111C123.464 32.111 123.464 32.111 123.464 32.111C123.464 32.111 123.464 32.111 123.463 32.111C123.463 32.111 123.463 32.111 123.463 32.111C123.463 32.111 123.462 32.111 123.462 32.111C123.462 32.111 123.462 32.111 123.462 32.111C123.462 32.111 123.461 32.111 123.461 32.111C123.461 32.111 123.461 32.111 123.461 32.111C123.461 32.111 123.46 32.111 123.46 32.111C123.46 32.111 123.46 32.111 123.46 32.111C123.46 32.111 123.459 32.111 123.459 32.111C123.459 32.111 123.459 32.111 123.459 32.111C123.458 32.111 123.458 32.111 123.458 32.111C123.458 32.111 123.458 32.111 123.458 32.111C123.457 32.111 123.457 32.111 123.457 32.111C123.457 32.111 123.457 32.111 123.457 32.111C123.456 32.111 123.456 32.111 123.456 32.111C123.456 32.111 123.456 32.111 123.456 32.111C123.455 32.111 123.455 32.111 123.455 32.111C123.455 32.111 123.455 32.111 123.455 32.111C123.454 32.111 123.454 32.111 123.454 32.111C123.454 32.111 123.454 32.111 123.454 32.111C123.453 32.111 123.453 32.111 123.453 32.111C123.453 32.111 123.453 32.111 123.452 32.111C123.452 32.111 123.452 32.111 123.452 32.111C123.452 32.111 123.452 32.111 123.451 32.111C123.451 32.111 123.451 32.111 123.451 32.111C123.451 32.111 123.451 32.111 123.45 32.111C123.45 32.111 123.45 32.111 123.45 32.111C123.45 32.111 123.45 32.111 123.449 32.111C123.449 32.111 123.449 32.111 123.449 32.111C123.449 32.111 123.449 32.111 123.448 32.111C123.448 32.111 123.448 32.111 123.448 32.111C123.448 32.111 123.448 32.111 123.447 32.111C123.447 32.111 123.447 32.111 123.447 32.111C123.447 32.111 123.447 32.111 123.446 32.111C123.446 32.111 123.446 32.111 123.446 32.111C123.446 32.111 123.446 32.111 123.445 32.111C123.445 32.111 123.445 32.111 123.445 32.111C123.445 32.111 123.445 32.111 123.444 32.111C123.444 32.111 123.444 32.111 123.444 32.111C123.444 32.111 123.444 32.111 123.443 32.111C123.443 32.111 123.443 32.111 123.443 32.111C123.443 32.111 123.443 32.111 123.442 32.111C123.442 32.111 123.442 32.111 123.442 32.111C123.442 32.111 123.442 32.111 123.441 32.111C123.441 32.111 123.441 32.111 123.441 32.111C123.441 32.111 123.441 32.111 123.44 32.111C123.44 32.111 123.44 32.111 123.44 32.111C123.44 32.111 123.44 32.111 123.439 32.111C123.439 32.111 123.439 32.111 123.439 32.111C123.439 32.111 123.439 32.111 123.438 32.111C123.438 32.111 123.438 32.111 123.438 32.111C123.438 32.111 123.438 32.111 123.437 32.111C123.437 32.111 123.437 32.111 123.437 32.111C123.437 32.111 123.437 32.111 123.436 32.111C123.436 32.111 123.436 32.111 123.436 32.111C123.436 32.111 123.436 32.111 123.435 32.111C123.435 32.111 123.435 32.111 123.435 32.111C123.435 32.111 123.435 32.111 123.434 32.111C123.434 32.111 123.434 32.111 123.434 32.111C123.434 32.111 123.434 32.111 123.434 32.111C123.433 32.111 123.433 32.111 123.433 32.111C123.433 32.111 123.433 32.111 123.433 32.111C123.432 32.111 123.432 32.111 123.432 32.111C123.432 32.111 123.432 32.111 123.432 32.111C123.431 32.111 123.431 32.111 123.431 32.111C123.431 32.111 123.431 32.111 123.431 32.111C123.43 32.111 123.43 32.111 123.43 32.111C123.43 32.111 123.43 32.111 123.43 32.111C123.429 32.111 123.429 32.111 123.429 32.111C123.429 32.111 123.429 32.111 123.429 32.111C123.428 32.111 123.428 32.111 123.428 32.111C123.428 32.111 123.428 32.111 123.428 32.111C123.428 32.111 123.427 32.111 123.427 32.111C123.427 32.111 123.427 32.111 123.427 32.111C123.427 32.111 123.426 32.111 123.426 32.111C123.426 32.111 123.426 32.111 123.426 32.111C123.426 32.111 123.425 32.111 123.425 32.111C123.425 32.111 123.425 32.111 123.425 32.111C123.425 32.111 123.424 32.111 123.424 32.111C123.424 32.111 123.424 32.111 123.424 32.111C123.424 32.111 123.424 32.111 123.423 32.111C123.423 32.111 123.423 32.111 123.423 32.111C123.423 32.111 123.423 32.111 123.422 32.111C123.422 32.111 123.422 32.111 123.422 32.111C123.422 32.111 123.422 32.111 123.421 32.111C123.421 32.111 123.421 32.111 123.421 32.111C123.421 32.111 123.421 32.111 123.421 32.111C123.42 32.111 123.42 32.111 123.42 32.111C123.42 32.111 123.42 32.111 123.42 32.111C123.419 32.111 123.419 32.111 123.419 32.111C123.419 32.111 123.419 32.111 123.419 32.111C123.418 32.111 123.418 32.111 123.418 32.111C123.418 32.111 123.418 32.111 123.418 32.111C123.418 32.111 123.417 32.111 123.417 32.111C123.417 32.111 123.417 32.111 123.417 32.111C123.417 32.111 123.416 32.111 123.416 32.111C123.416 32.111 123.416 32.111 123.416 32.111C123.416 32.111 123.416 32.111 123.415 32.111C123.415 32.111 123.415 32.111 123.415 32.111C123.415 32.111 123.415 32.111 123.414 32.111C123.414 32.111 123.414 32.111 123.414 32.111C123.414 32.111 123.414 32.111 123.414 32.111C123.413 32.111 123.413 32.111 123.413 32.111C123.413 32.111 123.413 32.111 123.413 32.111C123.412 32.111 123.412 32.111 123.412 32.111C123.412 32.111 123.412 32.111 123.412 32.111C123.412 32.111 123.411 32.111 123.411 32.111C123.411 32.111 123.411 32.111 123.411 32.111C123.411 32.111 123.41 32.111 123.41 32.111C123.41 32.111 123.41 32.111 123.41 32.111C123.41 32.111 123.41 32.111 123.409 32.111C123.409 32.111 123.409 32.111 123.409 32.111C123.409 32.111 123.409 32.111 123.409 32.111C123.408 32.111 123.408 32.111 123.408 32.111C123.408 32.111 123.408 32.111 123.408 32.111C123.407 32.111 123.407 32.111 123.407 32.111C123.407 32.111 123.407 32.111 123.407 32.111C123.407 32.111 123.406 32.111 123.406 32.111C123.406 32.111 123.406 32.111 123.406 32.111C123.406 32.111 123.405 32.111 123.405 32.111C123.405 32.111 123.405 32.111 123.405 32.111C123.405 32.111 123.405 32.111 123.404 32.111C123.404 32.111 123.404 32.111 123.404 32.111C123.404 32.111 123.404 32.111 123.404 32.111C123.403 32.111 123.403 32.111 123.403 32.111C123.403 32.111 123.403 32.111 123.403 32.111C123.403 32.111 123.402 32.111 123.402 32.111C123.402 32.111 123.402 32.111 123.402 32.111C123.402 32.111 123.401 32.111 123.401 32.111C123.401 32.111 123.401 32.111 123.401 32.111C123.401 32.111 123.401 32.111 123.4 32.111C123.4 32.111 123.4 32.111 123.4 32.111C123.4 32.111 123.4 32.111 123.4 32.111C123.399 32.111 123.399 32.111 123.399 32.111C123.399 32.111 123.399 32.111 123.399 32.111C123.399 32.111 123.398 32.111 123.398 32.111C123.398 32.111 123.398 32.111 123.398 32.111C123.398 32.111 123.398 32.111 123.397 32.111C123.397 32.111 123.397 32.111 123.397 32.111C123.397 32.111 123.397 32.111 123.397 32.111C123.396 32.111 123.396 32.111 123.396 32.111C123.396 32.111 123.396 32.111 123.396 32.111C123.396 32.111 123.395 32.111 123.395 32.111C123.395 32.111 123.395 32.111 123.395 32.111C123.395 32.111 123.395 32.111 123.394 32.111C123.394 32.111 123.394 32.111 123.394 32.111C123.394 32.111 123.394 32.111 123.394 32.111C123.393 32.111 123.393 32.111 123.393 32.111C123.393 32.111 123.393 32.111 123.393 32.111C123.393 32.111 123.392 32.111 123.392 32.111C123.392 32.111 123.392 32.111 123.392 32.111C123.392 32.111 123.392 32.111 123.391 32.111C123.391 32.111 123.391 32.111 123.391 32.111C123.391 32.111 123.391 32.111 123.391 32.111C123.39 32.111 123.39 32.111 123.39 32.111C123.39 32.111 123.39 32.111 123.39 32.111C123.39 32.111 123.389 32.111 123.389 32.111C123.389 32.111 123.389 32.111 123.389 32.111C123.389 32.111 123.389 32.111 123.388 32.111C123.388 32.111 123.388 32.111 123.388 32.111C123.388 32.111 123.388 32.111 123.388 32.111C123.387 32.111 123.387 32.111 123.387 32.111C123.387 32.111 123.387 32.111 123.387 32.111C123.387 32.111 123.386 32.111 123.386 32.111C123.386 32.111 123.386 32.111 123.386 32.111C123.386 32.111 123.386 32.111 123.386 32.111C123.385 32.111 123.385 32.111 123.385 32.111C123.385 32.111 123.385 32.111 123.385 32.111C123.385 32.111 123.384 32.111 123.384 32.111C123.384 32.111 123.384 32.111 123.384 32.111C123.384 32.111 123.384 32.111 123.383 32.111C123.383 32.111 123.383 32.111 123.383 32.111C123.383 32.111 123.383 32.111 123.383 32.111C123.383 32.111 123.382 32.111 123.382 32.111C123.382 32.111 123.382 32.111 123.382 32.111C123.382 32.111 123.382 32.111 123.381 32.111C123.381 32.111 123.381 32.111 123.381 32.111C123.381 32.111 123.381 32.111 123.381 32.111C123.381 32.111 123.38 32.111 123.38 32.111C123.38 32.111 123.38 32.111 123.38 32.111C123.38 32.111 123.38 32.111 123.379 32.111C123.379 32.111 123.379 32.111 123.379 32.111C123.379 32.111 123.379 32.111 123.379 32.111C123.379 32.111 123.378 32.111 123.378 32.111C123.378 32.111 123.378 32.111 123.378 32.111C123.378 32.111 123.378 32.111 123.377 32.111C123.377 32.111 123.377 32.111 123.377 32.111C123.377 32.111 123.377 32.111 123.377 32.111C123.377 32.111 123.376 32.111 123.376 32.111C123.376 32.111 123.376 32.111 123.376 32.111C123.376 32.111 123.376 32.111 123.376 32.111C123.375 32.111 123.375 32.111 123.375 32.111C123.375 32.111 123.375 32.111 123.375 32.111C123.375 32.111 123.374 32.111 123.374 32.111C123.374 32.111 123.374 32.111 123.374 32.111C123.374 32.111 123.374 32.111 123.374 32.111C123.373 32.111 123.373 32.111 123.373 32.111C123.373 32.111 123.373 32.111 123.373 32.111C123.373 32.111 123.373 32.111 123.372 32.111C123.372 32.111 123.372 32.111 123.372 32.111C123.372 32.111 123.372 32.111 123.372 32.111C123.372 32.111 123.371 32.111 123.371 32.111C123.371 32.111 123.371 32.111 123.371 32.111C123.371 32.111 123.371 32.111 123.371 32.111C123.37 32.111 123.37 32.111 123.37 32.111C123.37 32.111 123.37 32.111 123.37 32.111C123.37 32.111 123.37 32.111 123.369 32.111C123.369 32.111 123.369 32.111 123.369 32.111C123.369 32.111 123.369 32.111 123.369 32.111C123.369 32.111 123.368 32.111 123.368 32.111C123.368 32.111 123.368 32.111 123.368 32.111C123.368 32.111 123.368 32.111 123.368 32.111C123.367 32.111 123.367 32.111 123.367 32.111C123.367 32.111 123.367 32.111 123.367 32.111C123.367 32.111 123.367 32.111 123.366 32.111C123.366 32.111 123.366 32.111 123.366 32.111C123.366 32.111 123.366 32.111 123.366 32.111C123.366 32.111 123.365 32.111 123.365 32.111C123.365 32.111 123.365 32.111 123.365 32.111C123.365 32.111 123.365 32.111 123.365 32.111C123.364 32.111 123.364 32.111 123.364 32.111C123.364 32.111 123.364 32.111 123.364 32.111C123.364 32.111 123.364 32.111 123.363 32.111C123.363 32.111 123.363 32.111 123.363 32.111C123.363 32.111 123.363 32.111 123.363 32.111C123.363 32.111 123.363 32.111 123.362 32.111C123.362 32.111 123.362 32.111 123.362 32.111C123.362 32.111 123.362 32.111 123.362 32.111C123.362 32.111 123.361 32.111 123.361 32.111C123.361 32.111 123.361 32.111 123.361 32.111C123.361 32.111 123.361 32.111 123.361 32.111C123.361 32.111 123.36 32.111 123.36 32.111C123.36 32.111 123.36 32.111 123.36 32.111C123.36 32.111 123.36 32.111 123.36 32.111C123.359 32.111 123.359 32.111 123.359 32.111C123.359 32.111 123.359 32.111 123.359 32.111C123.359 32.111 123.359 32.111 123.359 32.111C123.358 32.111 123.358 32.111 123.358 32.111C123.358 32.111 123.358 32.111 123.358 32.111C123.358 32.111 123.358 32.111 123.358 32.111C123.357 32.111 123.357 32.111 123.357 32.111C123.357 32.111 123.357 32.111 123.357 32.111C123.357 32.111 123.357 32.111 123.356 32.111C123.356 32.111 123.356 32.111 123.356 32.111C123.356 32.111 123.356 32.111 123.356 32.111C123.356 32.111 123.356 32.111 123.355 32.111C123.355 32.111 123.355 32.111 123.355 32.111C123.355 32.111 123.355 32.111 123.355 32.111C123.355 32.111 123.355 32.111 123.354 32.111C123.354 32.111 123.354 32.111 123.354 32.111C123.354 32.111 123.354 32.111 123.354 32.111C123.354 32.111 123.354 32.111 123.353 32.111C123.353 32.111 123.353 32.111 123.353 32.111C123.353 32.111 123.353 32.111 123.353 32.111C123.353 32.111 123.353 32.111 123.352 32.111C123.352 32.111 123.352 32.111 123.352 32.111C123.352 32.111 123.352 32.111 123.352 32.111C123.352 32.111 123.352 32.111 123.352 32.111C123.351 32.111 123.351 32.111 123.351 32.111C123.351 32.111 123.351 32.111 123.351 32.111C123.351 32.111 123.351 32.111 123.351 32.111C123.35 32.111 123.35 32.111 123.35 32.111C123.35 32.111 123.35 32.111 123.35 32.111C123.35 32.111 123.35 32.111 123.35 32.111C123.349 32.111 123.349 32.111 123.349 32.111C123.349 32.111 123.349 32.111 123.349 32.111C123.349 32.111 123.349 32.111 123.349 32.111C123.349 32.111 123.348 32.111 123.348 32.111C123.348 32.111 123.348 32.111 123.348 32.111C123.348 32.111 123.348 32.111 123.348 32.111C123.348 32.111 123.347 32.111 123.347 32.111C123.347 32.111 123.347 32.111 123.347 32.111C123.347 32.111 123.347 32.111 123.347 32.111C123.347 32.111 123.347 32.111 123.346 32.111C123.346 32.111 123.346 32.111 123.346 32.111C123.346 32.111 123.346 32.111 123.346 32.111C123.346 32.111 123.346 32.111 123.346 32.111C123.345 32.111 123.345 32.111 123.345 32.111C123.345 32.111 123.345 32.111 123.345 32.111C123.345 32.111 123.345 32.111 123.345 32.111C123.345 32.111 123.344 32.111 123.344 32.111C123.344 32.111 123.344 32.111 123.344 32.111C123.344 32.111 123.344 32.111 123.344 32.111C123.344 32.111 123.344 32.111 123.343 32.111C123.343 32.111 123.343 32.111 123.343 32.111C123.343 32.111 123.343 32.111 123.343 32.111C123.343 32.111 123.343 32.111 123.343 32.111C123.342 32.111 123.342 32.111 123.342 32.111C123.342 32.111 123.342 32.111 123.342 32.111C123.342 32.111 123.342 32.111 123.342 32.111C123.342 32.111 123.341 32.111 123.341 32.111C123.341 32.111 123.341 32.111 123.341 32.111C123.341 32.111 123.341 32.111 123.341 32.111V36.111ZM123.101 36.0513C123.765 36.2173 124.331 36.0545 124.634 35.9379C124.963 35.8116 125.237 35.6401 125.431 35.5045C125.821 35.2313 126.152 34.9121 126.323 34.7412L123.495 31.9128C123.44 31.9676 123.375 32.0298 123.307 32.0901C123.237 32.1525 123.178 32.1986 123.137 32.2275C123.086 32.2634 123.109 32.2389 123.199 32.2045C123.248 32.1855 123.346 32.1525 123.483 32.1345C123.623 32.1162 123.829 32.1102 124.071 32.1707L123.101 36.0513ZM126.389 34.6723C127.085 33.9062 127.53 33.049 127.852 32.3521L124.22 30.6759C123.953 31.253 123.712 31.6698 123.429 31.9817L126.389 34.6723ZM127.807 32.4437C129.047 30.0814 129.412 27.3586 129.358 24.9045L125.359 24.9915C125.404 27.0454 125.083 29.0266 124.265 30.5843L127.807 32.4437ZM129.359 24.9147C129.333 23.3652 129.204 21.8298 129.076 20.3583C128.946 18.8658 128.817 17.4426 128.77 16.0135L124.772 16.1445C124.823 17.7044 124.964 19.2457 125.091 20.7055C125.22 22.1862 125.336 23.5908 125.359 24.9813L129.359 24.9147ZM128.769 15.9861C128.673 13.9403 128.803 12.0889 129.53 10.6706L125.971 8.84536C124.738 11.2491 124.672 14.0037 124.773 16.1719L128.769 15.9861ZM129.53 10.6716C130.174 9.41732 131.648 8.41389 132.895 8.32267L132.603 4.33333C129.832 4.53611 127.19 6.47268 125.972 8.84439L129.53 10.6716ZM132.93 8.31978C133.894 8.23209 135.097 8.65415 136.063 9.47177L138.647 6.41822C137.065 5.07985 134.837 4.12991 132.568 4.33621L132.93 8.31978ZM136.074 9.48144C136.685 9.98998 137.21 10.715 137.607 11.5489L141.219 9.82913C140.636 8.60502 139.789 7.37002 138.635 6.40856L136.074 9.48144ZM137.574 11.4768C138.197 12.9282 138.513 14.6128 138.753 16.4379L142.719 15.9161C142.469 14.0172 142.099 11.8798 141.251 9.90116L137.574 11.4768ZM138.747 16.3864C139.12 19.9365 139.027 23.5832 138.466 27.1351L142.417 27.7589C143.032 23.8628 143.135 19.8655 142.725 15.9676L138.747 16.3864ZM138.465 27.1411C137.887 30.8792 136.102 34.6427 133.442 37.3028L136.27 40.1312C139.588 36.8132 141.723 32.2468 142.418 27.7529L138.465 27.1411ZM133.442 37.3028C131.894 38.8508 129.693 39.9366 127.501 40.2674L128.098 44.2226C131.101 43.7694 134.094 42.3072 136.27 40.1312L133.442 37.3028ZM162.382 38.472L160.603 37.5584L160.601 37.561L162.382 38.472ZM156.894 41.853L156.833 43.8521L156.864 43.853H156.894V41.853ZM152.533 39.697L151.001 40.9834L151.016 41.001L151.031 41.0183L152.533 39.697ZM150.426 35.483L148.494 36.0013L148.502 36.0296L148.51 36.0577L150.426 35.483ZM149.691 29.26L147.692 29.2037L147.691 29.2135L149.691 29.26ZM150.867 18.872L152.838 19.2099L153.239 16.872H150.867V18.872ZM147.535 18.382L148.247 16.513L148.237 16.5093L147.535 18.382ZM144.497 16.324L145.951 14.9507L145.947 14.9465L144.497 16.324ZM144.595 8.533L146.164 9.77347L146.165 9.77229L144.595 8.533ZM147.437 6.524L146.887 4.60095L146.82 4.62032L146.753 4.64441L147.437 6.524ZM149.495 6.23V8.23H149.55L149.606 8.22692L149.495 6.23ZM156.257 6.328V8.328H156.305L156.352 8.32573L156.257 6.328ZM162.431 6.083L162.505 4.08437L162.468 4.083H162.431V6.083ZM166.204 6.916L167.169 5.16432L167.149 5.15335L167.129 5.14283L166.204 6.916ZM169.291 13.629L171.245 14.0564L171.247 14.0459L171.249 14.0354L169.291 13.629ZM166.4 17.353L167.392 19.0895L167.406 19.0816L167.42 19.0736L166.4 17.353ZM162.872 18.235V16.235H160.702L160.879 18.3977L162.872 18.235ZM163.852 32.592L165.85 32.6894L165.85 32.6815L165.85 32.6736L163.852 32.592ZM160.601 37.561C159.864 39.0021 158.443 39.853 156.894 39.853V43.853C159.951 43.853 162.744 42.1559 164.162 39.383L160.601 37.561ZM156.954 39.8539C155.967 39.824 154.8 39.2463 154.034 38.3757L151.031 41.0183C152.421 42.5977 154.586 43.784 156.833 43.8521L156.954 39.8539ZM154.064 38.4106C153.286 37.4836 152.747 36.2592 152.342 34.9083L148.51 36.0577C148.987 37.6468 149.722 39.4604 151.001 40.9834L154.064 38.4106ZM152.358 34.9647C151.87 33.1458 151.646 31.2293 151.69 29.3065L147.691 29.2135C147.638 31.5047 147.904 33.8022 148.494 36.0013L152.358 34.9647ZM151.69 29.3163C151.784 25.9788 152.255 22.609 152.838 19.2099L148.896 18.5341C148.302 21.995 147.794 25.5832 147.692 29.2037L151.69 29.3163ZM150.867 16.872C149.821 16.872 148.935 16.7751 148.247 16.513L146.823 20.251C148.193 20.7729 149.658 20.872 150.867 20.872V16.872ZM148.237 16.5093C147.385 16.1897 146.605 15.6429 145.951 14.9508L143.043 17.6972C144.055 18.7691 145.333 19.6923 146.833 20.2547L148.237 16.5093ZM145.947 14.9465C145.49 14.4651 145.185 13.6283 145.222 12.5517C145.258 11.4813 145.629 10.4495 146.164 9.77347L143.026 7.29253C141.895 8.72354 141.286 10.6072 141.224 12.4156C141.163 14.2177 141.642 16.2228 143.047 17.7015L145.947 14.9465ZM146.165 9.77229C146.64 9.16973 147.345 8.68567 148.12 8.40358L146.753 4.64441C145.373 5.14633 144.019 6.03427 143.025 7.29371L146.165 9.77229ZM147.986 8.44705C148.501 8.30005 149.002 8.23 149.495 8.23V4.23C148.616 4.23 147.745 4.35595 146.887 4.60095L147.986 8.44705ZM149.606 8.22692C151.333 8.13097 152.764 8.279 154.787 8.279V4.279C153.282 4.279 151.185 4.13303 149.384 4.23308L149.606 8.22692ZM154.787 8.279C155.056 8.279 155.314 8.2622 155.5 8.2506C155.706 8.2377 155.84 8.23 155.963 8.23V4.23C155.694 4.23 155.436 4.2468 155.25 4.25839C155.044 4.2713 154.91 4.279 154.787 4.279V8.279ZM155.963 8.23C155.812 8.23 155.694 8.2124 155.632 8.20169C155.564 8.18983 155.51 8.17658 155.477 8.16789C155.413 8.15108 155.368 8.13531 155.357 8.1313C155.341 8.1258 155.333 8.12258 155.339 8.12456C155.343 8.12647 155.35 8.12917 155.367 8.13595C155.381 8.14142 155.405 8.15097 155.429 8.16055C155.454 8.17005 155.49 8.18399 155.532 8.19867C155.569 8.21188 155.638 8.2353 155.721 8.25746C155.764 8.26884 155.828 8.2842 155.904 8.29749C155.974 8.30963 156.1 8.328 156.257 8.328V4.328C156.408 4.328 156.526 4.3456 156.588 4.35631C156.656 4.36816 156.71 4.38142 156.743 4.39011C156.807 4.40692 156.851 4.42268 156.863 4.4267C156.878 4.43219 156.886 4.43542 156.881 4.43343C156.876 4.43153 156.87 4.42883 156.853 4.42204C156.839 4.41658 156.815 4.40703 156.791 4.39745C156.766 4.38795 156.73 4.37401 156.688 4.35933C156.651 4.34612 156.582 4.3227 156.498 4.30053C156.455 4.28916 156.392 4.2738 156.315 4.26051C156.245 4.24836 156.12 4.23 155.963 4.23V8.23ZM156.352 8.32573C158.473 8.22472 160.436 8.083 162.431 8.083V4.083C160.309 4.083 158.156 4.23528 156.162 4.33026L156.352 8.32573ZM162.357 8.08163C163.568 8.12647 164.541 8.30408 165.279 8.68917L167.129 5.14283C165.613 4.35191 163.94 4.13753 162.505 4.08437L162.357 8.08163ZM165.239 8.66768C166.855 9.55849 167.697 11.4673 167.333 13.2226L171.249 14.0354C171.963 10.5967 170.354 6.91951 167.169 5.16432L165.239 8.66768ZM167.337 13.2016C167.144 14.0843 166.369 15.0466 165.38 15.6324L167.42 19.0736C169.077 18.0914 170.752 16.3097 171.245 14.0564L167.337 13.2016ZM165.408 15.6165C164.726 16.0062 163.804 16.235 162.872 16.235V20.235C164.389 20.235 166.016 19.8758 167.392 19.0895L165.408 15.6165ZM160.879 18.3977C161.289 23.4211 162.043 27.869 161.854 32.5104L165.85 32.6736C166.053 27.711 165.239 22.6529 164.865 18.0723L160.879 18.3977ZM161.854 32.4946C161.767 34.2921 161.374 36.0566 160.603 37.5584L164.161 39.3856C165.252 37.2614 165.741 34.9099 165.85 32.6894L161.854 32.4946Z" fill="black" mask="url(#path-1-outside-1_2028_4)"/>
</svg>
