<svg width="415" height="90" viewBox="0 0 415 90" fill="none" xmlns="http://www.w3.org/2000/svg">
<rect x="2" y="2" width="411" height="86" fill="#C613C5" stroke="black" stroke-width="4"/>
<path d="M50.9339 62.637C49.2679 62.735 47.5529 62.686 45.8869 62.441C43.6329 62.098 41.3299 61.216 39.7129 59.648C38.3899 58.374 37.5569 56.659 37.0179 54.895C36.4299 52.739 36.2829 50.436 36.2829 48.182C36.2829 43.821 36.7729 39.46 37.9489 35.295C38.2919 33.972 38.7819 32.698 39.4679 31.522C40.5459 29.66 42.1139 27.945 44.0739 26.965C45.6909 26.083 47.6509 25.985 49.5129 25.838C51.7669 25.691 54.1189 25.74 56.3239 26.132C57.9899 26.426 59.6559 27.014 60.9789 28.043C61.9099 28.778 62.7429 29.856 63.1839 30.983C63.8699 32.551 63.9189 34.413 63.5269 36.03C62.9389 38.431 61.3709 40.538 59.6559 42.253C62.3019 43.184 64.5069 45.83 65.2419 48.525C65.6339 49.995 65.7319 51.612 65.3399 53.082C64.8499 55.042 63.6249 56.708 62.3019 58.227C61.3219 59.305 60.1949 60.383 58.8719 61.02C56.4709 62.196 53.6289 62.441 50.9339 62.637ZM49.0719 38.97C50.4439 39.068 52.0609 38.823 53.1879 37.941C53.6779 37.598 54.1189 37.108 54.2169 36.52C54.4129 35.393 53.4329 34.168 52.3549 33.825C51.7179 33.629 51.0319 33.727 50.3459 33.727C49.4639 35.295 48.9249 37.157 49.0719 38.97ZM49.3169 54.307C51.0809 54.405 53.1389 53.964 54.5109 52.788C56.2259 51.318 55.0499 48.623 52.7469 48.329C51.6199 48.182 50.4439 48.182 49.3169 48.329C49.3169 48.378 49.2679 48.427 49.2679 48.427C49.0719 49.652 48.9739 50.926 49.0229 52.151C49.0719 52.886 49.0719 53.621 49.3169 54.307ZM91.4087 62.245C89.7427 62.49 88.0767 62.588 86.4107 62.441C86.3127 62.441 85.9207 62.392 85.8717 62.392C83.4707 62.49 81.0207 62.147 78.8157 61.216C76.6107 60.285 74.6997 58.619 73.2787 56.708C71.6127 54.356 70.2407 51.71 69.7017 48.917C68.7707 44.556 68.6727 39.999 69.1627 35.54C69.4567 33.286 69.9467 30.885 71.3187 29.072C72.5437 27.406 74.4057 26.377 76.4147 26.23C78.1787 26.083 80.0407 27.161 81.2167 28.435C81.9027 29.121 82.3437 30.101 82.6377 31.032C83.2257 33.041 83.1277 35.197 82.9807 37.304C82.7847 40.391 82.3437 43.527 82.4907 46.614C82.5887 48.721 83.3237 50.828 84.4507 52.641C84.9407 53.425 85.9697 54.209 86.9497 54.111C86.9987 54.111 87.0967 54.111 87.1947 54.111C87.5867 54.209 88.2237 53.621 88.5177 53.327C89.0077 52.788 89.3507 52.151 89.6447 51.514C90.6737 49.554 91.0167 47.202 90.9677 44.948C90.9187 42.008 90.4777 39.068 90.3797 36.079C90.2817 33.972 90.3797 31.669 91.3597 29.758C92.2907 27.945 94.3487 26.475 96.3577 26.328C97.9747 26.181 99.6897 26.867 100.964 27.945C101.846 28.68 102.532 29.66 103.022 30.689C103.757 32.404 104.1 34.315 104.345 36.177C104.737 39.901 104.639 43.723 104.051 47.447C103.414 51.563 101.454 55.728 98.4647 58.717C96.6027 60.579 94.0057 61.853 91.4087 62.245ZM126.579 61.069C124.57 62.588 120.699 62.686 118.69 61.167C117.122 59.893 116.436 57.443 116.583 55.434C116.73 53.033 117.759 50.73 117.955 48.329C115.456 46.614 113.006 44.752 110.948 42.547C109.919 41.42 109.037 40.195 108.4 38.823C107.42 36.814 106.93 34.462 107.126 32.208C107.224 30.934 107.567 29.611 108.302 28.582C109.086 27.504 110.409 26.867 111.683 26.573C112.957 26.279 114.427 26.524 115.603 27.161C116.681 27.7 117.563 28.582 118.249 29.562C120.405 32.502 120.65 36.569 122.708 39.558C122.757 39.607 123.002 39.656 123.051 39.705C123.541 39.803 124.129 39.558 124.472 39.166C124.864 38.774 125.207 38.235 125.501 37.696C126.971 34.952 127.216 31.669 128.882 29.023C129.274 28.386 129.813 27.798 130.45 27.406C130.989 27.063 131.626 26.916 132.263 26.769C132.802 26.622 133.341 26.475 133.929 26.426C137.212 25.887 139.711 28.827 140.103 32.159C140.299 33.482 140.25 34.903 139.858 36.177C139.564 37.206 139.025 38.186 138.633 39.166C137.604 41.665 135.938 43.919 133.88 45.683C132.165 47.104 130.156 48.28 128.049 48.819C128.784 51.612 129.323 54.699 128.637 57.541C128.294 58.815 127.657 60.236 126.579 61.069ZM171.71 67.635C170.289 68.272 167.839 67.684 166.81 66.508C166.516 66.165 166.369 65.675 166.32 65.283C166.222 64.352 166.418 63.421 166.663 62.49C165.193 62.539 163.674 62.441 162.204 62.098C160.979 61.853 159.852 61.216 158.823 60.432C157.402 59.403 156.128 57.933 155.638 56.218C154.805 53.425 155.687 49.848 158.382 48.868C159.901 48.28 161.665 48.574 163.184 49.064C163.576 49.211 165.879 50.191 166.271 50.289C166.908 50.436 167.594 50.534 168.182 50.289C168.525 50.142 168.623 49.75 168.378 49.456C168.084 49.211 166.663 48.672 166.271 48.525C164.115 47.741 161.812 47.104 159.803 45.879C158.529 45.095 157.5 43.723 156.961 42.253C156.324 40.489 156.128 38.48 156.422 36.618C156.716 35.001 157.5 33.384 158.529 32.061C158.97 31.571 159.313 30.983 159.803 30.493C161.616 28.582 164.164 27.063 166.81 26.622C166.418 25.593 166.075 24.368 166.467 23.29C166.957 22.016 169.064 20.938 170.436 20.987C171.171 20.987 171.955 21.281 172.494 21.771C173.033 22.31 173.327 23.094 173.425 23.829C173.523 24.711 173.474 25.642 173.278 26.524C174.748 26.72 176.218 27.21 177.443 27.994C178.276 28.582 179.06 29.317 179.648 30.15C181.216 32.257 182.245 35.736 180.334 37.549C179.207 38.627 177.688 39.362 176.12 39.46C173.915 39.607 171.71 38.823 169.554 39.215C169.113 39.313 168.28 39.509 168.182 39.901C168.084 40.195 168.476 40.636 168.721 40.832C169.309 41.273 172.396 42.792 173.033 43.135C175.287 44.262 177.59 45.585 179.158 47.545C180.285 48.966 180.971 50.877 180.873 52.69C180.775 55.189 179.697 57.541 177.835 59.256C176.561 60.432 174.895 61.167 173.229 61.657C173.523 62.735 173.719 63.911 173.621 65.038C173.474 66.214 172.788 67.145 171.71 67.635ZM204.106 61.902C202.44 61.951 200.725 62.098 199.059 61.951C197.785 61.804 196.511 61.853 195.286 61.657C193.865 61.412 192.444 60.873 191.268 60.089C189.504 58.913 188.132 57.149 187.348 55.189C186.025 52.102 185.633 48.623 185.535 45.242C185.437 42.4 185.535 39.558 185.878 36.716C186.074 34.756 186.613 32.698 187.642 30.983C188.524 29.464 189.945 28.092 191.562 27.406C192.689 26.867 194.061 26.671 195.286 26.916C196.413 27.112 197.54 27.749 198.324 28.582C199.5 29.758 200.284 31.424 200.578 33.09C200.921 34.952 200.676 36.961 200.333 38.823C199.794 41.42 199.01 43.968 198.667 46.614C198.52 47.447 198.422 49.456 198.912 50.093C199.353 50.583 200.48 50.387 201.117 50.191C202.979 49.603 204.89 48.77 206.801 48.819C208.222 48.868 209.447 49.407 210.378 50.436C212.877 53.327 212.779 57.737 209.692 59.991C208.075 61.118 206.066 61.853 204.106 61.902ZM241.678 62.147C239.522 63.274 236.582 62.686 235.161 60.873C234.622 60.236 234.328 59.403 234.083 58.619C233.299 59.501 232.368 60.334 231.29 60.971C229.967 61.706 228.497 62.196 226.978 62.294C225.459 62.392 223.891 62.049 222.519 61.51C220.412 60.628 218.354 59.256 216.982 57.443C215.414 55.287 214.581 52.592 214.287 49.946C213.944 47.055 214.238 44.066 214.777 41.224C215.316 38.186 216.394 35.197 218.109 32.649C219.089 31.228 220.363 29.905 221.784 28.925C223.499 27.749 225.361 26.671 227.321 26.132C228.497 25.789 229.722 25.74 230.947 25.691C233.103 25.593 235.357 25.838 237.317 26.769C238.101 27.112 238.836 27.798 239.277 28.533C240.012 29.905 240.257 31.62 239.914 33.09C239.277 36.275 236.288 38.578 233.201 37.598C232.76 37.451 232.417 37.157 232.074 36.814C231.829 36.716 230.506 36.324 230.163 36.324C229.722 36.275 229.232 36.422 228.791 36.569C226.831 37.157 225.165 38.872 224.43 40.783C223.695 42.596 223.499 44.752 223.793 46.712C223.94 47.79 224.479 48.917 225.263 49.701C226.439 50.779 229.036 51.514 230.457 50.73C231.094 50.387 231.584 49.701 231.829 48.966C231.878 48.819 231.976 48.623 231.829 48.574C231.584 48.476 230.506 48.329 230.261 48.28C229.428 48.182 228.497 48.035 227.762 47.594C227.223 47.3 226.733 46.712 226.488 46.124C226.145 45.34 226.096 44.458 226.292 43.674C226.488 42.792 226.978 42.008 227.615 41.371C228.889 40.146 230.8 39.509 232.564 39.46C234.671 39.411 236.68 40.195 238.738 40.391C240.061 40.538 241.58 40.636 242.658 41.42C243.834 42.302 244.471 43.968 244.569 45.438C244.667 47.006 244.079 48.525 243.638 49.995C243.197 51.514 242.903 53.082 242.854 54.65C242.854 55.924 243.099 57.149 243.246 58.374C243.295 59.158 243.344 59.942 243.05 60.677C242.756 61.314 242.315 61.804 241.678 62.147ZM257.343 62.049C256.363 62.343 255.285 62.441 254.256 62.392C252.786 62.294 251.169 61.951 250.091 60.971C249.552 60.481 249.111 59.844 248.866 59.158C248.572 58.325 248.572 57.394 248.572 56.512C248.621 54.405 249.209 52.347 249.601 50.289C249.993 47.986 250.287 45.634 249.993 43.331C249.65 40.293 247.886 37.5 247.788 34.462C247.739 33.09 248.033 31.669 248.621 30.444C249.209 29.268 250.042 28.141 251.169 27.455C252.786 26.475 254.991 26.132 256.804 26.671C257.539 26.867 258.127 27.357 258.666 27.896C259.646 28.876 260.381 30.15 260.626 31.473C261.165 34.609 260.381 37.794 260.087 40.93C260.822 41.224 261.704 41.273 262.537 41.224C263.909 41.175 265.232 40.881 266.604 40.587C266.555 39.215 266.163 37.892 265.967 36.52C265.771 35.344 265.869 34.168 266.065 33.041C266.359 31.032 267.437 29.023 269.005 27.749C270.867 26.279 274.199 26.328 276.012 27.896C276.796 28.533 277.384 29.464 277.678 30.395C278.119 31.669 278.217 33.041 278.119 34.315C277.923 36.863 277.09 39.313 276.649 41.763C276.257 43.87 276.11 46.075 276.404 48.133C276.698 50.289 277.531 52.249 277.972 54.356C278.266 55.826 278.217 57.443 277.678 58.864C277.384 59.599 276.943 60.285 276.355 60.775C275.669 61.314 274.836 61.657 273.954 61.853C272.68 62.098 271.357 61.951 270.083 61.706C269.103 61.51 268.025 61.265 267.192 60.677C266.604 60.285 266.114 59.697 265.869 59.011C265.428 57.933 265.281 56.708 265.281 55.483C265.281 53.621 265.82 51.808 266.408 50.044C264.448 49.701 262.439 49.456 260.528 49.897C261.067 52.053 261.557 54.307 261.41 56.561C261.361 57.982 260.773 59.403 259.793 60.432C259.156 61.167 258.274 61.755 257.343 62.049ZM301.401 62C298.51 62.49 295.423 62.49 292.483 62C290.915 61.755 289.347 61.216 288.024 60.285C287.191 59.648 286.456 58.864 285.819 58.031C284.398 56.022 283.418 53.67 282.928 51.269C282.193 47.79 282.193 44.115 282.438 40.587C282.634 37.157 283.075 33.678 283.859 30.346C283.859 30.297 283.859 30.199 283.859 30.15C283.957 29.268 284.251 28.386 284.79 27.651C285.231 26.965 285.966 26.426 286.701 26.181C288.171 25.593 289.788 25.544 291.356 25.544C294.296 25.544 297.236 25.74 300.176 26.132C302.332 26.426 304.537 26.916 306.546 27.798C309.486 29.121 312.377 31.179 314.092 33.923C314.876 35.099 315.366 36.471 315.709 37.843C316.444 40.636 316.493 43.674 316.101 46.516C315.611 49.897 313.994 53.131 311.887 55.875C310.515 57.639 308.751 59.207 306.791 60.236C305.125 61.118 303.263 61.657 301.401 62ZM298.902 50.142C300.176 50.24 301.597 49.897 302.675 49.162C303.557 48.574 304.194 47.545 304.488 46.467C305.027 44.311 304.635 41.714 303.41 39.803C302.675 38.676 301.401 37.941 300.176 37.402C298.951 36.912 297.628 36.618 296.305 36.814C295.962 39.313 295.815 41.91 295.864 44.409C295.864 45.977 296.06 47.545 296.403 49.064C297.089 49.652 297.971 50.044 298.902 50.142ZM337.351 58.472C336.273 60.579 334.166 61.853 331.863 61.853C330.246 61.804 328.58 60.922 327.502 59.697C326.473 58.472 325.836 56.953 325.395 55.483C324.856 53.474 324.611 51.367 324.66 49.26C324.758 45.781 325.248 42.302 325.836 38.872C324.709 38.872 323.533 38.774 322.504 38.382C321.328 37.941 320.299 37.206 319.466 36.324C317.604 34.364 317.898 30.64 319.564 28.533C320.299 27.602 321.328 26.916 322.406 26.524C323.092 26.328 323.778 26.23 324.464 26.23C326.228 26.132 327.992 26.279 329.756 26.279C330.148 26.279 330.54 26.23 330.932 26.23C330.981 26.23 331.177 26.328 331.226 26.328C333.284 26.23 335.342 26.083 337.4 26.083C338.723 26.132 340.046 26.328 341.173 26.916C343.574 28.239 344.799 31.032 344.26 33.629C343.917 35.197 342.692 36.569 341.369 37.353C340.34 37.941 339.066 38.235 337.841 38.235C338.233 43.037 339.017 47.79 338.821 52.592C338.723 54.601 338.282 56.659 337.351 58.472ZM365.853 62.147C363.844 62.686 361.688 62.392 359.679 61.951C358.699 61.706 357.719 61.461 356.837 61.02C355.416 60.285 354.24 59.011 353.26 57.688C351.643 55.532 350.614 52.886 349.634 50.338C348.311 46.859 347.184 43.282 346.645 39.558C346.351 37.451 346.155 35.246 346.449 33.139C346.645 31.767 347.086 30.395 347.87 29.317C348.703 28.19 349.879 27.259 351.153 26.818C352.672 26.279 354.387 26.475 355.759 27.259C356.641 27.749 357.376 28.582 357.866 29.464C358.699 30.934 359.042 32.698 359.238 34.364C359.728 38.725 359.483 43.135 360.169 47.447C360.365 48.623 360.806 50.632 361.933 50.828C362.472 50.877 363.011 50.534 363.403 50.191C364.432 49.26 365.02 47.937 365.412 46.614C365.902 44.801 366.049 42.89 366.147 40.979C366.196 39.852 366.245 38.725 366.147 37.598C365.951 35.393 366.049 33.139 366.784 31.081C367.225 29.856 368.107 28.729 369.185 27.994C372.37 25.936 376.535 27.455 378.054 30.885C379.328 33.727 379.328 37.01 379.034 40.097C378.789 42.645 378.005 45.144 377.074 47.545C376.927 47.79 376.829 48.084 376.731 48.378C376.094 50.485 375.31 52.494 374.33 54.454C373.105 56.806 371.39 59.011 369.283 60.579C368.254 61.314 367.078 61.804 365.853 62.147Z" fill="black"/>
</svg>
