<svg width="415" height="90" viewBox="0 0 415 90" fill="none" xmlns="http://www.w3.org/2000/svg">
<rect x="2" y="2" width="411" height="86" fill="#1CE11A" stroke="black" stroke-width="4"/>
<path d="M44.3666 62C41.4756 62.49 38.3886 62.49 35.4486 62C33.8806 61.755 32.3126 61.216 30.9896 60.285C30.1566 59.648 29.4216 58.864 28.7846 58.031C27.3636 56.022 26.3836 53.67 25.8936 51.269C25.1586 47.79 25.1586 44.115 25.4036 40.587C25.5996 37.157 26.0406 33.678 26.8246 30.346C26.8246 30.297 26.8246 30.199 26.8246 30.15C26.9226 29.268 27.2166 28.386 27.7556 27.651C28.1966 26.965 28.9316 26.426 29.6666 26.181C31.1366 25.593 32.7536 25.544 34.3216 25.544C37.2616 25.544 40.2016 25.74 43.1416 26.132C45.2976 26.426 47.5026 26.916 49.5116 27.798C52.4516 29.121 55.3426 31.179 57.0576 33.923C57.8416 35.099 58.3316 36.471 58.6746 37.843C59.4096 40.636 59.4586 43.674 59.0666 46.516C58.5766 49.897 56.9596 53.131 54.8526 55.875C53.4806 57.639 51.7166 59.207 49.7566 60.236C48.0906 61.118 46.2286 61.657 44.3666 62ZM41.8676 50.142C43.1416 50.24 44.5626 49.897 45.6406 49.162C46.5226 48.574 47.1596 47.545 47.4536 46.467C47.9926 44.311 47.6006 41.714 46.3756 39.803C45.6406 38.676 44.3666 37.941 43.1416 37.402C41.9166 36.912 40.5936 36.618 39.2706 36.814C38.9276 39.313 38.7806 41.91 38.8296 44.409C38.8296 45.977 39.0256 47.545 39.3686 49.064C40.0546 49.652 40.9366 50.044 41.8676 50.142ZM82.0315 62.098C78.8465 62.245 75.6615 62.245 72.5255 61.706C70.5165 61.363 68.5075 60.579 66.9885 59.256C64.6855 57.247 63.1665 54.16 62.7255 51.073C62.1865 47.839 62.3335 44.458 62.8235 41.175C63.2155 38.235 63.8525 35.295 65.1755 32.649C66.0085 31.081 67.1355 29.611 68.4585 28.386C69.2425 27.651 70.1245 27.014 71.1535 26.671C72.2805 26.23 73.5545 26.279 74.7305 26.034C76.5925 25.691 78.5035 25.691 80.3655 25.593C83.3055 25.397 86.4415 25.495 89.0385 26.818C89.6755 27.161 90.2635 27.7 90.7045 28.337C91.1945 29.121 91.4395 30.052 91.4885 31.032C91.6845 33.972 89.7245 36.863 86.7845 36.814C85.9515 36.814 85.0695 36.618 84.2855 36.373C82.7665 35.981 81.2475 35.491 79.6795 35.295C78.4055 35.197 76.9845 35.344 75.9555 36.128C75.5145 36.471 75.1715 37.059 75.1715 37.647C75.2205 38.137 75.7595 38.137 76.2495 38.088C77.7685 37.892 79.1895 37.353 80.7085 37.206C81.6395 37.108 82.6195 37.059 83.5015 37.353C84.2855 37.696 85.0205 38.333 85.3635 39.117C85.8045 40.195 85.9515 41.371 85.8535 42.498C85.8045 43.576 85.5105 44.752 84.8245 45.585C84.3835 46.173 83.7955 46.614 83.1095 46.908C82.3745 47.202 81.5905 47.251 80.7575 47.3C79.5325 47.349 76.0045 46.81 75.1225 47.692C74.1915 48.574 75.4165 49.946 76.6905 50.24C77.9645 50.485 79.3365 50.142 80.6105 49.848C82.4725 49.456 84.4325 48.966 86.2945 49.309C87.7645 49.505 89.2835 50.338 90.0675 51.514C90.7045 52.494 90.8515 53.817 90.6065 54.944C90.1655 57.1 88.9895 59.305 87.2745 60.677C85.8535 61.804 83.8445 62.049 82.0315 62.098ZM100.467 61.608C99.2416 61.951 97.8206 61.804 96.7916 61.118C96.0566 60.677 95.5176 59.893 95.2726 59.109C94.7336 57.639 94.8316 55.973 95.1746 54.454C95.7136 52.102 97.0856 49.995 98.4576 48.035C99.1926 47.006 99.9766 45.928 100.957 45.095C99.5846 43.086 98.1146 41.175 96.8896 39.117C95.9096 37.5 94.9786 35.687 94.7336 33.825C94.5866 32.747 94.5866 31.669 94.9296 30.64C95.9586 27.455 99.4866 25.838 102.672 26.818C103.652 27.161 104.583 27.7 105.318 28.484C106.347 29.611 106.984 31.13 107.474 32.6C108.013 34.364 108.503 36.128 109.091 37.892C109.924 35.05 110.953 32.208 112.864 29.905C113.942 28.582 115.461 27.455 117.176 26.965C118.156 26.72 119.234 26.72 120.214 27.112C122.713 27.994 124.771 31.718 124.575 34.364C124.428 36.471 122.958 38.382 121.439 39.803C119.381 41.665 117.078 43.429 115.657 45.83C116.588 47.202 117.666 48.427 118.744 49.701C119.675 50.828 120.851 51.906 121.39 53.327C121.929 54.748 122.076 56.561 121.488 58.031C120.312 60.922 116.588 62.196 113.599 61.314C112.031 60.824 110.61 59.697 109.63 58.374C108.552 56.904 107.915 55.14 107.327 53.376C106.102 55.777 104.877 58.227 103.015 60.138C102.329 60.824 101.398 61.363 100.467 61.608ZM140.547 62.392C138.391 62.588 136.186 62.588 134.03 62.098C132.805 61.853 131.678 61.216 130.649 60.432C129.228 59.403 127.954 57.933 127.464 56.218C126.631 53.425 127.513 49.848 130.208 48.868C131.727 48.28 133.491 48.574 135.01 49.064C135.402 49.211 137.705 50.191 138.097 50.289C138.734 50.436 139.42 50.534 140.008 50.289C140.351 50.142 140.449 49.75 140.204 49.456C139.91 49.211 138.489 48.672 138.097 48.525C135.941 47.741 133.638 47.104 131.629 45.879C130.355 45.095 129.326 43.723 128.787 42.253C128.15 40.489 127.954 38.48 128.248 36.618C128.542 35.001 129.326 33.384 130.355 32.061C130.992 31.326 131.58 30.493 132.315 29.807C133.785 28.484 135.549 27.455 137.46 26.916C139.959 26.181 142.654 26.181 145.202 26.573C146.623 26.769 148.044 27.21 149.269 27.994C150.102 28.582 150.886 29.317 151.474 30.15C153.042 32.257 154.071 35.736 152.16 37.549C151.033 38.627 149.514 39.362 147.946 39.46C145.741 39.607 143.536 38.823 141.38 39.215C140.939 39.313 140.106 39.509 140.008 39.901C139.91 40.195 140.302 40.636 140.547 40.832C141.135 41.273 144.222 42.792 144.859 43.135C147.113 44.262 149.416 45.585 150.984 47.545C151.964 48.819 152.601 50.485 152.699 52.102C152.797 53.523 152.454 54.944 151.866 56.267C150.984 58.178 149.318 59.844 147.456 60.775C145.3 61.804 142.899 62.245 140.547 62.392ZM182.281 59.06C180.272 61.265 176.94 62.343 173.951 62.245C169.933 62.196 165.67 60.873 162.436 58.423C160.28 56.855 158.565 54.503 157.536 52.004C156.654 49.995 156.36 47.692 156.213 45.487C156.066 42.008 156.899 38.431 158.418 35.344C160.329 31.522 163.808 28.043 167.875 26.72C170.57 25.789 173.559 25.642 176.401 26.034C178.116 26.279 179.88 26.867 181.301 27.847C182.085 28.386 182.722 29.072 183.212 29.856C184.29 31.424 184.878 33.384 184.976 35.246C185.025 36.814 184.633 38.48 183.751 39.803C183.114 40.783 182.232 41.714 181.203 42.253C179.782 42.939 177.969 43.086 176.548 42.547C175.029 41.959 173.657 40.538 173.265 38.97C172.873 38.578 172.432 38.186 171.893 38.039C171.158 37.843 170.472 38.039 169.982 38.627C168.512 40.489 167.973 43.184 168.659 45.438C168.855 46.124 169.296 46.761 169.933 47.153C170.57 47.594 171.452 47.741 172.285 47.692C174.441 47.594 176.646 46.957 178.802 47.251C180.37 47.447 182.036 48.329 182.967 49.603C183.702 50.681 183.849 52.102 183.996 53.376C184.192 55.336 183.604 57.59 182.281 59.06ZM199.254 61.755C197.735 62.343 195.824 62.294 194.305 61.608C192.688 60.873 191.365 59.452 190.483 57.982C189.209 55.826 188.817 53.131 188.67 50.632C188.523 47.398 188.768 44.115 189.209 40.881C189.552 38.039 190.042 35.246 190.875 32.551C190.973 32.306 191.218 31.424 191.463 31.228C191.806 30.346 192.492 29.562 193.276 28.925C194.648 27.798 196.265 26.916 197.98 26.524C201.214 25.838 204.644 25.74 207.878 26.377C211.406 27.063 215.13 28.729 217.433 31.571C218.511 32.894 219.295 34.511 219.589 36.177C219.883 38.039 219.491 40.048 218.609 41.665C218.021 42.841 217.188 43.968 216.159 44.85C215.179 45.732 214.003 46.369 212.876 47.006C214.689 48.672 216.943 49.652 219.001 50.975C219.834 51.514 220.569 52.298 221.01 53.229C222.235 55.826 220.863 59.256 218.315 60.628C217.286 61.216 215.914 61.363 214.738 61.216C213.121 61.02 211.602 60.236 210.23 59.354C207.192 57.296 204.987 54.111 203.076 51.024C203.468 53.033 203.517 55.189 203.027 57.149C202.684 58.374 202.145 59.55 201.263 60.432C200.724 61.02 200.038 61.461 199.254 61.755ZM204.399 41.763C205.722 42.302 207.829 41.665 208.711 40.538C209.152 39.95 209.348 39.117 209.201 38.431C208.956 37.206 207.829 36.226 206.751 35.687C206.163 35.442 205.477 35.246 204.84 35.393C203.125 35.883 202.439 38.382 202.635 40.195C203.076 40.832 203.664 41.469 204.399 41.763ZM244.105 62.098C240.92 62.245 237.735 62.245 234.599 61.706C232.59 61.363 230.581 60.579 229.062 59.256C226.759 57.247 225.24 54.16 224.799 51.073C224.26 47.839 224.407 44.458 224.897 41.175C225.289 38.235 225.926 35.295 227.249 32.649C228.082 31.081 229.209 29.611 230.532 28.386C231.316 27.651 232.198 27.014 233.227 26.671C234.354 26.23 235.628 26.279 236.804 26.034C238.666 25.691 240.577 25.691 242.439 25.593C245.379 25.397 248.515 25.495 251.112 26.818C251.749 27.161 252.337 27.7 252.778 28.337C253.268 29.121 253.513 30.052 253.562 31.032C253.758 33.972 251.798 36.863 248.858 36.814C248.025 36.814 247.143 36.618 246.359 36.373C244.84 35.981 243.321 35.491 241.753 35.295C240.479 35.197 239.058 35.344 238.029 36.128C237.588 36.471 237.245 37.059 237.245 37.647C237.294 38.137 237.833 38.137 238.323 38.088C239.842 37.892 241.263 37.353 242.782 37.206C243.713 37.108 244.693 37.059 245.575 37.353C246.359 37.696 247.094 38.333 247.437 39.117C247.878 40.195 248.025 41.371 247.927 42.498C247.878 43.576 247.584 44.752 246.898 45.585C246.457 46.173 245.869 46.614 245.183 46.908C244.448 47.202 243.664 47.251 242.831 47.3C241.606 47.349 238.078 46.81 237.196 47.692C236.265 48.574 237.49 49.946 238.764 50.24C240.038 50.485 241.41 50.142 242.684 49.848C244.546 49.456 246.506 48.966 248.368 49.309C249.838 49.505 251.357 50.338 252.141 51.514C252.778 52.494 252.925 53.817 252.68 54.944C252.239 57.1 251.063 59.305 249.348 60.677C247.927 61.804 245.918 62.049 244.105 62.098ZM276.309 62.098C273.124 62.245 269.939 62.245 266.803 61.706C264.794 61.363 262.785 60.579 261.266 59.256C258.963 57.247 257.444 54.16 257.003 51.073C256.464 47.839 256.611 44.458 257.101 41.175C257.493 38.235 258.13 35.295 259.453 32.649C260.286 31.081 261.413 29.611 262.736 28.386C263.52 27.651 264.402 27.014 265.431 26.671C266.558 26.23 267.832 26.279 269.008 26.034C270.87 25.691 272.781 25.691 274.643 25.593C277.583 25.397 280.719 25.495 283.316 26.818C283.953 27.161 284.541 27.7 284.982 28.337C285.472 29.121 285.717 30.052 285.766 31.032C285.962 33.972 284.002 36.863 281.062 36.814C280.229 36.814 279.347 36.618 278.563 36.373C277.044 35.981 275.525 35.491 273.957 35.295C272.683 35.197 271.262 35.344 270.233 36.128C269.792 36.471 269.449 37.059 269.449 37.647C269.498 38.137 270.037 38.137 270.527 38.088C272.046 37.892 273.467 37.353 274.986 37.206C275.917 37.108 276.897 37.059 277.779 37.353C278.563 37.696 279.298 38.333 279.641 39.117C280.082 40.195 280.229 41.371 280.131 42.498C280.082 43.576 279.788 44.752 279.102 45.585C278.661 46.173 278.073 46.614 277.387 46.908C276.652 47.202 275.868 47.251 275.035 47.3C273.81 47.349 270.282 46.81 269.4 47.692C268.469 48.574 269.694 49.946 270.968 50.24C272.242 50.485 273.614 50.142 274.888 49.848C276.75 49.456 278.71 48.966 280.572 49.309C282.042 49.505 283.561 50.338 284.345 51.514C284.982 52.494 285.129 53.817 284.884 54.944C284.443 57.1 283.267 59.305 281.552 60.677C280.131 61.804 278.122 62.049 276.309 62.098ZM315.422 61.51C314.442 61.951 313.266 62 312.237 61.804C310.963 61.559 309.738 60.824 308.709 60.04C307.141 58.815 305.867 57.247 304.642 55.679C302.878 53.425 301.457 50.877 300.183 48.329C300.085 51.416 300.036 54.552 299.35 57.59C299.056 58.815 298.566 60.138 297.684 61.02C297.194 61.461 296.606 61.755 295.969 61.853C292.931 62.392 290.677 59.256 290.04 56.218C289.55 53.817 289.697 51.318 289.599 48.819C289.55 47.055 289.697 37.206 289.795 35.442C289.893 33.678 290.138 31.914 290.824 30.346C291.412 28.974 292.343 27.651 293.666 26.916C294.891 26.279 296.606 26.23 297.88 26.818C299.399 27.455 300.673 28.582 301.653 29.905C303.466 32.208 304.887 34.805 306.259 37.402C307.239 39.313 308.219 41.175 309.15 43.086C309.052 40.195 309.15 37.304 309.493 34.462C309.64 32.992 310.032 31.571 310.62 30.248C311.11 29.17 311.845 28.092 312.776 27.406C313.756 26.622 315.226 26.23 316.451 26.573C317.235 26.818 317.921 27.357 318.46 27.994C319.93 29.856 320.616 32.306 320.91 34.658C321.596 39.607 321.4 44.703 320.861 49.701C320.616 52.2 320.322 54.797 319.391 57.1C318.607 58.913 317.235 60.677 315.422 61.51ZM344.832 62.098C341.647 62.245 338.462 62.245 335.326 61.706C333.317 61.363 331.308 60.579 329.789 59.256C327.486 57.247 325.967 54.16 325.526 51.073C324.987 47.839 325.134 44.458 325.624 41.175C326.016 38.235 326.653 35.295 327.976 32.649C328.809 31.081 329.936 29.611 331.259 28.386C332.043 27.651 332.925 27.014 333.954 26.671C335.081 26.23 336.355 26.279 337.531 26.034C339.393 25.691 341.304 25.691 343.166 25.593C346.106 25.397 349.242 25.495 351.839 26.818C352.476 27.161 353.064 27.7 353.505 28.337C353.995 29.121 354.24 30.052 354.289 31.032C354.485 33.972 352.525 36.863 349.585 36.814C348.752 36.814 347.87 36.618 347.086 36.373C345.567 35.981 344.048 35.491 342.48 35.295C341.206 35.197 339.785 35.344 338.756 36.128C338.315 36.471 337.972 37.059 337.972 37.647C338.021 38.137 338.56 38.137 339.05 38.088C340.569 37.892 341.99 37.353 343.509 37.206C344.44 37.108 345.42 37.059 346.302 37.353C347.086 37.696 347.821 38.333 348.164 39.117C348.605 40.195 348.752 41.371 348.654 42.498C348.605 43.576 348.311 44.752 347.625 45.585C347.184 46.173 346.596 46.614 345.91 46.908C345.175 47.202 344.391 47.251 343.558 47.3C342.333 47.349 338.805 46.81 337.923 47.692C336.992 48.574 338.217 49.946 339.491 50.24C340.765 50.485 342.137 50.142 343.411 49.848C345.273 49.456 347.233 48.966 349.095 49.309C350.565 49.505 352.084 50.338 352.868 51.514C353.505 52.494 353.652 53.817 353.407 54.944C352.966 57.1 351.79 59.305 350.075 60.677C348.654 61.804 346.645 62.049 344.832 62.098ZM368.265 61.755C366.746 62.343 364.835 62.294 363.316 61.608C361.699 60.873 360.376 59.452 359.494 57.982C358.22 55.826 357.828 53.131 357.681 50.632C357.534 47.398 357.779 44.115 358.22 40.881C358.563 38.039 359.053 35.246 359.886 32.551C359.984 32.306 360.229 31.424 360.474 31.228C360.817 30.346 361.503 29.562 362.287 28.925C363.659 27.798 365.276 26.916 366.991 26.524C370.225 25.838 373.655 25.74 376.889 26.377C380.417 27.063 384.141 28.729 386.444 31.571C387.522 32.894 388.306 34.511 388.6 36.177C388.894 38.039 388.502 40.048 387.62 41.665C387.032 42.841 386.199 43.968 385.17 44.85C384.19 45.732 383.014 46.369 381.887 47.006C383.7 48.672 385.954 49.652 388.012 50.975C388.845 51.514 389.58 52.298 390.021 53.229C391.246 55.826 389.874 59.256 387.326 60.628C386.297 61.216 384.925 61.363 383.749 61.216C382.132 61.02 380.613 60.236 379.241 59.354C376.203 57.296 373.998 54.111 372.087 51.024C372.479 53.033 372.528 55.189 372.038 57.149C371.695 58.374 371.156 59.55 370.274 60.432C369.735 61.02 369.049 61.461 368.265 61.755ZM373.41 41.763C374.733 42.302 376.84 41.665 377.722 40.538C378.163 39.95 378.359 39.117 378.212 38.431C377.967 37.206 376.84 36.226 375.762 35.687C375.174 35.442 374.488 35.246 373.851 35.393C372.136 35.883 371.45 38.382 371.646 40.195C372.087 40.832 372.675 41.469 373.41 41.763Z" fill="black"/>
</svg>
