<svg width="147" height="51" viewBox="0 0 147 51" fill="none" xmlns="http://www.w3.org/2000/svg">
<mask id="path-1-outside-1_2028_2" maskUnits="userSpaceOnUse" x="0" y="3" width="148" height="42" fill="black">
<rect fill="white" y="3" width="148" height="42"/>
<path d="M11.8249 42.049C10.8449 42.343 9.76689 42.441 8.73789 42.392C7.26789 42.294 5.65089 41.951 4.57289 40.971C4.03389 40.481 3.59289 39.844 3.34789 39.158C3.05389 38.325 3.05389 37.394 3.05389 36.512C3.10289 34.405 3.69089 32.347 4.08289 30.289C4.47489 27.986 4.76889 25.634 4.47489 23.331C4.13189 20.293 2.36789 17.5 2.26989 14.462C2.22089 13.09 2.51489 11.669 3.10289 10.444C3.69089 9.268 4.52389 8.141 5.65089 7.455C7.26789 6.475 9.47289 6.132 11.2859 6.671C12.0209 6.867 12.6089 7.357 13.1479 7.896C14.1279 8.876 14.8629 10.15 15.1079 11.473C15.6469 14.609 14.8629 17.794 14.5689 20.93C15.3039 21.224 16.1859 21.273 17.0189 21.224C18.3909 21.175 19.7139 20.881 21.0859 20.587C21.0369 19.215 20.6449 17.892 20.4489 16.52C20.2529 15.344 20.3509 14.168 20.5469 13.041C20.8409 11.032 21.9189 9.023 23.4869 7.749C25.3489 6.279 28.6809 6.328 30.4939 7.896C31.2779 8.533 31.8659 9.464 32.1599 10.395C32.6009 11.669 32.6989 13.041 32.6009 14.315C32.4049 16.863 31.5719 19.313 31.1309 21.763C30.7389 23.87 30.5919 26.075 30.8859 28.133C31.1799 30.289 32.0129 32.249 32.4539 34.356C32.7479 35.826 32.6989 37.443 32.1599 38.864C31.8659 39.599 31.4249 40.285 30.8369 40.775C30.1509 41.314 29.3179 41.657 28.4359 41.853C27.1619 42.098 25.8389 41.951 24.5649 41.706C23.5849 41.51 22.5069 41.265 21.6739 40.677C21.0859 40.285 20.5959 39.697 20.3509 39.011C19.9099 37.933 19.7629 36.708 19.7629 35.483C19.7629 33.621 20.3019 31.808 20.8899 30.044C18.9299 29.701 16.9209 29.456 15.0099 29.897C15.5489 32.053 16.0389 34.307 15.8919 36.561C15.8429 37.982 15.2549 39.403 14.2749 40.432C13.6379 41.167 12.7559 41.755 11.8249 42.049ZM53.7762 42.441C51.1792 42.686 48.4842 42.294 46.0342 41.461C43.1432 40.481 40.5462 38.227 38.8802 35.679C38.1942 34.601 37.5082 33.474 37.1162 32.249C36.0872 29.211 36.0872 25.879 36.4302 22.743C36.8222 19.215 38.3902 15.736 40.4972 12.796C41.9672 10.787 43.8782 8.925 46.0832 7.651C48.0922 6.426 50.5422 5.789 52.8942 5.789C55.1972 5.838 57.5002 6.23 59.6562 6.916C61.8122 7.651 63.6742 9.415 64.9972 11.277C66.0262 12.698 66.7122 14.462 67.1042 16.226C67.6922 18.725 67.8392 21.273 67.7902 23.821C67.6922 27.692 66.6632 31.71 64.6542 34.993C63.4782 37.051 61.8122 38.962 59.8032 40.236C58.0392 41.412 55.9322 42.196 53.7762 42.441ZM51.5712 30.485C53.1882 31.367 54.9522 30.093 55.8342 28.525C57.1082 26.369 57.5002 23.625 57.1082 21.175C56.9122 19.999 56.5202 18.823 55.7852 17.843C55.3932 17.304 54.7562 16.765 54.0702 16.618C53.3842 16.422 52.6002 16.618 52.0122 17.059C49.2192 18.921 48.4352 24.262 49.4642 27.447C49.8562 28.623 50.4932 29.897 51.5712 30.485ZM75.8277 42.49C73.3287 42.931 71.7117 40.285 71.2217 37.835C70.9767 36.512 70.8787 35.189 70.9277 33.866C71.1237 29.848 71.9077 25.83 72.8877 21.91C73.3287 19.999 73.8187 18.137 74.4557 16.275C74.7987 15.197 76.6607 10.052 77.2487 9.072C77.2977 8.974 77.4937 8.925 77.5427 8.827C77.9837 8.239 78.4737 7.651 79.0617 7.21C80.1397 6.426 81.5117 5.936 82.8347 5.887C83.0307 5.887 83.6677 5.789 83.8147 5.887C83.9127 5.985 84.5007 6.034 84.6477 6.083C85.1377 6.23 85.6277 6.573 86.0197 6.916C86.6567 7.602 87.0977 8.484 87.5387 9.366C88.5677 11.522 89.3027 13.776 89.9397 16.079C90.6257 18.382 91.2137 20.685 91.8017 22.988C91.8997 22.743 92.5367 21.224 92.6837 20.979C94.2027 17.402 95.9177 13.923 97.9757 10.64C99.3967 8.386 102.582 5.985 105.081 6.916C108.756 8.19 110.177 16.324 110.863 20.146C111.01 21.028 111.99 26.418 112.137 27.3C112.627 30.142 112.97 33.033 112.676 35.875C112.529 37.688 111.941 39.697 110.618 41.02C109.736 41.853 108.168 42.294 106.992 41.902C105.816 41.461 104.836 40.383 104.248 39.256C102.337 35.728 101.357 31.661 100.328 27.741C99.6417 29.407 98.9067 31.024 98.1227 32.641C97.1917 34.552 96.1627 36.414 94.7417 37.982C94.1047 38.619 93.3207 39.158 92.4387 39.354C91.8017 39.501 91.1157 39.403 90.4787 39.158C89.5967 38.717 88.7637 37.982 88.1757 37.149C86.3137 34.503 85.2847 31.318 84.2067 28.231C83.3737 30.975 82.5407 33.768 81.4627 36.414C80.5807 38.521 79.1597 40.53 77.2977 41.804C76.8567 42.147 76.3667 42.392 75.8277 42.49ZM135.801 42.098C132.616 42.245 129.431 42.245 126.295 41.706C124.286 41.363 122.277 40.579 120.758 39.256C118.455 37.247 116.936 34.16 116.495 31.073C115.956 27.839 116.103 24.458 116.593 21.175C116.985 18.235 117.622 15.295 118.945 12.649C119.778 11.081 120.905 9.611 122.228 8.386C123.012 7.651 123.894 7.014 124.923 6.671C126.05 6.23 127.324 6.279 128.5 6.034C130.362 5.691 132.273 5.691 134.135 5.593C137.075 5.397 140.211 5.495 142.808 6.818C143.445 7.161 144.033 7.7 144.474 8.337C144.964 9.121 145.209 10.052 145.258 11.032C145.454 13.972 143.494 16.863 140.554 16.814C139.721 16.814 138.839 16.618 138.055 16.373C136.536 15.981 135.017 15.491 133.449 15.295C132.175 15.197 130.754 15.344 129.725 16.128C129.284 16.471 128.941 17.059 128.941 17.647C128.99 18.137 129.529 18.137 130.019 18.088C131.538 17.892 132.959 17.353 134.478 17.206C135.409 17.108 136.389 17.059 137.271 17.353C138.055 17.696 138.79 18.333 139.133 19.117C139.574 20.195 139.721 21.371 139.623 22.498C139.574 23.576 139.28 24.752 138.594 25.585C138.153 26.173 137.565 26.614 136.879 26.908C136.144 27.202 135.36 27.251 134.527 27.3C133.302 27.349 129.774 26.81 128.892 27.692C127.961 28.574 129.186 29.946 130.46 30.24C131.734 30.485 133.106 30.142 134.38 29.848C136.242 29.456 138.202 28.966 140.064 29.309C141.534 29.505 143.053 30.338 143.837 31.514C144.474 32.494 144.621 33.817 144.376 34.944C143.935 37.1 142.759 39.305 141.044 40.677C139.623 41.804 137.614 42.049 135.801 42.098Z"/>
</mask>
<path d="M11.8249 42.049C10.8449 42.343 9.76689 42.441 8.73789 42.392C7.26789 42.294 5.65089 41.951 4.57289 40.971C4.03389 40.481 3.59289 39.844 3.34789 39.158C3.05389 38.325 3.05389 37.394 3.05389 36.512C3.10289 34.405 3.69089 32.347 4.08289 30.289C4.47489 27.986 4.76889 25.634 4.47489 23.331C4.13189 20.293 2.36789 17.5 2.26989 14.462C2.22089 13.09 2.51489 11.669 3.10289 10.444C3.69089 9.268 4.52389 8.141 5.65089 7.455C7.26789 6.475 9.47289 6.132 11.2859 6.671C12.0209 6.867 12.6089 7.357 13.1479 7.896C14.1279 8.876 14.8629 10.15 15.1079 11.473C15.6469 14.609 14.8629 17.794 14.5689 20.93C15.3039 21.224 16.1859 21.273 17.0189 21.224C18.3909 21.175 19.7139 20.881 21.0859 20.587C21.0369 19.215 20.6449 17.892 20.4489 16.52C20.2529 15.344 20.3509 14.168 20.5469 13.041C20.8409 11.032 21.9189 9.023 23.4869 7.749C25.3489 6.279 28.6809 6.328 30.4939 7.896C31.2779 8.533 31.8659 9.464 32.1599 10.395C32.6009 11.669 32.6989 13.041 32.6009 14.315C32.4049 16.863 31.5719 19.313 31.1309 21.763C30.7389 23.87 30.5919 26.075 30.8859 28.133C31.1799 30.289 32.0129 32.249 32.4539 34.356C32.7479 35.826 32.6989 37.443 32.1599 38.864C31.8659 39.599 31.4249 40.285 30.8369 40.775C30.1509 41.314 29.3179 41.657 28.4359 41.853C27.1619 42.098 25.8389 41.951 24.5649 41.706C23.5849 41.51 22.5069 41.265 21.6739 40.677C21.0859 40.285 20.5959 39.697 20.3509 39.011C19.9099 37.933 19.7629 36.708 19.7629 35.483C19.7629 33.621 20.3019 31.808 20.8899 30.044C18.9299 29.701 16.9209 29.456 15.0099 29.897C15.5489 32.053 16.0389 34.307 15.8919 36.561C15.8429 37.982 15.2549 39.403 14.2749 40.432C13.6379 41.167 12.7559 41.755 11.8249 42.049ZM53.7762 42.441C51.1792 42.686 48.4842 42.294 46.0342 41.461C43.1432 40.481 40.5462 38.227 38.8802 35.679C38.1942 34.601 37.5082 33.474 37.1162 32.249C36.0872 29.211 36.0872 25.879 36.4302 22.743C36.8222 19.215 38.3902 15.736 40.4972 12.796C41.9672 10.787 43.8782 8.925 46.0832 7.651C48.0922 6.426 50.5422 5.789 52.8942 5.789C55.1972 5.838 57.5002 6.23 59.6562 6.916C61.8122 7.651 63.6742 9.415 64.9972 11.277C66.0262 12.698 66.7122 14.462 67.1042 16.226C67.6922 18.725 67.8392 21.273 67.7902 23.821C67.6922 27.692 66.6632 31.71 64.6542 34.993C63.4782 37.051 61.8122 38.962 59.8032 40.236C58.0392 41.412 55.9322 42.196 53.7762 42.441ZM51.5712 30.485C53.1882 31.367 54.9522 30.093 55.8342 28.525C57.1082 26.369 57.5002 23.625 57.1082 21.175C56.9122 19.999 56.5202 18.823 55.7852 17.843C55.3932 17.304 54.7562 16.765 54.0702 16.618C53.3842 16.422 52.6002 16.618 52.0122 17.059C49.2192 18.921 48.4352 24.262 49.4642 27.447C49.8562 28.623 50.4932 29.897 51.5712 30.485ZM75.8277 42.49C73.3287 42.931 71.7117 40.285 71.2217 37.835C70.9767 36.512 70.8787 35.189 70.9277 33.866C71.1237 29.848 71.9077 25.83 72.8877 21.91C73.3287 19.999 73.8187 18.137 74.4557 16.275C74.7987 15.197 76.6607 10.052 77.2487 9.072C77.2977 8.974 77.4937 8.925 77.5427 8.827C77.9837 8.239 78.4737 7.651 79.0617 7.21C80.1397 6.426 81.5117 5.936 82.8347 5.887C83.0307 5.887 83.6677 5.789 83.8147 5.887C83.9127 5.985 84.5007 6.034 84.6477 6.083C85.1377 6.23 85.6277 6.573 86.0197 6.916C86.6567 7.602 87.0977 8.484 87.5387 9.366C88.5677 11.522 89.3027 13.776 89.9397 16.079C90.6257 18.382 91.2137 20.685 91.8017 22.988C91.8997 22.743 92.5367 21.224 92.6837 20.979C94.2027 17.402 95.9177 13.923 97.9757 10.64C99.3967 8.386 102.582 5.985 105.081 6.916C108.756 8.19 110.177 16.324 110.863 20.146C111.01 21.028 111.99 26.418 112.137 27.3C112.627 30.142 112.97 33.033 112.676 35.875C112.529 37.688 111.941 39.697 110.618 41.02C109.736 41.853 108.168 42.294 106.992 41.902C105.816 41.461 104.836 40.383 104.248 39.256C102.337 35.728 101.357 31.661 100.328 27.741C99.6417 29.407 98.9067 31.024 98.1227 32.641C97.1917 34.552 96.1627 36.414 94.7417 37.982C94.1047 38.619 93.3207 39.158 92.4387 39.354C91.8017 39.501 91.1157 39.403 90.4787 39.158C89.5967 38.717 88.7637 37.982 88.1757 37.149C86.3137 34.503 85.2847 31.318 84.2067 28.231C83.3737 30.975 82.5407 33.768 81.4627 36.414C80.5807 38.521 79.1597 40.53 77.2977 41.804C76.8567 42.147 76.3667 42.392 75.8277 42.49ZM135.801 42.098C132.616 42.245 129.431 42.245 126.295 41.706C124.286 41.363 122.277 40.579 120.758 39.256C118.455 37.247 116.936 34.16 116.495 31.073C115.956 27.839 116.103 24.458 116.593 21.175C116.985 18.235 117.622 15.295 118.945 12.649C119.778 11.081 120.905 9.611 122.228 8.386C123.012 7.651 123.894 7.014 124.923 6.671C126.05 6.23 127.324 6.279 128.5 6.034C130.362 5.691 132.273 5.691 134.135 5.593C137.075 5.397 140.211 5.495 142.808 6.818C143.445 7.161 144.033 7.7 144.474 8.337C144.964 9.121 145.209 10.052 145.258 11.032C145.454 13.972 143.494 16.863 140.554 16.814C139.721 16.814 138.839 16.618 138.055 16.373C136.536 15.981 135.017 15.491 133.449 15.295C132.175 15.197 130.754 15.344 129.725 16.128C129.284 16.471 128.941 17.059 128.941 17.647C128.99 18.137 129.529 18.137 130.019 18.088C131.538 17.892 132.959 17.353 134.478 17.206C135.409 17.108 136.389 17.059 137.271 17.353C138.055 17.696 138.79 18.333 139.133 19.117C139.574 20.195 139.721 21.371 139.623 22.498C139.574 23.576 139.28 24.752 138.594 25.585C138.153 26.173 137.565 26.614 136.879 26.908C136.144 27.202 135.36 27.251 134.527 27.3C133.302 27.349 129.774 26.81 128.892 27.692C127.961 28.574 129.186 29.946 130.46 30.24C131.734 30.485 133.106 30.142 134.38 29.848C136.242 29.456 138.202 28.966 140.064 29.309C141.534 29.505 143.053 30.338 143.837 31.514C144.474 32.494 144.621 33.817 144.376 34.944C143.935 37.1 142.759 39.305 141.044 40.677C139.623 41.804 137.614 42.049 135.801 42.098Z" fill="#0FC1C1"/>
<path d="M11.8249 42.049L12.3996 43.9647L12.4134 43.9605L12.4271 43.9562L11.8249 42.049ZM8.73789 42.392L8.60485 44.3876L8.62379 44.3888L8.64276 44.3897L8.73789 42.392ZM4.57289 40.971L5.91823 39.4911L4.57289 40.971ZM3.34789 39.158L1.46189 39.8236L1.4644 39.8307L3.34789 39.158ZM3.05389 36.512L1.05443 36.4655L1.05389 36.4887V36.512H3.05389ZM4.08289 30.289L6.04756 30.6632L6.05124 30.6439L6.05453 30.6246L4.08289 30.289ZM4.47489 23.331L2.48751 23.5554L2.48915 23.5698L2.49099 23.5843L4.47489 23.331ZM2.26989 14.462L4.26886 14.3975L4.26861 14.3906L2.26989 14.462ZM3.10289 10.444L1.31403 9.54957L1.30682 9.564L1.29984 9.57854L3.10289 10.444ZM5.65089 7.455L4.61428 5.7446L4.61099 5.7466L5.65089 7.455ZM11.2859 6.671L10.7159 8.58807L10.7431 8.59616L10.7706 8.60347L11.2859 6.671ZM13.1479 7.896L14.5621 6.48178L14.5621 6.48178L13.1479 7.896ZM15.1079 11.473L17.079 11.1342L17.0768 11.1215L17.0745 11.1088L15.1079 11.473ZM14.5689 20.93L12.5776 20.7433L12.4381 22.2317L13.8261 22.787L14.5689 20.93ZM17.0189 21.224L16.9475 19.2253L16.9245 19.2261L16.9014 19.2274L17.0189 21.224ZM21.0859 20.587L21.5049 22.5426L23.1445 22.1913L23.0846 20.5156L21.0859 20.587ZM20.4489 16.52L22.4288 16.2372L22.4255 16.2141L22.4217 16.1912L20.4489 16.52ZM20.5469 13.041L22.5173 13.3837L22.5219 13.3572L22.5258 13.3306L20.5469 13.041ZM23.4869 7.749L22.2476 6.17923L22.2366 6.18792L22.2257 6.19677L23.4869 7.749ZM30.4939 7.896L29.1856 9.40872L29.2088 9.42884L29.2327 9.44823L30.4939 7.896ZM32.1599 10.395L30.2527 10.9973L30.261 11.0234L30.2699 11.0492L32.1599 10.395ZM32.6009 14.315L34.595 14.4684V14.4684L32.6009 14.315ZM31.1309 21.763L33.0972 22.1288L33.0993 22.1173L31.1309 21.763ZM30.8859 28.133L32.8676 27.8628L32.8658 27.8502L30.8859 28.133ZM32.4539 34.356L34.4151 33.9638L34.4133 33.955L34.4115 33.9463L32.4539 34.356ZM32.1599 38.864L34.0168 39.6068L34.0235 39.5901L34.0299 39.5733L32.1599 38.864ZM30.8369 40.775L32.0725 42.3476L32.0952 42.3299L32.1173 42.3114L30.8369 40.775ZM28.4359 41.853L28.8136 43.817L28.8417 43.8116L28.8697 43.8054L28.4359 41.853ZM24.5649 41.706L24.1727 43.6672L24.1799 43.6686L24.1872 43.67L24.5649 41.706ZM21.6739 40.677L22.8273 39.0431L22.8055 39.0277L22.7833 39.0129L21.6739 40.677ZM20.3509 39.011L22.2344 38.3383L22.2191 38.2957L22.202 38.2537L20.3509 39.011ZM20.8899 30.044L22.7873 30.6765L23.5214 28.4741L21.2346 28.0739L20.8899 30.044ZM15.0099 29.897L14.5602 27.9482L12.5756 28.4062L13.0696 30.3821L15.0099 29.897ZM15.8919 36.561L13.8961 36.4308L13.8941 36.4614L13.8931 36.4921L15.8919 36.561ZM14.2749 40.432L12.8266 39.0527L12.7942 39.0867L12.7635 39.1221L14.2749 40.432ZM11.2502 40.1333C10.5278 40.3501 9.68229 40.4347 8.83302 40.3943L8.64276 44.3897C9.85149 44.4473 11.162 44.3359 12.3996 43.9647L11.2502 40.1333ZM8.87092 40.3964C7.5079 40.3056 6.47438 39.9967 5.91823 39.4911L3.22754 42.4509C4.82739 43.9053 7.02787 44.2824 8.60485 44.3876L8.87092 40.3964ZM5.91823 39.4911C5.60314 39.2047 5.35763 38.8389 5.23137 38.4853L1.4644 39.8307C1.82814 40.8491 2.46463 41.7573 3.22754 42.4509L5.91823 39.4911ZM5.23387 38.4924C5.07397 38.0393 5.05389 37.4647 5.05389 36.512H1.05389C1.05389 37.3233 1.0338 38.6107 1.46191 39.8236L5.23387 38.4924ZM5.05335 36.5585C5.09723 34.6716 5.60964 32.9623 6.04756 30.6632L2.11821 29.9148C1.77213 31.7317 1.10854 34.1384 1.05443 36.4655L5.05335 36.5585ZM6.05453 30.6246C6.45158 28.2919 6.79259 25.6926 6.45879 23.0777L2.49099 23.5843C2.74518 25.5754 2.49819 27.6801 2.11124 29.9534L6.05453 30.6246ZM6.46226 23.1066C6.26107 21.3246 5.64478 19.6358 5.17386 18.2521C4.67225 16.7782 4.30705 15.5817 4.26885 14.3975L0.270927 14.5265C0.330726 16.3803 0.896525 18.0993 1.38716 19.5409C1.90849 21.0727 2.3457 22.2994 2.48751 23.5554L6.46226 23.1066ZM4.26861 14.3906C4.23101 13.3377 4.45991 12.2387 4.90593 11.3095L1.29984 9.57854C0.569867 11.0993 0.210764 12.8423 0.271161 14.5334L4.26861 14.3906ZM4.89174 11.3384C5.38802 10.3459 6.00504 9.5808 6.69078 9.16339L4.61099 5.7466C3.04273 6.70119 1.99375 8.19013 1.31403 9.54957L4.89174 11.3384ZM6.68749 9.16539C7.85968 8.45497 9.4844 8.22194 10.7159 8.58807L11.8558 4.75393C9.46137 4.04206 6.67609 4.49502 4.61428 5.7446L6.68749 9.16539ZM10.7706 8.60347C10.97 8.65666 11.2445 8.82102 11.7337 9.31021L14.5621 6.48178C13.9733 5.89298 13.0718 5.07734 11.8012 4.73853L10.7706 8.60347ZM11.7337 9.31021C12.4743 10.0509 12.9812 10.9724 13.1413 11.8372L17.0745 11.1088C16.7446 9.32759 15.7814 7.70111 14.5621 6.48178L11.7337 9.31021ZM13.1368 11.8118C13.361 13.1163 13.3193 14.4868 13.1616 15.9933C13.0827 16.7472 12.9787 17.504 12.8709 18.3029C12.7647 19.0895 12.6554 19.9138 12.5776 20.7433L16.5602 21.1167C16.6294 20.3782 16.7283 19.6283 16.835 18.8378C16.94 18.0595 17.0534 17.236 17.1399 16.4097C17.313 14.7557 17.3938 12.9657 17.079 11.1342L13.1368 11.8118ZM13.8261 22.787C14.9626 23.2416 16.1895 23.2762 17.1363 23.2205L16.9014 19.2274C16.1823 19.2698 15.6452 19.2064 15.3117 19.073L13.8261 22.787ZM17.0903 23.2227C18.6721 23.1662 20.177 22.8272 21.5049 22.5426L20.6668 18.6314C19.2508 18.9348 18.1097 19.1838 16.9475 19.2253L17.0903 23.2227ZM23.0846 20.5156C23.0545 19.6718 22.9202 18.8761 22.787 18.1785C22.6454 17.4363 22.518 16.8616 22.4288 16.2372L18.469 16.8028C18.5758 17.5504 18.7424 18.3232 18.858 18.9285C18.9821 19.5784 19.0683 20.1302 19.0872 20.6584L23.0846 20.5156ZM22.4217 16.1912C22.2779 15.3288 22.34 14.403 22.5173 13.3837L18.5765 12.6983C18.3617 13.933 18.2278 15.3592 18.4761 16.8488L22.4217 16.1912ZM22.5258 13.3306C22.753 11.7778 23.5992 10.2347 24.7481 9.30122L22.2257 6.19677C20.2386 7.81129 18.9287 10.2862 18.568 12.7514L22.5258 13.3306ZM24.7262 9.31876C25.214 8.93362 26.0278 8.66501 26.9709 8.68289C27.9132 8.70075 28.7122 8.99936 29.1856 9.40872L31.8022 6.38327C30.4625 5.22464 28.6891 4.71474 27.0467 4.68361C25.4049 4.65248 23.6217 5.09438 22.2476 6.17923L24.7262 9.31876ZM29.2327 9.44823C29.6799 9.81155 30.0629 10.3962 30.2527 10.9973L34.0671 9.79273C33.6688 8.53177 32.8759 7.25444 31.7551 6.34377L29.2327 9.44823ZM30.2699 11.0492C30.5989 11.9996 30.6897 13.0838 30.6068 14.1616L34.595 14.4684C34.7081 12.9982 34.6029 11.3384 34.0499 9.74078L30.2699 11.0492ZM30.6068 14.1616C30.5208 15.2787 30.2925 16.4077 30.0098 17.6225C29.7378 18.7917 29.395 20.1174 29.1625 21.4087L33.0993 22.1173C33.3078 20.9586 33.602 19.8343 33.9057 18.529C34.1988 17.2693 34.4849 15.8993 34.595 14.4684L30.6068 14.1616ZM29.1646 21.3972C28.7459 23.6478 28.5725 26.0813 28.906 28.4158L32.8658 27.8502C32.6113 26.0687 32.7319 24.0922 33.0971 22.1288L29.1646 21.3972ZM28.9042 28.4032C29.0729 29.6405 29.3923 30.7921 29.6957 31.826C30.0103 32.8984 30.2966 33.8116 30.4963 34.7657L34.4115 33.9463C34.1702 32.7934 33.8195 31.6731 33.5339 30.6998C33.237 29.6879 32.9928 28.7815 32.8675 27.8628L28.9042 28.4032ZM30.4927 34.7482C30.7282 35.9256 30.6706 37.1509 30.2899 38.1547L34.0299 39.5733C34.7271 37.7351 34.7676 35.7264 34.4151 33.9638L30.4927 34.7482ZM30.3029 38.1212C30.0979 38.6337 29.8268 39.0133 29.5565 39.2386L32.1173 42.3114C33.023 41.5567 33.6338 40.5643 34.0168 39.6068L30.3029 38.1212ZM29.6012 39.2024C29.2078 39.5115 28.672 39.7517 28.002 39.9006L28.8697 43.8054C29.9638 43.5623 31.094 43.1165 32.0725 42.3476L29.6012 39.2024ZM28.0582 39.889C27.1622 40.0613 26.1399 39.9722 24.9426 39.742L24.1872 43.67C25.5378 43.9298 27.1615 44.1347 28.8136 43.817L28.0582 39.889ZM24.9571 39.7448C23.9388 39.5412 23.2678 39.3541 22.8273 39.0431L20.5205 42.3109C21.7459 43.1759 23.231 43.4788 24.1727 43.6672L24.9571 39.7448ZM22.7833 39.0129C22.5186 38.8365 22.3213 38.5817 22.2344 38.3383L18.4674 39.6837C18.8705 40.8123 19.6531 41.7335 20.5645 42.3411L22.7833 39.0129ZM22.202 38.2537C21.8969 37.5079 21.7629 36.5704 21.7629 35.483H17.7629C17.7629 36.8456 17.9229 38.3581 18.4998 39.7683L22.202 38.2537ZM21.7629 35.483C21.7629 33.9762 22.2007 32.4361 22.7873 30.6765L18.9925 29.4115C18.4031 31.1799 17.7629 33.2658 17.7629 35.483H21.7629ZM21.2346 28.0739C19.2543 27.7274 16.8962 27.4091 14.5602 27.9482L15.4596 31.8458C16.9456 31.5029 18.6055 31.6746 20.5451 32.0141L21.2346 28.0739ZM13.0696 30.3821C13.6076 32.5342 14.0208 34.5185 13.8961 36.4308L17.8876 36.6912C18.0569 34.0955 17.4901 31.5718 16.9502 29.4119L13.0696 30.3821ZM13.8931 36.4921C13.8607 37.432 13.4631 38.3844 12.8266 39.0527L15.7232 41.8113C17.0467 40.4216 17.8251 38.532 17.8907 36.6299L13.8931 36.4921ZM12.7635 39.1221C12.3625 39.5848 11.7925 39.9619 11.2226 40.1418L12.4271 43.9562C13.7192 43.5481 14.9133 42.7492 15.7863 41.7419L12.7635 39.1221ZM53.7762 42.441L53.964 44.4322L53.983 44.4304L54.002 44.4282L53.7762 42.441ZM46.0342 41.461L46.678 39.5675L46.6762 39.5669L46.0342 41.461ZM38.8802 35.679L37.1928 36.7528L37.1995 36.7632L37.2062 36.7735L38.8802 35.679ZM37.1162 32.249L39.021 31.6394L39.0159 31.6234L39.0104 31.6074L37.1162 32.249ZM36.4302 22.743L34.4424 22.5221L34.442 22.5255L36.4302 22.743ZM40.4972 12.796L38.8831 11.615L38.8773 11.6229L38.8715 11.631L40.4972 12.796ZM46.0832 7.651L47.0837 9.38273L47.1042 9.3709L47.1244 9.35859L46.0832 7.651ZM52.8942 5.789L52.9367 3.78945L52.9154 3.789H52.8942V5.789ZM59.6562 6.916L60.3015 5.02298L60.2821 5.01636L60.2626 5.01015L59.6562 6.916ZM64.9972 11.277L63.3668 12.4354L63.372 12.4427L63.3773 12.45L64.9972 11.277ZM67.1042 16.226L65.1518 16.6599L65.1545 16.672L65.1573 16.6841L67.1042 16.226ZM67.7902 23.821L69.7896 23.8716L69.7898 23.8595L67.7902 23.821ZM64.6542 34.993L62.9482 33.9491L62.9326 33.9747L62.9177 34.0007L64.6542 34.993ZM59.8032 40.236L58.7321 38.547L58.7128 38.5592L58.6938 38.5719L59.8032 40.236ZM51.5712 30.485L52.5289 28.7292L51.5712 30.485ZM55.8342 28.525L54.1123 27.5075L54.1015 27.5259L54.091 27.5445L55.8342 28.525ZM57.1082 21.175L59.0831 20.859L59.0809 20.8462L57.1082 21.175ZM55.7852 17.843L54.1677 19.0193L54.1763 19.0312L54.1852 19.043L55.7852 17.843ZM54.0702 16.618L53.5207 18.541L53.5854 18.5595L53.6511 18.5736L54.0702 16.618ZM52.0122 17.059L53.1216 18.7231L53.1678 18.6923L53.2122 18.659L52.0122 17.059ZM49.4642 27.447L47.561 28.0619L47.5639 28.0707L47.5668 28.0795L49.4642 27.447ZM53.5883 40.4498C51.3087 40.6649 48.8977 40.3222 46.678 39.5675L45.3904 43.3545C48.0706 44.2658 51.0496 44.7071 53.964 44.4322L53.5883 40.4498ZM46.6762 39.5669C44.2856 38.7565 42.0236 36.832 40.5541 34.5845L37.2062 36.7735C39.0687 39.622 42.0007 42.2055 45.3921 43.3551L46.6762 39.5669ZM40.5675 34.6052C39.8772 33.5205 39.3252 32.5901 39.021 31.6394L35.2113 32.8586C35.6911 34.3579 36.5111 35.6815 37.1928 36.7528L40.5675 34.6052ZM39.0104 31.6074C38.1174 28.9708 38.0885 25.976 38.4183 22.9605L34.442 22.5255C34.0858 25.782 34.0569 29.4512 35.2219 32.8906L39.0104 31.6074ZM38.4179 22.9639C38.7632 19.8566 40.1624 16.6964 42.1228 13.961L38.8715 11.631C36.6179 14.7756 34.8811 18.5734 34.4424 22.5221L38.4179 22.9639ZM42.1112 13.977C43.4511 12.1459 45.1644 10.4916 47.0837 9.38273L45.0826 5.91927C42.5919 7.35835 40.4832 9.42814 38.8831 11.615L42.1112 13.977ZM47.1244 9.35859C48.796 8.3393 50.8807 7.789 52.8942 7.789V3.789C50.2036 3.789 47.3883 4.5127 45.0419 5.94341L47.1244 9.35859ZM52.8516 7.78855C54.9595 7.83339 57.0727 8.1928 59.0498 8.82185L60.2626 5.01015C57.9276 4.2672 55.4348 3.8426 52.9367 3.78945L52.8516 7.78855ZM59.0108 8.80902C60.6169 9.35656 62.173 10.7553 63.3668 12.4354L66.6275 10.1186C65.1753 8.07471 63.0074 5.94543 60.3015 5.02298L59.0108 8.80902ZM63.3773 12.45C64.2039 13.5915 64.8011 15.0816 65.1518 16.6599L69.0565 15.7921C68.6233 13.8424 67.8484 11.8045 66.6171 10.104L63.3773 12.45ZM65.1573 16.6841C65.6937 18.9636 65.8377 21.331 65.7905 23.7825L69.7898 23.8595C69.8406 21.215 69.6906 18.4863 69.051 15.7679L65.1573 16.6841ZM65.7908 23.7704C65.7003 27.3464 64.7467 31.0102 62.9482 33.9491L66.3601 36.0369C68.5797 32.4098 69.6841 28.0376 69.7895 23.8716L65.7908 23.7704ZM62.9177 34.0007C61.8698 35.8346 60.4137 37.4806 58.7321 38.547L60.8742 41.925C63.2106 40.4434 65.0866 38.2674 66.3906 35.9853L62.9177 34.0007ZM58.6938 38.5719C57.1908 39.5739 55.386 40.2452 53.5503 40.4538L54.002 44.4282C56.4783 44.1468 58.8875 43.2501 60.9126 41.9001L58.6938 38.5719ZM50.6135 32.2408C52.1472 33.0774 53.7222 32.8309 54.9239 32.1861C56.0769 31.5674 56.9899 30.5499 57.5773 29.5055L54.091 27.5445C53.7965 28.0681 53.3864 28.4716 53.0326 28.6614C52.7276 28.8251 52.6121 28.7746 52.5289 28.7292L50.6135 32.2408ZM57.556 29.5425C59.1006 26.9285 59.5376 23.7001 59.083 20.859L55.1333 21.491C55.4627 23.5499 55.1157 25.8095 54.1123 27.5075L57.556 29.5425ZM59.0809 20.8462C58.8522 19.4738 58.374 17.9614 57.3852 16.643L54.1852 19.043C54.6664 19.6846 54.9721 20.5242 55.1354 21.5038L59.0809 20.8462ZM57.4026 16.6667C56.843 15.8972 55.8275 14.9492 54.4892 14.6624L53.6511 18.5736C53.6394 18.5711 53.7085 18.5864 53.8379 18.6835C53.9624 18.7769 54.0814 18.9007 54.1677 19.0193L57.4026 16.6667ZM54.6196 14.695C53.2277 14.2973 51.807 14.7129 50.8122 15.459L53.2122 18.659C53.2838 18.6053 53.3677 18.5678 53.4418 18.5512C53.5155 18.5347 53.5403 18.5466 53.5207 18.541L54.6196 14.695ZM50.9028 15.3949C48.8804 16.7431 47.8138 19.1452 47.3483 21.3424C46.8736 23.5836 46.9199 26.0774 47.561 28.0619L51.3673 26.8321C50.9794 25.6316 50.9033 23.8624 51.2615 22.1714C51.6291 20.4363 52.3509 19.2369 53.1216 18.7231L50.9028 15.3949ZM47.5668 28.0795C47.982 29.325 48.8195 31.2623 50.6135 32.2408L52.5289 28.7292C52.1668 28.5317 51.7304 27.921 51.3615 26.8145L47.5668 28.0795ZM75.8277 42.49L76.1753 44.4596L76.1855 44.4577L75.8277 42.49ZM71.2217 37.835L69.2551 38.1992L69.2577 38.2132L69.2605 38.2272L71.2217 37.835ZM70.9277 33.866L68.9301 33.7686L68.9295 33.7803L68.9291 33.792L70.9277 33.866ZM72.8877 21.91L74.828 22.3951L74.8324 22.3774L74.8365 22.3597L72.8877 21.91ZM74.4557 16.275L76.348 16.9224L76.355 16.902L76.3615 16.8814L74.4557 16.275ZM77.2487 9.072L78.9637 10.101L79.0032 10.0351L79.0375 9.96644L77.2487 9.072ZM77.5427 8.827L75.9427 7.627L75.8345 7.77127L75.7538 7.93258L77.5427 8.827ZM79.0617 7.21L77.8854 5.59253L77.8735 5.60117L77.8617 5.61L79.0617 7.21ZM82.8347 5.887V3.887H82.7977L82.7607 3.88837L82.8347 5.887ZM83.8147 5.887L85.2289 4.47279L85.0889 4.33275L84.9241 4.22289L83.8147 5.887ZM84.6477 6.083L84.0152 7.98037L84.044 7.98995L84.073 7.99865L84.6477 6.083ZM86.0197 6.916L87.4853 5.5551L87.4147 5.47912L87.3367 5.41085L86.0197 6.916ZM87.5387 9.366L89.3437 8.50454L89.3358 8.48798L89.3275 8.47157L87.5387 9.366ZM89.9397 16.079L88.0121 16.6122L88.0173 16.6311L88.0229 16.65L89.9397 16.079ZM91.8017 22.988L89.8639 23.4828L91.381 29.4249L93.6586 23.7308L91.8017 22.988ZM92.6837 20.979L94.3987 22.008L94.4702 21.8887L94.5246 21.7607L92.6837 20.979ZM97.9757 10.64L96.2838 9.57339L96.2811 9.57773L97.9757 10.64ZM105.081 6.916L104.382 8.79016L104.404 8.79816L104.426 8.80567L105.081 6.916ZM110.863 20.146L112.835 19.8172L112.833 19.8049L112.831 19.7927L110.863 20.146ZM112.137 27.3L110.164 27.6288L110.166 27.6398L112.137 27.3ZM112.676 35.875L110.686 35.6692L110.684 35.6913L110.682 35.7134L112.676 35.875ZM110.618 41.02L111.991 42.474L112.012 42.4544L112.032 42.4342L110.618 41.02ZM106.992 41.902L106.289 43.7747L106.324 43.7877L106.359 43.7994L106.992 41.902ZM104.248 39.256L106.021 38.3309L106.014 38.3171L106.006 38.3034L104.248 39.256ZM100.328 27.741L102.262 27.2332L100.748 21.4665L98.4783 26.9795L100.328 27.741ZM98.1227 32.641L99.9207 33.5169L99.9223 33.5135L98.1227 32.641ZM94.7417 37.982L96.1559 39.3962L96.1907 39.3615L96.2237 39.325L94.7417 37.982ZM92.4387 39.354L92.0048 37.4016L91.9969 37.4034L91.989 37.4052L92.4387 39.354ZM90.4787 39.158L89.5843 40.9469L89.6706 40.99L89.7607 41.0247L90.4787 39.158ZM88.1757 37.149L86.5401 38.3L86.5418 38.3024L88.1757 37.149ZM84.2067 28.231L86.0949 27.5716L84.0737 21.7838L82.2929 27.65L84.2067 28.231ZM81.4627 36.414L83.3076 37.1863L83.3113 37.1775L83.3149 37.1686L81.4627 36.414ZM77.2977 41.804L76.1683 40.1534L76.118 40.1878L76.0698 40.2253L77.2977 41.804ZM75.4801 40.5204C75.1244 40.5832 74.7565 40.4925 74.2934 39.9493C73.7942 39.3635 73.3809 38.4329 73.1829 37.4428L69.2605 38.2272C69.5525 39.6871 70.1927 41.3045 71.2492 42.544C72.3419 43.826 74.032 44.8378 76.1753 44.4596L75.4801 40.5204ZM73.1883 37.4708C72.9696 36.2899 72.8828 35.1138 72.9263 33.94L68.9291 33.792C68.8745 35.2642 68.9838 36.7341 69.2551 38.1992L73.1883 37.4708ZM72.9253 33.9634C73.1123 30.1311 73.8628 26.2556 74.828 22.3951L70.9474 21.4249C69.9526 25.4044 69.1351 29.5649 68.9301 33.7686L72.9253 33.9634ZM74.8365 22.3597C75.2689 20.486 75.7412 18.6961 76.348 16.9224L72.5634 15.6276C71.8962 17.5779 71.3885 19.512 70.9389 21.4603L74.8365 22.3597ZM76.3615 16.8814C76.5165 16.3945 77.0524 14.879 77.6318 13.3422C77.9191 12.5801 78.2097 11.8323 78.4615 11.2216C78.5876 10.9158 78.6997 10.6546 78.7937 10.4483C78.8406 10.3454 78.8801 10.2627 78.912 10.199C78.9278 10.1675 78.9405 10.1433 78.9501 10.1255C78.9599 10.1073 78.9643 10.0999 78.9637 10.101L75.5337 8.04301C75.2965 8.43841 75.0155 9.08557 74.7634 9.69703C74.49 10.3603 74.1834 11.1499 73.8889 11.9312C73.3045 13.4815 72.7379 15.0775 72.5498 15.6686L76.3615 16.8814ZM79.0375 9.96644C78.94 10.1616 78.8262 10.3045 78.738 10.3993C78.6505 10.4934 78.5714 10.5581 78.5233 10.5949C78.4744 10.6322 78.4367 10.6565 78.4241 10.6646C78.4128 10.6718 78.4052 10.6762 78.4247 10.6645C78.4359 10.6578 78.4741 10.635 78.5148 10.6091C78.5569 10.5823 78.623 10.5388 78.6979 10.4816C78.772 10.4248 78.8748 10.3395 78.9827 10.2235C79.0911 10.1069 79.2217 9.94108 79.3316 9.72141L75.7538 7.93258C75.8514 7.73742 75.9652 7.59456 76.0533 7.49976C76.1409 7.40559 76.2199 7.34093 76.2681 7.30413C76.3169 7.26676 76.3547 7.24247 76.3673 7.23442C76.3786 7.22724 76.3861 7.22285 76.3667 7.23451C76.3555 7.24122 76.3173 7.26399 76.2766 7.28993C76.2345 7.31672 76.1684 7.36016 76.0935 7.41743C76.0194 7.47413 75.9166 7.55947 75.8087 7.67546C75.7003 7.79207 75.5697 7.9579 75.4598 8.17756L79.0375 9.96644ZM79.1427 10.027C79.5573 9.47419 79.9091 9.07441 80.2617 8.81L77.8617 5.61C77.0382 6.22758 76.4101 7.0038 75.9427 7.627L79.1427 10.027ZM80.238 8.82747C81.008 8.26748 81.9991 7.91932 82.9087 7.88563L82.7607 3.88837C81.0243 3.95268 79.2714 4.58452 77.8854 5.59253L80.238 8.82747ZM82.8347 7.887C82.9288 7.887 83.0146 7.88166 83.0632 7.87834C83.1185 7.87457 83.1752 7.86979 83.2202 7.86595C83.3222 7.85723 83.394 7.85083 83.4641 7.84659C83.4963 7.84463 83.5182 7.8438 83.5316 7.84353C83.5466 7.84324 83.5398 7.84388 83.5172 7.84263C83.5007 7.84172 83.4293 7.83759 83.327 7.81609C83.2736 7.80485 83.1929 7.78502 83.0962 7.74972C83.0022 7.71543 82.8614 7.65518 82.7053 7.5511L84.9241 4.22289C84.5993 4.00637 84.2882 3.93073 84.1498 3.90164C83.9838 3.86673 83.837 3.85418 83.737 3.84868C83.5376 3.8377 83.3474 3.84632 83.2221 3.85391C83.09 3.86192 82.9567 3.87389 82.8795 3.88048C82.7585 3.89083 82.7791 3.887 82.8347 3.887V7.887ZM82.4005 7.3012C82.69 7.59078 82.9976 7.7233 83.098 7.76546C83.2385 7.82449 83.3649 7.86161 83.4463 7.88351C83.6103 7.9276 83.7724 7.95695 83.873 7.97429C83.9349 7.98497 84.1341 8.0172 84.1373 8.01774C84.1679 8.02289 84.1762 8.02462 84.172 8.02376C84.1691 8.02317 84.1553 8.02032 84.1341 8.01507C84.1154 8.01045 84.0722 7.99935 84.0152 7.98037L85.2801 4.18563C85.2048 4.16052 85.1398 4.1433 85.0963 4.13253C85.0503 4.12113 85.0087 4.11211 84.9754 4.10529C84.9106 4.09199 84.848 4.0811 84.8013 4.07322C84.7538 4.06523 84.7025 4.05704 84.6636 4.05076C84.6208 4.04387 84.5853 4.03809 84.5526 4.03245C84.5199 4.02681 84.4971 4.02253 84.4817 4.01939C84.4648 4.01595 84.4679 4.01612 84.4847 4.02065C84.4939 4.02312 84.5119 4.02814 84.5364 4.03615C84.5601 4.04388 84.5987 4.05727 84.6472 4.07763C84.6935 4.0971 84.7682 4.13097 84.857 4.18351C84.9407 4.23303 85.0809 4.32481 85.2289 4.47279L82.4005 7.3012ZM84.073 7.99865C84.1575 8.02399 84.3905 8.14801 84.7027 8.42115L87.3367 5.41085C86.8649 4.99798 86.1179 4.43601 85.2224 4.16735L84.073 7.99865ZM84.5541 8.2769C84.9609 8.71504 85.2813 9.32329 85.7498 10.2604L89.3275 8.47157C88.9141 7.64471 88.3524 6.48896 87.4853 5.5551L84.5541 8.2769ZM85.7337 10.2275C86.6909 12.2329 87.3894 14.3609 88.0121 16.6122L91.8673 15.5458C91.216 13.1911 90.4445 10.8111 89.3437 8.50454L85.7337 10.2275ZM88.0229 16.65C88.6958 18.9089 89.2743 21.1737 89.8639 23.4828L93.7395 22.4932C93.1531 20.1963 92.5556 17.8551 91.8565 15.508L88.0229 16.65ZM93.6586 23.7308C93.6981 23.6322 93.8739 23.2097 94.0613 22.7744C94.154 22.5591 94.2448 22.3517 94.3192 22.1877C94.3566 22.1052 94.3863 22.0414 94.4079 21.9968C94.4381 21.9345 94.4305 21.9549 94.3987 22.008L90.9687 19.95C90.807 20.2195 90.544 20.8288 90.3874 21.1926C90.195 21.6393 90.0033 22.0988 89.9447 22.2452L93.6586 23.7308ZM94.5246 21.7607C96.0151 18.2507 97.6835 14.8717 99.6703 11.7023L96.2811 9.57773C94.1519 12.9743 92.3903 16.5533 90.8428 20.1973L94.5246 21.7607ZM99.6675 11.7066C100.215 10.8386 101.14 9.90155 102.147 9.30221C103.193 8.67966 103.948 8.62845 104.382 8.79016L105.779 5.04183C103.714 4.27255 101.628 4.95634 100.101 5.86504C98.5354 6.79695 97.1576 8.18738 96.2838 9.57339L99.6675 11.7066ZM104.426 8.80567C104.76 8.92161 105.229 9.26642 105.769 10.0846C106.297 10.8853 106.775 11.9618 107.197 13.2145C108.043 15.7212 108.547 18.5627 108.894 20.4993L112.831 19.7927C112.493 17.9073 111.943 14.7708 110.988 11.9365C110.51 10.5187 109.901 9.08394 109.107 7.88175C108.326 6.69708 107.239 5.54739 105.736 5.02633L104.426 8.80567ZM108.89 20.4748C108.966 20.9322 109.251 22.5199 109.531 24.0767C109.815 25.6559 110.093 27.2042 110.164 27.6288L114.109 26.9712C114.033 26.5138 113.748 24.9261 113.468 23.3693C113.184 21.7901 112.906 20.2418 112.835 19.8172L108.89 20.4748ZM110.166 27.6398C110.647 30.4333 110.951 33.1061 110.686 35.6692L114.665 36.0808C114.988 32.9599 114.606 29.8507 114.108 26.9602L110.166 27.6398ZM110.682 35.7134C110.554 37.3005 110.05 38.7597 109.203 39.6058L112.032 42.4342C113.832 40.6343 114.504 38.0755 114.669 36.0366L110.682 35.7134ZM109.244 39.566C109.087 39.7151 108.792 39.8878 108.421 39.9823C108.047 40.0775 107.764 40.0514 107.624 40.0046L106.359 43.7994C107.395 44.1446 108.484 44.094 109.409 43.8585C110.336 43.6222 111.267 43.1579 111.991 42.474L109.244 39.566ZM107.694 40.0293C107.13 39.8177 106.468 39.1876 106.021 38.3309L102.475 40.1811C103.204 41.5784 104.502 43.1043 106.289 43.7747L107.694 40.0293ZM106.006 38.3034C104.236 35.0351 103.314 31.2408 102.262 27.2332L98.3932 28.2488C99.3992 32.0812 100.437 36.4209 102.489 40.2086L106.006 38.3034ZM98.4783 26.9795C97.8105 28.6015 97.0927 30.181 96.3231 31.7684L99.9223 33.5135C100.721 31.867 101.473 30.2125 102.177 28.5025L98.4783 26.9795ZM96.3247 31.7651C95.4143 33.6337 94.4848 35.2871 93.2597 36.639L96.2237 39.325C97.8406 37.5409 98.969 35.4703 99.9207 33.5169L96.3247 31.7651ZM93.3275 36.5678C92.8476 37.0477 92.3866 37.3168 92.0048 37.4016L92.8726 41.3064C94.2548 40.9992 95.3618 40.1903 96.1559 39.3962L93.3275 36.5678ZM91.989 37.4052C91.8433 37.4388 91.5736 37.4363 91.1966 37.2913L89.7607 41.0247C90.6578 41.3697 91.76 41.5632 92.8884 41.3028L91.989 37.4052ZM91.3731 37.3691C90.8079 37.0865 90.2218 36.5795 89.8096 35.9956L86.5418 38.3024C87.3056 39.3845 88.3855 40.3475 89.5843 40.9469L91.3731 37.3691ZM89.8113 35.998C88.146 33.6316 87.2073 30.7572 86.0949 27.5716L82.3185 28.8904C83.3621 31.8788 84.4813 35.3744 86.5401 38.3L89.8113 35.998ZM82.2929 27.65C81.4522 30.4194 80.6466 33.1162 79.6105 35.6594L83.3149 37.1686C84.4348 34.4198 85.2952 31.5306 86.1205 28.812L82.2929 27.65ZM79.6178 35.6417C78.8426 37.4937 77.6327 39.1514 76.1683 40.1534L78.4271 43.4546C80.6866 41.9086 82.3188 39.5483 83.3076 37.1863L79.6178 35.6417ZM76.0698 40.2253C75.8311 40.411 75.6326 40.4927 75.4699 40.5223L76.1855 44.4577C77.1008 44.2913 77.8823 43.883 78.5256 43.3827L76.0698 40.2253ZM135.801 42.098L135.747 40.0987L135.728 40.0992L135.709 40.1001L135.801 42.098ZM126.295 41.706L126.634 39.7349L126.632 39.7345L126.295 41.706ZM120.758 39.256L119.443 40.7631L119.444 40.7642L120.758 39.256ZM116.495 31.073L118.475 30.7902L118.472 30.7671L118.468 30.7442L116.495 31.073ZM116.593 21.175L118.571 21.4702L118.573 21.4548L118.575 21.4393L116.593 21.175ZM118.945 12.649L117.179 11.7107L117.167 11.7325L117.156 11.7546L118.945 12.649ZM122.228 8.386L123.587 9.85355L123.596 9.84507L122.228 8.386ZM124.923 6.671L125.555 8.56837L125.604 8.55216L125.652 8.53348L124.923 6.671ZM128.5 6.034L128.138 4.06709L128.115 4.0713L128.092 4.07604L128.5 6.034ZM134.135 5.593L134.24 7.59023L134.254 7.5895L134.268 7.58857L134.135 5.593ZM142.808 6.818L143.756 5.05706L143.736 5.04626L143.716 5.03592L142.808 6.818ZM144.474 8.337L146.17 7.277L146.145 7.23718L146.118 7.19858L144.474 8.337ZM145.258 11.032L143.261 11.1319L143.261 11.1485L143.262 11.165L145.258 11.032ZM140.554 16.814L140.587 14.8143L140.571 14.814H140.554V16.814ZM138.055 16.373L138.652 14.464L138.604 14.449L138.555 14.4364L138.055 16.373ZM133.449 15.295L133.697 13.3104L133.65 13.3045L133.602 13.3009L133.449 15.295ZM129.725 16.128L128.513 14.5371L128.505 14.5432L128.497 14.5493L129.725 16.128ZM128.941 17.647H126.941V17.7468L126.951 17.846L128.941 17.647ZM130.019 18.088L130.218 20.0781L130.247 20.0752L130.275 20.0716L130.019 18.088ZM134.478 17.206L134.671 19.1967L134.679 19.1959L134.687 19.195L134.478 17.206ZM137.271 17.353L138.073 15.5207L137.99 15.4843L137.903 15.4556L137.271 17.353ZM139.133 19.117L140.984 18.3597L140.975 18.3374L140.965 18.3154L139.133 19.117ZM139.623 22.498L137.631 22.3247L137.627 22.3659L137.625 22.4072L139.623 22.498ZM138.594 25.585L137.05 24.3136L137.021 24.3487L136.994 24.385L138.594 25.585ZM136.879 26.908L137.622 28.765L137.644 28.7559L137.667 28.7463L136.879 26.908ZM134.527 27.3L134.607 29.2984L134.626 29.2977L134.644 29.2965L134.527 27.3ZM128.892 27.692L130.268 29.1439L130.287 29.1253L130.306 29.1062L128.892 27.692ZM130.46 30.24L130.01 32.1888L130.046 32.1971L130.082 32.204L130.46 30.24ZM134.38 29.848L133.968 27.8909L133.949 27.8949L133.93 27.8992L134.38 29.848ZM140.064 29.309L139.702 31.2759L139.75 31.2849L139.8 31.2915L140.064 29.309ZM143.837 31.514L145.514 30.424L145.508 30.4143L145.501 30.4046L143.837 31.514ZM144.376 34.944L142.422 34.5191L142.419 34.5312L142.417 34.5432L144.376 34.944ZM141.044 40.677L142.287 42.244L142.293 42.2387L141.044 40.677ZM135.709 40.1001C132.573 40.2449 129.557 40.2373 126.634 39.7349L125.956 43.6771C129.305 44.2527 132.66 44.2451 135.893 44.0959L135.709 40.1001ZM126.632 39.7345C124.874 39.4345 123.24 38.7653 122.072 37.7478L119.444 40.7642C121.314 42.3927 123.698 43.2915 125.958 43.6775L126.632 39.7345ZM122.073 37.7489C120.18 36.0979 118.858 33.4713 118.475 30.7902L114.515 31.3558C115.014 34.8487 116.73 38.3961 119.443 40.7631L122.073 37.7489ZM118.468 30.7442C117.974 27.7823 118.1 24.6243 118.571 21.4702L114.615 20.8798C114.106 24.2917 113.938 27.8957 114.522 31.4018L118.468 30.7442ZM118.575 21.4393C118.956 18.5883 119.555 15.9008 120.734 13.5434L117.156 11.7546C115.689 14.6892 115.014 17.8817 114.611 20.9107L118.575 21.4393ZM120.711 13.5873C121.44 12.2164 122.429 10.9255 123.587 9.85352L120.869 6.91848C119.381 8.29652 118.116 9.94563 117.179 11.7107L120.711 13.5873ZM123.596 9.84507C124.266 9.21671 124.903 8.78577 125.555 8.56837L124.291 4.77363C122.885 5.24223 121.758 6.08528 120.86 6.92692L123.596 9.84507ZM125.652 8.53348C125.969 8.40932 126.361 8.33394 126.934 8.26447C127.429 8.20438 128.209 8.13753 128.908 7.99196L128.092 4.07604C127.615 4.17547 127.17 4.20662 126.452 4.29353C125.813 4.37106 125.004 4.49168 124.194 4.80851L125.652 8.53348ZM128.862 8.00091C130.555 7.68912 132.236 7.69574 134.24 7.59023L134.03 3.59576C132.311 3.68626 130.169 3.69287 128.138 4.06709L128.862 8.00091ZM134.268 7.58857C137.139 7.39714 139.811 7.53581 141.9 8.60008L143.716 5.03592C140.611 3.45418 137.011 3.39685 134.002 3.59743L134.268 7.58857ZM141.86 8.57894C142.194 8.75908 142.552 9.07405 142.83 9.47542L146.118 7.19858C145.514 6.32594 144.696 5.56292 143.756 5.05706L141.86 8.57894ZM142.778 9.39699C143.049 9.83049 143.225 10.4119 143.261 11.1319L147.256 10.9321C147.194 9.69209 146.879 8.41151 146.17 7.277L142.778 9.39699ZM143.262 11.165C143.409 13.3705 141.964 14.8372 140.587 14.8143L140.521 18.8137C145.025 18.8888 147.499 14.5735 147.254 10.899L143.262 11.165ZM140.554 14.814C140.006 14.814 139.342 14.6799 138.652 14.464L137.458 18.282C138.336 18.5561 139.436 18.814 140.554 18.814V14.814ZM138.555 14.4364C137.192 14.0847 135.435 13.5277 133.697 13.3104L133.201 17.2796C134.599 17.4543 135.88 17.8773 137.555 18.3096L138.555 14.4364ZM133.602 13.3009C132.157 13.1897 130.127 13.3072 128.513 14.5371L130.937 17.7189C131.381 17.3808 132.193 17.2043 133.296 17.2891L133.602 13.3009ZM128.497 14.5493C127.657 15.2026 126.941 16.3381 126.941 17.647H130.941C130.941 17.6941 130.934 17.7242 130.931 17.7361C130.928 17.7477 130.926 17.7478 130.931 17.7389C130.936 17.7302 130.943 17.7199 130.95 17.7108C130.958 17.7015 130.961 17.7007 130.953 17.7067L128.497 14.5493ZM126.951 17.846C127.002 18.3538 127.204 18.8802 127.615 19.3109C128.004 19.7179 128.454 19.9079 128.788 19.9992C129.386 20.1621 129.98 20.1019 130.218 20.0781L129.82 16.0979C129.727 16.1073 129.681 16.1088 129.663 16.1087C129.639 16.1086 129.713 16.1052 129.841 16.1401C129.973 16.1762 130.249 16.2774 130.508 16.5482C130.789 16.8426 130.905 17.1852 130.931 17.448L126.951 17.846ZM130.275 20.0716C131.165 19.9567 132.016 19.7424 132.718 19.5727C133.46 19.3933 134.069 19.2549 134.671 19.1967L134.285 15.2153C133.368 15.3041 132.507 15.5087 131.779 15.6846C131.011 15.8701 130.392 16.0233 129.763 16.1044L130.275 20.0716ZM134.687 19.195C135.601 19.0989 136.2 19.1042 136.639 19.2504L137.903 15.4556C136.578 15.0138 135.217 15.1171 134.269 15.217L134.687 19.195ZM136.469 19.1853C136.9 19.3739 137.202 19.6933 137.301 19.9186L140.965 18.3154C140.378 16.9727 139.21 16.0181 138.073 15.5207L136.469 19.1853ZM137.282 19.8743C137.59 20.6283 137.704 21.4814 137.631 22.3247L141.615 22.6713C141.738 21.2606 141.558 19.7617 140.984 18.3597L137.282 19.8743ZM137.625 22.4072C137.586 23.2573 137.355 23.944 137.05 24.3136L140.138 26.8564C141.206 25.56 141.562 23.8947 141.621 22.5888L137.625 22.4072ZM136.994 24.385C136.783 24.6659 136.488 24.8998 136.091 25.0697L137.667 28.7463C138.642 28.3282 139.523 27.6801 140.194 26.785L136.994 24.385ZM136.136 25.051C135.752 25.2048 135.296 25.2513 134.41 25.3035L134.644 29.2965C135.424 29.2507 136.536 29.1992 137.622 28.765L136.136 25.051ZM134.447 25.3016C134.261 25.309 133.924 25.2933 133.369 25.2612C132.864 25.232 132.236 25.1939 131.613 25.1839C131 25.174 130.305 25.1891 129.663 25.2897C129.114 25.3757 128.174 25.5813 127.478 26.2778L130.306 29.1062C130.051 29.3617 129.883 29.3039 130.282 29.2414C130.588 29.1935 131.017 29.1748 131.549 29.1834C132.071 29.1917 132.61 29.224 133.138 29.2546C133.617 29.2822 134.18 29.3155 134.607 29.2984L134.447 25.3016ZM127.517 26.2401C126.9 26.8244 126.553 27.6041 126.565 28.4506C126.577 29.2304 126.888 29.8814 127.22 30.347C127.865 31.2525 128.919 31.9368 130.01 32.1888L130.91 28.2912C130.846 28.2765 130.748 28.2381 130.645 28.1708C130.541 28.1019 130.488 28.0404 130.478 28.0259C130.461 28.0016 130.561 28.1258 130.565 28.3911C130.567 28.5324 130.54 28.688 130.475 28.8383C130.41 28.987 130.327 29.0873 130.268 29.1439L127.517 26.2401ZM130.082 32.204C131.859 32.5457 133.691 32.0597 134.83 31.7968L133.93 27.8992C132.521 28.2243 131.609 28.4243 130.838 28.276L130.082 32.204ZM134.792 31.8051C136.819 31.3783 138.32 31.0213 139.702 31.2759L140.426 27.3421C138.084 26.9107 135.665 27.5337 133.968 27.8909L134.792 31.8051ZM139.8 31.2915C140.809 31.4261 141.765 32.0116 142.173 32.6234L145.501 30.4046C144.341 28.6644 142.259 27.5839 140.328 27.3265L139.8 31.2915ZM142.16 32.604C142.449 33.0489 142.577 33.8023 142.422 34.5191L146.33 35.3689C146.665 33.8317 146.499 31.9391 145.514 30.424L142.16 32.604ZM142.417 34.5432C142.05 36.3352 141.076 38.0902 139.795 39.1153L142.293 42.2387C144.442 40.5198 145.82 37.8648 146.335 35.3448L142.417 34.5432ZM139.801 39.11C138.94 39.7934 137.536 40.0504 135.747 40.0987L135.855 44.0973C137.692 44.0476 140.307 43.8146 142.287 42.244L139.801 39.11Z" fill="black" mask="url(#path-1-outside-1_2028_2)"/>
</svg>
