<svg width="828" height="42" viewBox="0 0 828 42" fill="none" xmlns="http://www.w3.org/2000/svg">
<path d="M97.0895 33.52C94.6095 34.28 91.7295 34.08 89.2895 33.12C86.7295 32.04 84.7295 29.36 84.4895 26.56C84.3695 25.04 85.0895 23.28 86.2495 22.28C87.0095 21.64 88.2095 21.4 89.1695 21.56C90.5695 21.84 91.7295 22.76 92.9695 23.32C93.3695 23.52 93.7695 23.64 94.2095 23.6C94.6495 23.52 95.1295 23.24 95.4095 22.88C95.7695 22.36 95.9295 21.68 95.9695 21.08C96.1295 19.08 95.8495 17.12 95.6495 15.16C94.7295 15.4 93.8495 15.76 92.8895 15.96C91.4495 16.28 89.8895 16.36 88.3695 16.2C87.2495 16.04 86.0495 15.52 85.3295 14.6C84.4495 13.48 84.0895 11.88 84.1695 10.44C84.2495 9.4 84.5695 8.4 85.0895 7.48C85.5695 6.64 86.3695 5.96 87.2895 5.52C88.2095 5.04 89.3295 4.88 90.4095 4.8C92.7295 4.64 95.0895 4.68 97.4495 4.8C97.5295 4.8 97.9695 4.68 98.0495 4.68C99.1295 4.44 100.29 4.32 101.37 4.44C102.29 4.56 103.17 4.96 103.89 5.56C104.73 6.32 105.25 7.48 105.41 8.6C105.57 9.48 105.49 10.36 105.29 11.2C105.01 12.36 104.29 13.36 104.05 14.52C103.81 15.52 104.09 16.56 104.21 17.6C104.73 21.32 104.41 25.44 102.73 28.8C101.65 31 99.4495 32.8 97.0895 33.52ZM122.313 34.36C120.193 34.56 117.993 34.24 115.993 33.56C113.633 32.76 111.513 30.92 110.153 28.84C109.593 27.96 109.033 27.04 108.713 26.04C107.873 23.56 107.873 20.84 108.153 18.28C108.473 15.4 109.753 12.56 111.473 10.16C112.673 8.52 114.233 7 116.033 5.96C117.673 4.96 119.673 4.44 121.593 4.44C123.473 4.48 125.353 4.8 127.113 5.36C128.873 5.96 130.393 7.4 131.473 8.92C132.313 10.08 132.873 11.52 133.193 12.96C133.673 15 133.793 17.08 133.753 19.16C133.673 22.32 132.833 25.6 131.193 28.28C130.233 29.96 128.873 31.52 127.233 32.56C125.793 33.52 124.073 34.16 122.313 34.36ZM120.513 24.6C121.833 25.32 123.273 24.28 123.993 23C125.033 21.24 125.353 19 125.033 17C124.873 16.04 124.553 15.08 123.953 14.28C123.633 13.84 123.113 13.4 122.553 13.28C121.993 13.12 121.353 13.28 120.873 13.64C118.593 15.16 117.953 19.52 118.793 22.12C119.113 23.08 119.633 24.12 120.513 24.6ZM148.314 33.96C146.754 34.04 145.234 34.16 143.674 34.12C142.274 34.08 140.834 34 139.474 33.56C138.754 33.32 138.034 32.92 137.554 32.32C137.074 31.72 136.834 30.96 136.794 30.2C136.754 28.52 137.594 25.84 139.194 25.28C140.274 24.88 141.514 24.84 142.674 24.92C142.274 21.68 142.314 18.36 142.754 15.16C141.434 15.48 139.834 15.4 138.674 14.72C137.954 14.28 137.394 13.64 136.994 12.92C136.194 11.6 136.034 9.8 136.434 8.28C136.834 6.88 137.914 5.52 139.234 4.96C140.634 4.4 142.234 4.44 143.714 4.52C143.994 4.52 145.714 4.32 145.994 4.32C146.714 4.28 150.834 4.28 151.514 4.32C152.954 4.36 154.554 4.56 155.714 5.36C156.274 5.76 156.714 6.28 157.034 6.84C158.474 9.48 157.474 13.2 154.994 14.88C154.314 15.36 153.434 15.56 152.594 15.64C153.034 18.32 153.034 21.12 152.554 23.84C153.434 23.88 154.314 24 155.114 24.36C155.714 24.64 156.314 25.08 156.714 25.64C157.634 26.84 158.114 28.52 157.954 30.04C157.834 31.2 157.154 32.4 156.234 33.04C155.314 33.68 154.114 33.88 152.994 33.96C151.434 34.04 149.874 33.84 148.314 33.96ZM182.295 33.6C181.495 33.96 180.535 34 179.695 33.84C178.655 33.64 177.655 33.04 176.815 32.4C175.535 31.4 174.495 30.12 173.495 28.84C172.055 27 170.895 24.92 169.855 22.84C169.775 25.36 169.735 27.92 169.175 30.4C168.935 31.4 168.535 32.48 167.815 33.2C167.415 33.56 166.935 33.8 166.415 33.88C163.935 34.32 162.095 31.76 161.575 29.28C161.175 27.32 161.295 25.28 161.215 23.24C161.175 21.8 161.295 13.76 161.375 12.32C161.455 10.88 161.655 9.44 162.215 8.16C162.695 7.04 163.455 5.96 164.535 5.36C165.535 4.84 166.935 4.8 167.975 5.28C169.215 5.8 170.255 6.72 171.055 7.8C172.535 9.68 173.695 11.8 174.815 13.92C175.615 15.48 176.415 17 177.175 18.56C177.095 16.2 177.175 13.84 177.455 11.52C177.575 10.32 177.895 9.16 178.375 8.08C178.775 7.2 179.375 6.32 180.135 5.76C180.935 5.12 182.135 4.8 183.135 5.08C183.775 5.28 184.335 5.72 184.775 6.24C185.975 7.76 186.535 9.76 186.775 11.68C187.335 15.72 187.175 19.88 186.735 23.96C186.535 26 186.295 28.12 185.535 30C184.895 31.48 183.775 32.92 182.295 33.6ZM214.903 31.12C214.023 32.84 212.303 33.88 210.423 33.88C209.103 33.84 207.743 33.12 206.863 32.12C206.023 31.12 205.503 29.88 205.143 28.68C204.703 27.04 204.503 25.32 204.543 23.6C204.623 20.76 205.023 17.92 205.503 15.12C204.583 15.12 203.623 15.04 202.783 14.72C201.823 14.36 200.983 13.76 200.303 13.04C198.783 11.44 199.023 8.4 200.383 6.68C200.983 5.92 201.823 5.36 202.703 5.04C203.263 4.88 203.823 4.8 204.383 4.8C205.823 4.72 207.263 4.84 208.703 4.84C209.023 4.84 209.343 4.8 209.663 4.8C209.703 4.8 209.863 4.88 209.903 4.88C211.583 4.8 213.263 4.68 214.943 4.68C216.023 4.72 217.103 4.88 218.023 5.36C219.983 6.44 220.983 8.72 220.543 10.84C220.263 12.12 219.263 13.24 218.183 13.88C217.343 14.36 216.303 14.6 215.303 14.6C215.623 18.52 216.263 22.4 216.103 26.32C216.023 27.96 215.663 29.64 214.903 31.12ZM230.45 34.04C229.65 34.28 228.77 34.36 227.93 34.32C226.73 34.24 225.41 33.96 224.53 33.16C224.09 32.76 223.73 32.24 223.53 31.68C223.29 31 223.29 30.24 223.29 29.52C223.33 27.8 223.81 26.12 224.13 24.44C224.45 22.56 224.69 20.64 224.45 18.76C224.17 16.28 222.73 14 222.65 11.52C222.61 10.4 222.85 9.24 223.33 8.24C223.81 7.28 224.49 6.36 225.41 5.8C226.73 5 228.53 4.72 230.01 5.16C230.61 5.32 231.09 5.72 231.53 6.16C232.33 6.96 232.93 8 233.13 9.08C233.57 11.64 232.93 14.24 232.69 16.8C233.29 17.04 234.01 17.08 234.69 17.04C235.81 17 236.89 16.76 238.01 16.52C237.97 15.4 237.65 14.32 237.49 13.2C237.33 12.24 237.41 11.28 237.57 10.36C237.81 8.72 238.69 7.08 239.97 6.04C241.49 4.84 244.21 4.88 245.69 6.16C246.33 6.68 246.81 7.44 247.05 8.2C247.41 9.24 247.49 10.36 247.41 11.4C247.25 13.48 246.57 15.48 246.21 17.48C245.89 19.2 245.77 21 246.01 22.68C246.25 24.44 246.93 26.04 247.29 27.76C247.53 28.96 247.49 30.28 247.05 31.44C246.81 32.04 246.45 32.6 245.97 33C245.41 33.44 244.73 33.72 244.01 33.88C242.97 34.08 241.89 33.96 240.85 33.76C240.05 33.6 239.17 33.4 238.49 32.92C238.01 32.6 237.61 32.12 237.41 31.56C237.05 30.68 236.93 29.68 236.93 28.68C236.93 27.16 237.37 25.68 237.85 24.24C236.25 23.96 234.61 23.76 233.05 24.12C233.49 25.88 233.89 27.72 233.77 29.56C233.73 30.72 233.25 31.88 232.45 32.72C231.93 33.32 231.21 33.8 230.45 34.04ZM266.616 34.08C264.016 34.2 261.416 34.2 258.856 33.76C257.216 33.48 255.576 32.84 254.336 31.76C252.456 30.12 251.216 27.6 250.856 25.08C250.416 22.44 250.536 19.68 250.936 17C251.256 14.6 251.776 12.2 252.856 10.04C253.536 8.76 254.456 7.56 255.536 6.56C256.176 5.96 256.896 5.44 257.736 5.16C258.656 4.8 259.696 4.84 260.656 4.64C262.176 4.36 263.736 4.36 265.256 4.28C267.656 4.12 270.216 4.2 272.336 5.28C272.856 5.56 273.336 6 273.696 6.52C274.096 7.16 274.296 7.92 274.336 8.72C274.496 11.12 272.896 13.48 270.496 13.44C269.816 13.44 269.096 13.28 268.456 13.08C267.216 12.76 265.976 12.36 264.696 12.2C263.656 12.12 262.496 12.24 261.656 12.88C261.296 13.16 261.016 13.64 261.016 14.12C261.056 14.52 261.496 14.52 261.896 14.48C263.136 14.32 264.296 13.88 265.536 13.76C266.296 13.68 267.096 13.64 267.816 13.88C268.456 14.16 269.056 14.68 269.336 15.32C269.696 16.2 269.816 17.16 269.736 18.08C269.696 18.96 269.456 19.92 268.896 20.6C268.536 21.08 268.056 21.44 267.496 21.68C266.896 21.92 266.256 21.96 265.576 22C264.576 22.04 261.696 21.6 260.976 22.32C260.216 23.04 261.216 24.16 262.256 24.4C263.296 24.6 264.416 24.32 265.456 24.08C266.976 23.76 268.576 23.36 270.096 23.64C271.296 23.8 272.536 24.48 273.176 25.44C273.696 26.24 273.816 27.32 273.616 28.24C273.256 30 272.296 31.8 270.896 32.92C269.736 33.84 268.096 34.04 266.616 34.08ZM300.585 38.6C299.425 39.12 297.425 38.64 296.585 37.68C296.345 37.4 296.225 37 296.185 36.68C296.105 35.92 296.265 35.16 296.465 34.4C295.265 34.44 294.025 34.36 292.825 34.08C291.825 33.88 290.905 33.36 290.065 32.72C288.905 31.88 287.865 30.68 287.465 29.28C286.785 27 287.505 24.08 289.705 23.28C290.945 22.8 292.385 23.04 293.625 23.44C293.945 23.56 295.825 24.36 296.145 24.44C296.665 24.56 297.225 24.64 297.705 24.44C297.985 24.32 298.065 24 297.865 23.76C297.625 23.56 296.465 23.12 296.145 23C294.385 22.36 292.505 21.84 290.865 20.84C289.825 20.2 288.985 19.08 288.545 17.88C288.025 16.44 287.865 14.8 288.105 13.28C288.345 11.96 288.985 10.64 289.825 9.56C290.185 9.16 290.465 8.68 290.865 8.28C292.345 6.72 294.425 5.48 296.585 5.12C296.265 4.28 295.985 3.28 296.305 2.4C296.705 1.36 298.425 0.479998 299.545 0.52C300.145 0.52 300.785 0.759999 301.225 1.16C301.665 1.6 301.905 2.24 301.985 2.84C302.065 3.56 302.025 4.32 301.865 5.04C303.065 5.2 304.265 5.6 305.265 6.24C305.945 6.72 306.585 7.32 307.065 8C308.345 9.72 309.185 12.56 307.625 14.04C306.705 14.92 305.465 15.52 304.185 15.6C302.385 15.72 300.585 15.08 298.825 15.4C298.465 15.48 297.785 15.64 297.705 15.96C297.625 16.2 297.945 16.56 298.145 16.72C298.625 17.08 301.145 18.32 301.665 18.6C303.505 19.52 305.385 20.6 306.665 22.2C307.585 23.36 308.145 24.92 308.065 26.4C307.985 28.44 307.105 30.36 305.585 31.76C304.545 32.72 303.185 33.32 301.825 33.72C302.065 34.6 302.225 35.56 302.145 36.48C302.025 37.44 301.465 38.2 300.585 38.6ZM327.03 33.92C325.67 33.96 324.27 34.08 322.91 33.96C321.87 33.84 320.83 33.88 319.83 33.72C318.67 33.52 317.51 33.08 316.55 32.44C315.11 31.48 313.99 30.04 313.35 28.44C312.27 25.92 311.95 23.08 311.87 20.32C311.79 18 311.87 15.68 312.15 13.36C312.31 11.76 312.75 10.08 313.59 8.68C314.31 7.44 315.47 6.32 316.79 5.76C317.71 5.32 318.83 5.16 319.83 5.36C320.75 5.52 321.67 6.04 322.31 6.72C323.27 7.68 323.91 9.04 324.15 10.4C324.43 11.92 324.23 13.56 323.95 15.08C323.51 17.2 322.87 19.28 322.59 21.44C322.47 22.12 322.39 23.76 322.79 24.28C323.15 24.68 324.07 24.52 324.59 24.36C326.11 23.88 327.67 23.2 329.23 23.24C330.39 23.28 331.39 23.72 332.15 24.56C334.19 26.92 334.11 30.52 331.59 32.36C330.27 33.28 328.63 33.88 327.03 33.92ZM357.701 34.12C355.941 35.04 353.541 34.56 352.381 33.08C351.941 32.56 351.701 31.88 351.501 31.24C350.861 31.96 350.101 32.64 349.221 33.16C348.141 33.76 346.941 34.16 345.701 34.24C344.461 34.32 343.181 34.04 342.061 33.6C340.341 32.88 338.661 31.76 337.541 30.28C336.261 28.52 335.581 26.32 335.341 24.16C335.061 21.8 335.301 19.36 335.741 17.04C336.181 14.56 337.061 12.12 338.461 10.04C339.261 8.88 340.301 7.8 341.461 7C342.861 6.04 344.381 5.16 345.981 4.72C346.941 4.44 347.941 4.4 348.941 4.36C350.701 4.28 352.541 4.48 354.141 5.24C354.781 5.52 355.381 6.08 355.741 6.68C356.341 7.8 356.541 9.2 356.261 10.4C355.741 13 353.301 14.88 350.781 14.08C350.421 13.96 350.141 13.72 349.861 13.44C349.661 13.36 348.581 13.04 348.301 13.04C347.941 13 347.541 13.12 347.181 13.24C345.581 13.72 344.221 15.12 343.621 16.68C343.021 18.16 342.861 19.92 343.101 21.52C343.221 22.4 343.661 23.32 344.301 23.96C345.261 24.84 347.381 25.44 348.541 24.8C349.061 24.52 349.461 23.96 349.661 23.36C349.701 23.24 349.781 23.08 349.661 23.04C349.461 22.96 348.581 22.84 348.381 22.8C347.701 22.72 346.941 22.6 346.341 22.24C345.901 22 345.501 21.52 345.301 21.04C345.021 20.4 344.981 19.68 345.141 19.04C345.301 18.32 345.701 17.68 346.221 17.16C347.261 16.16 348.821 15.64 350.261 15.6C351.981 15.56 353.621 16.2 355.301 16.36C356.381 16.48 357.621 16.56 358.501 17.2C359.461 17.92 359.981 19.28 360.061 20.48C360.141 21.76 359.661 23 359.301 24.2C358.941 25.44 358.701 26.72 358.661 28C358.661 29.04 358.861 30.04 358.981 31.04C359.021 31.68 359.061 32.32 358.821 32.92C358.581 33.44 358.221 33.84 357.701 34.12ZM370.489 34.04C369.689 34.28 368.809 34.36 367.969 34.32C366.769 34.24 365.449 33.96 364.569 33.16C364.129 32.76 363.769 32.24 363.569 31.68C363.329 31 363.329 30.24 363.329 29.52C363.369 27.8 363.849 26.12 364.169 24.44C364.489 22.56 364.729 20.64 364.489 18.76C364.209 16.28 362.769 14 362.689 11.52C362.649 10.4 362.889 9.24 363.369 8.24C363.849 7.28 364.529 6.36 365.449 5.8C366.769 5 368.569 4.72 370.049 5.16C370.649 5.32 371.129 5.72 371.569 6.16C372.369 6.96 372.969 8 373.169 9.08C373.609 11.64 372.969 14.24 372.729 16.8C373.329 17.04 374.049 17.08 374.729 17.04C375.849 17 376.929 16.76 378.049 16.52C378.009 15.4 377.689 14.32 377.529 13.2C377.369 12.24 377.449 11.28 377.609 10.36C377.849 8.72 378.729 7.08 380.009 6.04C381.529 4.84 384.249 4.88 385.729 6.16C386.369 6.68 386.849 7.44 387.089 8.2C387.449 9.24 387.529 10.36 387.449 11.4C387.289 13.48 386.609 15.48 386.249 17.48C385.929 19.2 385.809 21 386.049 22.68C386.289 24.44 386.969 26.04 387.329 27.76C387.569 28.96 387.529 30.28 387.089 31.44C386.849 32.04 386.489 32.6 386.009 33C385.449 33.44 384.769 33.72 384.049 33.88C383.009 34.08 381.929 33.96 380.889 33.76C380.089 33.6 379.209 33.4 378.529 32.92C378.049 32.6 377.649 32.12 377.449 31.56C377.089 30.68 376.969 29.68 376.969 28.68C376.969 27.16 377.409 25.68 377.889 24.24C376.289 23.96 374.649 23.76 373.089 24.12C373.529 25.88 373.929 27.72 373.809 29.56C373.769 30.72 373.289 31.88 372.489 32.72C371.969 33.32 371.249 33.8 370.489 34.04ZM406.455 34C404.095 34.4 401.575 34.4 399.175 34C397.895 33.8 396.615 33.36 395.535 32.6C394.855 32.08 394.255 31.44 393.735 30.76C392.575 29.12 391.775 27.2 391.375 25.24C390.775 22.4 390.775 19.4 390.975 16.52C391.135 13.72 391.495 10.88 392.135 8.16C392.135 8.12 392.135 8.04 392.135 8C392.215 7.28 392.455 6.56 392.895 5.96C393.255 5.4 393.855 4.96 394.455 4.76C395.655 4.28 396.975 4.24 398.255 4.24C400.655 4.24 403.055 4.4 405.455 4.72C407.215 4.96 409.015 5.36 410.655 6.08C413.055 7.16 415.415 8.84 416.815 11.08C417.455 12.04 417.855 13.16 418.135 14.28C418.735 16.56 418.775 19.04 418.455 21.36C418.055 24.12 416.735 26.76 415.015 29C413.895 30.44 412.455 31.72 410.855 32.56C409.495 33.28 407.975 33.72 406.455 34ZM404.415 24.32C405.455 24.4 406.615 24.12 407.495 23.52C408.215 23.04 408.735 22.2 408.975 21.32C409.415 19.56 409.095 17.44 408.095 15.88C407.495 14.96 406.455 14.36 405.455 13.92C404.455 13.52 403.375 13.28 402.295 13.44C402.015 15.48 401.895 17.6 401.935 19.64C401.935 20.92 402.095 22.2 402.375 23.44C402.935 23.92 403.655 24.24 404.415 24.32ZM435.802 31.12C434.922 32.84 433.202 33.88 431.322 33.88C430.002 33.84 428.642 33.12 427.762 32.12C426.922 31.12 426.402 29.88 426.042 28.68C425.602 27.04 425.402 25.32 425.442 23.6C425.522 20.76 425.922 17.92 426.402 15.12C425.482 15.12 424.522 15.04 423.682 14.72C422.722 14.36 421.882 13.76 421.202 13.04C419.682 11.44 419.922 8.4 421.282 6.68C421.882 5.92 422.722 5.36 423.602 5.04C424.162 4.88 424.722 4.8 425.282 4.8C426.722 4.72 428.162 4.84 429.602 4.84C429.922 4.84 430.242 4.8 430.562 4.8C430.602 4.8 430.762 4.88 430.802 4.88C432.482 4.8 434.162 4.68 435.842 4.68C436.922 4.72 438.002 4.88 438.922 5.36C440.882 6.44 441.882 8.72 441.442 10.84C441.162 12.12 440.162 13.24 439.082 13.88C438.242 14.36 437.202 14.6 436.202 14.6C436.522 18.52 437.162 22.4 437.002 26.32C436.922 27.96 436.562 29.64 435.802 31.12ZM459.068 34.12C457.428 34.56 455.668 34.32 454.028 33.96C453.228 33.76 452.428 33.56 451.708 33.2C450.548 32.6 449.588 31.56 448.788 30.48C447.468 28.72 446.628 26.56 445.828 24.48C444.748 21.64 443.828 18.72 443.388 15.68C443.148 13.96 442.988 12.16 443.228 10.44C443.388 9.32 443.748 8.2 444.388 7.32C445.068 6.4 446.028 5.64 447.068 5.28C448.308 4.84 449.708 5 450.828 5.64C451.548 6.04 452.148 6.72 452.548 7.44C453.228 8.64 453.508 10.08 453.668 11.44C454.068 15 453.868 18.6 454.428 22.12C454.588 23.08 454.948 24.72 455.868 24.88C456.308 24.92 456.748 24.64 457.068 24.36C457.908 23.6 458.388 22.52 458.708 21.44C459.108 19.96 459.228 18.4 459.308 16.84C459.348 15.92 459.388 15 459.308 14.08C459.148 12.28 459.228 10.44 459.828 8.76C460.188 7.76 460.908 6.84 461.788 6.24C464.388 4.56 467.788 5.8 469.028 8.6C470.068 10.92 470.068 13.6 469.828 16.12C469.628 18.2 468.988 20.24 468.228 22.2C468.108 22.4 468.028 22.64 467.948 22.88C467.428 24.6 466.788 26.24 465.988 27.84C464.988 29.76 463.588 31.56 461.868 32.84C461.028 33.44 460.068 33.84 459.068 34.12ZM503.53 31.6C501.89 33.4 499.17 34.28 496.73 34.2C493.45 34.16 489.97 33.08 487.33 31.08C485.57 29.8 484.17 27.88 483.33 25.84C482.61 24.2 482.37 22.32 482.25 20.52C482.13 17.68 482.81 14.76 484.05 12.24C485.61 9.12 488.45 6.28 491.77 5.2C493.97 4.44 496.41 4.32 498.73 4.64C500.13 4.84 501.57 5.32 502.73 6.12C503.37 6.56 503.89 7.12 504.29 7.76C505.17 9.04 505.65 10.64 505.73 12.16C505.77 13.44 505.45 14.8 504.73 15.88C504.21 16.68 503.49 17.44 502.65 17.88C501.49 18.44 500.01 18.56 498.85 18.12C497.61 17.64 496.49 16.48 496.17 15.2C495.85 14.88 495.49 14.56 495.05 14.44C494.45 14.28 493.89 14.44 493.49 14.92C492.29 16.44 491.85 18.64 492.41 20.48C492.57 21.04 492.93 21.56 493.45 21.88C493.97 22.24 494.69 22.36 495.37 22.32C497.13 22.24 498.93 21.72 500.69 21.96C501.97 22.12 503.33 22.84 504.09 23.88C504.69 24.76 504.81 25.92 504.93 26.96C505.09 28.56 504.61 30.4 503.53 31.6ZM522.625 34.36C520.505 34.56 518.305 34.24 516.305 33.56C513.945 32.76 511.825 30.92 510.465 28.84C509.905 27.96 509.345 27.04 509.025 26.04C508.185 23.56 508.185 20.84 508.465 18.28C508.785 15.4 510.065 12.56 511.785 10.16C512.985 8.52 514.545 7 516.345 5.96C517.985 4.96 519.985 4.44 521.905 4.44C523.785 4.48 525.665 4.8 527.425 5.36C529.185 5.96 530.705 7.4 531.785 8.92C532.625 10.08 533.185 11.52 533.505 12.96C533.985 15 534.105 17.08 534.065 19.16C533.985 22.32 533.145 25.6 531.505 28.28C530.545 29.96 529.185 31.52 527.545 32.56C526.105 33.52 524.385 34.16 522.625 34.36ZM520.825 24.6C522.145 25.32 523.585 24.28 524.305 23C525.345 21.24 525.665 19 525.345 17C525.185 16.04 524.865 15.08 524.265 14.28C523.945 13.84 523.425 13.4 522.865 13.28C522.305 13.12 521.665 13.28 521.185 13.64C518.905 15.16 518.265 19.52 519.105 22.12C519.425 23.08 519.945 24.12 520.825 24.6ZM540.627 34.4C538.587 34.76 537.267 32.6 536.867 30.6C536.667 29.52 536.587 28.44 536.627 27.36C536.787 24.08 537.427 20.8 538.227 17.6C538.587 16.04 538.987 14.52 539.507 13C539.787 12.12 541.307 7.92 541.787 7.12C541.827 7.04 541.987 7 542.027 6.92C542.387 6.44 542.787 5.96 543.267 5.6C544.147 4.96 545.267 4.56 546.347 4.52C546.507 4.52 547.027 4.44 547.147 4.52C547.227 4.6 547.707 4.64 547.827 4.68C548.227 4.8 548.627 5.08 548.947 5.36C549.467 5.92 549.827 6.64 550.187 7.36C551.027 9.12 551.627 10.96 552.147 12.84C552.707 14.72 553.187 16.6 553.667 18.48C553.747 18.28 554.267 17.04 554.387 16.84C555.627 13.92 557.027 11.08 558.707 8.4C559.867 6.56 562.467 4.6 564.507 5.36C567.507 6.4 568.667 13.04 569.227 16.16C569.347 16.88 570.147 21.28 570.267 22C570.667 24.32 570.947 26.68 570.707 29C570.587 30.48 570.107 32.12 569.027 33.2C568.307 33.88 567.027 34.24 566.067 33.92C565.107 33.56 564.307 32.68 563.827 31.76C562.267 28.88 561.467 25.56 560.627 22.36C560.067 23.72 559.467 25.04 558.827 26.36C558.067 27.92 557.227 29.44 556.067 30.72C555.547 31.24 554.907 31.68 554.187 31.84C553.667 31.96 553.107 31.88 552.587 31.68C551.867 31.32 551.187 30.72 550.707 30.04C549.187 27.88 548.347 25.28 547.467 22.76C546.787 25 546.107 27.28 545.227 29.44C544.507 31.16 543.347 32.8 541.827 33.84C541.467 34.12 541.067 34.32 540.627 34.4ZM577.385 34.4C575.345 34.76 574.025 32.6 573.625 30.6C573.425 29.52 573.345 28.44 573.385 27.36C573.545 24.08 574.185 20.8 574.985 17.6C575.345 16.04 575.745 14.52 576.265 13C576.545 12.12 578.065 7.92 578.545 7.12C578.585 7.04 578.745 7 578.785 6.92C579.145 6.44 579.545 5.96 580.025 5.6C580.905 4.96 582.025 4.56 583.105 4.52C583.265 4.52 583.785 4.44 583.905 4.52C583.985 4.6 584.465 4.64 584.585 4.68C584.985 4.8 585.385 5.08 585.705 5.36C586.225 5.92 586.585 6.64 586.945 7.36C587.785 9.12 588.385 10.96 588.905 12.84C589.465 14.72 589.945 16.6 590.425 18.48C590.505 18.28 591.025 17.04 591.145 16.84C592.385 13.92 593.785 11.08 595.465 8.4C596.625 6.56 599.225 4.6 601.265 5.36C604.265 6.4 605.425 13.04 605.985 16.16C606.105 16.88 606.905 21.28 607.025 22C607.425 24.32 607.705 26.68 607.465 29C607.345 30.48 606.865 32.12 605.785 33.2C605.065 33.88 603.785 34.24 602.825 33.92C601.865 33.56 601.065 32.68 600.585 31.76C599.025 28.88 598.225 25.56 597.385 22.36C596.825 23.72 596.225 25.04 595.585 26.36C594.825 27.92 593.985 29.44 592.825 30.72C592.305 31.24 591.665 31.68 590.945 31.84C590.425 31.96 589.865 31.88 589.345 31.68C588.625 31.32 587.945 30.72 587.465 30.04C585.945 27.88 585.105 25.28 584.225 22.76C583.545 25 582.865 27.28 581.985 29.44C581.265 31.16 580.105 32.8 578.585 33.84C578.225 34.12 577.825 34.32 577.385 34.4ZM628.782 34.2C627.422 34.4 626.062 34.48 624.702 34.36C624.622 34.36 624.302 34.32 624.262 34.32C622.302 34.4 620.302 34.12 618.502 33.36C616.702 32.6 615.142 31.24 613.982 29.68C612.622 27.76 611.502 25.6 611.062 23.32C610.302 19.76 610.222 16.04 610.622 12.4C610.862 10.56 611.262 8.6 612.382 7.12C613.382 5.76 614.902 4.92 616.542 4.8C617.982 4.68 619.502 5.56 620.462 6.6C621.022 7.16 621.382 7.96 621.622 8.72C622.102 10.36 622.022 12.12 621.902 13.84C621.742 16.36 621.382 18.92 621.502 21.44C621.582 23.16 622.182 24.88 623.102 26.36C623.502 27 624.342 27.64 625.142 27.56C625.182 27.56 625.262 27.56 625.342 27.56C625.662 27.64 626.182 27.16 626.422 26.92C626.822 26.48 627.102 25.96 627.342 25.44C628.182 23.84 628.462 21.92 628.422 20.08C628.382 17.68 628.022 15.28 627.942 12.84C627.862 11.12 627.942 9.24 628.742 7.68C629.502 6.2 631.182 5 632.822 4.88C634.142 4.76 635.542 5.32 636.582 6.2C637.302 6.8 637.862 7.6 638.262 8.44C638.862 9.84 639.142 11.4 639.342 12.92C639.662 15.96 639.582 19.08 639.102 22.12C638.582 25.48 636.982 28.88 634.542 31.32C633.022 32.84 630.902 33.88 628.782 34.2ZM664.053 33.6C663.253 33.96 662.293 34 661.453 33.84C660.413 33.64 659.413 33.04 658.573 32.4C657.293 31.4 656.253 30.12 655.253 28.84C653.813 27 652.653 24.92 651.613 22.84C651.533 25.36 651.493 27.92 650.933 30.4C650.693 31.4 650.293 32.48 649.573 33.2C649.173 33.56 648.693 33.8 648.173 33.88C645.693 34.32 643.853 31.76 643.333 29.28C642.933 27.32 643.053 25.28 642.973 23.24C642.933 21.8 643.053 13.76 643.133 12.32C643.213 10.88 643.413 9.44 643.973 8.16C644.453 7.04 645.213 5.96 646.293 5.36C647.293 4.84 648.693 4.8 649.733 5.28C650.973 5.8 652.013 6.72 652.813 7.8C654.293 9.68 655.453 11.8 656.573 13.92C657.373 15.48 658.173 17 658.933 18.56C658.853 16.2 658.933 13.84 659.213 11.52C659.333 10.32 659.653 9.16 660.133 8.08C660.533 7.2 661.133 6.32 661.893 5.76C662.693 5.12 663.893 4.8 664.893 5.08C665.533 5.28 666.093 5.72 666.533 6.24C667.733 7.76 668.293 9.76 668.533 11.68C669.093 15.72 668.933 19.88 668.493 23.96C668.293 26 668.053 28.12 667.293 30C666.653 31.48 665.533 32.92 664.053 33.6ZM683.861 33.96C682.301 34.04 680.781 34.16 679.221 34.12C677.821 34.08 676.381 34 675.021 33.56C674.301 33.32 673.581 32.92 673.101 32.32C672.621 31.72 672.381 30.96 672.341 30.2C672.301 28.52 673.141 25.84 674.741 25.28C675.821 24.88 677.061 24.84 678.221 24.92C677.821 21.68 677.861 18.36 678.301 15.16C676.981 15.48 675.381 15.4 674.221 14.72C673.501 14.28 672.941 13.64 672.541 12.92C671.741 11.6 671.581 9.8 671.981 8.28C672.381 6.88 673.461 5.52 674.781 4.96C676.181 4.4 677.781 4.44 679.261 4.52C679.541 4.52 681.261 4.32 681.541 4.32C682.261 4.28 686.381 4.28 687.061 4.32C688.501 4.36 690.101 4.56 691.261 5.36C691.821 5.76 692.261 6.28 692.581 6.84C694.021 9.48 693.021 13.2 690.541 14.88C689.861 15.36 688.981 15.56 688.141 15.64C688.581 18.32 688.581 21.12 688.101 23.84C688.981 23.88 689.861 24 690.661 24.36C691.261 24.64 691.861 25.08 692.261 25.64C693.181 26.84 693.661 28.52 693.501 30.04C693.381 31.2 692.701 32.4 691.781 33.04C690.861 33.68 689.661 33.88 688.541 33.96C686.981 34.04 685.421 33.84 683.861 33.96ZM710.802 31.12C709.922 32.84 708.202 33.88 706.322 33.88C705.002 33.84 703.642 33.12 702.762 32.12C701.922 31.12 701.402 29.88 701.042 28.68C700.602 27.04 700.402 25.32 700.442 23.6C700.522 20.76 700.922 17.92 701.402 15.12C700.482 15.12 699.522 15.04 698.682 14.72C697.722 14.36 696.882 13.76 696.202 13.04C694.682 11.44 694.922 8.4 696.282 6.68C696.882 5.92 697.722 5.36 698.602 5.04C699.162 4.88 699.722 4.8 700.282 4.8C701.722 4.72 703.162 4.84 704.602 4.84C704.922 4.84 705.242 4.8 705.562 4.8C705.602 4.8 705.762 4.88 705.802 4.88C707.482 4.8 709.162 4.68 710.842 4.68C711.922 4.72 713.002 4.88 713.922 5.36C715.882 6.44 716.882 8.72 716.442 10.84C716.162 12.12 715.162 13.24 714.082 13.88C713.242 14.36 712.202 14.6 711.202 14.6C711.522 18.52 712.162 22.4 712.002 26.32C711.922 27.96 711.562 29.64 710.802 31.12ZM733.508 33.24C731.868 34.48 728.708 34.56 727.068 33.32C725.788 32.28 725.228 30.28 725.348 28.64C725.468 26.68 726.308 24.8 726.468 22.84C724.428 21.44 722.428 19.92 720.748 18.12C719.908 17.2 719.188 16.2 718.668 15.08C717.868 13.44 717.468 11.52 717.628 9.68C717.708 8.64 717.988 7.56 718.588 6.72C719.228 5.84 720.308 5.32 721.348 5.08C722.388 4.84 723.588 5.04 724.548 5.56C725.428 6 726.148 6.72 726.708 7.52C728.468 9.92 728.668 13.24 730.348 15.68C730.388 15.72 730.588 15.76 730.628 15.8C731.028 15.88 731.508 15.68 731.788 15.36C732.108 15.04 732.388 14.6 732.628 14.16C733.828 11.92 734.028 9.24 735.388 7.08C735.708 6.56 736.148 6.08 736.668 5.76C737.108 5.48 737.628 5.36 738.148 5.24C738.588 5.12 739.028 5 739.508 4.96C742.188 4.52 744.228 6.92 744.548 9.64C744.708 10.72 744.668 11.88 744.348 12.92C744.108 13.76 743.668 14.56 743.348 15.36C742.508 17.4 741.148 19.24 739.468 20.68C738.068 21.84 736.428 22.8 734.708 23.24C735.308 25.52 735.748 28.04 735.188 30.36C734.908 31.4 734.388 32.56 733.508 33.24Z" fill="black"/>
</svg>
