<svg width="90" height="90" viewBox="0 0 90 90" fill="none" xmlns="http://www.w3.org/2000/svg">
<g clip-path="url(#clip0_47_89)">
<mask id="mask0_47_89" style="mask-type:luminance" maskUnits="userSpaceOnUse" x="0" y="0" width="90" height="90">
<path d="M90 0H0V90H90V0Z" fill="white"/>
</mask>
<g mask="url(#mask0_47_89)">
<path d="M44.9492 89.4046C69.501 89.4046 89.4043 69.5014 89.4043 44.9496C89.4043 20.3977 69.501 0.494507 44.9492 0.494507C20.3973 0.494507 0.494141 20.3977 0.494141 44.9496C0.494141 69.5014 20.3973 89.4046 44.9492 89.4046Z" fill="black"/>
<path d="M36.7992 65.3249C35.359 65.3249 35.604 64.7815 35.107 63.4092L30.8721 49.4721L63.4723 30.1313" fill="#E2E2E2"/>
<path d="M36.7988 65.3249C37.9103 65.3249 38.4013 64.8171 39.0216 64.2134L44.949 58.45L37.5555 53.9916" fill="white"/>
<path d="M37.5547 53.9928L55.4701 67.2284C57.5151 68.3566 58.99 67.7729 59.4996 65.3308L66.7923 30.9661C67.5391 27.9727 65.6513 26.6144 63.6952 27.5024L20.8732 44.0141C17.95 45.1868 17.9678 46.8178 20.3407 47.5439L31.3301 50.9738L56.7701 34.9236C57.9714 34.1955 59.0739 34.5866 58.1689 35.3898L37.5547 53.9928Z" fill="white"/>
</g>
</g>
<defs>
<clipPath id="clip0_47_89">
<rect width="90" height="90" fill="white"/>
</clipPath>
</defs>
</svg>
