<svg width="301" height="180" viewBox="0 0 301 180" fill="none" xmlns="http://www.w3.org/2000/svg">
<g clip-path="url(#clip0_2007_70)">
<path d="M42.9396 98.4247C40.4929 98.0948 37.9509 97.8962 35.5515 97.2798C33.725 96.7577 31.8512 96.5222 30.1082 95.9405C28.0904 95.2399 26.1435 94.1095 24.6138 92.6803C22.3192 90.5363 20.7393 87.6276 20.0659 84.574C18.8765 79.7434 19.1422 74.5643 19.8141 69.5993C20.3559 65.4221 21.1843 61.2921 22.3707 57.2212C23.1296 54.404 24.4134 51.5261 26.3308 49.2676C27.986 47.2602 30.3935 45.5976 32.9221 44.9848C34.6991 44.4688 36.7516 44.513 38.4829 45.1664C40.0827 45.7246 41.5763 46.9272 42.5214 48.3336C43.9566 50.3358 44.7007 52.9596 44.7289 55.4654C44.7813 58.2695 43.9389 61.1465 42.9887 63.7852C41.575 67.4507 39.815 70.9856 38.6758 74.7701C38.2602 75.9521 37.6327 78.8647 38.1952 79.9137C38.7216 80.7362 40.416 80.7214 41.3942 80.5886C44.2573 80.1781 47.251 79.4212 50.0321 79.9535C52.0971 80.3677 53.7575 81.4507 54.8701 83.1791C57.8255 88.0067 56.6192 94.4283 51.5642 96.9783C48.9293 98.2357 45.8159 98.8256 42.9396 98.4247ZM226.251 128.165C225.467 128.507 224.599 128.578 223.807 128.447C222.924 128.344 222.049 127.943 221.471 127.291C220.566 126.285 220.168 124.807 220.215 123.487C220.308 120.848 221.331 118.276 222.369 115.878C224.403 111.332 227.293 107.056 230.822 103.57C232.001 102.394 233.416 101.343 234.887 100.472C235.546 100.11 236.331 99.7683 237.109 99.7253C238.275 99.6605 239.449 99.8116 240.54 100.206C242.243 100.786 243.759 101.978 244.858 103.359C246.474 105.509 247.458 108.112 248.274 110.687C249.056 113.214 249.471 115.895 249.67 118.582C249.799 121.173 249.699 123.854 248.989 126.349C248.422 128.225 246.876 130.068 245.037 130.836C243.343 131.498 241.287 131.501 239.647 130.803C239.008 130.526 238.396 130.083 237.971 129.541C237.366 128.799 237.01 127.841 236.779 126.904C236.331 125.203 236.239 123.432 236.395 121.702C234.832 121.573 233.276 121.402 231.74 121.106C230.924 122.684 230.141 124.311 229.054 125.716C228.332 126.71 227.403 127.67 226.251 128.165ZM236.388 109.284C234.883 110.62 233.935 112.476 233.278 114.38C233.869 114.435 237.134 114.631 237.689 114.637C237.729 113.615 237.859 112.566 237.899 111.545C237.954 110.698 237.882 109.83 237.624 109.059C237.568 108.879 237.277 108.831 237.102 108.845C236.838 108.887 236.589 109.103 236.388 109.284Z" fill="#E61DE5"/>
<path d="M69.0096 102.829C67.3701 102.644 65.7654 102.508 64.1466 102.198C62.6945 101.916 61.2075 101.585 59.8658 100.893C59.1568 100.519 58.4752 99.9782 58.0781 99.2706C57.681 98.5627 57.5615 97.7295 57.6505 96.9305C57.8975 95.1728 59.2336 92.5243 60.9973 92.2157C62.1916 91.9845 63.4907 92.156 64.6858 92.4387C64.8259 88.9935 65.4382 85.5404 66.4469 82.2812C65.0162 82.3878 63.3626 82.0294 62.2705 81.1214C61.5958 80.5391 61.1223 79.7759 60.8292 78.9567C60.2224 77.4436 60.365 75.5402 61.0431 74.0249C61.7006 72.6347 63.0599 71.403 64.5318 71.0464C66.0871 70.7034 67.7476 71.0201 69.2762 71.3578C69.568 71.406 71.3949 71.4932 71.6867 71.5413C72.4439 71.6235 76.7375 72.3317 77.4393 72.4902C78.9331 72.7794 80.5662 73.2629 81.6375 74.296C82.1524 74.8091 82.5215 75.4266 82.7588 76.0652C83.8056 79.064 82.124 82.7689 79.2508 84.0933C78.4596 84.4767 77.5081 84.5339 76.619 84.4728C76.6168 87.3415 76.1356 90.2594 75.1678 93.0115C76.078 93.2044 76.9745 93.4808 77.7463 93.9935C78.3234 94.3884 78.8731 94.9501 79.1937 95.6024C79.9462 97.0112 80.1576 98.8445 79.7296 100.401C79.4052 101.589 78.4903 102.723 77.4215 103.232C76.3527 103.741 75.0677 103.743 73.8868 103.634C72.2473 103.449 70.656 102.972 69.0096 102.829ZM265.056 134.394C263.133 135.405 259.827 134.945 258.331 133.371C257.175 132.067 256.936 129.887 257.343 128.198C257.804 126.176 259.003 124.361 259.507 122.346C257.621 120.536 255.799 118.609 254.357 116.444C253.64 115.341 253.061 114.175 252.712 112.918C252.16 111.071 252.074 109.002 252.556 107.112C252.818 106.042 253.296 104.964 254.066 104.192C254.884 103.385 256.099 103.029 257.223 102.957C258.349 102.886 259.566 103.301 260.476 104.008C261.317 104.617 261.945 105.492 262.39 106.422C263.811 109.225 263.449 112.719 264.781 115.551C264.816 115.6 265.018 115.676 265.052 115.724C265.455 115.877 265.99 115.751 266.337 115.465C266.725 115.187 267.093 114.776 267.419 114.359C269.054 112.231 269.724 109.472 271.511 107.455C271.935 106.968 272.476 106.544 273.073 106.3C273.579 106.083 274.142 106.048 274.704 106.012C275.183 105.963 275.663 105.913 276.17 105.954C279.039 105.956 280.751 108.808 280.617 111.697C280.598 112.85 280.357 114.052 279.846 115.081C279.451 115.916 278.855 116.674 278.384 117.452C277.158 119.434 275.424 121.118 273.426 122.33C271.768 123.298 269.894 124.016 268.026 124.179C268.258 126.658 268.284 129.36 267.301 131.682C266.831 132.717 266.089 133.837 265.056 134.394Z" fill="#D5D60E"/>
<path d="M91.5166 105.171C90.5175 105.777 89.3232 106.008 88.1908 105.864C86.9403 105.658 85.7232 104.729 85.0476 103.633C84.1004 102.107 83.7291 100.204 83.5942 98.4263C83.3324 95.5998 83.6749 92.7446 84.2538 90.0139C84.8258 87.3251 85.5993 84.7122 86.6161 82.1822C87.4183 80.1736 88.5193 78.1713 90.0934 76.6754C90.5026 76.2719 91.0716 75.9375 91.6062 75.8116C92.9045 75.4691 98.4688 76.0014 99.8165 76.1382C102.338 76.4256 104.971 76.8171 107.21 78.0427C108.586 78.7836 109.797 80.011 110.508 81.4128C111.811 84.1541 110.289 87.4142 107.296 87.9055C106.504 88.0318 105.712 87.9012 104.976 87.694C103.753 87.321 102.543 86.8646 101.306 86.575C100.563 86.4095 99.8127 86.2858 99.0628 86.419C98.6254 86.4753 98.1672 86.6566 97.8622 86.9488C97.3073 87.4568 96.8642 88.3258 97.5317 88.6928C97.768 88.8174 98.0112 88.9003 98.2614 88.9417C100.102 89.2025 101.957 89.1229 103.715 89.627C104.868 89.903 106.078 90.6163 106.587 91.6851C107.395 93.2743 106.789 96.1716 105.471 97.4102C104.958 97.925 104.174 98.2666 103.431 98.3582C102.118 98.5271 100.763 98.1751 99.4987 97.7953C98.5606 97.5121 97.5945 97.1387 96.6082 97.1472C96.1358 97.155 95.6361 97.3295 95.2825 97.6565C95.0491 99.3308 94.677 101.068 93.8737 102.563C93.3198 103.584 92.5158 104.565 91.5166 105.171Z" fill="#18E018"/>
<path d="M125.636 112.298C122.905 111.976 120.196 111.529 117.603 110.63C115.942 110.056 114.343 109.107 113.237 107.769C111.559 105.736 110.7 102.897 110.758 100.209C110.753 97.3822 111.353 94.5266 112.23 91.8024C112.977 89.3562 113.931 86.9444 115.428 84.8791C116.356 83.662 117.521 82.5696 118.819 81.7132C119.589 81.1979 120.429 80.7797 121.352 80.6323C122.373 80.4153 123.45 80.6357 124.485 80.5923C126.117 80.5617 127.742 80.8298 129.341 81.008C131.869 81.2537 134.523 81.7771 136.547 83.267C137.041 83.6482 137.465 84.1892 137.751 84.7929C138.057 85.5286 138.136 86.3551 138.04 87.1958C137.794 89.7245 135.721 91.9087 133.226 91.4545C132.518 91.3378 131.795 91.047 131.162 90.7286C129.925 90.1819 128.702 89.5521 127.396 89.1654C126.325 88.9031 125.096 88.8288 124.11 89.3513C123.687 89.5814 123.313 90.0335 123.23 90.5336C123.204 90.9575 123.662 91.033 124.086 91.0601C125.405 91.1064 126.689 90.8472 128.003 90.9356C128.808 90.9827 129.649 91.0786 130.359 91.4525C130.977 91.8541 131.513 92.4994 131.695 93.2144C131.918 94.1933 131.878 95.2143 131.637 96.1594C131.445 97.0697 131.029 98.029 130.329 98.6413C129.871 99.0796 129.309 99.3722 128.684 99.5262C128.018 99.6731 127.343 99.6046 126.628 99.5297C125.579 99.3994 122.653 98.4456 121.779 99.0723C120.863 99.692 121.713 101.031 122.756 101.46C123.805 101.847 125.02 101.748 126.145 101.677C127.784 101.604 129.521 101.463 131.057 102.016C132.28 102.389 133.455 103.311 133.957 104.421C134.361 105.344 134.301 106.49 133.934 107.415C133.257 109.187 131.947 110.898 130.295 111.824C128.928 112.584 127.184 112.51 125.636 112.298Z" fill="#DE1616"/>
<path d="M147.285 116.125C145.424 115.99 143.548 115.68 141.783 114.961C140.775 114.581 139.905 113.88 139.14 113.069C138.075 111.994 137.198 110.565 137.021 109.037C136.705 106.544 137.958 103.625 140.387 103.169C141.762 102.882 143.222 103.38 144.445 104.01C144.758 104.19 146.58 105.347 146.9 105.485C147.42 105.7 147.991 105.879 148.525 105.753C148.838 105.677 148.977 105.357 148.809 105.072C148.593 104.823 147.46 104.165 147.147 103.985C145.422 103.015 143.554 102.15 142.016 100.826C141.042 99.9803 140.359 98.6687 140.107 97.3425C139.812 95.7523 139.927 94.0157 140.439 92.4729C140.916 91.1385 141.81 89.873 142.871 88.8918C143.516 88.356 144.134 87.7299 144.854 87.2492C146.291 86.3302 147.936 85.7022 149.638 85.5119C151.866 85.2372 154.16 85.6156 156.271 86.3062C157.453 86.6725 158.601 87.2472 159.532 88.0859C160.158 88.703 160.722 89.4384 161.106 90.2296C162.144 92.242 162.531 95.346 160.652 96.6205C159.541 97.3791 158.145 97.7913 156.798 97.6549C154.901 97.4704 153.135 96.4939 151.246 96.5249C150.858 96.5466 150.121 96.5963 149.983 96.916C149.859 97.1526 150.13 97.5825 150.311 97.7837C150.749 98.2414 153.162 99.9669 153.656 100.348C155.416 101.623 157.189 103.072 158.247 104.959C158.903 106.181 159.211 107.687 159.067 109.076C158.952 110.299 158.46 111.46 157.774 112.503C156.756 114.005 155.105 115.188 153.39 115.719C151.411 116.292 149.307 116.33 147.285 116.125Z" fill="#1DE8E8"/>
<path d="M212.264 126.721C208.842 127.849 204.686 126.28 203.046 123.288C202.413 122.227 202.183 120.939 202.014 119.734C200.656 120.834 199.094 121.827 197.366 122.498C195.254 123.253 192.988 123.615 190.744 123.392C188.501 123.169 186.292 122.29 184.417 121.172C181.55 119.375 178.872 116.873 177.305 113.893C175.532 110.364 174.965 106.224 175.173 102.286C175.368 97.9783 176.519 93.6809 177.992 89.6573C179.512 85.3472 181.807 81.2384 184.929 77.928C186.704 76.0877 188.885 74.4612 191.198 73.3713C193.987 72.066 196.969 70.9394 199.963 70.624C201.764 70.4063 203.567 70.6301 205.368 70.8536C208.543 71.2302 211.779 72.1317 214.419 73.9649C215.482 74.6549 216.391 75.8348 216.858 77.0152C217.602 79.1978 217.546 81.7632 216.691 83.829C214.992 88.3302 210.068 90.9755 205.792 88.799C205.183 88.4779 204.753 87.9657 204.335 87.3817C204 87.1792 202.161 86.2875 201.66 86.2048C201.027 86.0269 200.275 86.1237 199.595 86.232C196.589 86.619 193.741 88.7239 192.206 91.3397C190.695 93.8122 189.888 96.9158 189.846 99.8515C189.801 101.462 190.317 103.239 191.273 104.574C192.733 106.433 196.351 108.134 198.616 107.33C199.63 106.982 200.512 106.098 201.047 105.083C201.154 104.88 201.344 104.617 201.141 104.51C200.807 104.308 199.267 103.833 198.921 103.702C197.727 103.358 196.401 102.919 195.434 102.097C194.717 101.538 194.142 100.56 193.926 99.6417C193.613 98.413 193.755 97.1124 194.23 96.0137C194.73 94.7721 195.635 93.7444 196.719 92.9668C198.877 91.4836 201.823 91.0132 204.413 91.367C207.504 91.8032 210.251 93.4332 213.212 94.2158C215.11 94.7496 217.306 95.259 218.692 96.6646C220.199 98.2372 220.728 100.826 220.517 102.998C220.283 105.313 219.057 107.391 218.058 109.433C217.047 111.547 216.24 113.768 215.79 116.048C215.483 117.91 215.545 119.759 215.465 121.585C215.348 122.742 215.231 123.9 214.624 124.903C214.04 125.763 213.278 126.373 212.264 126.721Z" fill="#1A1AE2"/>
<mask id="mask0_2007_70" style="mask-type:luminance" maskUnits="userSpaceOnUse" x="2" y="-2" width="296" height="183">
<path d="M297.788 83.787L33.1611 -1.57422L2.05755 94.8494L266.684 180.211L297.788 83.787Z" fill="white"/>
<path d="M42.9386 98.4247C40.4919 98.0948 37.9499 97.8962 35.5506 97.2798C33.724 96.7577 31.8503 96.5222 30.1072 95.9405C28.0894 95.2399 26.1426 94.1095 24.6129 92.6803C22.3182 90.5363 20.7383 87.6276 20.0649 84.574C18.8755 79.7434 19.1413 74.5643 19.8131 69.5993C20.3549 65.4221 21.1833 61.2921 22.3697 57.2212C23.1286 54.404 24.4124 51.5261 26.3298 49.2676C27.985 47.2602 30.3925 45.5976 32.9212 44.9848C34.6981 44.4688 36.7506 44.513 38.4819 45.1664C40.0817 45.7246 41.5753 46.9272 42.5204 48.3336C43.9556 50.3358 44.6998 52.9596 44.7279 55.4654C44.7803 58.2695 43.938 61.1465 42.9878 63.7852C41.5741 67.4507 39.814 70.9856 38.6749 74.7701C38.2592 75.9521 37.6317 78.8647 38.1942 79.9137C38.7206 80.7362 40.415 80.7214 41.3932 80.5886C44.2563 80.1781 47.25 79.4212 50.0311 79.9535C52.0961 80.3677 53.7566 81.4507 54.8691 83.1791C57.8245 88.0067 56.6182 94.4283 51.5632 96.9783C48.9283 98.2357 45.8149 98.8256 42.9386 98.4247ZM226.25 128.165C225.466 128.507 224.598 128.578 223.806 128.447C222.923 128.344 222.048 127.943 221.47 127.291C220.565 126.285 220.167 124.807 220.214 123.487C220.307 120.848 221.33 118.276 222.368 115.878C224.402 111.332 227.292 107.056 230.822 103.57C232 102.394 233.415 101.343 234.886 100.472C235.545 100.11 236.33 99.7683 237.108 99.7253C238.274 99.6605 239.448 99.8116 240.539 100.206C242.242 100.786 243.758 101.978 244.857 103.359C246.473 105.509 247.457 108.112 248.273 110.687C249.055 113.214 249.47 115.895 249.669 118.582C249.798 121.173 249.698 123.854 248.988 126.349C248.421 128.225 246.875 130.068 245.036 130.836C243.342 131.498 241.286 131.501 239.646 130.803C239.007 130.526 238.395 130.083 237.97 129.541C237.365 128.799 237.009 127.841 236.778 126.904C236.33 125.203 236.238 123.432 236.394 121.702C234.831 121.573 233.275 121.402 231.739 121.106C230.923 122.684 230.14 124.311 229.053 125.716C228.331 126.71 227.402 127.67 226.25 128.165ZM236.387 109.284C234.882 110.62 233.934 112.476 233.277 114.38C233.868 114.435 237.133 114.631 237.688 114.637C237.728 113.615 237.858 112.566 237.898 111.545C237.953 110.698 237.881 109.83 237.623 109.059C237.567 108.879 237.276 108.831 237.101 108.845C236.838 108.887 236.588 109.103 236.387 109.284Z" fill="black"/>
<path d="M69.0096 102.829C67.3701 102.644 65.7654 102.508 64.1466 102.198C62.6945 101.916 61.2075 101.585 59.8658 100.893C59.1568 100.519 58.4752 99.9782 58.0781 99.2706C57.681 98.5627 57.5615 97.7295 57.6505 96.9305C57.8975 95.1728 59.2336 92.5243 60.9973 92.2157C62.1916 91.9845 63.4907 92.156 64.6858 92.4387C64.8259 88.9935 65.4382 85.5404 66.4469 82.2812C65.0162 82.3878 63.3626 82.0294 62.2705 81.1214C61.5958 80.5391 61.1223 79.7759 60.8292 78.9567C60.2224 77.4436 60.365 75.5402 61.0431 74.0249C61.7006 72.6347 63.0599 71.403 64.5318 71.0464C66.0871 70.7034 67.7476 71.0201 69.2762 71.3578C69.568 71.406 71.3949 71.4932 71.6867 71.5413C72.4439 71.6235 76.7375 72.3317 77.4393 72.4902C78.9331 72.7794 80.5662 73.2629 81.6375 74.296C82.1524 74.8091 82.5215 75.4266 82.7588 76.0652C83.8056 79.064 82.124 82.7689 79.2508 84.0933C78.4596 84.4767 77.5081 84.5339 76.619 84.4728C76.6168 87.3415 76.1356 90.2594 75.1678 93.0115C76.078 93.2044 76.9745 93.4808 77.7463 93.9935C78.3234 94.3884 78.8731 94.9501 79.1937 95.6024C79.9462 97.0112 80.1576 98.8445 79.7296 100.401C79.4052 101.589 78.4903 102.723 77.4215 103.232C76.3527 103.741 75.0677 103.743 73.8868 103.634C72.2473 103.449 70.656 102.972 69.0096 102.829ZM265.056 134.394C263.133 135.405 259.827 134.945 258.331 133.371C257.175 132.067 256.936 129.887 257.343 128.198C257.804 126.176 259.003 124.361 259.507 122.346C257.621 120.536 255.799 118.609 254.357 116.444C253.64 115.341 253.061 114.175 252.712 112.918C252.16 111.071 252.074 109.002 252.556 107.112C252.818 106.042 253.296 104.964 254.066 104.192C254.884 103.385 256.099 103.029 257.223 102.957C258.349 102.886 259.566 103.301 260.476 104.008C261.317 104.617 261.945 105.492 262.39 106.422C263.811 109.225 263.449 112.719 264.781 115.551C264.816 115.6 265.018 115.676 265.052 115.724C265.455 115.877 265.99 115.751 266.337 115.465C266.725 115.187 267.093 114.776 267.419 114.359C269.054 112.231 269.724 109.472 271.511 107.455C271.935 106.968 272.476 106.544 273.073 106.3C273.579 106.083 274.142 106.048 274.704 106.012C275.183 105.963 275.663 105.913 276.17 105.954C279.039 105.956 280.751 108.808 280.617 111.697C280.598 112.85 280.357 114.052 279.846 115.081C279.451 115.916 278.855 116.674 278.384 117.452C277.158 119.434 275.424 121.118 273.426 122.33C271.768 123.298 269.894 124.016 268.026 124.179C268.258 126.658 268.284 129.36 267.301 131.682C266.831 132.717 266.089 133.837 265.056 134.394Z" fill="black"/>
<path d="M91.5166 105.171C90.5175 105.777 89.3232 106.008 88.1908 105.864C86.9403 105.658 85.7232 104.729 85.0476 103.633C84.1004 102.107 83.7291 100.204 83.5942 98.4263C83.3324 95.5998 83.6749 92.7446 84.2538 90.0139C84.8258 87.3251 85.5993 84.7122 86.6161 82.1822C87.4183 80.1736 88.5193 78.1713 90.0934 76.6754C90.5026 76.2719 91.0716 75.9375 91.6062 75.8116C92.9045 75.4691 98.4688 76.0014 99.8165 76.1382C102.338 76.4256 104.971 76.8171 107.21 78.0427C108.586 78.7836 109.797 80.011 110.508 81.4128C111.811 84.1541 110.289 87.4142 107.296 87.9055C106.504 88.0318 105.712 87.9012 104.976 87.694C103.753 87.321 102.543 86.8646 101.306 86.575C100.563 86.4095 99.8127 86.2858 99.0628 86.419C98.6254 86.4753 98.1672 86.6566 97.8622 86.9488C97.3073 87.4568 96.8642 88.3258 97.5317 88.6928C97.768 88.8174 98.0112 88.9003 98.2614 88.9417C100.102 89.2025 101.957 89.1229 103.715 89.627C104.868 89.903 106.078 90.6163 106.587 91.6851C107.395 93.2743 106.789 96.1716 105.471 97.4102C104.958 97.925 104.174 98.2666 103.431 98.3582C102.118 98.5271 100.763 98.1751 99.4987 97.7953C98.5606 97.5121 97.5945 97.1387 96.6082 97.1472C96.1358 97.155 95.6361 97.3295 95.2825 97.6565C95.0491 99.3308 94.677 101.068 93.8737 102.563C93.3198 103.584 92.5158 104.565 91.5166 105.171Z" fill="black"/>
<path d="M125.636 112.298C122.905 111.976 120.196 111.529 117.603 110.63C115.942 110.056 114.343 109.107 113.237 107.769C111.559 105.736 110.7 102.897 110.758 100.209C110.753 97.3822 111.353 94.5266 112.23 91.8024C112.977 89.3562 113.931 86.9444 115.428 84.8791C116.356 83.662 117.521 82.5696 118.819 81.7132C119.589 81.1979 120.429 80.7797 121.352 80.6323C122.373 80.4153 123.45 80.6357 124.485 80.5923C126.117 80.5617 127.742 80.8298 129.341 81.008C131.869 81.2537 134.523 81.7771 136.547 83.267C137.041 83.6482 137.465 84.1892 137.751 84.7929C138.057 85.5286 138.136 86.3551 138.04 87.1958C137.794 89.7245 135.721 91.9087 133.226 91.4545C132.518 91.3378 131.795 91.047 131.162 90.7286C129.925 90.1819 128.702 89.5521 127.396 89.1654C126.325 88.9031 125.096 88.8288 124.11 89.3513C123.687 89.5814 123.313 90.0335 123.23 90.5336C123.204 90.9575 123.662 91.033 124.086 91.0601C125.405 91.1064 126.689 90.8472 128.003 90.9356C128.808 90.9827 129.649 91.0786 130.359 91.4525C130.977 91.8541 131.513 92.4994 131.695 93.2144C131.918 94.1933 131.878 95.2143 131.637 96.1594C131.445 97.0697 131.029 98.029 130.329 98.6413C129.871 99.0796 129.309 99.3722 128.684 99.5262C128.018 99.6731 127.343 99.6046 126.628 99.5297C125.579 99.3994 122.653 98.4456 121.779 99.0723C120.863 99.692 121.713 101.031 122.756 101.46C123.805 101.847 125.02 101.748 126.145 101.677C127.784 101.604 129.521 101.463 131.057 102.016C132.28 102.389 133.455 103.311 133.957 104.421C134.361 105.344 134.301 106.49 133.934 107.415C133.257 109.187 131.947 110.898 130.295 111.824C128.928 112.584 127.184 112.51 125.636 112.298Z" fill="black"/>
<path d="M147.285 116.125C145.424 115.99 143.548 115.68 141.783 114.961C140.775 114.581 139.905 113.88 139.14 113.069C138.075 111.994 137.198 110.565 137.021 109.037C136.705 106.544 137.958 103.625 140.387 103.169C141.762 102.882 143.222 103.38 144.445 104.01C144.758 104.19 146.58 105.347 146.9 105.485C147.42 105.7 147.991 105.879 148.525 105.753C148.838 105.677 148.977 105.357 148.809 105.072C148.593 104.823 147.46 104.165 147.147 103.985C145.422 103.015 143.554 102.15 142.016 100.826C141.042 99.9803 140.359 98.6687 140.107 97.3425C139.812 95.7523 139.927 94.0157 140.439 92.4729C140.916 91.1385 141.81 89.873 142.871 88.8918C143.516 88.356 144.134 87.7299 144.854 87.2492C146.291 86.3302 147.936 85.7022 149.638 85.5119C151.866 85.2372 154.16 85.6156 156.271 86.3062C157.453 86.6725 158.601 87.2472 159.532 88.0859C160.158 88.703 160.722 89.4384 161.106 90.2296C162.144 92.242 162.531 95.346 160.652 96.6205C159.541 97.3791 158.145 97.7913 156.798 97.6549C154.901 97.4704 153.135 96.4939 151.246 96.5249C150.858 96.5466 150.121 96.5963 149.983 96.916C149.859 97.1526 150.13 97.5825 150.311 97.7837C150.749 98.2414 153.162 99.9669 153.656 100.348C155.416 101.623 157.189 103.072 158.247 104.959C158.903 106.181 159.211 107.687 159.067 109.076C158.952 110.299 158.46 111.46 157.774 112.503C156.756 114.005 155.105 115.188 153.39 115.719C151.411 116.292 149.307 116.33 147.285 116.125Z" fill="black"/>
<path d="M212.264 126.721C208.842 127.849 204.686 126.28 203.046 123.288C202.413 122.227 202.183 120.939 202.014 119.734C200.656 120.834 199.094 121.827 197.366 122.498C195.254 123.253 192.988 123.615 190.744 123.392C188.501 123.169 186.292 122.29 184.417 121.172C181.55 119.375 178.872 116.873 177.305 113.893C175.532 110.364 174.965 106.224 175.173 102.286C175.368 97.9783 176.519 93.6809 177.992 89.6573C179.512 85.3472 181.807 81.2384 184.929 77.928C186.704 76.0877 188.885 74.4612 191.198 73.3713C193.987 72.066 196.969 70.9394 199.963 70.624C201.764 70.4063 203.567 70.6301 205.368 70.8536C208.543 71.2302 211.779 72.1317 214.419 73.9649C215.482 74.6549 216.391 75.8348 216.858 77.0152C217.602 79.1978 217.546 81.7632 216.691 83.829C214.992 88.3302 210.068 90.9755 205.792 88.799C205.183 88.4779 204.753 87.9657 204.335 87.3817C204 87.1792 202.161 86.2875 201.66 86.2048C201.027 86.0269 200.275 86.1237 199.595 86.232C196.589 86.619 193.741 88.7239 192.206 91.3397C190.695 93.8122 189.888 96.9158 189.846 99.8515C189.801 101.462 190.317 103.239 191.273 104.574C192.733 106.433 196.351 108.134 198.616 107.33C199.63 106.982 200.512 106.098 201.047 105.083C201.154 104.88 201.344 104.617 201.141 104.51C200.807 104.308 199.267 103.833 198.921 103.702C197.727 103.358 196.401 102.919 195.434 102.097C194.717 101.538 194.142 100.56 193.926 99.6417C193.613 98.413 193.755 97.1124 194.23 96.0137C194.73 94.7721 195.635 93.7444 196.719 92.9668C198.877 91.4836 201.823 91.0132 204.413 91.367C207.504 91.8032 210.251 93.4332 213.212 94.2158C215.11 94.7496 217.306 95.259 218.692 96.6646C220.199 98.2372 220.728 100.826 220.517 102.998C220.283 105.313 219.057 107.391 218.058 109.433C217.047 111.547 216.24 113.768 215.79 116.048C215.483 117.91 215.545 119.759 215.465 121.585C215.348 122.742 215.231 123.9 214.624 124.903C214.04 125.763 213.278 126.373 212.264 126.721Z" fill="black"/>
</mask>
<g mask="url(#mask0_2007_70)">
<path d="M42.9392 98.4246L43.3878 95.2059L43.3736 95.2039L42.9392 98.4246ZM35.5511 97.2797L34.6581 100.404L34.7001 100.416L34.7425 100.427L35.5511 97.2797ZM30.1077 95.9404L29.0417 99.0105L29.0602 99.0169L29.0788 99.0232L30.1077 95.9404ZM20.0655 84.5739L23.2391 83.8741L23.2307 83.8354L23.2211 83.7969L20.0655 84.5739ZM19.8136 69.5992L23.0342 70.035L23.0354 70.0262L23.0365 70.0173L19.8136 69.5992ZM22.3702 57.2211L25.4903 58.1305L25.4996 58.0985L25.5083 58.0665L22.3702 57.2211ZM26.3303 49.2675L28.8078 51.3709L28.8229 51.3531L28.8378 51.335L26.3303 49.2675ZM32.9217 44.9847L33.6871 48.1432L33.758 48.1261L33.8281 48.1056L32.9217 44.9847ZM38.4824 45.1663L37.335 48.2069L37.3733 48.2214L37.412 48.2349L38.4824 45.1663ZM42.521 48.3335L39.8234 50.146L39.8509 50.187L39.8795 50.2269L42.521 48.3335ZM44.7284 55.4653L41.4787 55.5018L41.4788 55.5139L41.4791 55.526L44.7284 55.4653ZM42.9883 63.7851L46.0205 64.9545L46.0337 64.9205L46.046 64.8862L42.9883 63.7851ZM38.6754 74.77L41.7412 75.8481L41.7659 75.778L41.7874 75.7067L38.6754 74.77ZM38.1948 79.9136L35.3307 81.4496L35.3899 81.5601L35.4575 81.6656L38.1948 79.9136ZM41.3937 80.5885L41.8313 83.8087L41.8432 83.8071L41.855 83.8055L41.3937 80.5885ZM50.0317 79.9534L50.6708 76.767L50.6567 76.7641L50.6426 76.7615L50.0317 79.9534ZM54.8697 83.179L57.6415 81.4821L57.6223 81.4508L57.6024 81.4198L54.8697 83.179ZM51.5638 96.9782L52.9634 99.9114L52.9956 99.896L53.0276 99.8799L51.5638 96.9782ZM43.3736 95.2039C40.6781 94.8404 38.5126 94.685 36.3598 94.132L34.7425 100.427C37.3886 101.107 40.3068 101.349 42.5047 101.645L43.3736 95.2039ZM36.444 94.1548C35.401 93.8567 34.346 93.6413 33.4818 93.4553C32.568 93.2586 31.8208 93.086 31.1366 92.8577L29.0788 99.0232C30.1378 99.3766 31.199 99.6126 32.1144 99.8097C33.0796 100.017 33.8747 100.181 34.6581 100.404L36.444 94.1548ZM31.1737 92.8703C29.5427 92.3039 27.9995 91.3962 26.8322 90.3056L22.3947 95.0548C24.2868 96.8228 26.6373 98.1756 29.0417 99.0105L31.1737 92.8703ZM26.8322 90.3056C25.0522 88.6424 23.7814 86.3329 23.2391 83.8741L16.8918 85.2737C17.6963 88.9219 19.5854 92.4301 22.3947 95.0548L26.8322 90.3056ZM23.2211 83.7969C22.1783 79.5617 22.3806 74.8655 23.0342 70.035L16.5931 69.1635C15.9031 74.2629 15.5738 79.9249 16.9098 85.3509L23.2211 83.7969ZM23.0365 70.0173C23.5592 65.9883 24.3556 62.0241 25.4903 58.1305L19.2501 56.3119C18.0121 60.56 17.1518 64.8557 16.5907 69.1812L23.0365 70.0173ZM25.5083 58.0665C26.1829 55.5619 27.2877 53.1614 28.8078 51.3709L23.8528 47.1642C21.5383 49.8906 20.0754 53.2457 19.2322 56.3758L25.5083 58.0665ZM28.8378 51.335C30.119 49.7813 31.946 48.5651 33.6871 48.1432L32.1563 41.8262C28.8401 42.6299 25.8521 44.739 23.8229 47.2001L28.8378 51.335ZM33.8281 48.1056C34.9718 47.7735 36.3015 47.8169 37.335 48.2069L39.63 42.1257C37.2009 41.209 34.4256 41.1638 32.0153 41.8637L33.8281 48.1056ZM37.412 48.2349C38.3006 48.5449 39.2416 49.2803 39.8234 50.146L45.2184 46.5209C43.9101 44.5739 41.8641 42.904 39.553 42.0977L37.412 48.2349ZM39.8795 50.2269C40.8683 51.6062 41.4569 53.5556 41.4787 55.5018L47.9781 55.4289C47.9438 52.3635 47.044 49.0653 45.1623 46.4401L39.8795 50.2269ZM41.4791 55.526C41.5198 57.7038 40.8572 60.1109 39.9306 62.684L46.046 64.8862C47.0199 62.1819 48.042 58.8348 47.9778 55.4045L41.4791 55.526ZM39.9561 62.6155C38.705 65.8595 36.7369 69.9347 35.5633 73.8333L41.7874 75.7067C42.8921 72.0363 44.4442 69.0418 46.0205 64.9545L39.9561 62.6155ZM35.6095 73.6919C35.324 74.5039 35.0147 75.7415 34.8486 76.9488C34.7647 77.5591 34.7043 78.2526 34.7257 78.9357C34.7445 79.5321 34.8315 80.5186 35.3307 81.4496L41.0588 78.3778C41.1869 78.6165 41.221 78.7884 41.2257 78.8126C41.2325 78.8475 41.2254 78.8259 41.2225 78.7316C41.2163 78.5364 41.2332 78.2313 41.2878 77.8345C41.3988 77.0278 41.6111 76.2183 41.7412 75.8481L35.6095 73.6919ZM35.4575 81.6656C36.5458 83.3659 38.4124 83.7251 39.1905 83.83C40.1834 83.964 41.1622 83.8997 41.8313 83.8087L40.9563 77.3681C40.8219 77.3863 40.6532 77.4016 40.4783 77.4057C40.2995 77.41 40.1561 77.4016 40.0592 77.3886C39.948 77.3735 39.9875 77.3644 40.118 77.4235C40.2507 77.4835 40.6261 77.6837 40.9321 78.1617L35.4575 81.6656ZM41.855 83.8055C43.6095 83.5539 44.6388 83.3226 46.1296 83.1443C47.4398 82.9875 48.5041 82.9699 49.4208 83.1454L50.6426 76.7615C48.7782 76.4046 46.9551 76.4994 45.3574 76.6905C43.9402 76.8601 42.0411 77.2125 40.9325 77.3715L41.855 83.8055ZM49.3927 83.1399C50.6559 83.3933 51.5328 83.9995 52.1371 84.9382L57.6024 81.4198C55.9813 78.9018 53.5375 77.3419 50.6708 76.767L49.3927 83.1399ZM52.0979 84.8758C54.2586 88.4052 53.1388 92.5437 50.1 94.0767L53.0276 99.8799C60.0989 96.3126 61.3916 87.608 57.6415 81.4821L52.0979 84.8758ZM50.1642 94.0453C48.0266 95.0652 45.5534 95.5076 43.3878 95.2059L42.4906 101.643C46.0776 102.143 49.8311 101.406 52.9634 99.9114L50.1642 94.0453ZM69.0099 102.829L68.6459 106.059L68.6872 106.063L68.7285 106.067L69.0099 102.829ZM64.1469 102.198L63.5267 105.388L63.536 105.39L64.1469 102.198ZM59.8661 100.893L58.3503 103.768L58.3631 103.774L58.3759 103.781L59.8661 100.893ZM57.6508 96.9304L54.4325 96.4781L54.426 96.5243L54.4209 96.5708L57.6508 96.9304ZM60.9976 92.2157L61.5577 95.417L61.5865 95.4119L61.6153 95.4063L60.9976 92.2157ZM64.6861 92.4386L63.9379 95.6013L67.7732 96.5087L67.9334 92.5707L64.6861 92.4386ZM66.4472 82.2811L69.5519 83.2419L70.9617 78.6859L66.2057 79.0402L66.4472 82.2811ZM62.2708 81.1213L60.1475 83.5816L60.17 83.6011L60.193 83.6201L62.2708 81.1213ZM60.8295 78.9566L63.8894 77.8617L63.8687 77.804L63.8459 77.747L60.8295 78.9566ZM61.0434 74.0248L58.1056 72.6354L58.091 72.6662L58.0771 72.6974L61.0434 74.0248ZM64.5321 71.0463L63.8323 67.8725L63.7994 67.8798L63.7667 67.8878L64.5321 71.0463ZM69.2765 71.3577L68.5754 74.5311L68.6611 74.5501L68.7477 74.5644L69.2765 71.3577ZM71.6871 71.5412L71.1581 74.7479L71.2471 74.7626L71.3368 74.7723L71.6871 71.5412ZM77.4396 72.4901L76.7234 75.6601L76.7724 75.6711L76.8219 75.6807L77.4396 72.4901ZM81.6379 74.2959L83.932 71.994L83.913 71.975L83.8937 71.9564L81.6379 74.2959ZM82.7591 76.0652L85.8274 74.994L85.8168 74.9636L85.8056 74.9334L82.7591 76.0652ZM79.2511 84.0932L77.8906 81.1419L77.8621 81.155L77.834 81.1686L79.2511 84.0932ZM76.6194 84.4727L76.8418 81.2305L73.372 80.9924L73.3695 84.4704L76.6194 84.4727ZM75.1681 93.0114L72.1023 91.9333L70.875 95.4234L74.4942 96.1907L75.1681 93.0114ZM77.7466 93.9934L79.582 91.3113L79.5635 91.2986L79.5448 91.2863L77.7466 93.9934ZM79.194 95.6023L76.2773 97.0358L76.3015 97.0851L76.3275 97.1336L79.194 95.6023ZM79.73 100.401L76.5964 99.5393L76.5948 99.5448L79.73 100.401ZM73.8871 103.634L73.5231 106.863L73.5556 106.867L73.588 106.87L73.8871 103.634ZM69.3739 99.5997C67.617 99.4016 66.2148 99.2851 64.7578 99.0062L63.536 105.39C65.3166 105.731 67.1239 105.887 68.6459 106.059L69.3739 99.5997ZM64.7672 99.0081C63.3199 98.7267 62.2448 98.463 61.3564 98.0047L58.3759 103.781C60.1709 104.707 62.0698 105.105 63.5267 105.388L64.7672 99.0081ZM61.382 98.0179C61.2127 97.9287 61.0834 97.8382 60.9966 97.762C60.9094 97.6857 60.8971 97.6525 60.9127 97.6803L55.2441 100.861C56.0543 102.305 57.318 103.223 58.3503 103.768L61.382 98.0179ZM60.9127 97.6803C60.9126 97.6803 60.9089 97.6735 60.9035 97.6579C60.8979 97.6419 60.8909 97.6171 60.885 97.5825C60.8726 97.5108 60.8673 97.4108 60.8808 97.2901L54.4209 96.5708C54.2722 97.9057 54.4519 99.4486 55.2441 100.861L60.9127 97.6803ZM60.869 97.3829C60.9246 96.988 61.1479 96.3238 61.4977 95.7737C61.6632 95.5136 61.7988 95.372 61.8648 95.3161C61.9313 95.2598 61.8313 95.3691 61.5577 95.417L60.4376 89.0144C58.1953 89.4067 56.7637 91.1055 56.0132 92.2856C55.1923 93.5763 54.6241 95.1152 54.4325 96.4781L60.869 97.3829ZM61.6153 95.4063C62.138 95.3051 62.9051 95.3569 63.9379 95.6013L65.4344 89.2761C64.0769 88.9549 62.2458 88.6637 60.3799 89.025L61.6153 95.4063ZM67.9334 92.5707C68.0616 89.4165 68.6234 86.2418 69.5519 83.2419L63.3425 81.3204C62.2536 84.8389 61.5908 88.5702 61.4389 92.3067L67.9334 92.5707ZM66.2057 79.0402C65.342 79.1046 64.6093 78.8391 64.3488 78.6224L60.193 83.6201C62.1165 85.2196 64.691 85.6709 66.6887 85.5221L66.2057 79.0402ZM64.3942 78.661C64.2158 78.5069 64.028 78.2491 63.8894 77.8617L57.7695 80.0515C58.2171 81.3024 58.9765 82.5709 60.1475 83.5816L64.3942 78.661ZM63.8459 77.747C63.6216 77.1877 63.6269 76.2083 64.0098 75.3524L58.0771 72.6974C57.1039 74.872 56.8238 77.6994 57.8131 80.1663L63.8459 77.747ZM63.9813 75.4143C64.2863 74.7694 64.923 74.2955 65.2976 74.2048L63.7667 67.8878C61.1975 68.5103 59.1156 70.4998 58.1056 72.6354L63.9813 75.4143ZM65.2319 74.2199C65.997 74.0512 66.9928 74.1815 68.5754 74.5311L69.9777 68.1844C68.5031 67.8586 66.1777 67.3554 63.8323 67.8725L65.2319 74.2199ZM68.7477 74.5644C68.9149 74.5919 69.0829 74.6073 69.1596 74.6143C69.2659 74.6239 69.384 74.633 69.5006 74.6414C69.7341 74.6583 70.014 74.6761 70.2746 74.6928C70.5437 74.71 70.7934 74.7259 70.9937 74.7405C71.0939 74.7478 71.1686 74.7536 71.2193 74.7583C71.2995 74.7655 71.2523 74.7633 71.1581 74.7479L72.2159 68.3347C72.0487 68.3071 71.8806 68.2918 71.804 68.2848C71.6977 68.2752 71.5795 68.266 71.463 68.2577C71.2295 68.2408 70.9496 68.2228 70.689 68.2062C70.4199 68.189 70.1702 68.173 69.9699 68.1585C69.8695 68.1513 69.795 68.1453 69.7443 68.1408C69.664 68.1335 69.7112 68.1356 69.8055 68.1512L68.7477 74.5644ZM71.3368 74.7723C71.6037 74.8012 72.7588 74.9797 74.0552 75.1936C74.6755 75.2959 75.2905 75.3999 75.7898 75.4876C76.0399 75.5314 76.2557 75.5701 76.4261 75.602C76.5113 75.6179 76.581 75.6312 76.6355 75.642C76.6626 75.6474 76.6838 75.6518 76.6998 75.6551C76.7165 75.6586 76.7236 75.6602 76.7234 75.6601L78.1559 69.3201C77.3265 69.1327 72.9103 68.4049 72.0372 68.3103L71.3368 74.7723ZM76.8219 75.6807C78.2471 75.9567 79.0436 76.3091 79.382 76.6353L83.8937 71.9564C82.0893 70.2165 79.6196 69.6019 78.0574 69.2995L76.8219 75.6807ZM79.3437 76.5978C79.486 76.7397 79.6177 76.9415 79.7126 77.1969L85.8056 74.9334C85.4259 73.9115 84.8194 72.8783 83.932 71.994L79.3437 76.5978ZM79.6907 77.1362C80.1573 78.4726 79.3236 80.4813 77.8906 81.1419L80.6116 87.0447C84.9251 85.0563 87.4547 79.6552 85.8274 74.994L79.6907 77.1362ZM77.834 81.1686C77.8372 81.167 77.7665 81.2008 77.5789 81.2237C77.3918 81.2464 77.1472 81.2514 76.8418 81.2305L76.3968 87.715C77.4964 87.7905 79.1222 87.7671 80.6682 87.018L77.834 81.1686ZM73.3695 84.4704C73.3675 86.9829 72.9451 89.5365 72.1023 91.9333L78.234 94.0896C79.3267 90.9822 79.8668 87.6998 79.8692 84.4752L73.3695 84.4704ZM74.4942 96.1907C75.2482 96.3505 75.6784 96.5211 75.9484 96.7005L79.5448 91.2863C78.2713 90.4404 76.9085 90.0583 75.842 89.8322L74.4942 96.1907ZM75.9113 96.6755C76.0093 96.7425 76.1018 96.8224 76.1748 96.9017C76.21 96.9399 76.2357 96.9727 76.2533 96.9978C76.2709 97.023 76.2775 97.0362 76.2773 97.0358L82.1107 94.1689C81.4873 92.9004 80.5037 91.942 79.582 91.3113L75.9113 96.6755ZM76.3275 97.1336C76.6903 97.8128 76.8024 98.7899 76.5964 99.5393L82.8635 101.263C83.5136 98.8987 83.2028 96.2094 82.0605 94.0711L76.3275 97.1336ZM76.5948 99.5448C76.5019 99.8852 76.1804 100.223 76.0248 100.297L78.8188 106.166C80.8008 105.222 82.3091 103.293 82.8651 101.257L76.5948 99.5448ZM76.0248 100.297C75.7955 100.407 75.2677 100.497 74.1862 100.397L73.588 106.87C74.8685 106.988 76.9105 107.075 78.8188 106.166L76.0248 100.297ZM74.2511 100.404C73.5946 100.33 72.9341 100.196 72.0825 100.028C71.2827 99.8692 70.3128 99.6801 69.2914 99.5914L68.7285 106.067C69.3534 106.121 70.0024 106.242 70.8198 106.404C71.5852 106.555 72.5401 106.752 73.5231 106.863L74.2511 100.404ZM88.1906 105.864L87.6617 109.071L87.7211 109.081L87.7807 109.088L88.1906 105.864ZM85.0474 103.633L87.8142 101.928L87.8089 101.92L85.0474 103.633ZM83.594 98.4262L86.8346 98.1803L86.8326 98.1534L86.83 98.1266L83.594 98.4262ZM84.2536 90.0139L81.0748 89.3377L81.0743 89.3399L84.2536 90.0139ZM86.6159 82.1822L89.6313 83.3942L89.6339 83.3877L86.6159 82.1822ZM90.0933 76.6754L92.3321 79.0311L92.354 79.0103L92.3755 78.9891L90.0933 76.6754ZM91.606 75.8116L92.3511 78.9749L92.3932 78.965L92.4351 78.9539L91.606 75.8116ZM99.8163 76.1381L100.184 72.9091L100.164 72.9069L100.144 72.9048L99.8163 76.1381ZM107.21 78.0427L105.649 80.8933L105.659 80.8989L105.669 80.9044L107.21 78.0427ZM110.508 81.4128L113.443 80.0172L113.425 79.9799L113.406 79.943L110.508 81.4128ZM107.296 87.9054L107.808 91.1148L107.822 91.1124L107.296 87.9054ZM104.976 87.694L104.027 90.8026L104.062 90.8129L104.096 90.8226L104.976 87.694ZM101.306 86.575L102.047 83.4106L102.03 83.4066L102.012 83.4026L101.306 86.575ZM99.0627 86.419L99.4775 89.6423L99.5546 89.6324L99.6311 89.6188L99.0627 86.419ZM97.862 86.9488L100.057 89.3458L100.084 89.3212L100.11 89.296L97.862 86.9488ZM97.5315 88.6928L95.9656 91.5406L95.9905 91.5543L96.0157 91.5676L97.5315 88.6928ZM98.2612 88.9416L97.7323 92.1481L97.7687 92.1542L97.8053 92.1594L98.2612 88.9416ZM103.715 89.627L102.819 92.7511L102.888 92.771L102.959 92.7877L103.715 89.627ZM106.587 91.685L103.652 93.0821L103.671 93.1205L103.69 93.1585L106.587 91.685ZM105.471 97.4101L103.245 95.0422L103.207 95.0785L103.169 95.116L105.471 97.4101ZM103.431 98.3582L103.033 95.1326L103.025 95.1338L103.016 95.1349L103.431 98.3582ZM99.4985 97.7952L98.5593 100.907L98.5636 100.908L99.4985 97.7952ZM96.608 97.1472L96.5797 93.8974L96.5672 93.8976L96.5547 93.8978L96.608 97.1472ZM95.2823 97.6565L93.0759 95.2703L92.2236 96.0583L92.0634 97.2079L95.2823 97.6565ZM93.8735 102.562L96.7307 104.111L96.7364 104.101L93.8735 102.562ZM89.8311 102.392C89.4896 102.599 89.0393 102.696 88.6005 102.64L87.7807 109.088C89.6066 109.32 91.5449 108.955 93.2017 107.95L89.8311 102.392ZM88.7195 102.658C88.56 102.631 88.09 102.376 87.8142 101.928L82.2807 105.338C83.3559 107.083 85.3201 108.685 87.6617 109.071L88.7195 102.658ZM87.8089 101.92C87.2682 101.048 86.9546 99.761 86.8346 98.1803L80.3534 98.6723C80.5033 100.647 80.9322 103.165 82.2859 105.347L87.8089 101.92ZM86.83 98.1266C86.6095 95.7451 86.8914 93.2422 87.4328 90.6879L81.0743 89.3399C80.458 92.2469 80.055 95.4544 80.3579 98.726L86.83 98.1266ZM87.4323 90.6901C87.9693 88.1658 88.6909 85.734 89.6313 83.3942L83.6003 80.9703C82.5072 83.6903 81.6818 86.4842 81.0748 89.3377L87.4323 90.6901ZM89.6339 83.3877C90.3499 81.5954 91.2346 80.0741 92.3321 79.0311L87.8545 74.3196C85.8037 76.2686 84.4865 78.7517 83.5978 80.9767L89.6339 83.3877ZM92.3755 78.9891C92.3727 78.992 92.3722 78.9923 92.3744 78.9904C92.3765 78.9884 92.3804 78.9852 92.3859 78.9811C92.3914 78.9769 92.3977 78.9725 92.4045 78.968C92.4113 78.9635 92.4179 78.9594 92.4238 78.956C92.4297 78.9527 92.4342 78.9504 92.4368 78.949C92.4394 78.9478 92.4389 78.948 92.4354 78.9496C92.4317 78.951 92.4235 78.9543 92.4104 78.9586C92.3973 78.9628 92.3775 78.9687 92.3511 78.9749L90.8609 72.6483C89.6721 72.9283 88.5876 73.5956 87.8111 74.3616L92.3755 78.9891ZM92.4351 78.9539C92.2828 78.9942 92.4555 78.9446 93.2297 78.9488C93.8666 78.9521 94.657 78.9868 95.4904 79.0388C97.1505 79.1423 98.8305 79.3047 99.4885 79.3714L100.144 72.9048C99.4546 72.8349 97.6785 72.6628 95.895 72.5515C95.0065 72.4961 94.0781 72.4534 93.2645 72.449C92.588 72.4454 91.5784 72.4577 90.7769 72.6692L92.4351 78.9539ZM99.4482 79.3671C101.987 79.6565 104.031 80.0074 105.649 80.8933L108.771 75.192C105.911 73.6268 102.689 73.1947 100.184 72.9091L99.4482 79.3671ZM105.669 80.9044C106.472 81.3362 107.203 82.0824 107.609 82.8825L113.406 79.943C112.39 77.9394 110.701 76.231 108.75 75.181L105.669 80.9044ZM107.573 82.8082C107.791 83.2668 107.76 83.7314 107.589 84.0836C107.427 84.4175 107.155 84.6352 106.769 84.6984L107.822 91.1124C113.162 90.236 115.58 84.5133 113.443 80.0172L107.573 82.8082ZM106.783 84.6961C106.656 84.7166 106.385 84.7144 105.855 84.5654L104.096 90.8226C105.039 91.0879 106.353 91.3471 107.808 91.1148L106.783 84.6961ZM105.924 84.5854C104.99 84.3006 103.406 83.7289 102.047 83.4106L100.565 89.7393C101.68 90.0003 102.516 90.3414 104.027 90.8026L105.924 84.5854ZM102.012 83.4026C101.214 83.2249 99.9221 82.9654 98.4942 83.2191L99.6311 89.6188C99.6499 89.6154 99.7219 89.6056 99.8846 89.6208C100.057 89.6368 100.275 89.6749 100.6 89.7473L102.012 83.4026ZM98.6478 83.1956C97.7176 83.3153 96.547 83.7082 95.614 84.6018L100.11 89.296C99.9272 89.4708 99.7687 89.5501 99.6933 89.5824C99.613 89.6168 99.5443 89.6337 99.4775 89.6423L98.6478 83.1956ZM95.6673 84.5519C95.1118 85.0606 94.4381 85.884 94.1221 86.9512C93.9557 87.5132 93.8283 88.3589 94.1189 89.2978C94.4362 90.323 95.1371 91.085 95.9656 91.5406L99.0974 85.8451C99.5921 86.1171 100.098 86.6328 100.328 87.376C100.531 88.0329 100.424 88.5609 100.355 88.7962C100.232 89.2102 100.057 89.3452 100.057 89.3458L95.6673 84.5519ZM96.0157 91.5676C96.5442 91.8462 97.1193 92.047 97.7323 92.1481L98.7901 85.735C98.9029 85.7536 98.9915 85.7886 99.0472 85.818L96.0157 91.5676ZM97.8053 92.1594C98.8499 92.3074 99.9823 92.3682 100.751 92.4318C101.613 92.5034 102.257 92.5899 102.819 92.7511L104.61 86.503C103.414 86.1601 102.252 86.0343 101.288 85.9543C100.229 85.8665 99.5135 85.8366 98.7171 85.7239L97.8053 92.1594ZM102.959 92.7877C103.189 92.8429 103.411 92.9416 103.567 93.0474C103.727 93.1563 103.705 93.193 103.652 93.0821L109.521 90.2881C108.432 88.0001 106.152 86.8684 104.471 86.4662L102.959 92.7877ZM103.69 93.1585C103.645 93.071 103.682 93.0999 103.697 93.3043C103.71 93.4959 103.697 93.7535 103.639 94.0426C103.582 94.3307 103.492 94.5912 103.394 94.7921C103.291 95.0039 103.219 95.0664 103.245 95.0422L107.697 99.7781C109.01 98.5444 109.717 96.8006 110.013 95.3156C110.306 93.8487 110.343 91.9022 109.483 90.2116L103.69 93.1585ZM103.169 95.116C103.188 95.0976 103.202 95.0851 103.211 95.0776C103.22 95.0701 103.225 95.0666 103.226 95.0664C103.226 95.0662 103.223 95.0683 103.216 95.0722C103.209 95.076 103.2 95.081 103.187 95.0866C103.162 95.0981 103.132 95.1092 103.101 95.1181C103.07 95.127 103.046 95.131 103.033 95.1326L103.828 101.584C105.167 101.419 106.664 100.817 107.773 99.7044L103.169 95.116ZM103.016 95.1349C102.466 95.2056 101.72 95.069 100.433 94.6827L98.5636 100.908C99.8069 101.281 101.77 101.849 103.845 101.582L103.016 95.1349ZM100.438 94.684C99.8621 94.5102 98.208 93.8832 96.5797 93.8974L96.6363 100.397C96.9806 100.394 97.2587 100.514 98.5593 100.907L100.438 94.684ZM96.5547 93.8978C95.3927 93.9168 94.0924 94.3303 93.0759 95.2703L97.4887 100.043C97.3204 100.198 97.1591 100.281 97.0406 100.326C96.922 100.37 96.7975 100.394 96.6612 100.397L96.5547 93.8978ZM92.0634 97.2079C91.8456 98.7708 91.5363 100.046 91.0109 101.024L96.7364 104.101C97.8171 102.089 98.2522 99.8908 98.501 98.1051L92.0634 97.2079ZM91.0164 101.014C90.6474 101.695 90.1982 102.17 89.8311 102.392L93.2017 107.95C94.8329 106.961 95.9919 105.474 96.7307 104.111L91.0164 101.014ZM125.635 112.297L126.078 109.078L126.046 109.073L126.015 109.07L125.635 112.297ZM117.603 110.63L118.668 107.559L118.665 107.558L117.603 110.63ZM113.236 107.769L110.73 109.837L110.732 109.839L113.236 107.769ZM110.758 100.209L114.007 100.279L114.008 100.241L114.008 100.204L110.758 100.209ZM112.23 91.8023L115.324 92.7988L115.331 92.7747L115.339 92.7504L112.23 91.8023ZM115.428 84.8791L112.844 82.9076L112.82 82.9395L112.796 82.972L115.428 84.8791ZM118.819 81.7131L120.609 84.4253L120.618 84.4198L120.626 84.4142L118.819 81.7131ZM121.352 80.6322L121.864 83.8415L121.946 83.8284L122.028 83.8111L121.352 80.6322ZM124.484 80.5923L124.424 77.343L124.386 77.3436L124.348 77.3452L124.484 80.5923ZM129.341 81.0079L128.981 84.2377L129.004 84.2404L129.026 84.2424L129.341 81.0079ZM136.547 83.267L138.533 80.6945L138.503 80.6717L138.473 80.6498L136.547 83.267ZM137.751 84.7929L140.75 83.542L140.721 83.4715L140.688 83.4026L137.751 84.7929ZM138.04 87.1957L134.811 86.8277L134.808 86.8545L134.805 86.8812L138.04 87.1957ZM133.226 91.4544L133.809 88.2572L133.782 88.2523L133.755 88.2478L133.226 91.4544ZM131.162 90.7285L132.623 87.8257L132.551 87.7891L132.476 87.7561L131.162 90.7285ZM127.396 89.1654L128.318 86.049L128.244 86.0272L128.168 86.0086L127.396 89.1654ZM124.11 89.3513L122.587 86.4802L122.574 86.4879L122.559 86.4954L124.11 89.3513ZM123.23 90.5335L120.023 90.0048L119.997 90.1647L119.987 90.3264L123.23 90.5335ZM124.086 91.0601L123.878 94.3034L123.925 94.3065L123.971 94.308L124.086 91.0601ZM128.003 90.9355L127.785 94.1781L127.799 94.179L127.812 94.1797L128.003 90.9355ZM130.358 91.4525L132.128 88.7266L132.004 88.6464L131.874 88.5777L130.358 91.4525ZM131.694 93.2143L134.863 92.4897L134.854 92.4517L134.844 92.4135L131.694 93.2143ZM131.637 96.1593L128.488 95.3548L128.472 95.4198L128.458 95.4854L131.637 96.1593ZM130.328 98.6413L128.189 96.1944L128.133 96.243L128.081 96.2942L130.328 98.6413ZM128.684 99.5261L129.384 102.7L129.423 102.691L129.461 102.682L128.684 99.5261ZM126.628 99.5297L126.228 102.755L126.257 102.758L126.288 102.762L126.628 99.5297ZM121.779 99.0722L123.6 101.764L123.637 101.739L123.672 101.714L121.779 99.0722ZM122.756 101.46L121.519 104.466L121.574 104.488L121.63 104.509L122.756 101.46ZM126.145 101.677L126.002 98.4297L125.971 98.4311L125.939 98.433L126.145 101.677ZM131.057 102.016L129.955 105.073L130.031 105.101L130.109 105.124L131.057 102.016ZM133.956 104.421L136.934 103.117L136.925 103.099L136.918 103.082L133.956 104.421ZM133.934 107.415L130.913 106.216L130.906 106.235L130.898 106.254L133.934 107.415ZM130.295 111.824L131.873 114.665L131.885 114.659L130.295 111.824ZM126.015 109.07C123.364 108.757 120.928 108.343 118.668 107.559L116.539 113.701C119.463 114.714 122.446 115.194 125.255 115.525L126.015 109.07ZM118.665 107.558C117.395 107.12 116.366 106.454 115.741 105.698L110.732 109.839C112.32 111.761 114.489 112.993 116.542 113.702L118.665 107.558ZM115.743 105.7C114.629 104.35 113.964 102.301 114.007 100.279L107.509 100.139C107.437 103.493 108.489 107.123 110.73 109.837L115.743 105.7ZM114.008 100.204C114.004 97.8249 114.511 95.3213 115.324 92.7988L109.137 90.8058C108.194 93.7316 107.503 96.9395 107.508 100.215L114.008 100.204ZM115.339 92.7504C116.042 90.4437 116.87 88.4269 118.059 86.7862L112.796 82.972C110.992 85.462 109.91 88.2687 109.122 90.8543L115.339 92.7504ZM118.011 86.8505C118.72 85.9218 119.617 85.0801 120.609 84.4253L117.028 79.0009C115.425 80.059 113.993 81.4023 112.844 82.9076L118.011 86.8505ZM120.626 84.4142C121.185 84.0398 121.578 83.8872 121.864 83.8415L120.84 77.4229C119.279 77.672 117.992 78.3558 117.011 79.012L120.626 84.4142ZM122.028 83.8111C122.118 83.7919 122.302 83.7738 122.774 83.7941C123.119 83.8089 123.919 83.8686 124.621 83.8394L124.348 77.3452C124.014 77.3592 123.759 77.3306 123.052 77.3003C122.472 77.2754 121.607 77.2556 120.676 77.4534L122.028 83.8111ZM124.545 83.8415C125.897 83.8163 127.152 84.0342 128.981 84.2377L129.7 77.7778C128.333 77.6256 126.336 77.3073 124.424 77.343L124.545 83.8415ZM129.026 84.2424C131.443 84.4773 133.342 84.9434 134.62 85.8841L138.473 80.6498C135.704 78.6107 132.294 78.0297 129.654 77.773L129.026 84.2424ZM134.56 85.8394C134.612 85.8795 134.727 86.0006 134.814 86.1834L140.688 83.4026C140.203 82.3778 139.468 81.4166 138.533 80.6945L134.56 85.8394ZM134.752 86.044C134.8 86.1598 134.859 86.4074 134.811 86.8277L141.269 87.5638C141.412 86.3029 141.316 84.8977 140.75 83.542L134.752 86.044ZM134.805 86.8812C134.756 87.3907 134.516 87.8265 134.256 88.0707C134.031 88.281 133.898 88.2735 133.809 88.2572L132.644 94.6519C137.639 95.5616 140.913 91.2292 141.275 87.5101L134.805 86.8812ZM133.755 88.2478C133.504 88.2065 133.114 88.0726 132.623 87.8257L129.701 93.6315C130.476 94.0214 131.531 94.4686 132.697 94.6609L133.755 88.2478ZM132.476 87.7561C131.478 87.315 129.891 86.5148 128.318 86.049L126.472 92.2814C127.512 92.5893 128.373 93.0491 129.849 93.7014L132.476 87.7561ZM128.168 86.0086C126.826 85.6798 124.629 85.3974 122.587 86.4802L125.633 92.2227C125.573 92.2549 125.602 92.218 125.801 92.2129C126.003 92.208 126.282 92.2387 126.622 92.3219L128.168 86.0086ZM122.559 86.4954C121.414 87.1175 120.297 88.3487 120.023 90.0048L126.436 91.0625C126.377 91.4275 126.231 91.6762 126.12 91.8199C126.01 91.9635 125.864 92.0971 125.661 92.207L122.559 86.4954ZM119.987 90.3264C119.94 91.0602 120.104 91.8831 120.608 92.623C121.084 93.3191 121.695 93.6987 122.135 93.9C122.904 94.2528 123.678 94.2905 123.878 94.3034L124.293 87.8169C124.234 87.8129 124.256 87.8119 124.318 87.8228C124.369 87.8315 124.574 87.8682 124.842 87.991C125.118 88.1173 125.593 88.3968 125.977 88.9586C126.39 89.5644 126.507 90.219 126.473 90.7407L119.987 90.3264ZM123.971 94.308C124.845 94.3387 125.69 94.2672 126.285 94.2231C126.948 94.1744 127.385 94.1512 127.785 94.1781L128.22 87.6928C127.306 87.6315 126.446 87.6941 125.807 87.741C125.103 87.793 124.646 87.8279 124.2 87.8122L123.971 94.308ZM127.812 94.1797C128.166 94.2005 128.413 94.2264 128.605 94.2633C128.791 94.299 128.851 94.332 128.843 94.3272L131.874 88.5777C130.493 87.8495 129.028 87.7401 128.193 87.6912L127.812 94.1797ZM128.588 94.178C128.591 94.1798 128.599 94.1856 128.609 94.1947C128.613 94.1988 128.617 94.2028 128.62 94.206C128.622 94.2076 128.623 94.2092 128.624 94.2101C128.625 94.2111 128.625 94.2114 128.625 94.2114C128.625 94.2113 128.624 94.2105 128.623 94.2093C128.623 94.208 128.621 94.2058 128.619 94.2026C128.615 94.1968 128.609 94.1868 128.602 94.1725C128.587 94.1441 128.564 94.092 128.545 94.015L134.844 92.4135C134.418 90.7381 133.272 89.4696 132.128 88.7266L128.588 94.178ZM128.526 93.9389C128.624 94.3634 128.616 94.8581 128.488 95.3548L134.785 96.964C135.141 95.5707 135.214 94.0233 134.863 92.4897L128.526 93.9389ZM128.458 95.4854C128.409 95.715 128.339 95.9126 128.268 96.0566C128.194 96.2038 128.151 96.2274 128.189 96.1944L132.467 101.088C133.902 99.8333 134.546 98.1063 134.816 96.8332L128.458 95.4854ZM128.081 96.2942C128.072 96.3016 128.06 96.3112 128.038 96.3229C128.016 96.3354 127.974 96.3538 127.907 96.3705L129.461 102.682C130.583 102.405 131.668 101.858 132.576 100.988L128.081 96.2942ZM127.984 96.3525C127.98 96.3531 127.921 96.3662 127.751 96.3621C127.563 96.3576 127.345 96.3372 126.967 96.2974L126.288 102.762C126.917 102.828 128.118 102.979 129.384 102.7L127.984 96.3525ZM127.028 96.3043C127.033 96.305 127.018 96.3032 126.975 96.2957C126.933 96.2881 126.878 96.2778 126.807 96.2631C126.659 96.2329 126.484 96.1939 126.263 96.1442C125.846 96.0504 125.284 95.9222 124.718 95.8193C124.167 95.7194 123.474 95.6169 122.784 95.6112C122.247 95.6069 120.993 95.6369 119.885 96.4309L123.672 101.714C123.289 101.989 122.953 102.069 122.841 102.091C122.717 102.117 122.668 102.11 122.731 102.111C122.869 102.112 123.136 102.138 123.557 102.215C123.964 102.289 124.384 102.384 124.838 102.486C125.212 102.57 125.771 102.698 126.228 102.755L127.028 96.3043ZM119.957 96.3807C119.017 97.0174 118.359 97.9988 118.184 99.1653C118.026 100.225 118.306 101.139 118.615 101.768C119.208 102.978 120.296 103.962 121.519 104.466L123.992 98.4544C124.172 98.5285 124.314 98.6291 124.451 98.9077C124.531 99.0702 124.705 99.507 124.613 100.128C124.503 100.855 124.084 101.437 123.6 101.764L119.957 96.3807ZM121.63 104.509C123.46 105.184 125.45 104.977 126.351 104.92L125.939 98.433C124.59 98.5188 124.149 98.5102 123.88 98.411L121.63 104.509ZM126.288 104.923C128.202 104.839 129.166 104.789 129.955 105.073L132.157 98.9577C129.876 98.1362 127.367 98.3695 126.002 98.4297L126.288 104.923ZM130.109 105.124C130.3 105.183 130.527 105.3 130.722 105.459C130.815 105.535 130.884 105.607 130.932 105.666C130.98 105.726 130.995 105.76 130.995 105.759L136.918 103.082C135.963 100.968 133.949 99.5001 132.005 98.9071L130.109 105.124ZM130.98 105.725C130.963 105.686 130.988 105.723 130.985 105.852C130.983 105.978 130.954 106.113 130.913 106.216L136.955 108.612C137.573 107.054 137.754 104.99 136.934 103.117L130.98 105.725ZM130.898 106.254C130.436 107.462 129.569 108.505 128.705 108.99L131.885 114.659C134.323 113.29 136.076 110.911 136.969 108.575L130.898 106.254ZM128.717 108.983C128.363 109.179 127.587 109.285 126.078 109.078L125.193 115.517C126.781 115.735 129.492 115.988 131.873 114.665L128.717 108.983ZM147.286 116.125L147.614 112.892L147.567 112.887L147.522 112.884L147.286 116.125ZM141.783 114.961L143.009 111.951L142.97 111.935L142.93 111.92L141.783 114.961ZM139.14 113.069L141.504 110.839L141.477 110.81L141.449 110.782L139.14 113.069ZM137.021 109.037L140.25 108.665L140.248 108.646L140.246 108.628L137.021 109.037ZM140.387 103.169L140.987 106.364L141.019 106.357L141.052 106.351L140.387 103.169ZM144.445 104.01L146.066 101.193L146.001 101.155L145.933 101.121L144.445 104.01ZM146.9 105.485L145.609 108.468L145.636 108.479L145.663 108.491L146.9 105.485ZM148.525 105.753L149.27 108.917L149.287 108.913L149.303 108.909L148.525 105.753ZM148.809 105.072L151.611 103.426L151.461 103.171L151.268 102.947L148.809 105.072ZM147.147 103.984L148.768 101.168L148.754 101.16L148.741 101.152L147.147 103.984ZM142.016 100.826L139.885 103.28L139.895 103.288L142.016 100.826ZM140.107 97.3424L136.912 97.934L136.913 97.9417L136.914 97.9498L140.107 97.3424ZM140.439 92.4728L137.379 91.3789L137.366 91.4146L137.355 91.4505L140.439 92.4728ZM142.871 88.8918L140.794 86.3919L140.728 86.4473L140.665 86.5058L142.871 88.8918ZM144.854 87.2491L143.103 84.5122L143.078 84.5278L143.053 84.5441L144.854 87.2491ZM149.638 85.5118L149.999 88.7416L150.017 88.7396L150.035 88.7373L149.638 85.5118ZM156.271 86.3061L155.261 89.3951L155.286 89.4032L155.31 89.4105L156.271 86.3061ZM159.532 88.0858L161.813 85.7711L161.762 85.7196L161.707 85.6703L159.532 88.0858ZM161.106 90.2295L158.181 91.6465L158.199 91.6833L158.218 91.7196L161.106 90.2295ZM160.652 96.6204L158.827 93.9299L158.817 93.9375L160.652 96.6204ZM156.798 97.6548L157.126 94.4212L157.112 94.4199L156.798 97.6548ZM151.246 96.5248L151.194 93.2755L151.131 93.2766L151.067 93.2799L151.246 96.5248ZM149.983 96.9159L152.858 98.4317L152.916 98.3213L152.965 98.2067L149.983 96.9159ZM150.311 97.7836L147.894 99.957L147.929 99.9949L147.964 100.031L150.311 97.7836ZM153.657 100.348L151.67 102.92L151.709 102.951L151.749 102.98L153.657 100.348ZM158.248 104.959L161.112 103.423L161.098 103.396L161.082 103.369L158.248 104.959ZM159.067 109.076L155.835 108.743L155.833 108.756L155.832 108.769L159.067 109.076ZM157.774 112.503L160.464 114.327L160.477 114.308L160.49 114.289L157.774 112.503ZM153.39 115.719L154.294 118.841L154.323 118.833L154.351 118.824L153.39 115.719ZM147.522 112.884C145.842 112.761 144.34 112.493 143.009 111.951L140.556 117.97C142.756 118.867 145.005 119.217 147.049 119.367L147.522 112.884ZM142.93 111.92C142.564 111.782 142.093 111.463 141.504 110.839L136.776 115.299C137.718 116.298 138.986 117.379 140.635 118.001L142.93 111.92ZM141.449 110.782C140.71 110.035 140.318 109.243 140.25 108.665L133.794 109.41C134.079 111.887 135.442 113.954 136.832 115.356L141.449 110.782ZM140.246 108.628C140.169 108.02 140.295 107.34 140.552 106.851C140.672 106.622 140.791 106.492 140.867 106.429C140.932 106.375 140.966 106.367 140.987 106.364L139.789 99.975C137.346 100.433 135.704 102.103 134.798 103.827C133.901 105.535 133.559 107.562 133.798 109.447L140.246 108.628ZM141.052 106.351C141.301 106.299 141.915 106.362 142.957 106.899L145.933 101.121C144.529 100.397 142.224 99.4659 139.723 99.988L141.052 106.351ZM142.825 106.827C142.822 106.825 142.851 106.842 142.932 106.892C143.006 106.937 143.098 106.993 143.207 107.061C143.419 107.193 143.695 107.364 143.966 107.531C144.238 107.698 144.524 107.872 144.768 108.017C144.891 108.09 145.015 108.163 145.131 108.227C145.212 108.272 145.403 108.379 145.609 108.468L148.191 102.503C148.317 102.557 148.381 102.597 148.299 102.552C148.253 102.526 148.181 102.484 148.082 102.425C147.886 102.309 147.637 102.158 147.373 101.995C146.91 101.71 146.278 101.315 146.066 101.193L142.825 106.827ZM145.663 108.491C146.205 108.713 147.639 109.301 149.27 108.917L147.78 102.59C148.103 102.514 148.326 102.556 148.357 102.563C148.376 102.566 148.369 102.566 148.326 102.552C148.284 102.538 148.224 102.516 148.136 102.48L145.663 108.491ZM149.303 108.909C150.398 108.639 151.368 107.877 151.842 106.753C152.318 105.624 152.182 104.397 151.611 103.426L146.007 106.719C145.604 106.032 145.482 105.106 145.852 104.228C146.22 103.354 146.964 102.79 147.748 102.598L149.303 108.909ZM151.268 102.947C150.917 102.541 150.487 102.245 150.374 102.165C150.162 102.016 149.934 101.869 149.736 101.746C149.335 101.496 148.933 101.262 148.768 101.168L145.526 106.801C145.674 106.886 145.995 107.073 146.293 107.259C146.444 107.353 146.56 107.429 146.631 107.479C146.667 107.505 146.668 107.507 146.645 107.488C146.633 107.478 146.602 107.453 146.56 107.414C146.522 107.38 146.444 107.305 146.35 107.197L151.268 102.947ZM148.741 101.152C146.709 100.009 145.348 99.4067 144.137 98.3634L139.895 103.288C141.758 104.893 144.138 106.021 145.554 106.817L148.741 101.152ZM144.147 98.3723C143.812 98.0812 143.439 97.4669 143.299 96.7349L136.914 97.9498C137.28 99.8702 138.272 101.879 139.885 103.28L144.147 98.3723ZM143.302 96.7506C143.108 95.6956 143.186 94.5142 143.524 93.4953L137.355 91.4505C136.669 93.5169 136.518 95.8091 136.912 97.934L143.302 96.7506ZM143.499 93.5669C143.775 92.7966 144.342 91.9582 145.078 91.278L140.665 86.5058C139.278 87.7876 138.057 89.4805 137.379 91.3789L143.499 93.5669ZM144.948 91.3916C145.948 90.5607 146.106 90.3209 146.656 89.9541L143.053 84.5441C142.161 85.1388 141.085 86.151 140.794 86.3919L144.948 91.3916ZM146.606 89.9864C147.671 89.3058 148.846 88.8708 149.999 88.7416L149.276 82.282C147.027 82.5336 144.912 83.3545 143.103 84.5122L146.606 89.9864ZM150.035 88.7373C151.653 88.5381 153.449 88.8024 155.261 89.3951L157.283 83.2176C154.87 82.4285 152.081 81.9363 149.241 82.2864L150.035 88.7373ZM155.31 89.4105C156.16 89.6739 156.857 90.05 157.359 90.5016L161.707 85.6703C160.344 84.444 158.747 83.671 157.234 83.2021L155.31 89.4105ZM157.251 90.4005C157.667 90.8112 157.99 91.2518 158.181 91.6465L164.031 88.8125C163.455 87.6249 162.649 86.5947 161.813 85.7711L157.251 90.4005ZM158.218 91.7196C158.532 92.3296 158.727 93.0931 158.723 93.6786C158.718 94.282 158.545 94.1222 158.827 93.9299L162.475 99.3107C164.638 97.8442 165.21 95.495 165.222 93.7247C165.236 91.9368 164.717 90.1418 163.994 88.7394L158.218 91.7196ZM158.817 93.9375C158.264 94.316 157.623 94.4716 157.126 94.4212L156.47 100.888C158.668 101.111 160.819 100.442 162.485 99.303L158.817 93.9375ZM157.112 94.4199C156.536 94.3639 155.971 94.1889 154.918 93.8858C154.004 93.6226 152.672 93.251 151.194 93.2755L151.3 99.7743C151.71 99.7675 152.206 99.869 153.121 100.132C153.897 100.356 155.164 100.761 156.484 100.889L157.112 94.4199ZM151.067 93.2799C150.886 93.29 150.36 93.316 149.821 93.4348C149.552 93.4941 149.121 93.6092 148.666 93.8498C148.235 94.0777 147.446 94.5977 147 95.6251L152.965 98.2067C152.59 99.0744 151.945 99.4685 151.703 99.5965C151.436 99.7369 151.239 99.7781 151.221 99.7824C151.182 99.7911 151.218 99.7813 151.425 99.7697L151.067 93.2799ZM147.108 95.4002C146.654 96.2627 146.67 97.0873 146.738 97.5747C146.808 98.0707 146.964 98.4697 147.082 98.7257C147.316 99.2315 147.625 99.6571 147.894 99.957L152.727 95.6101C152.816 95.709 152.899 95.8191 152.983 96.0002C153.026 96.0942 153.126 96.3288 153.175 96.6714C153.222 97.0055 153.25 97.6873 152.858 98.4317L147.108 95.4002ZM147.964 100.031C148.261 100.341 148.681 100.675 148.942 100.88C149.27 101.137 149.655 101.427 150.022 101.701C150.821 102.296 151.445 102.747 151.67 102.92L155.642 97.7753C155.373 97.5677 154.544 96.9651 153.904 96.4883C153.552 96.2256 153.219 95.9742 152.957 95.7677C152.625 95.5078 152.58 95.4549 152.658 95.5357L147.964 100.031ZM151.749 102.98C153.479 104.233 154.73 105.331 155.414 106.549L161.082 103.369C159.648 100.812 157.352 99.0126 155.563 97.7163L151.749 102.98ZM155.384 106.495C155.739 107.157 155.91 108.014 155.835 108.743L162.3 109.41C162.512 107.36 162.067 105.204 161.112 103.423L155.384 106.495ZM155.832 108.769C155.78 109.328 155.54 109.987 155.059 110.717L160.49 114.289C161.381 112.933 162.124 111.27 162.303 109.384L155.832 108.769ZM155.084 110.679C154.5 111.541 153.473 112.291 152.429 112.615L154.351 118.824C156.737 118.085 159.012 116.468 160.464 114.327L155.084 110.679ZM152.486 112.597C151.047 113.014 149.396 113.073 147.614 112.892L146.957 119.359C149.219 119.588 151.777 119.57 154.294 118.841L152.486 112.597ZM212.264 126.721L213.281 129.808L213.3 129.802L213.319 129.795L212.264 126.721ZM203.046 123.288L205.897 121.726L205.868 121.673L205.837 121.621L203.046 123.288ZM202.014 119.734L205.233 119.282L204.434 113.592L199.969 117.208L202.014 119.734ZM197.366 122.498L198.461 125.558L198.501 125.543L198.541 125.528L197.366 122.498ZM184.417 121.172L182.691 123.925L182.721 123.944L182.752 123.963L184.417 121.172ZM177.305 113.893L174.401 115.351L174.415 115.379L174.428 115.406L177.305 113.893ZM175.173 102.286L178.419 102.458L178.419 102.446L178.42 102.434L175.173 102.286ZM177.992 89.6572L181.043 90.7742L181.05 90.7562L181.057 90.7382L177.992 89.6572ZM184.929 77.928L182.589 75.6719L182.577 75.6854L182.564 75.6988L184.929 77.928ZM191.198 73.3713L189.821 70.4277L189.813 70.4313L191.198 73.3713ZM199.963 70.6239L200.303 73.856L200.328 73.8534L200.353 73.8504L199.963 70.6239ZM205.369 70.8535L204.969 74.0789L204.978 74.08L204.987 74.081L205.369 70.8535ZM214.419 73.9648L212.566 76.6343L212.606 76.6628L212.649 76.6904L214.419 73.9648ZM216.858 77.0152L219.935 75.9673L219.909 75.8924L219.88 75.8191L216.858 77.0152ZM216.691 83.829L213.688 82.585L213.669 82.633L213.65 82.6812L216.691 83.829ZM205.793 88.7989L204.277 91.6738L204.297 91.6846L204.319 91.6954L205.793 88.7989ZM204.335 87.3817L206.976 85.488L206.587 84.9458L206.016 84.6007L204.335 87.3817ZM201.66 86.2047L200.78 89.3333L200.953 89.382L201.131 89.4113L201.66 86.2047ZM199.595 86.232L200.01 89.4553L200.059 89.449L200.108 89.4414L199.595 86.232ZM192.206 91.3396L194.979 93.0343L194.995 93.0096L195.01 92.9845L192.206 91.3396ZM189.846 99.8515L193.094 99.942L193.095 99.9205L193.096 99.8987L189.846 99.8515ZM191.273 104.574L188.632 106.467L188.674 106.525L188.717 106.58L191.273 104.574ZM198.616 107.33L197.562 104.256L197.547 104.262L197.531 104.267L198.616 107.33ZM201.141 104.51L199.46 107.291L199.542 107.34L199.625 107.384L201.141 104.51ZM198.921 103.702L200.068 100.662L199.947 100.616L199.821 100.579L198.921 103.702ZM195.434 102.097L197.537 99.6196L197.486 99.5764L197.434 99.5353L195.434 102.097ZM193.926 99.6416L197.09 98.8966L197.083 98.8685L197.076 98.8409L193.926 99.6416ZM194.23 96.0137L197.213 97.3045L197.23 97.2653L197.246 97.2257L194.23 96.0137ZM196.719 92.9668L194.879 90.2889L194.852 90.307L194.826 90.3253L196.719 92.9668ZM204.413 91.3669L204.867 88.1489L204.852 88.1466L204.413 91.3669ZM213.212 94.2157L214.091 91.0871L214.067 91.0804L214.042 91.0737L213.212 94.2157ZM218.693 96.6645L221.04 94.4166L221.024 94.3996L221.006 94.3824L218.693 96.6645ZM220.517 102.998L223.75 103.325L223.752 103.312L220.517 102.998ZM218.058 109.433L215.139 108.005L215.133 108.018L215.126 108.031L218.058 109.433ZM215.79 116.048L212.602 115.419L212.592 115.469L212.583 115.519L215.79 116.048ZM215.465 121.585L218.698 121.912L218.708 121.82L218.712 121.728L215.465 121.585ZM214.624 124.903L217.314 126.727L217.361 126.658L217.405 126.585L214.624 124.903ZM211.247 123.634C209.217 124.303 206.736 123.258 205.897 121.726L200.196 124.85C202.637 129.303 208.467 131.394 213.281 129.808L211.247 123.634ZM205.837 121.621C205.576 121.185 205.404 120.503 205.233 119.282L198.796 120.186C198.963 121.375 199.249 123.269 200.257 124.955L205.837 121.621ZM199.969 117.208C198.806 118.151 197.533 118.947 196.19 119.468L198.541 125.528C200.657 124.707 202.507 123.517 204.06 122.26L199.969 117.208ZM196.271 119.438C194.534 120.059 192.753 120.326 191.066 120.158L190.423 126.626C193.223 126.904 195.975 126.447 198.461 125.558L196.271 119.438ZM191.066 120.158C189.42 119.995 187.669 119.327 186.081 118.38L182.752 123.963C184.916 125.253 187.582 126.344 190.423 126.626L191.066 120.158ZM186.143 118.418C183.606 116.828 181.407 114.711 180.181 112.38L174.428 115.406C176.338 119.035 179.493 121.921 182.691 123.925L186.143 118.418ZM180.209 112.434C178.759 109.546 178.231 106.007 178.419 102.458L171.928 102.115C171.699 106.442 172.307 111.182 174.401 115.351L180.209 112.434ZM178.42 102.434C178.595 98.5834 179.631 94.6328 181.043 90.7742L174.94 88.5401C173.407 92.7289 172.143 97.3736 171.926 102.139L178.42 102.434ZM181.057 90.7382C182.457 86.7695 184.54 83.0774 187.293 80.1571L182.564 75.6988C179.076 79.3996 176.568 83.9248 174.927 88.5764L181.057 90.7382ZM187.268 80.1837C188.8 78.5955 190.665 77.2148 192.583 76.3112L189.813 70.4313C187.104 71.707 184.607 73.5794 182.589 75.6719L187.268 80.1837ZM192.575 76.3149C195.252 75.0622 197.846 74.1147 200.303 73.856L199.623 67.3919C196.091 67.7637 192.723 69.0697 189.821 70.4277L192.575 76.3149ZM200.353 73.8504C201.693 73.6883 203.098 73.8465 204.969 74.0789L205.769 67.6284C204.036 67.4132 201.836 67.1242 199.573 67.3976L200.353 73.8504ZM204.987 74.081C207.859 74.4216 210.518 75.2125 212.566 76.6343L216.272 71.295C213.039 69.0504 209.228 68.0386 205.752 67.6263L204.987 74.081ZM212.649 76.6904C213.086 76.9738 213.589 77.5871 213.836 78.2114L219.88 75.8191C219.193 74.0824 217.879 72.3364 216.189 71.2389L212.649 76.6904ZM213.781 78.0631C214.283 79.5353 214.227 81.2845 213.688 82.585L219.693 85.0725C220.866 82.2417 220.92 78.8598 219.935 75.9673L213.781 78.0631ZM213.65 82.6812C212.447 85.8684 209.376 86.9765 207.267 85.9029L204.319 91.6954C210.76 94.9745 217.536 90.792 219.731 84.9763L213.65 82.6812ZM207.308 85.9242C207.364 85.9535 207.368 85.9708 207.316 85.916C207.25 85.8488 207.149 85.7293 206.976 85.488L201.694 89.2751C202.166 89.9347 202.962 90.9808 204.277 91.6738L207.308 85.9242ZM206.016 84.6007C205.673 84.3927 204.975 84.0509 204.413 83.7937C204.103 83.6515 203.76 83.5009 203.44 83.374C203.218 83.286 202.705 83.0835 202.189 82.9981L201.131 89.4113C200.943 89.3803 200.837 89.3406 200.885 89.3566C200.904 89.3628 200.955 89.3808 201.044 89.416C201.22 89.486 201.452 89.5865 201.706 89.7028C201.955 89.817 202.2 89.9348 202.395 90.0321C202.63 90.149 202.697 90.1889 202.653 90.1624L206.016 84.6007ZM202.539 83.0761C201.121 82.6772 199.679 82.928 199.083 83.0228L200.108 89.4414C200.431 89.39 200.634 89.3646 200.788 89.3577C200.946 89.3508 200.916 89.3715 200.78 89.3333L202.539 83.0761ZM199.181 83.009C195.039 83.5416 191.372 86.3389 189.403 89.6948L195.01 92.9845C196.11 91.1087 198.14 89.6964 200.01 89.4553L199.181 83.009ZM189.434 89.6449C187.583 92.6714 186.647 96.358 186.596 99.8039L193.096 99.8987C193.131 97.4739 193.807 94.9528 194.979 93.0343L189.434 89.6449ZM186.597 99.7606C186.533 102.052 187.245 104.532 188.632 106.467L193.915 102.681C193.389 101.947 193.068 100.872 193.094 99.942L186.597 99.7606ZM188.717 106.58C189.88 108.062 191.666 109.249 193.418 109.961C195.107 110.647 197.481 111.181 199.703 110.393L197.531 104.267C197.55 104.26 197.417 104.307 197.077 104.27C196.747 104.233 196.329 104.128 195.867 103.94C194.879 103.538 194.127 102.945 193.831 102.568L188.717 106.58ZM199.671 110.404C201.672 109.718 203.115 108.13 203.922 106.599L198.173 103.567C198.062 103.778 197.919 103.962 197.778 104.095C197.635 104.231 197.55 104.26 197.562 104.256L199.671 110.404ZM203.922 106.599C203.913 106.615 203.909 106.623 203.924 106.595C203.933 106.578 203.964 106.525 203.993 106.471C204.043 106.38 204.177 106.129 204.287 105.809C204.382 105.529 204.593 104.823 204.408 103.947C204.181 102.867 203.478 102.068 202.657 101.635L199.625 107.384C198.907 107.005 198.257 106.279 198.048 105.285C197.881 104.494 198.075 103.887 198.134 103.711C198.176 103.591 198.216 103.501 198.238 103.455C198.261 103.407 198.278 103.376 198.278 103.374C198.28 103.372 198.279 103.373 198.275 103.38C198.27 103.389 198.267 103.396 198.256 103.414C198.241 103.439 198.208 103.5 198.173 103.567L203.922 106.599ZM202.824 101.729C202.594 101.59 202.375 101.492 202.263 101.443C202.125 101.383 201.985 101.327 201.86 101.28C201.608 101.184 201.331 101.087 201.084 101.003C200.835 100.918 200.584 100.835 200.394 100.772C200.295 100.739 200.215 100.712 200.15 100.69C200.079 100.665 200.059 100.658 200.068 100.662L197.773 106.743C197.935 106.804 198.169 106.881 198.34 106.938C198.546 107.007 198.766 107.08 198.987 107.155C199.21 107.231 199.403 107.299 199.545 107.354C199.616 107.381 199.655 107.397 199.667 107.402C199.702 107.418 199.606 107.379 199.46 107.291L202.824 101.729ZM199.821 100.579C198.603 100.228 197.914 99.9389 197.537 99.6196L193.331 104.575C194.89 105.899 196.851 106.488 198.021 106.825L199.821 100.579ZM197.434 99.5353C197.448 99.5464 197.372 99.4851 197.271 99.3187C197.174 99.1582 197.114 98.9992 197.09 98.8966L190.763 100.387C191.122 101.912 192.048 103.577 193.434 104.659L197.434 99.5353ZM197.076 98.8409C196.952 98.3539 197.004 97.7874 197.213 97.3045L191.248 94.7229C190.506 96.437 190.275 98.4721 190.777 100.442L197.076 98.8409ZM197.246 97.2257C197.468 96.6726 197.918 96.1054 198.613 95.6081L194.826 90.3253C193.351 91.3829 191.991 92.8711 191.215 94.8016L197.246 97.2257ZM198.561 95.6449C199.902 94.7223 201.985 94.3152 203.973 94.5869L204.852 88.1466C201.661 87.7111 197.851 88.2449 194.879 90.2889L198.561 95.6449ZM203.959 94.5849C205.108 94.7469 206.271 95.1425 207.686 95.6915C209 96.2013 210.673 96.9062 212.381 97.3578L214.042 91.0737C212.79 90.7427 211.609 90.2416 210.037 89.6317C208.565 89.0607 206.809 88.4228 204.867 88.1489L203.959 94.5849ZM212.332 97.3445C213.393 97.6426 214.201 97.8473 214.975 98.1457C215.722 98.4335 216.141 98.7057 216.379 98.9467L221.006 94.3824C219.858 93.2179 218.485 92.5326 217.313 92.0807C216.169 91.6399 214.929 91.3227 214.091 91.0871L212.332 97.3445ZM216.345 98.9124C216.969 99.5628 217.44 101.066 217.283 102.683L223.752 103.312C224.017 100.585 223.43 96.9118 221.04 94.4166L216.345 98.9124ZM217.284 102.67C217.125 104.241 216.312 105.606 215.139 108.005L220.978 110.861C221.802 109.176 223.441 106.385 223.75 103.325L217.284 102.67ZM215.126 108.031C214.027 110.33 213.116 112.813 212.602 115.419L218.978 116.676C219.363 114.723 220.068 112.764 220.99 110.835L215.126 108.031ZM212.583 115.519C212.235 117.634 212.284 119.951 212.219 121.442L218.712 121.728C218.807 119.566 218.731 118.186 218.997 116.576L212.583 115.519ZM212.232 121.257C212.101 122.548 212.008 122.948 211.843 123.221L217.405 126.585C218.454 124.852 218.595 122.936 218.698 121.912L212.232 121.257ZM211.934 123.079C211.725 123.388 211.522 123.54 211.21 123.647L213.319 129.795C215.033 129.207 216.356 128.139 217.314 126.727L211.934 123.079ZM226.251 128.165L224.968 125.179L224.96 125.182L224.953 125.186L226.251 128.165ZM223.807 128.447L224.336 125.24L224.259 125.228L224.182 125.219L223.807 128.447ZM221.471 127.291L223.903 125.136L223.896 125.127L223.887 125.118L221.471 127.291ZM222.368 115.878L219.402 114.55L219.394 114.569L219.386 114.587L222.368 115.878ZM230.822 103.57L233.105 105.882L233.11 105.876L233.117 105.871L230.822 103.57ZM234.887 100.472L233.322 97.624L233.276 97.6489L233.231 97.6753L234.887 100.472ZM240.54 100.206L239.436 103.262L239.463 103.272L239.491 103.281L240.54 100.206ZM244.858 103.358L247.457 101.407L247.429 101.37L247.401 101.334L244.858 103.358ZM248.274 110.687L251.378 109.726L251.375 109.716L251.372 109.705L248.274 110.687ZM249.669 118.582L252.915 118.42L252.913 118.381L252.911 118.342L249.669 118.582ZM248.988 126.349L252.099 127.288L252.107 127.264L252.114 127.24L248.988 126.349ZM245.037 130.835L246.221 133.862L246.254 133.849L246.288 133.835L245.037 130.835ZM239.647 130.803L238.356 133.785L238.364 133.789L238.372 133.793L239.647 130.803ZM237.97 129.541L240.528 127.535L240.508 127.511L240.488 127.487L237.97 129.541ZM236.779 126.904L239.934 126.127L239.928 126.102L239.921 126.077L236.779 126.904ZM236.394 121.702L239.631 121.996L239.927 118.734L236.663 118.464L236.394 121.702ZM231.74 121.106L232.355 117.915L229.971 117.455L228.854 119.612L231.74 121.106ZM229.053 125.716L226.483 123.725L226.452 123.766L226.421 123.808L229.053 125.716ZM236.388 109.284L238.545 111.714L238.553 111.707L238.561 111.7L236.388 109.284ZM233.278 114.38L230.205 113.32L228.856 117.235L232.978 117.616L233.278 114.38ZM237.689 114.637L237.654 117.886L240.813 117.92L240.936 114.764L237.689 114.637ZM237.898 111.545L234.655 111.338L234.653 111.378L234.651 111.418L237.898 111.545ZM237.624 109.059L234.519 110.02L234.53 110.056L234.543 110.092L237.624 109.059ZM237.102 108.845L236.838 105.606L236.713 105.616L236.59 105.636L237.102 108.845ZM224.953 125.186C224.813 125.246 224.59 125.282 224.336 125.24L223.278 131.654C224.607 131.873 226.12 131.767 227.549 131.145L224.953 125.186ZM224.182 125.219C224.094 125.208 224.008 125.182 223.943 125.151C223.877 125.119 223.873 125.102 223.903 125.136L219.039 129.446C220.233 130.794 221.895 131.496 223.43 131.675L224.182 125.219ZM223.887 125.118C223.679 124.886 223.438 124.302 223.462 123.601L216.966 123.373C216.898 125.311 217.454 127.685 219.054 129.464L223.887 125.118ZM223.462 123.601C223.531 121.646 224.303 119.591 225.351 117.168L219.386 114.587C218.358 116.961 217.083 120.048 216.966 123.373L223.462 123.601ZM225.335 117.205C227.216 113.001 229.882 109.065 233.105 105.882L228.538 101.257C224.702 105.046 221.589 109.662 219.402 114.55L225.335 117.205ZM233.117 105.871C234.07 104.919 235.259 104.028 236.542 103.269L233.231 97.6753C231.571 98.6577 229.931 99.8686 228.526 101.269L233.117 105.871ZM236.452 103.32C236.69 103.189 236.892 103.095 237.059 103.034C237.231 102.972 237.301 102.969 237.287 102.97L236.929 96.4802C235.406 96.5642 234.099 97.1961 233.322 97.624L236.452 103.32ZM237.287 102.97C238.06 102.927 238.794 103.03 239.436 103.262L241.644 97.149C240.104 96.5927 238.489 96.394 236.929 96.4802L237.287 102.97ZM239.491 103.281C240.497 103.624 241.525 104.39 242.316 105.384L247.401 101.334C245.992 99.5663 243.989 97.9478 241.589 97.1296L239.491 103.281ZM242.26 105.31C243.527 106.997 244.379 109.155 245.176 111.67L251.372 109.705C250.535 107.068 249.419 104.02 247.457 101.407L242.26 105.31ZM245.17 111.648C245.859 113.874 246.241 116.297 246.428 118.822L252.911 118.342C252.7 115.492 252.254 112.555 251.378 109.726L245.17 111.648ZM246.424 118.744C246.545 121.172 246.434 123.451 245.862 125.458L252.114 127.24C252.964 124.257 253.053 121.173 252.915 118.42L246.424 118.744ZM245.877 125.41C245.564 126.446 244.644 127.478 243.785 127.836L246.288 133.835C249.108 132.659 251.279 130.004 252.099 127.288L245.877 125.41ZM243.853 127.809C242.903 128.18 241.731 128.158 240.921 127.813L238.372 133.793C240.842 134.845 243.783 134.816 246.221 133.862L243.853 127.809ZM240.938 127.82C240.725 127.728 240.573 127.594 240.528 127.535L235.414 131.548C236.217 132.571 237.29 133.324 238.356 133.785L240.938 127.82ZM240.488 127.487C240.326 127.288 240.117 126.87 239.934 126.127L233.622 127.681C233.901 128.813 234.404 130.311 235.452 131.596L240.488 127.487ZM239.921 126.077C239.586 124.803 239.503 123.419 239.631 121.996L233.158 121.409C232.974 123.446 233.076 125.603 233.636 127.731L239.921 126.077ZM236.663 118.464C235.151 118.339 233.726 118.179 232.355 117.915L231.125 124.297C232.826 124.625 234.513 124.808 236.127 124.941L236.663 118.464ZM228.854 119.612C227.966 121.328 227.343 122.615 226.483 123.725L231.622 127.706C232.938 126.006 233.881 124.04 234.626 122.6L228.854 119.612ZM226.421 123.808C225.851 124.595 225.343 125.018 224.968 125.179L227.534 131.151C229.464 130.322 230.813 128.824 231.685 127.623L226.421 123.808ZM234.23 106.853C232.13 108.718 230.946 111.171 230.205 113.32L236.35 115.439C236.923 113.78 237.636 112.521 238.545 111.714L234.23 106.853ZM232.978 117.616C233.622 117.675 236.98 117.879 237.654 117.886L237.724 111.387C237.725 111.387 237.72 111.387 237.708 111.387C237.696 111.386 237.68 111.386 237.66 111.385C237.618 111.384 237.565 111.382 237.5 111.379C237.37 111.373 237.205 111.366 237.014 111.356C236.632 111.337 236.162 111.31 235.687 111.282C234.708 111.224 233.806 111.165 233.576 111.144L232.978 117.616ZM240.936 114.764C240.953 114.335 240.989 113.887 241.033 113.357C241.074 112.852 241.123 112.265 241.146 111.672L234.651 111.418C234.634 111.847 234.598 112.295 234.555 112.825C234.514 113.33 234.464 113.917 234.442 114.509L240.936 114.764ZM241.142 111.752C241.215 110.612 241.132 109.301 240.705 108.026L234.543 110.092C234.631 110.358 234.691 110.783 234.655 111.338L241.142 111.752ZM240.728 108.098C240.226 106.476 238.85 105.93 238.406 105.786C237.838 105.603 237.286 105.569 236.838 105.606L237.367 112.084C237.093 112.106 236.773 112.089 236.409 111.972C236.166 111.894 234.965 111.461 234.519 110.02L240.728 108.098ZM236.59 105.636C235.794 105.763 235.207 106.112 234.897 106.323C234.573 106.543 234.314 106.778 234.215 106.868L238.561 111.7C238.662 111.609 238.629 111.645 238.547 111.701C238.496 111.735 238.397 111.799 238.254 111.864C238.111 111.929 237.893 112.009 237.615 112.054L236.59 105.636ZM265.056 134.394L266.568 137.271L266.583 137.263L266.598 137.255L265.056 134.394ZM258.331 133.371L255.898 135.526L255.936 135.568L255.975 135.609L258.331 133.371ZM257.343 128.198L260.502 128.959L260.507 128.941L260.511 128.922L257.343 128.198ZM259.508 122.346L262.66 123.134L263.117 121.306L261.757 120.001L259.508 122.346ZM254.358 116.444L251.633 118.215L251.643 118.23L251.653 118.245L254.358 116.444ZM252.712 112.918L255.843 112.047L255.835 112.018L255.826 111.988L252.712 112.918ZM252.556 107.112L255.706 107.917L255.71 107.901L255.714 107.885L252.556 107.112ZM254.066 104.192L251.784 101.878L251.774 101.888L251.764 101.898L254.066 104.192ZM260.476 104.008L258.485 106.575L258.526 106.608L258.57 106.639L260.476 104.008ZM262.391 106.422L259.46 107.827L259.476 107.859L259.492 107.891L262.391 106.422ZM264.782 115.551L261.841 116.934L261.967 117.203L262.14 117.445L264.782 115.551ZM265.053 115.724L262.411 117.618L262.984 118.417L263.905 118.765L265.053 115.724ZM266.337 115.465L264.444 112.824L264.356 112.887L264.273 112.956L266.337 115.465ZM267.419 114.359L269.981 116.359L269.988 116.349L269.996 116.34L267.419 114.359ZM271.512 107.455L273.944 109.611L273.955 109.599L273.966 109.586L271.512 107.455ZM273.073 106.299L274.303 109.308L274.325 109.298L274.349 109.289L273.073 106.299ZM274.705 106.012L274.91 109.255L274.974 109.251L275.038 109.245L274.705 106.012ZM276.17 105.954L275.909 109.193L276.038 109.204L276.168 109.204L276.17 105.954ZM280.618 111.697L277.372 111.547L277.369 111.595L277.369 111.644L280.618 111.697ZM279.846 115.081L276.937 113.633L276.922 113.662L276.908 113.692L279.846 115.081ZM278.384 117.452L281.148 119.162L281.157 119.148L281.165 119.134L278.384 117.452ZM273.426 122.329L275.065 125.136L275.088 125.122L275.111 125.108L273.426 122.329ZM268.026 124.179L267.743 120.941L264.484 121.226L264.791 124.484L268.026 124.179ZM267.302 131.682L270.261 133.026L270.278 132.987L270.294 132.948L267.302 131.682ZM263.544 131.517C263.365 131.612 262.804 131.754 262.009 131.637C261.207 131.518 260.776 131.226 260.687 131.132L255.975 135.609C257.381 137.089 259.352 137.814 261.058 138.067C262.772 138.32 264.825 138.188 266.568 137.271L263.544 131.517ZM260.764 131.216C260.548 130.973 260.248 130.017 260.502 128.959L254.183 127.436C253.624 129.755 253.803 133.161 255.898 135.526L260.764 131.216ZM260.511 128.922C260.663 128.256 260.95 127.568 261.385 126.575C261.78 125.675 262.329 124.457 262.66 123.134L256.354 121.558C256.181 122.249 255.88 122.946 255.433 123.964C255.028 124.887 254.485 126.118 254.175 127.474L260.511 128.922ZM261.757 120.001C259.932 118.249 258.309 116.514 257.063 114.643L251.653 118.245C253.289 120.703 255.312 122.823 257.257 124.691L261.757 120.001ZM257.082 114.672C256.498 113.774 256.084 112.911 255.843 112.047L249.581 113.789C250.04 115.439 250.782 116.907 251.633 118.215L257.082 114.672ZM255.826 111.988C255.429 110.659 255.379 109.19 255.706 107.917L249.408 106.307C248.768 108.814 248.892 111.484 249.598 113.849L255.826 111.988ZM255.714 107.885C255.893 107.149 256.162 106.692 256.368 106.486L251.764 101.898C250.43 103.237 249.744 104.935 249.4 106.339L255.714 107.885ZM256.348 106.506C256.356 106.498 256.433 106.429 256.641 106.353C256.85 106.277 257.123 106.22 257.43 106.201L257.019 99.7142C255.476 99.8118 253.373 100.31 251.784 101.878L256.348 106.506ZM257.43 106.201C257.681 106.185 258.129 106.3 258.485 106.575L262.469 101.44C261.001 100.301 259.018 99.5873 257.019 99.7142L257.43 106.201ZM258.57 106.639C258.847 106.841 259.17 107.222 259.46 107.827L265.321 105.016C264.719 103.761 263.789 102.394 262.384 101.376L258.57 106.639ZM259.492 107.891C259.937 108.77 260.146 109.842 260.411 111.492C260.646 112.958 260.943 115.025 261.841 116.934L267.722 114.168C267.289 113.246 267.1 112.15 266.828 110.46C266.587 108.954 266.265 106.877 265.289 104.952L259.492 107.891ZM262.14 117.445C262.294 117.658 262.444 117.814 262.548 117.913C262.656 118.016 262.753 118.096 262.826 118.151C262.899 118.207 262.966 118.253 263.016 118.287C263.069 118.322 263.114 118.35 263.151 118.373C263.223 118.416 263.285 118.45 263.32 118.469C263.356 118.489 263.39 118.507 263.401 118.512C263.419 118.522 263.416 118.52 263.408 118.516C263.4 118.512 263.366 118.493 263.319 118.464C263.294 118.449 263.259 118.428 263.217 118.4C263.177 118.374 263.121 118.335 263.056 118.285C262.994 118.237 262.904 118.165 262.802 118.068C262.705 117.975 262.56 117.825 262.411 117.618L267.694 113.831C267.541 113.617 267.39 113.461 267.286 113.362C267.178 113.259 267.08 113.18 267.008 113.125C266.934 113.068 266.868 113.022 266.817 112.988C266.766 112.954 266.719 112.925 266.682 112.903C266.611 112.86 266.549 112.825 266.513 112.806C266.477 112.786 266.444 112.769 266.433 112.763C266.414 112.753 266.419 112.756 266.427 112.76C266.433 112.764 266.468 112.783 266.516 112.811C266.541 112.826 266.575 112.848 266.616 112.875C266.656 112.902 266.712 112.94 266.777 112.99C266.84 113.038 266.93 113.111 267.031 113.208C267.129 113.3 267.274 113.45 267.423 113.658L262.14 117.445ZM263.905 118.765C265.598 119.404 267.337 118.852 268.402 117.975L264.273 112.956C264.53 112.743 264.796 112.632 265.043 112.579C265.282 112.529 265.698 112.494 266.2 112.684L263.905 118.765ZM268.231 118.107C269.002 117.554 269.598 116.85 269.981 116.359L264.857 112.359C264.738 112.512 264.636 112.631 264.552 112.719C264.464 112.811 264.427 112.836 264.444 112.824L268.231 118.107ZM269.996 116.34C271.053 114.964 271.778 113.407 272.323 112.302C272.927 111.077 273.374 110.253 273.944 109.611L269.08 105.299C267.862 106.674 267.079 108.239 266.493 109.429C265.847 110.739 265.421 111.626 264.842 112.379L269.996 116.34ZM273.966 109.586C274.125 109.403 274.266 109.323 274.303 109.308L271.843 103.291C270.685 103.764 269.745 104.533 269.059 105.324L273.966 109.586ZM274.349 109.289C274.264 109.324 274.24 109.318 274.342 109.303C274.391 109.296 274.458 109.288 274.555 109.28C274.657 109.272 274.764 109.265 274.91 109.255L274.499 102.768C274.047 102.797 272.906 102.837 271.797 103.31L274.349 109.289ZM275.038 109.245C275.556 109.191 275.745 109.18 275.909 109.193L276.431 102.714C275.581 102.646 274.812 102.734 274.371 102.779L275.038 109.245ZM276.168 109.204C276.399 109.204 276.621 109.277 276.879 109.636C277.177 110.053 277.408 110.749 277.372 111.547L283.864 111.848C283.961 109.756 283.403 107.582 282.161 105.849C280.879 104.06 278.81 102.706 276.172 102.704L276.168 109.204ZM277.369 111.644C277.355 112.413 277.191 113.12 276.937 113.633L282.755 116.53C283.524 114.985 283.843 113.287 283.867 111.751L277.369 111.644ZM276.908 113.692C276.811 113.897 276.665 114.141 276.428 114.502C276.233 114.799 275.881 115.312 275.603 115.77L281.165 119.134C281.359 118.814 281.54 118.559 281.859 118.073C282.137 117.652 282.487 117.1 282.784 116.471L276.908 113.692ZM275.62 115.742C274.677 117.267 273.321 118.592 271.741 119.551L275.111 125.108C277.528 123.643 279.639 121.6 281.148 119.162L275.62 115.742ZM271.787 119.523C270.414 120.325 269.003 120.832 267.743 120.941L268.308 127.417C270.785 127.201 273.122 126.271 275.065 125.136L271.787 119.523ZM264.791 124.484C265.014 126.868 264.959 128.88 264.309 130.415L270.294 132.948C271.61 129.841 271.503 126.448 271.261 123.875L264.791 124.484ZM264.343 130.337C264.186 130.684 264.007 130.989 263.827 131.219C263.644 131.455 263.526 131.527 263.514 131.533L266.598 137.255C268.569 136.193 269.687 134.288 270.261 133.026L264.343 130.337Z" fill="black"/>
</g>
</g>
<defs>
<clipPath id="clip0_2007_70">
<rect width="271.909" height="95.3307" fill="white" transform="translate(35.5527 2.99902) rotate(17.8783)"/>
</clipPath>
</defs>
</svg>
