<svg width="302" height="180" viewBox="0 0 302 180" fill="none" xmlns="http://www.w3.org/2000/svg">
<g clip-path="url(#clip0_2007_51)">
<path d="M54.0078 137.304C51.611 137.896 49.1739 138.646 46.7159 138.954C44.8254 139.14 42.9962 139.61 41.1613 139.709C39.0273 139.799 36.8012 139.464 34.8533 138.697C31.9313 137.546 29.3929 135.421 27.6444 132.829C24.7628 128.774 23.1065 123.859 21.9065 118.995C20.8752 114.911 20.1276 110.766 19.7348 106.544C19.4052 103.645 19.5415 100.496 20.4946 97.6912C21.2962 95.216 22.9241 92.7849 25.0506 91.2856C26.5135 90.1526 28.4386 89.4394 30.2888 89.4107C31.9819 89.3419 33.813 89.9114 35.2088 90.872C37.2794 92.2066 38.9358 94.3733 39.8829 96.6933C40.9622 99.2819 41.2362 102.267 41.3223 105.07C41.3548 108.999 41.0171 112.933 41.3486 116.872C41.3964 118.124 41.8833 121.063 42.792 121.832C43.5838 122.403 45.1542 121.767 46.0151 121.284C48.527 119.85 51.033 118.046 53.8151 117.518C55.8878 117.145 57.8301 117.542 59.5 118.74C64.0229 122.144 65.2611 128.559 61.4971 132.789C59.5087 134.926 56.8301 136.619 54.0078 137.304ZM235.42 97.5899C234.816 98.1958 234.035 98.5809 233.251 98.7504C232.392 98.9792 231.43 98.9279 230.653 98.5338C229.442 97.931 228.528 96.7022 228.087 95.4578C227.203 92.9688 227.21 90.201 227.293 87.5895C227.515 82.614 228.631 77.5749 230.632 73.036C231.296 71.5093 232.225 70.0116 233.274 68.6612C233.753 68.082 234.358 67.476 235.065 67.1501C236.126 66.6614 237.274 66.3701 238.433 66.3356C240.23 66.2497 242.078 66.8012 243.608 67.6808C245.901 69.0871 247.773 71.1463 249.478 73.2413C251.134 75.304 252.505 77.6444 253.677 80.0709C254.75 82.4324 255.643 84.9627 255.899 87.5441C256.062 89.4973 255.301 91.7795 253.873 93.169C252.54 94.4077 250.63 95.1666 248.848 95.1196C248.152 95.0973 247.42 94.9097 246.825 94.5626C245.99 94.0948 245.307 93.3348 244.748 92.5479C243.706 91.1306 242.969 89.5177 242.479 87.8515C240.977 88.3056 239.468 88.7184 237.931 89.0074C237.752 90.7752 237.621 92.5755 237.126 94.2819C236.821 95.4716 236.31 96.7059 235.42 97.5899ZM237.908 76.3043C236.999 78.1 236.8 80.1747 236.889 82.187C237.458 82.0207 240.567 81.0031 241.086 80.8044C240.747 79.8402 240.482 78.8167 240.144 77.8525C239.884 77.0443 239.498 76.2632 238.975 75.6414C238.857 75.4941 238.568 75.5566 238.411 75.6336C238.181 75.7697 238.028 76.0621 237.908 76.3043Z" fill="#E61DE5"/>
<path d="M79.8727 131.818C78.28 132.249 76.7375 132.712 75.1181 133.019C73.6639 133.29 72.1594 133.529 70.6572 133.378C69.8603 133.291 69.0277 133.038 68.3983 132.526C67.7688 132.014 67.3515 131.283 67.1406 130.507C66.7244 128.782 66.9935 125.827 68.5203 124.892C69.5461 124.238 70.8173 123.92 72.0327 123.744C70.8967 120.488 70.1971 117.052 69.9373 113.65C68.6459 114.275 66.9763 114.549 65.627 114.106C64.7854 113.813 64.0645 113.277 63.4909 112.623C62.3705 111.439 61.8036 109.616 61.8773 107.958C61.9779 106.423 62.7893 104.778 64.0271 103.905C65.3475 103.015 67.0082 102.699 68.5539 102.451C68.843 102.389 70.5741 101.799 70.8632 101.736C71.5976 101.534 75.8509 100.615 76.5619 100.504C78.0574 100.224 79.7539 100.074 81.13 100.641C81.7974 100.929 82.3676 101.367 82.823 101.874C84.8987 104.278 84.6964 108.342 82.5111 110.63C81.9162 111.277 81.0523 111.68 80.203 111.95C81.2553 114.618 81.8801 117.509 81.9915 120.424C82.9089 120.269 83.8442 120.197 84.7505 120.39C85.4324 120.545 86.15 120.865 86.6879 121.354C87.9055 122.388 88.7759 124.015 88.95 125.62C89.085 126.844 88.6507 128.235 87.8437 129.101C87.0368 129.967 85.8425 130.441 84.7042 130.774C83.1115 131.204 81.4564 131.346 79.8727 131.818ZM273.799 89.1211C272.382 90.7673 269.138 91.555 267.169 90.6408C265.615 89.8528 264.591 87.913 264.349 86.1931C264.034 84.1429 264.482 82.0146 264.211 79.9553C261.791 78.9654 259.388 77.8423 257.252 76.359C256.179 75.5967 255.212 74.725 254.426 73.6848C253.234 72.1702 252.393 70.2773 252.147 68.3421C251.997 67.2505 252.045 66.0731 252.478 65.0719C252.942 64.0207 253.941 63.2428 254.961 62.763C255.982 62.2831 257.265 62.2217 258.372 62.5444C259.378 62.8023 260.283 63.3848 261.039 64.0858C263.391 66.1707 264.339 69.5536 266.619 71.6977C266.668 71.7301 266.884 71.7268 266.934 71.7591C267.365 71.7525 267.816 71.4389 268.033 71.046C268.292 70.6442 268.483 70.1275 268.633 69.6196C269.372 67.0393 268.981 64.2279 269.902 61.6946C270.117 61.0863 270.464 60.4926 270.929 60.0462C271.321 59.6589 271.831 59.419 272.341 59.1791C272.768 58.957 273.196 58.735 273.682 58.5865C276.351 57.5342 278.992 59.5567 279.93 62.2934C280.336 63.3726 280.553 64.5791 280.456 65.7241C280.395 66.6448 280.12 67.569 279.968 68.4662C279.555 70.7599 278.562 72.9629 277.149 74.8245C275.963 76.3344 274.484 77.6914 272.807 78.5295C273.934 80.7495 274.951 83.2529 274.891 85.773C274.833 86.9091 274.555 88.2227 273.799 89.1211Z" fill="#D5D60E"/>
<path d="M101.665 125.724C100.959 126.655 99.9328 127.309 98.8268 127.591C97.5879 127.859 96.1147 127.443 95.0835 126.672C93.6416 125.6 92.597 123.967 91.8181 122.363C90.5358 119.831 89.805 117.05 89.3398 114.297C88.8835 111.586 88.6426 108.872 88.6583 106.146C88.6662 103.983 88.9542 101.716 89.8684 99.7461C90.1006 99.2204 90.5069 98.7003 90.9578 98.3868C92.0393 97.5911 97.4099 96.0411 98.7135 95.6729C101.164 95.0134 103.757 94.4097 106.289 94.7269C107.842 94.91 109.419 95.6065 110.595 96.649C112.815 98.7194 112.597 102.311 109.994 103.868C109.305 104.276 108.52 104.446 107.759 104.524C106.484 104.626 105.192 104.646 103.935 104.832C103.183 104.951 102.44 105.112 101.791 105.511C101.405 105.724 101.046 106.061 100.869 106.445C100.54 107.122 100.447 108.093 101.203 108.189C101.468 108.218 101.725 108.205 101.973 108.152C103.781 107.718 105.476 106.962 107.297 106.785C108.471 106.618 109.858 106.836 110.724 107.643C112.06 108.824 112.561 111.742 111.791 113.378C111.503 114.045 110.899 114.651 110.242 115.009C109.083 115.649 107.693 115.82 106.378 115.931C105.401 116.013 104.365 116.02 103.451 116.391C103.015 116.572 102.614 116.918 102.405 117.352C102.804 118.995 103.096 120.747 102.898 122.432C102.759 123.586 102.372 124.794 101.665 125.724Z" fill="#18E018"/>
<path d="M136.014 119.812C133.357 120.516 130.673 121.096 127.932 121.213C126.176 121.29 124.34 120.996 122.819 120.157C120.512 118.884 118.669 116.559 117.736 114.038C116.692 111.41 116.2 108.534 116.015 105.678C115.81 103.129 115.811 100.535 116.444 98.0645C116.86 96.5913 117.542 95.1471 118.434 93.8737C118.961 93.1115 119.588 92.4139 120.393 91.9374C121.262 91.3605 122.345 91.1697 123.292 90.749C124.798 90.1207 126.408 89.7726 127.96 89.3508C130.402 88.65 133.063 88.1613 135.493 88.8033C136.092 88.9762 136.685 89.3234 137.173 89.7799C137.729 90.3514 138.105 91.0913 138.325 91.9083C139.026 94.3502 137.9 97.1438 135.414 97.6381C134.712 97.7897 133.933 97.7853 133.227 97.7216C131.875 97.668 130.507 97.5317 129.15 97.6521C128.058 97.8017 126.887 98.1844 126.162 99.0327C125.854 99.402 125.672 99.9601 125.778 100.456C125.91 100.86 126.364 100.761 126.768 100.631C128.012 100.189 129.111 99.4759 130.365 99.0753C131.131 98.823 131.949 98.6032 132.746 98.6903C133.468 98.8365 134.204 99.2395 134.636 99.8378C135.204 100.666 135.541 101.63 135.665 102.598C135.82 103.515 135.787 104.56 135.36 105.387C135.095 105.963 134.68 106.442 134.156 106.814C133.59 107.196 132.937 107.38 132.245 107.573C131.221 107.838 128.149 108.026 127.567 108.93C126.943 109.843 128.226 110.776 129.353 110.792C130.471 110.766 131.565 110.227 132.585 109.747C134.082 109.078 135.646 108.308 137.277 108.257C138.552 108.155 139.984 108.58 140.858 109.429C141.574 110.138 141.939 111.227 141.938 112.221C141.959 114.118 141.37 116.191 140.174 117.659C139.182 118.868 137.533 119.441 136.014 119.812Z" fill="#DE1616"/>
<path d="M157.556 115.415C155.775 115.973 153.916 116.375 152.011 116.354C150.934 116.371 149.867 116.04 148.858 115.566C147.473 114.958 146.131 113.951 145.405 112.595C144.195 110.393 144.287 107.218 146.379 105.901C147.553 105.129 149.093 105.055 150.462 105.191C150.819 105.244 152.939 105.65 153.287 105.661C153.85 105.669 154.446 105.627 154.897 105.313C155.16 105.127 155.171 104.779 154.911 104.575C154.619 104.423 153.323 104.227 152.966 104.175C151.005 103.907 148.949 103.789 147.033 103.123C145.816 102.694 144.699 101.726 143.977 100.585C143.118 99.2145 142.587 97.5571 142.496 95.9343C142.449 94.518 142.815 93.0124 143.442 91.71C143.845 90.9745 144.189 90.1653 144.682 89.4533C145.681 88.0705 146.98 86.882 148.493 86.0796C150.464 85.005 152.736 84.514 154.954 84.3802C156.188 84.2865 157.466 84.3993 158.641 84.8369C159.45 85.1806 160.245 85.6572 160.892 86.2522C162.597 87.7423 164.098 90.4867 162.818 92.3628C162.064 93.4766 160.918 94.3727 159.615 94.741C157.783 95.2666 155.782 95.0075 154.036 95.7307C153.683 95.8935 153.016 96.2105 153.005 96.5587C152.976 96.8243 153.387 97.1245 153.629 97.2451C154.205 97.5096 157.083 98.2274 157.683 98.4004C159.788 98.9396 161.969 99.6351 163.647 101.001C164.706 101.896 165.546 103.184 165.923 104.529C166.265 105.709 166.234 106.969 165.979 108.191C165.584 109.962 164.484 111.67 163.084 112.794C161.455 114.054 159.512 114.863 157.556 115.415Z" fill="#1DE8E8"/>
<path d="M221.881 101.387C219.113 103.694 214.672 103.763 212.047 101.582C211.068 100.829 210.381 99.7148 209.781 98.6564C208.922 100.179 207.834 101.676 206.474 102.936C204.788 104.414 202.814 105.583 200.644 106.201C198.476 106.818 196.098 106.812 193.944 106.461C190.617 105.844 187.208 104.501 184.654 102.306C181.709 99.6749 179.659 96.0338 178.406 92.2948C177.004 88.2165 176.495 83.797 176.386 79.5136C176.216 74.9465 176.84 70.2817 178.526 66.0558C179.501 63.6918 180.931 61.3777 182.682 59.5141C184.797 57.2747 187.155 55.1313 189.824 53.7375C191.419 52.8729 193.178 52.4186 194.935 51.9643C198.027 51.1476 201.367 50.7969 204.496 51.5314C205.738 51.7826 207.017 52.5459 207.885 53.472C209.379 55.2283 210.27 57.6347 210.234 59.8703C210.308 64.6809 206.702 68.9507 201.925 68.4979C201.241 68.4231 200.653 68.1048 200.049 67.7155C199.663 67.6504 197.625 67.4969 197.128 67.6042C196.475 67.6713 195.811 68.0375 195.218 68.3883C192.565 69.853 190.689 72.8574 190.224 75.8542C189.727 78.7091 190.117 81.8919 191.157 84.6376C191.707 86.1523 192.841 87.6153 194.22 88.5052C196.261 89.6978 200.251 89.9491 202.062 88.3694C202.877 87.6735 203.372 86.5269 203.497 85.386C203.522 85.1579 203.602 84.8434 203.374 84.8185C202.988 84.7534 201.382 84.8779 201.013 84.8836C199.775 85.0024 198.381 85.081 197.179 84.6725C196.307 84.4155 195.413 83.7176 194.875 82.9429C194.132 81.9151 193.786 80.6535 193.824 79.4571C193.832 78.1188 194.296 76.8303 195.019 75.7087C196.48 73.5364 199.047 72.0161 201.586 71.3931C204.621 70.6628 207.775 71.1692 210.816 70.8088C212.778 70.6076 215.008 70.2741 216.813 71.0718C218.792 71.9808 220.236 74.1935 220.838 76.291C221.471 78.5306 221.095 80.9138 220.916 83.1801C220.753 85.5174 220.818 87.8796 221.238 90.1651C221.637 92.0096 222.374 93.7065 222.971 95.4341C223.287 96.5538 223.604 97.6735 223.408 98.8297C223.181 99.8439 222.696 100.691 221.881 101.387Z" fill="#1A1AE2"/>
<mask id="mask0_2007_51" style="mask-type:luminance" maskUnits="userSpaceOnUse" x="8" y="30" width="285" height="120">
<path d="M285.64 30.0258L8.16113 47.8972L14.6731 149.004L292.152 131.132L285.64 30.0258Z" fill="white"/>
<path d="M54.0078 137.304C51.611 137.896 49.1739 138.646 46.7159 138.954C44.8254 139.14 42.9962 139.61 41.1613 139.709C39.0273 139.799 36.8012 139.464 34.8533 138.697C31.9313 137.546 29.3929 135.421 27.6444 132.829C24.7628 128.774 23.1065 123.859 21.9065 118.995C20.8752 114.911 20.1276 110.766 19.7348 106.544C19.4052 103.645 19.5415 100.496 20.4946 97.6912C21.2962 95.216 22.9241 92.7849 25.0506 91.2856C26.5135 90.1526 28.4386 89.4394 30.2888 89.4107C31.9819 89.3419 33.813 89.9114 35.2088 90.872C37.2794 92.2066 38.9358 94.3733 39.8829 96.6933C40.9622 99.2819 41.2362 102.267 41.3223 105.07C41.3548 108.999 41.0171 112.933 41.3486 116.872C41.3964 118.124 41.8833 121.063 42.792 121.832C43.5838 122.403 45.1542 121.767 46.0151 121.284C48.527 119.85 51.033 118.046 53.8151 117.518C55.8878 117.145 57.8301 117.542 59.5 118.74C64.0229 122.144 65.2611 128.559 61.4971 132.789C59.5087 134.926 56.8301 136.619 54.0078 137.304ZM235.42 97.5899C234.816 98.1958 234.035 98.5809 233.251 98.7504C232.392 98.9792 231.43 98.9279 230.653 98.5338C229.442 97.931 228.528 96.7022 228.087 95.4578C227.203 92.9688 227.21 90.201 227.293 87.5895C227.515 82.614 228.631 77.5749 230.632 73.036C231.296 71.5093 232.225 70.0116 233.274 68.6612C233.753 68.082 234.358 67.476 235.065 67.1501C236.126 66.6614 237.274 66.3701 238.433 66.3356C240.23 66.2497 242.078 66.8012 243.608 67.6808C245.901 69.0871 247.773 71.1463 249.478 73.2413C251.134 75.304 252.505 77.6444 253.677 80.0709C254.75 82.4324 255.643 84.9627 255.899 87.5441C256.062 89.4973 255.301 91.7795 253.873 93.169C252.54 94.4077 250.63 95.1666 248.848 95.1196C248.152 95.0973 247.42 94.9097 246.825 94.5626C245.99 94.0948 245.307 93.3348 244.748 92.5479C243.706 91.1306 242.969 89.5177 242.479 87.8515C240.977 88.3056 239.468 88.7184 237.931 89.0074C237.752 90.7752 237.621 92.5755 237.126 94.2819C236.821 95.4716 236.31 96.7059 235.42 97.5899ZM237.908 76.3043C236.999 78.1 236.8 80.1747 236.889 82.187C237.458 82.0207 240.567 81.0031 241.086 80.8044C240.747 79.8402 240.482 78.8167 240.144 77.8525C239.884 77.0443 239.498 76.2632 238.975 75.6414C238.857 75.4941 238.568 75.5566 238.411 75.6336C238.181 75.7697 238.028 76.0621 237.908 76.3043Z" fill="black"/>
<path d="M79.8727 131.818C78.28 132.249 76.7375 132.712 75.1181 133.019C73.6639 133.29 72.1594 133.529 70.6572 133.378C69.8603 133.291 69.0277 133.038 68.3983 132.526C67.7688 132.014 67.3515 131.283 67.1406 130.507C66.7244 128.782 66.9935 125.827 68.5203 124.892C69.5461 124.238 70.8173 123.92 72.0327 123.744C70.8967 120.488 70.1971 117.052 69.9373 113.65C68.6459 114.275 66.9763 114.549 65.627 114.106C64.7854 113.813 64.0645 113.277 63.4909 112.623C62.3705 111.439 61.8036 109.616 61.8773 107.958C61.9779 106.423 62.7893 104.778 64.0271 103.905C65.3475 103.015 67.0082 102.699 68.5539 102.451C68.843 102.389 70.5741 101.799 70.8632 101.736C71.5976 101.534 75.8509 100.615 76.5619 100.504C78.0574 100.224 79.7539 100.074 81.13 100.641C81.7974 100.929 82.3676 101.367 82.823 101.874C84.8987 104.278 84.6964 108.342 82.5111 110.63C81.9162 111.277 81.0523 111.68 80.203 111.95C81.2553 114.618 81.8801 117.509 81.9915 120.424C82.9089 120.269 83.8442 120.197 84.7505 120.39C85.4324 120.545 86.15 120.865 86.6879 121.354C87.9055 122.388 88.7759 124.015 88.95 125.62C89.085 126.844 88.6507 128.235 87.8437 129.101C87.0368 129.967 85.8425 130.441 84.7042 130.774C83.1115 131.204 81.4564 131.346 79.8727 131.818ZM273.799 89.1211C272.382 90.7673 269.138 91.555 267.169 90.6408C265.615 89.8528 264.591 87.913 264.349 86.1931C264.034 84.1429 264.482 82.0146 264.211 79.9553C261.791 78.9654 259.388 77.8423 257.252 76.359C256.179 75.5967 255.212 74.725 254.426 73.6848C253.234 72.1702 252.393 70.2773 252.147 68.3421C251.997 67.2505 252.045 66.0731 252.478 65.0719C252.942 64.0207 253.941 63.2428 254.961 62.763C255.982 62.2831 257.265 62.2217 258.372 62.5444C259.378 62.8023 260.283 63.3848 261.039 64.0858C263.391 66.1707 264.339 69.5536 266.619 71.6977C266.668 71.7301 266.884 71.7268 266.934 71.7591C267.365 71.7525 267.816 71.4389 268.033 71.046C268.292 70.6442 268.483 70.1275 268.633 69.6196C269.372 67.0393 268.981 64.2279 269.902 61.6946C270.117 61.0863 270.464 60.4926 270.929 60.0462C271.321 59.6589 271.831 59.419 272.341 59.1791C272.768 58.957 273.196 58.735 273.682 58.5865C276.351 57.5342 278.992 59.5567 279.93 62.2934C280.336 63.3726 280.553 64.5791 280.456 65.7241C280.395 66.6448 280.12 67.569 279.968 68.4662C279.555 70.7599 278.562 72.9629 277.149 74.8245C275.963 76.3344 274.484 77.6914 272.807 78.5295C273.934 80.7495 274.951 83.2529 274.891 85.773C274.833 86.9091 274.555 88.2227 273.799 89.1211Z" fill="black"/>
<path d="M101.664 125.724C100.958 126.655 99.9318 127.309 98.8258 127.591C97.5869 127.859 96.1137 127.443 95.0825 126.672C93.6406 125.6 92.596 123.967 91.8172 122.363C90.5349 119.831 89.8041 117.05 89.3388 114.297C88.8825 111.586 88.6416 108.872 88.6573 106.146C88.6652 103.983 88.9533 101.716 89.8674 99.7461C90.0996 99.2204 90.5059 98.7003 90.9568 98.3868C92.0383 97.5911 97.4089 96.0411 98.7125 95.6729C101.163 95.0134 103.756 94.4097 106.289 94.7269C107.841 94.91 109.418 95.6065 110.594 96.649C112.814 98.7194 112.596 102.311 109.993 103.868C109.304 104.276 108.519 104.446 107.758 104.524C106.483 104.626 105.191 104.646 103.934 104.832C103.182 104.951 102.439 105.112 101.79 105.511C101.404 105.724 101.045 106.061 100.868 106.445C100.539 107.122 100.446 108.093 101.202 108.189C101.467 108.218 101.724 108.205 101.972 108.152C103.78 107.718 105.475 106.962 107.296 106.785C108.47 106.618 109.857 106.836 110.723 107.643C112.059 108.824 112.56 111.742 111.79 113.378C111.502 114.045 110.898 114.651 110.241 115.009C109.082 115.649 107.692 115.82 106.377 115.931C105.4 116.013 104.364 116.02 103.45 116.391C103.014 116.572 102.613 116.918 102.404 117.352C102.803 118.995 103.095 120.747 102.897 122.432C102.758 123.586 102.371 124.794 101.664 125.724Z" fill="black"/>
<path d="M136.014 119.812C133.357 120.516 130.673 121.096 127.932 121.213C126.176 121.29 124.34 120.996 122.819 120.157C120.512 118.884 118.669 116.559 117.736 114.038C116.692 111.41 116.2 108.534 116.015 105.678C115.81 103.129 115.811 100.535 116.444 98.0645C116.86 96.5913 117.542 95.1471 118.434 93.8737C118.961 93.1115 119.588 92.4139 120.393 91.9374C121.262 91.3605 122.345 91.1697 123.292 90.749C124.798 90.1207 126.408 89.7726 127.96 89.3508C130.402 88.65 133.063 88.1613 135.493 88.8033C136.092 88.9762 136.685 89.3234 137.173 89.7799C137.729 90.3514 138.105 91.0913 138.325 91.9083C139.026 94.3502 137.9 97.1438 135.414 97.6381C134.712 97.7897 133.933 97.7853 133.227 97.7216C131.875 97.668 130.507 97.5317 129.15 97.6521C128.058 97.8017 126.887 98.1844 126.162 99.0327C125.854 99.402 125.672 99.9601 125.778 100.456C125.91 100.86 126.364 100.761 126.768 100.631C128.012 100.189 129.111 99.4759 130.365 99.0753C131.131 98.823 131.949 98.6032 132.746 98.6903C133.468 98.8365 134.204 99.2395 134.636 99.8378C135.204 100.666 135.541 101.63 135.665 102.598C135.82 103.515 135.787 104.56 135.36 105.387C135.095 105.963 134.68 106.442 134.156 106.814C133.59 107.196 132.937 107.38 132.245 107.573C131.221 107.838 128.149 108.026 127.567 108.93C126.943 109.843 128.226 110.776 129.353 110.792C130.471 110.766 131.565 110.227 132.585 109.747C134.082 109.078 135.646 108.308 137.277 108.257C138.552 108.155 139.984 108.58 140.858 109.429C141.574 110.138 141.939 111.227 141.938 112.221C141.959 114.118 141.37 116.191 140.174 117.659C139.182 118.868 137.533 119.441 136.014 119.812Z" fill="black"/>
<path d="M157.556 115.415C155.775 115.973 153.916 116.375 152.011 116.354C150.934 116.371 149.867 116.04 148.858 115.566C147.473 114.958 146.131 113.951 145.405 112.595C144.195 110.393 144.287 107.218 146.379 105.901C147.553 105.129 149.093 105.055 150.462 105.191C150.819 105.244 152.939 105.65 153.287 105.661C153.85 105.669 154.446 105.627 154.897 105.313C155.16 105.127 155.171 104.779 154.911 104.575C154.619 104.423 153.323 104.227 152.966 104.175C151.005 103.907 148.949 103.789 147.033 103.123C145.816 102.694 144.699 101.726 143.977 100.585C143.118 99.2145 142.587 97.5571 142.496 95.9343C142.449 94.518 142.815 93.0124 143.442 91.71C143.845 90.9745 144.189 90.1653 144.682 89.4533C145.681 88.0705 146.98 86.882 148.493 86.0796C150.464 85.005 152.736 84.514 154.954 84.3802C156.188 84.2865 157.466 84.3993 158.641 84.8369C159.45 85.1806 160.245 85.6572 160.892 86.2522C162.597 87.7423 164.098 90.4867 162.818 92.3628C162.064 93.4766 160.918 94.3727 159.615 94.741C157.783 95.2666 155.782 95.0075 154.036 95.7307C153.683 95.8935 153.016 96.2105 153.005 96.5587C152.976 96.8243 153.387 97.1245 153.629 97.2451C154.205 97.5096 157.083 98.2274 157.683 98.4004C159.788 98.9396 161.969 99.6351 163.647 101.001C164.706 101.896 165.546 103.184 165.923 104.529C166.265 105.709 166.234 106.969 165.979 108.191C165.584 109.962 164.484 111.67 163.084 112.794C161.455 114.054 159.512 114.863 157.556 115.415Z" fill="black"/>
<path d="M221.881 101.388C219.113 103.694 214.672 103.763 212.047 101.583C211.068 100.829 210.381 99.7151 209.781 98.6567C208.922 100.179 207.834 101.676 206.474 102.936C204.788 104.414 202.814 105.584 200.644 106.201C198.476 106.818 196.098 106.812 193.944 106.461C190.617 105.844 187.208 104.501 184.654 102.306C181.709 99.6752 179.659 96.034 178.406 92.295C177.004 88.2168 176.495 83.7972 176.386 79.5138C176.216 74.9467 176.84 70.2819 178.526 66.0561C179.501 63.6921 180.931 61.3779 182.682 59.5143C184.797 57.275 187.155 55.1315 189.824 53.7377C191.419 52.8731 193.178 52.4188 194.935 51.9645C198.027 51.1479 201.367 50.7971 204.496 51.5317C205.738 51.7829 207.017 52.5461 207.885 53.4722C209.379 55.2286 210.27 57.6349 210.234 59.8706C210.308 64.6812 206.702 68.951 201.925 68.4982C201.241 68.4234 200.653 68.1051 200.049 67.7157C199.663 67.6506 197.625 67.4971 197.128 67.6044C196.475 67.6715 195.811 68.0377 195.218 68.3886C192.565 69.8532 190.689 72.8576 190.224 75.8545C189.727 78.7093 190.117 81.8922 191.157 84.6378C191.707 86.1526 192.841 87.6155 194.22 88.5054C196.261 89.698 200.251 89.9494 202.062 88.3696C202.877 87.6737 203.372 86.5271 203.497 85.3863C203.522 85.1582 203.602 84.8437 203.374 84.8188C202.988 84.7536 201.382 84.8781 201.013 84.8838C199.775 85.0027 198.381 85.0812 197.179 84.6727C196.307 84.4157 195.413 83.7178 194.875 82.9431C194.132 81.9154 193.786 80.6537 193.824 79.4574C193.832 78.119 194.296 76.8305 195.019 75.709C196.48 73.5367 199.047 72.0164 201.586 71.3933C204.621 70.663 207.775 71.1694 210.816 70.8091C212.778 70.6078 215.008 70.2743 216.813 71.0721C218.792 71.981 220.236 74.1937 220.838 76.2913C221.471 78.5308 221.095 80.9141 220.916 83.1804C220.753 85.5176 220.818 87.8798 221.238 90.1653C221.637 92.0098 222.374 93.7068 222.971 95.4343C223.287 96.554 223.604 97.6738 223.408 98.8299C223.181 99.8442 222.696 100.692 221.881 101.388Z" fill="black"/>
</mask>
<g mask="url(#mask0_2007_51)">
<path d="M54.0075 137.304L53.2417 134.145L53.2278 134.149L54.0075 137.304ZM46.7157 138.954L47.0337 142.188L47.0771 142.184L47.1205 142.179L46.7157 138.954ZM41.1611 139.709L41.298 142.956L41.3176 142.955L41.3372 142.954L41.1611 139.709ZM27.6441 132.829L30.3385 131.012L30.3164 130.979L30.2933 130.947L27.6441 132.829ZM21.9063 118.995L25.0616 118.217L25.0594 118.208L25.0573 118.199L21.9063 118.995ZM19.7346 106.544L22.9705 106.243L22.9674 106.209L22.9637 106.177L19.7346 106.544ZM20.4943 97.6912L23.5715 98.7368L23.579 98.7148L23.5862 98.6925L20.4943 97.6912ZM25.0503 91.2856L26.923 93.9417L26.9826 93.8998L27.0403 93.855L25.0503 91.2856ZM30.2886 89.4108L30.339 92.6603L30.38 92.6597L30.4209 92.658L30.2886 89.4108ZM35.2085 90.872L33.3659 93.5491L33.4065 93.5771L33.4478 93.6038L35.2085 90.872ZM39.8827 96.6934L36.8738 97.9217L36.8783 97.9329L36.8831 97.9441L39.8827 96.6934ZM41.3221 105.07L44.5719 105.044L44.5716 105.007L44.5705 104.971L41.3221 105.07ZM41.3484 116.872L44.5958 116.748L44.593 116.673L44.5868 116.599L41.3484 116.872ZM42.7918 121.832L40.6927 124.313L40.7883 124.394L40.89 124.467L42.7918 121.832ZM46.0149 121.284L47.6054 124.118L47.6158 124.112L47.6262 124.106L46.0149 121.284ZM53.8149 117.518L53.2382 114.32L53.224 114.323L53.21 114.325L53.8149 117.518ZM59.4998 118.74L61.4539 116.143L61.4246 116.121L61.3946 116.1L59.4998 118.74ZM61.4969 132.789L63.8765 135.002L63.9009 134.976L63.9247 134.949L61.4969 132.789ZM53.2278 134.149C50.5873 134.801 48.5163 135.453 46.3109 135.73L47.1205 142.179C49.8313 141.838 52.6342 140.991 54.7872 140.459L53.2278 134.149ZM46.3976 135.72C45.3181 135.826 44.2577 136.013 43.3857 136.158C42.4635 136.311 41.7052 136.425 40.985 136.464L41.3372 142.954C42.4519 142.894 43.5256 142.723 44.4493 142.57C45.4233 142.409 46.2228 142.268 47.0337 142.188L46.3976 135.72ZM41.0241 136.462C39.2991 136.535 37.5303 136.258 36.0438 135.673L33.6623 141.72C36.0718 142.669 38.7551 143.064 41.298 142.956L41.0241 136.462ZM36.0438 135.673C33.7771 134.78 31.7465 133.099 30.3385 131.012L24.9498 134.646C27.0388 137.743 30.0851 140.312 33.6623 141.72L36.0438 135.673ZM30.2933 130.947C27.767 127.391 26.2291 122.949 25.0616 118.217L18.7509 119.773C19.9834 124.77 21.7582 130.156 24.9949 134.712L30.2933 130.947ZM25.0573 118.199C24.0625 114.26 23.3462 110.281 22.9705 106.243L16.4986 106.845C16.9086 111.251 17.6873 115.562 18.7553 119.791L25.0573 118.199ZM22.9637 106.177C22.6707 103.599 22.8158 100.961 23.5715 98.7368L17.4172 96.6457C16.2667 100.032 16.1393 103.69 16.5055 106.911L22.9637 106.177ZM23.5862 98.6925C24.2066 96.7766 25.4588 94.974 26.923 93.9417L23.1776 88.6295C20.3889 90.5957 18.3852 93.6554 17.4025 96.6901L23.5862 98.6925ZM27.0403 93.855C27.9819 93.1258 29.2344 92.6774 30.339 92.6603L30.2383 86.1613C27.6423 86.2015 25.0447 87.1794 23.0603 88.7162L27.0403 93.855ZM30.4209 92.658C31.3612 92.6197 32.5066 92.9578 33.3659 93.5491L37.051 88.1949C35.1187 86.865 32.6022 86.0639 30.1564 86.1635L30.4209 92.658ZM33.4478 93.6038C34.8743 94.5231 36.1382 96.1197 36.8738 97.9217L42.8915 95.4651C41.733 92.6269 39.684 89.8902 36.9691 88.1404L33.4478 93.6038ZM36.8831 97.9441C37.7213 99.9545 37.9897 102.437 38.0737 105.17L44.5705 104.971C44.4823 102.098 44.2027 98.6092 42.8822 95.4426L36.8831 97.9441ZM38.0723 105.097C38.101 108.574 37.7684 113.087 38.1098 117.144L44.5868 116.599C44.2652 112.78 44.6081 109.424 44.5719 105.044L38.0723 105.097ZM38.1008 116.996C38.1337 117.856 38.3009 119.121 38.5902 120.304C38.7364 120.903 38.9351 121.57 39.2061 122.197C39.4428 122.745 39.8862 123.631 40.6927 124.313L44.8909 119.351C45.0978 119.526 45.1926 119.673 45.2059 119.694C45.2251 119.724 45.2105 119.707 45.1731 119.62C45.0957 119.441 44.9993 119.151 44.9042 118.762C44.7109 117.97 44.6109 117.14 44.5958 116.748L38.1008 116.996ZM40.89 124.467C42.527 125.649 44.395 125.297 45.1572 125.108C46.1299 124.868 47.0165 124.448 47.6054 124.118L44.4245 118.45C44.3062 118.516 44.1549 118.592 43.9937 118.66C43.829 118.73 43.6926 118.775 43.5977 118.798C43.4887 118.825 43.5221 118.802 43.6652 118.809C43.8107 118.816 44.2333 118.864 44.6936 119.197L40.89 124.467ZM47.6262 124.106C49.1655 123.227 50.0377 122.634 51.3587 121.92C52.5195 121.293 53.5028 120.885 54.4199 120.712L53.21 114.325C51.3448 114.679 49.6841 115.437 48.2685 116.202C47.0129 116.88 45.3762 117.906 44.4035 118.461L47.6262 124.106ZM54.3917 120.717C55.6596 120.488 56.698 120.73 57.605 121.381L61.3946 116.1C58.9616 114.354 56.1155 113.801 53.2382 114.32L54.3917 120.717ZM57.5456 121.337C60.8522 123.825 61.3318 128.086 59.0691 130.628L63.9247 134.949C69.19 129.033 67.193 120.462 61.4539 116.143L57.5456 121.337ZM59.1173 130.575C57.5042 132.31 55.3667 133.63 53.2417 134.145L54.7733 140.462C58.293 139.609 61.5128 137.543 63.8765 135.002L59.1173 130.575ZM79.8724 131.818L80.7208 134.955L80.7609 134.944L80.8006 134.933L79.8724 131.818ZM75.1178 133.019L75.7135 136.214L75.7228 136.212L75.1178 133.019ZM70.6569 133.378L70.3037 136.609L70.318 136.61L70.3323 136.611L70.6569 133.378ZM67.1403 130.507L63.981 131.269L63.9919 131.315L64.0043 131.36L67.1403 130.507ZM68.52 124.892L70.2175 127.664L70.2425 127.648L70.2672 127.633L68.52 124.892ZM72.0324 123.744L72.4989 126.96L76.3993 126.395L75.1009 122.673L72.0324 123.744ZM69.937 113.65L73.1775 113.403L72.8142 108.647L68.5212 110.725L69.937 113.65ZM65.6267 114.106L64.5562 117.175L64.5843 117.185L64.6126 117.194L65.6267 114.106ZM63.4906 112.623L65.9339 110.48L65.8935 110.434L65.8513 110.389L63.4906 112.623ZM61.877 107.958L58.6341 107.745L58.6318 107.779L58.6303 107.813L61.877 107.958ZM64.0268 103.905L62.2095 101.211L62.1816 101.23L62.1541 101.249L64.0268 103.905ZM68.5536 102.451L69.0678 105.66L69.1546 105.646L69.2403 105.628L68.5536 102.451ZM70.8629 101.736L71.5494 104.913L71.6377 104.894L71.7246 104.87L70.8629 101.736ZM76.5616 100.504L77.0605 103.716L77.1102 103.708L77.1597 103.699L76.5616 100.504ZM81.1297 100.641L82.4172 97.6568L82.3926 97.6461L82.3678 97.6358L81.1297 100.641ZM82.8227 101.874L85.2825 99.7501L85.2615 99.7258L85.24 99.7019L82.8227 101.874ZM82.5108 110.63L80.1608 108.385L80.1391 108.407L80.1179 108.43L82.5108 110.63ZM80.2027 111.95L79.2179 108.853L75.9035 109.906L77.1794 113.142L80.2027 111.95ZM81.9912 120.424L78.7438 120.548L78.8851 124.245L82.533 123.629L81.9912 120.424ZM84.7502 120.39L85.4713 117.221L85.4495 117.216L85.4276 117.211L84.7502 120.39ZM86.6876 121.354L84.5019 123.759L84.5426 123.796L84.5845 123.832L86.6876 121.354ZM88.9497 125.62L85.7187 125.97L85.7193 125.976L88.9497 125.62ZM84.7039 130.774L85.5522 133.911L85.5838 133.902L85.615 133.893L84.7039 130.774ZM79.024 128.681C77.3173 129.142 75.9704 129.549 74.5128 129.826L75.7228 136.212C77.5041 135.874 79.2422 135.355 80.7208 134.955L79.024 128.681ZM74.5222 129.824C73.0728 130.094 71.976 130.244 70.9814 130.144L70.3323 136.611C72.3422 136.813 74.2545 136.486 75.7135 136.214L74.5222 129.824ZM71.01 130.147C70.8198 130.126 70.6663 130.09 70.5575 130.051C70.4484 130.012 70.4248 129.985 70.4496 130.006L66.3465 135.047C67.6308 136.092 69.1436 136.482 70.3037 136.609L71.01 130.147ZM70.4496 130.006C70.4494 130.006 70.4435 130.001 70.4327 129.988C70.4217 129.975 70.406 129.955 70.3878 129.925C70.3499 129.863 70.3082 129.772 70.2764 129.654L64.0043 131.36C64.3566 132.656 65.0908 134.025 66.3465 135.047L70.4496 130.006ZM70.2996 129.745C70.2061 129.357 70.1697 128.658 70.2928 128.017C70.3512 127.715 70.4253 127.533 70.466 127.457C70.5072 127.38 70.4544 127.519 70.2175 127.664L66.8226 122.121C64.8815 123.31 64.1744 125.416 63.9102 126.789C63.6211 128.291 63.6583 129.931 63.981 131.269L70.2996 129.745ZM70.2672 127.633C70.7161 127.346 71.4485 127.113 72.4989 126.96L71.5659 120.528C70.1854 120.728 68.3754 121.13 66.773 122.152L70.2672 127.633ZM75.1009 122.673C74.0609 119.693 73.4166 116.534 73.1775 113.403L66.6965 113.898C66.977 117.57 67.7319 121.284 68.9639 124.815L75.1009 122.673ZM68.5212 110.725C67.7417 111.102 66.9626 111.124 66.6408 111.019L64.6126 117.194C66.9894 117.975 69.5496 117.448 71.3527 116.575L68.5212 110.725ZM66.6972 111.038C66.4746 110.96 66.2052 110.789 65.9339 110.48L61.0472 114.766C61.9232 115.765 63.0956 116.665 64.5562 117.175L66.6972 111.038ZM65.8513 110.389C65.4371 109.952 65.0821 109.039 65.1237 108.102L58.6303 107.813C58.5245 110.194 59.3032 112.926 61.1299 114.857L65.8513 110.389ZM65.1199 108.17C65.1666 107.458 65.5845 106.784 65.8995 106.562L62.1541 101.249C59.9935 102.773 58.7885 105.388 58.6341 107.745L65.1199 108.17ZM65.844 106.6C66.4935 106.162 67.4675 105.917 69.0678 105.66L68.0394 99.2424C66.5483 99.4814 64.2007 99.868 62.2095 101.211L65.844 106.6ZM69.2403 105.628C69.4059 105.592 69.5679 105.545 69.6417 105.523C69.7441 105.493 69.8573 105.458 69.9689 105.423C70.1922 105.353 70.4591 105.266 70.7075 105.186C70.9641 105.103 71.2022 105.026 71.3939 104.966C71.4897 104.936 71.5614 104.914 71.6102 104.9C71.6874 104.877 71.6428 104.892 71.5494 104.913L70.1762 98.5596C70.0106 98.5953 69.8486 98.6429 69.7748 98.6646C69.6724 98.6947 69.5592 98.7296 69.4476 98.7647C69.2243 98.8347 68.9574 98.921 68.709 99.0012C68.4524 99.0842 68.2143 99.1611 68.0226 99.2212C67.9267 99.2514 67.8551 99.2732 67.8063 99.2877C67.729 99.3103 67.7736 99.295 67.8671 99.2749L69.2403 105.628ZM71.7246 104.87C71.9835 104.799 73.1234 104.54 74.4076 104.262C75.0222 104.13 75.6323 104 76.1289 103.898C76.3776 103.847 76.5925 103.804 76.7627 103.771C76.8478 103.754 76.9175 103.741 76.9722 103.731C76.9993 103.726 77.0207 103.722 77.0368 103.72C77.0536 103.717 77.0608 103.716 77.0605 103.716L76.0626 97.2929C75.2225 97.4234 70.8479 98.3697 70.001 98.6026L71.7246 104.87ZM77.1597 103.699C78.5866 103.431 79.4569 103.466 79.8915 103.645L82.3678 97.6358C80.0502 96.6809 77.5275 97.017 75.9634 97.3099L77.1597 103.699ZM79.842 103.625C80.0266 103.704 80.2233 103.844 80.4053 104.046L85.24 99.7019C84.5114 98.891 83.5675 98.153 82.4172 97.6568L79.842 103.625ZM80.3627 103.998C81.2878 105.069 81.2507 107.244 80.1608 108.385L84.8608 112.874C88.1416 109.44 88.5091 103.487 85.2825 99.7501L80.3627 103.998ZM80.1179 108.43C80.1203 108.428 80.067 108.485 79.9009 108.575C79.7353 108.665 79.5096 108.76 79.2179 108.853L81.1874 115.047C82.2377 114.713 83.7411 114.094 84.9036 112.829L80.1179 108.43ZM77.1794 113.142C78.101 115.479 78.6467 118.009 78.7438 120.548L85.2388 120.3C85.113 117.009 84.4089 113.757 83.226 110.758L77.1794 113.142ZM82.533 123.629C83.2929 123.5 83.7557 123.501 84.0728 123.568L85.4276 117.211C83.9323 116.893 82.5245 117.038 81.4495 117.22L82.533 123.629ZM84.0291 123.559C84.1449 123.585 84.2603 123.625 84.3573 123.672C84.404 123.695 84.44 123.716 84.4656 123.733C84.4913 123.75 84.5022 123.76 84.5019 123.759L88.8734 118.949C87.8273 117.998 86.5604 117.469 85.4713 117.221L84.0291 123.559ZM84.5845 123.832C85.1715 124.33 85.6349 125.198 85.7187 125.97L92.1806 125.27C91.9164 122.832 90.639 120.445 88.7908 118.877L84.5845 123.832ZM85.7193 125.976C85.758 126.327 85.5833 126.759 85.4658 126.885L90.2212 131.316C91.7176 129.71 92.4113 127.362 92.18 125.264L85.7193 125.976ZM85.4658 126.885C85.2927 127.071 84.8351 127.35 83.7927 127.654L85.615 133.893C86.8494 133.533 88.7804 132.863 90.2212 131.316L85.4658 126.885ZM83.8555 127.636C83.2177 127.809 82.5543 127.927 81.7002 128.083C80.8982 128.23 79.9267 128.411 78.9441 128.703L80.8006 134.933C81.4018 134.753 82.0496 134.627 82.8693 134.477C83.6369 134.337 84.5973 134.169 85.5522 133.911L83.8555 127.636ZM98.8262 127.591L99.5127 130.768L99.5716 130.755L99.6298 130.74L98.8262 127.591ZM95.0829 126.672L97.0294 124.069L97.0213 124.063L95.0829 126.672ZM91.8176 122.363L94.7409 120.944L94.7291 120.919L94.717 120.895L91.8176 122.363ZM89.3392 114.297L86.1343 114.837L86.1347 114.839L89.3392 114.297ZM88.6577 106.145L91.9076 106.164L91.9075 106.157L88.6577 106.145ZM89.8678 99.7461L92.8158 101.114L92.8285 101.087L92.8407 101.059L89.8678 99.7461ZM90.9572 98.3867L92.8127 101.055L92.8483 101.03L92.8832 101.004L90.9572 98.3867ZM98.7129 95.6729L97.8686 92.5346L97.849 92.5398L97.8295 92.5453L98.7129 95.6729ZM106.289 94.7268L105.885 97.9515L105.897 97.953L105.908 97.9544L106.289 94.7268ZM110.595 96.649L112.811 94.2723L112.781 94.2441L112.75 94.2167L110.595 96.649ZM109.994 103.868L111.65 106.664L111.662 106.657L109.994 103.868ZM107.758 104.524L108.019 107.763L108.054 107.76L108.09 107.757L107.758 104.524ZM103.934 104.832L103.461 101.616L103.443 101.619L103.425 101.622L103.934 104.832ZM101.791 105.511L103.361 108.356L103.429 108.319L103.495 108.278L101.791 105.511ZM100.869 106.445L103.791 107.868L103.807 107.835L103.822 107.802L100.869 106.445ZM101.202 108.189L100.793 111.413L100.821 111.416L100.849 111.419L101.202 108.189ZM101.972 108.152L102.659 111.328L102.695 111.321L102.731 111.312L101.972 108.152ZM107.296 106.785L107.611 110.02L107.683 110.013L107.755 110.002L107.296 106.785ZM110.723 107.643L108.508 110.021L108.539 110.05L108.571 110.078L110.723 107.643ZM111.79 113.378L108.85 111.994L108.827 112.042L108.806 112.09L111.79 113.378ZM110.241 115.009L108.686 112.156L108.678 112.16L108.67 112.164L110.241 115.009ZM106.377 115.931L106.647 119.17L106.651 119.169L106.377 115.931ZM103.451 116.391L102.23 113.379L102.218 113.384L102.207 113.388L103.451 116.391ZM102.405 117.352L99.4759 115.943L98.9729 116.989L99.2464 118.117L102.405 117.352ZM102.898 122.432L106.124 122.822L106.126 122.81L102.898 122.432ZM99.0758 123.759C98.8342 124.078 98.4511 124.333 98.0224 124.442L99.6298 130.74C101.413 130.285 103.081 129.233 104.253 127.689L99.0758 123.759ZM98.1395 124.415C97.9815 124.449 97.4505 124.384 97.0294 124.069L93.1364 129.274C94.7777 130.502 97.1931 131.269 99.5127 130.768L98.1395 124.415ZM97.0213 124.063C96.1982 123.451 95.4335 122.37 94.7409 120.944L88.8941 123.783C89.7594 125.565 91.0836 127.749 93.1444 129.28L97.0213 124.063ZM94.717 120.895C93.6366 118.761 92.9788 116.33 92.5436 113.756L86.1347 114.839C86.63 117.769 87.434 120.9 88.9181 123.831L94.717 120.895ZM92.5439 113.758C92.1156 111.213 91.8929 108.686 91.9076 106.164L85.4078 106.127C85.3909 109.058 85.6501 111.96 86.1343 114.837L92.5439 113.758ZM91.9075 106.157C91.9147 104.227 92.1785 102.487 92.8158 101.114L86.9199 98.3779C85.7289 100.944 85.4166 103.738 85.4078 106.134L91.9075 106.157ZM92.8407 101.059C92.8391 101.063 92.8388 101.063 92.8401 101.061C92.8414 101.058 92.8438 101.054 92.8474 101.048C92.851 101.042 92.8552 101.035 92.8599 101.029C92.8646 101.022 92.8692 101.016 92.8735 101.01C92.8777 101.005 92.881 101.001 92.883 100.999C92.8849 100.997 92.8846 100.997 92.8818 101C92.879 101.003 92.8725 101.009 92.8619 101.018C92.8513 101.027 92.8351 101.039 92.8127 101.055L89.1017 95.7186C88.0989 96.416 87.3356 97.4352 86.895 98.433L92.8407 101.059ZM92.8832 101.004C92.7563 101.098 92.8988 100.988 93.6203 100.708C94.2138 100.477 94.9617 100.218 95.7558 99.9604C97.3378 99.4466 98.9599 98.9802 99.5964 98.8003L97.8295 92.5453C97.1624 92.7338 95.4474 93.2264 93.7478 93.7785C92.9012 94.0535 92.022 94.355 91.2638 94.6499C90.6333 94.8952 89.6989 95.2778 89.0312 95.769L92.8832 101.004ZM99.5573 98.8111C102.025 98.1473 104.055 97.7224 105.885 97.9515L106.693 91.502C103.458 91.0971 100.303 91.8795 97.8686 92.5346L99.5573 98.8111ZM105.908 97.9544C106.813 98.0611 107.768 98.4862 108.439 99.0811L112.75 94.2167C111.069 92.7267 108.87 91.7588 106.67 91.4993L105.908 97.9544ZM108.378 99.0255C108.749 99.3718 108.891 99.8151 108.862 100.206C108.834 100.576 108.661 100.878 108.326 101.079L111.662 106.657C116.306 103.879 116.452 97.6681 112.811 94.2723L108.378 99.0255ZM108.338 101.071C108.226 101.137 107.974 101.235 107.427 101.291L108.09 107.757C109.065 107.657 110.382 107.415 111.65 106.664L108.338 101.071ZM107.497 101.284C106.524 101.363 104.842 101.413 103.461 101.616L104.408 108.047C105.541 107.88 106.443 107.89 108.019 107.763L107.497 101.284ZM103.425 101.622C102.617 101.75 101.32 101.983 100.086 102.744L103.495 108.278C103.511 108.268 103.575 108.232 103.732 108.187C103.898 108.138 104.115 108.093 104.444 108.041L103.425 101.622ZM100.22 102.666C99.3989 103.119 98.4546 103.915 97.9154 105.089L103.822 107.802C103.716 108.032 103.598 108.164 103.54 108.221C103.478 108.283 103.42 108.324 103.361 108.356L100.22 102.666ZM97.9466 105.023C97.6169 105.7 97.293 106.713 97.3914 107.822C97.4432 108.406 97.6355 109.239 98.2508 110.005C98.9227 110.842 99.8546 111.293 100.793 111.413L101.612 104.965C102.172 105.036 102.832 105.329 103.319 105.936C103.75 106.472 103.844 107.003 103.866 107.247C103.904 107.677 103.791 107.867 103.791 107.868L97.9466 105.023ZM100.849 111.419C101.443 111.484 102.052 111.46 102.659 111.328L101.286 104.975C101.397 104.951 101.493 104.951 101.555 104.958L100.849 111.419ZM102.731 111.312C103.757 111.066 104.832 110.706 105.57 110.483C106.399 110.232 107.029 110.076 107.611 110.02L106.981 103.55C105.743 103.671 104.615 103.981 103.689 104.261C102.672 104.569 101.996 104.804 101.214 104.992L102.731 111.312ZM107.755 110.002C107.989 109.969 108.232 109.979 108.416 110.02C108.605 110.063 108.598 110.105 108.508 110.021L112.939 105.266C111.085 103.538 108.549 103.324 106.837 103.567L107.755 110.002ZM108.571 110.078C108.497 110.013 108.542 110.027 108.631 110.211C108.714 110.385 108.796 110.629 108.849 110.919C108.901 111.208 108.913 111.484 108.896 111.706C108.878 111.941 108.835 112.026 108.85 111.994L114.73 114.762C115.498 113.132 115.514 111.251 115.244 109.76C114.978 108.289 114.297 106.465 112.876 105.208L108.571 110.078ZM108.806 112.09C108.816 112.066 108.825 112.049 108.831 112.039C108.837 112.029 108.84 112.024 108.84 112.023C108.841 112.023 108.839 112.026 108.834 112.032C108.829 112.038 108.821 112.046 108.812 112.056C108.793 112.076 108.769 112.097 108.744 112.117C108.718 112.137 108.697 112.149 108.686 112.156L111.796 117.863C112.98 117.218 114.152 116.107 114.774 114.665L108.806 112.09ZM108.67 112.164C108.185 112.432 107.441 112.579 106.103 112.693L106.651 119.169C107.945 119.06 109.98 118.866 111.811 117.855L108.67 112.164ZM106.107 112.692C105.508 112.742 103.739 112.767 102.23 113.379L104.671 119.403C104.99 119.273 105.293 119.283 106.647 119.17L106.107 112.692ZM102.207 113.388C101.133 113.833 100.076 114.696 99.4759 115.943L105.334 118.76C105.234 118.966 105.115 119.103 105.021 119.188C104.927 119.272 104.82 119.341 104.694 119.393L102.207 113.388ZM99.2464 118.117C99.6183 119.651 99.7994 120.951 99.6701 122.053L106.126 122.81C106.392 120.543 105.988 118.338 105.563 116.586L99.2464 118.117ZM99.6714 122.042C99.5785 122.81 99.3353 123.417 99.0758 123.759L104.253 127.689C105.406 126.17 105.938 124.362 106.124 122.822L99.6714 122.042ZM136.015 119.812L135.242 116.655L135.211 116.663L135.182 116.671L136.015 119.812ZM127.932 121.213L127.793 117.966L127.79 117.967L127.932 121.213ZM122.819 120.157L121.248 123.002L121.25 123.004L122.819 120.157ZM117.736 114.038L120.783 112.909L120.77 112.873L120.756 112.838L117.736 114.038ZM116.015 105.678L119.258 105.468L119.257 105.443L119.255 105.417L116.015 105.678ZM116.444 98.0644L113.317 97.1805L113.306 97.2191L113.296 97.258L116.444 98.0644ZM118.434 93.8737L121.096 95.738L121.102 95.7298L121.108 95.7215L118.434 93.8737ZM120.393 91.9374L122.049 94.7338L122.121 94.6914L122.19 94.6454L120.393 91.9374ZM123.292 90.749L122.041 87.7494L122.006 87.7639L121.971 87.7793L123.292 90.749ZM127.961 89.3508L128.813 92.4869L128.835 92.4809L128.857 92.4746L127.961 89.3508ZM135.493 88.8032L136.394 85.6808L136.358 85.6706L136.323 85.6611L135.493 88.8032ZM137.173 89.7799L139.503 87.514L139.45 87.4594L139.394 87.4071L137.173 89.7799ZM138.325 91.9083L135.187 92.7527L135.194 92.7788L135.201 92.8047L138.325 91.9083ZM135.414 97.6381L134.781 94.4504L134.754 94.4557L134.727 94.4615L135.414 97.6381ZM133.227 97.7216L133.519 94.4849L133.438 94.4775L133.357 94.4743L133.227 97.7216ZM129.15 97.6521L128.862 94.415L128.785 94.4218L128.708 94.4324L129.15 97.6521ZM126.162 99.0327L123.691 96.922L123.681 96.9343L123.67 96.9467L126.162 99.0327ZM125.778 100.456L122.602 101.142L122.637 101.301L122.686 101.455L125.778 100.456ZM126.768 100.631L127.767 103.723L127.812 103.709L127.855 103.693L126.768 100.631ZM130.365 99.0753L131.355 102.171L131.367 102.167L131.38 102.162L130.365 99.0753ZM132.746 98.6903L133.39 95.5048L133.245 95.4756L133.099 95.4596L132.746 98.6903ZM134.636 99.8378L137.316 97.9995L137.294 97.9671L137.271 97.9354L134.636 99.8378ZM135.665 102.598L132.441 103.007L132.45 103.073L132.46 103.14L135.665 102.598ZM135.36 105.387L132.471 103.898L132.437 103.963L132.407 104.03L135.36 105.387ZM134.156 106.814L135.973 109.509L136.006 109.486L136.038 109.464L134.156 106.814ZM132.245 107.573L133.058 110.72L133.087 110.712L133.117 110.704L132.245 107.573ZM127.567 108.93L130.251 110.764L130.275 110.728L130.299 110.691L127.567 108.93ZM129.353 110.792L129.308 114.041L129.367 114.042L129.427 114.041L129.353 110.792ZM132.585 109.747L131.259 106.78L131.23 106.793L131.202 106.806L132.585 109.747ZM137.278 108.257L137.377 111.506L137.457 111.503L137.538 111.497L137.278 108.257ZM140.858 109.428L143.148 107.122L143.134 107.108L143.121 107.095L140.858 109.428ZM141.938 112.221L138.688 112.217L138.688 112.237L138.688 112.257L141.938 112.221ZM140.174 117.659L142.686 119.722L142.695 119.711L140.174 117.659ZM135.182 116.671C132.601 117.354 130.184 117.864 127.793 117.966L128.07 124.46C131.162 124.328 134.113 123.678 136.847 122.954L135.182 116.671ZM127.79 117.967C126.448 118.025 125.247 117.784 124.388 117.311L121.25 123.004C123.434 124.207 125.904 124.555 128.074 124.46L127.79 117.967ZM124.39 117.312C122.858 116.466 121.486 114.805 120.783 112.909L114.688 115.167C115.854 118.313 118.167 121.301 121.248 123.002L124.39 117.312ZM120.756 112.838C119.878 110.627 119.43 108.113 119.258 105.468L112.772 105.888C112.971 108.956 113.506 112.193 114.715 115.237L120.756 112.838ZM119.255 105.417C119.061 103.014 119.089 100.834 119.592 98.8709L113.296 97.258C112.533 100.237 112.559 103.245 112.776 105.939L119.255 105.417ZM119.572 98.9484C119.889 97.8241 120.414 96.7116 121.096 95.738L115.772 92.0093C114.671 93.5826 113.832 95.3584 113.317 97.1805L119.572 98.9484ZM121.108 95.7215C121.491 95.1677 121.8 94.8815 122.049 94.7338L118.737 89.141C117.377 89.9463 116.432 91.0552 115.761 92.0259L121.108 95.7215ZM122.19 94.6454C122.267 94.5944 122.431 94.51 122.877 94.3555C123.204 94.2424 123.97 94.0037 124.612 93.7187L121.971 87.7793C121.666 87.915 121.418 87.9821 120.75 88.2138C120.201 88.404 119.389 88.7035 118.596 89.2295L122.19 94.6454ZM124.542 93.7486C125.791 93.2281 127.038 92.9695 128.813 92.4869L127.107 86.2148C125.78 86.5756 123.807 87.0133 122.041 87.7494L124.542 93.7486ZM128.857 92.4746C131.191 91.8047 133.129 91.54 134.663 91.9453L136.323 85.6611C132.998 84.7826 129.613 85.4954 127.064 86.2269L128.857 92.4746ZM134.591 91.9256C134.654 91.9438 134.805 92.0143 134.953 92.1525L139.394 87.4071C138.566 86.6325 137.529 86.0087 136.394 85.6808L134.591 91.9256ZM134.844 92.0457C134.931 92.1357 135.077 92.3443 135.187 92.7527L141.463 91.0638C141.134 89.8383 140.527 88.567 139.503 87.514L134.844 92.0457ZM135.201 92.8047C135.342 93.2967 135.28 93.7901 135.128 94.1126C134.996 94.3908 134.87 94.4327 134.781 94.4504L136.048 100.826C141.027 99.8358 142.479 94.6036 141.449 91.0118L135.201 92.8047ZM134.727 94.4615C134.479 94.5152 134.066 94.5342 133.519 94.4849L132.935 100.958C133.799 101.036 134.945 101.064 136.1 100.815L134.727 94.4615ZM133.357 94.4743C132.266 94.431 130.496 94.27 128.862 94.415L129.437 100.889C130.517 100.793 131.486 100.905 133.099 100.969L133.357 94.4743ZM128.708 94.4324C127.339 94.6198 125.192 95.1646 123.691 96.922L128.634 101.143C128.59 101.195 128.603 101.15 128.787 101.072C128.973 100.994 129.244 100.92 129.591 100.872L128.708 94.4324ZM123.67 96.9467C122.834 97.946 122.248 99.5017 122.602 101.142L128.955 99.769C129.034 100.13 128.989 100.415 128.94 100.59C128.89 100.764 128.803 100.942 128.654 101.118L123.67 96.9467ZM122.686 101.455C122.912 102.154 123.367 102.86 124.108 103.362C124.806 103.835 125.515 103.963 125.997 103.989C126.843 104.034 127.576 103.785 127.767 103.723L125.769 97.5384C125.712 97.5564 125.732 97.5474 125.794 97.5345C125.845 97.524 126.049 97.4826 126.344 97.4984C126.646 97.5145 127.191 97.5997 127.754 97.9812C128.362 98.3926 128.711 98.9586 128.871 99.4562L122.686 101.455ZM127.855 103.693C128.679 103.401 129.438 103.024 129.976 102.764C130.574 102.475 130.973 102.293 131.355 102.171L129.375 95.9796C128.503 96.2583 127.726 96.6327 127.149 96.9112C126.513 97.2184 126.101 97.4189 125.68 97.5682L127.855 103.693ZM131.38 102.162C131.717 102.052 131.956 101.985 132.148 101.949C132.335 101.913 132.403 101.922 132.393 101.921L133.099 95.4596C131.547 95.2901 130.144 95.7267 129.35 95.988L131.38 102.162ZM132.101 101.876C132.104 101.876 132.114 101.879 132.126 101.884C132.132 101.886 132.138 101.888 132.141 101.89C132.143 101.891 132.145 101.892 132.147 101.892C132.148 101.893 132.148 101.893 132.148 101.893C132.148 101.893 132.147 101.893 132.145 101.892C132.144 101.891 132.142 101.889 132.139 101.887C132.133 101.883 132.124 101.876 132.112 101.865C132.088 101.844 132.048 101.804 132.001 101.74L137.271 97.9354C136.259 96.5339 134.727 95.7752 133.39 95.5048L132.101 101.876ZM131.956 101.676C132.202 102.035 132.377 102.498 132.441 103.007L138.888 102.189C138.708 100.762 138.206 99.2967 137.316 97.9995L131.956 101.676ZM132.46 103.14C132.499 103.371 132.507 103.58 132.494 103.741C132.479 103.905 132.448 103.942 132.471 103.898L138.248 106.876C139.121 105.182 139.086 103.339 138.869 102.056L132.46 103.14ZM132.407 104.03C132.402 104.04 132.394 104.054 132.378 104.073C132.362 104.092 132.329 104.125 132.273 104.165L136.038 109.464C136.98 108.794 137.788 107.886 138.313 106.743L132.407 104.03ZM132.339 104.12C132.335 104.122 132.285 104.156 132.126 104.214C131.949 104.28 131.739 104.341 131.373 104.442L133.117 110.704C133.726 110.534 134.898 110.233 135.973 109.509L132.339 104.12ZM131.432 104.427C131.437 104.425 131.422 104.429 131.379 104.438C131.337 104.446 131.283 104.457 131.211 104.47C131.063 104.496 130.885 104.524 130.662 104.559C130.239 104.625 129.67 104.712 129.105 104.825C128.556 104.934 127.874 105.093 127.23 105.342C126.729 105.535 125.574 106.024 124.836 107.169L130.299 110.691C130.043 111.087 129.761 111.285 129.665 111.347C129.559 111.417 129.511 111.429 129.57 111.406C129.698 111.356 129.956 111.283 130.376 111.199C130.781 111.118 131.207 111.052 131.667 110.98C132.045 110.921 132.613 110.835 133.058 110.72L131.432 104.427ZM124.884 107.096C124.243 108.034 123.992 109.189 124.259 110.338C124.501 111.381 125.097 112.129 125.615 112.6C126.611 113.507 127.985 114.023 129.308 114.041L129.398 107.542C129.593 107.545 129.762 107.586 129.992 107.795C130.126 107.917 130.448 108.259 130.591 108.87C130.757 109.587 130.58 110.282 130.251 110.764L124.884 107.096ZM129.427 114.041C131.377 113.996 133.152 113.072 133.969 112.688L131.202 106.806C129.978 107.382 129.565 107.536 129.279 107.543L129.427 114.041ZM133.912 112.714C135.66 111.933 136.539 111.532 137.377 111.506L137.177 105.009C134.753 105.084 132.506 106.223 131.259 106.78L133.912 112.714ZM137.538 111.497C137.738 111.481 137.992 111.507 138.232 111.583C138.346 111.619 138.437 111.661 138.503 111.699C138.57 111.736 138.596 111.762 138.596 111.762L143.121 107.095C141.455 105.48 139.043 104.855 137.017 105.018L137.538 111.497ZM138.57 111.735C138.54 111.705 138.576 111.731 138.621 111.851C138.665 111.97 138.688 112.105 138.688 112.217L145.187 112.225C145.19 110.548 144.6 108.562 143.148 107.122L138.57 111.735ZM138.688 112.257C138.702 113.551 138.279 114.839 137.653 115.608L142.695 119.711C144.459 117.542 145.216 114.686 145.187 112.185L138.688 112.257ZM137.662 115.597C137.406 115.909 136.723 116.293 135.242 116.655L136.787 122.969C138.344 122.588 140.958 121.827 142.686 119.722L137.662 115.597ZM157.556 115.415L156.673 112.287L156.628 112.3L156.585 112.314L157.556 115.415ZM152.011 116.354L152.045 113.105L152.003 113.104L151.96 113.105L152.011 116.354ZM148.858 115.566L150.237 112.623L150.201 112.607L150.164 112.591L148.858 115.566ZM145.405 112.595L148.271 111.062L148.263 111.046L148.254 111.029L145.405 112.595ZM146.379 105.901L148.111 108.652L148.139 108.634L148.167 108.615L146.379 105.901ZM150.462 105.191L150.934 101.976L150.86 101.965L150.784 101.957L150.462 105.191ZM153.287 105.661L153.183 108.91L153.212 108.911L153.241 108.911L153.287 105.661ZM154.897 105.313L156.753 107.981L156.766 107.972L156.78 107.963L154.897 105.313ZM154.911 104.575L156.911 102.014L156.678 101.833L156.417 101.696L154.911 104.575ZM152.966 104.175L153.438 100.959L153.422 100.957L153.406 100.955L152.966 104.175ZM147.033 103.123L145.952 106.188L145.965 106.193L147.033 103.123ZM143.977 100.585L141.223 102.31L141.226 102.316L141.231 102.323L143.977 100.585ZM142.496 95.9343L139.248 96.0416L139.249 96.0793L139.252 96.117L142.496 95.9343ZM143.442 91.71L140.591 90.1484L140.551 90.224L140.513 90.3018L143.442 91.71ZM144.682 89.4533L142.048 87.5516L142.03 87.5754L142.013 87.5996L144.682 89.4533ZM148.493 86.0796L150.016 88.9505L150.032 88.9421L150.047 88.9334L148.493 86.0796ZM154.954 84.3802L155.15 87.6242L155.176 87.6227L155.201 87.6208L154.954 84.3802ZM158.641 84.8369L159.911 81.8459L159.844 81.817L159.775 81.7912L158.641 84.8369ZM160.892 86.2522L158.693 88.645L158.723 88.6727L158.754 88.6995L160.892 86.2522ZM162.818 92.3628L160.133 90.531L160.126 90.5419L162.818 92.3628ZM159.615 94.741L158.731 91.6135L158.718 91.6171L159.615 94.741ZM154.036 95.7307L152.793 92.7281L152.735 92.7523L152.677 92.7787L154.036 95.7307ZM153.005 96.5587L156.235 96.9119L156.249 96.7878L156.253 96.663L153.005 96.5587ZM153.629 97.2451L152.18 100.154L152.226 100.177L152.272 100.198L153.629 97.2451ZM157.683 98.4004L156.781 101.523L156.829 101.537L156.876 101.549L157.683 98.4004ZM163.647 101.001L165.746 98.5202L165.723 98.5002L165.699 98.4807L163.647 101.001ZM165.923 104.529L162.794 105.407L162.797 105.42L162.801 105.433L165.923 104.529ZM165.98 108.191L169.151 108.899L169.157 108.876L169.162 108.854L165.98 108.191ZM163.084 112.794L165.073 115.365L165.096 115.346L165.119 115.328L163.084 112.794ZM156.585 112.314C154.978 112.817 153.482 113.12 152.045 113.105L151.976 119.604C154.352 119.629 156.572 119.129 158.528 118.516L156.585 112.314ZM151.96 113.105C151.569 113.111 151.014 112.987 150.237 112.623L147.479 118.509C148.722 119.092 150.299 119.631 152.061 119.604L151.96 113.105ZM150.164 112.591C149.202 112.168 148.546 111.575 148.271 111.062L142.541 114.128C143.717 116.327 145.744 117.748 147.551 118.542L150.164 112.591ZM148.254 111.029C147.959 110.492 147.826 109.814 147.885 109.265C147.913 109.007 147.975 108.843 148.023 108.757C148.064 108.683 148.093 108.663 148.111 108.652L144.648 103.15C142.545 104.474 141.632 106.631 141.423 108.567C141.216 110.486 141.643 112.496 142.558 114.161L148.254 111.029ZM148.167 108.615C148.379 108.475 148.973 108.309 150.14 108.425L150.784 101.957C149.212 101.801 146.726 101.782 144.592 103.187L148.167 108.615ZM149.99 108.407C149.987 108.406 150.02 108.411 150.114 108.428C150.199 108.443 150.305 108.461 150.432 108.484C150.678 108.528 150.997 108.586 151.31 108.642C151.624 108.697 151.955 108.755 152.236 108.8C152.376 108.822 152.518 108.844 152.65 108.861C152.742 108.874 152.959 108.902 153.183 108.91L153.392 102.413C153.529 102.418 153.603 102.431 153.51 102.419C153.458 102.412 153.376 102.4 153.262 102.381C153.037 102.345 152.75 102.296 152.445 102.242C151.909 102.147 151.176 102.011 150.934 101.976L149.99 108.407ZM153.241 108.911C153.827 108.919 155.377 108.938 156.753 107.981L153.042 102.645C153.314 102.456 153.537 102.413 153.568 102.408C153.588 102.404 153.58 102.407 153.536 102.409C153.492 102.412 153.428 102.413 153.332 102.412L153.241 108.911ZM156.78 107.963C157.7 107.309 158.321 106.243 158.349 105.024C158.377 103.8 157.8 102.708 156.911 102.014L152.91 107.137C152.282 106.646 151.829 105.83 151.85 104.877C151.872 103.929 152.357 103.131 153.015 102.664L156.78 107.963ZM156.417 101.696C155.941 101.447 155.432 101.329 155.298 101.297C155.046 101.236 154.78 101.183 154.551 101.141C154.086 101.056 153.626 100.987 153.438 100.959L152.493 107.39C152.662 107.415 153.029 107.47 153.374 107.534C153.55 107.566 153.685 107.594 153.77 107.615C153.813 107.625 153.814 107.627 153.787 107.618C153.771 107.613 153.733 107.601 153.68 107.58C153.632 107.562 153.532 107.522 153.405 107.455L156.417 101.696ZM153.406 100.955C151.097 100.639 149.61 100.579 148.1 100.054L145.965 106.193C148.288 107 150.915 107.174 152.525 107.395L153.406 100.955ZM148.113 100.058C147.694 99.9104 147.121 99.4763 146.723 98.8468L141.231 102.323C142.276 103.975 143.938 105.479 145.952 106.188L148.113 100.058ZM146.731 98.8603C146.162 97.9507 145.801 96.8232 145.741 95.7515L139.252 96.117C139.373 98.2909 140.076 100.478 141.223 102.31L146.731 98.8603ZM145.744 95.8269C145.718 95.0092 145.936 94.0213 146.371 93.1182L140.513 90.3018C139.695 92.0034 139.181 94.0266 139.248 96.0416L145.744 95.8269ZM146.292 93.2715C146.916 92.1313 146.975 91.8502 147.352 91.307L142.013 87.5996C141.402 88.4805 140.773 89.8176 140.591 90.1484L146.292 93.2715ZM147.318 91.3551C148.058 90.3311 148.99 89.4946 150.016 88.9505L146.969 83.2087C144.97 84.2695 143.305 85.8101 142.048 87.5516L147.318 91.3551ZM150.047 88.9334C151.479 88.1535 153.247 87.739 155.15 87.6242L154.759 81.1362C152.225 81.289 149.45 81.8565 146.938 83.2259L150.047 88.9334ZM155.201 87.6208C156.088 87.5534 156.874 87.647 157.507 87.8826L159.775 81.7912C158.057 81.1517 156.288 81.0197 154.708 81.1396L155.201 87.6208ZM157.37 87.828C157.908 88.0569 158.37 88.3483 158.693 88.645L163.091 83.8594C162.12 82.9664 160.992 82.3045 159.911 81.8459L157.37 87.828ZM158.754 88.6995C159.27 89.1512 159.732 89.7895 159.943 90.3357C160.161 90.8986 159.941 90.8138 160.133 90.531L165.503 94.1947C166.976 92.0358 166.644 89.6407 166.005 87.9898C165.36 86.3221 164.218 84.8432 163.03 83.8049L158.754 88.6995ZM160.126 90.5419C159.75 91.0973 159.212 91.4776 158.731 91.6135L160.498 97.8685C162.624 97.2679 164.378 95.8559 165.509 94.1837L160.126 90.5419ZM158.718 91.6171C158.162 91.7768 157.572 91.8216 156.481 91.9268C155.534 92.0181 154.159 92.1619 152.793 92.7281L155.28 98.7331C155.659 98.5761 156.158 98.488 157.105 98.3967C157.909 98.3192 159.236 98.2307 160.511 97.8648L158.718 91.6171ZM152.677 92.7787C152.512 92.8545 152.032 93.0721 151.575 93.3808C151.347 93.5347 150.988 93.8 150.653 94.1913C150.336 94.5616 149.793 95.3352 149.757 96.4544L156.253 96.663C156.223 97.608 155.768 98.2115 155.59 98.4194C155.393 98.6482 155.225 98.7587 155.21 98.7695C155.177 98.7921 155.207 98.7696 155.395 98.6825L152.677 92.7787ZM149.774 96.2055C149.669 97.1748 149.987 97.9357 150.229 98.3639C150.477 98.7995 150.768 99.1133 150.972 99.3081C151.375 99.6924 151.819 99.9748 152.18 100.154L155.077 94.3357C155.196 94.395 155.314 94.4669 155.458 94.6045C155.533 94.6759 155.712 94.8574 155.884 95.1581C156.05 95.4516 156.327 96.0753 156.235 96.9119L149.774 96.2055ZM152.272 100.198C152.662 100.377 153.176 100.533 153.494 100.628C153.893 100.747 154.358 100.875 154.799 100.994C155.762 101.254 156.508 101.444 156.781 101.523L158.584 95.2781C158.257 95.1838 157.265 94.9281 156.495 94.7197C156.071 94.6049 155.668 94.4935 155.348 94.398C154.944 94.2781 154.884 94.2452 154.985 94.2918L152.272 100.198ZM156.876 101.549C158.946 102.079 160.512 102.64 161.596 103.522L165.699 98.4807C163.425 96.6303 160.629 95.8003 158.489 95.2522L156.876 101.549ZM161.549 103.482C162.122 103.967 162.596 104.701 162.794 105.407L169.052 103.652C168.496 101.667 167.289 99.8253 165.746 98.5202L161.549 103.482ZM162.801 105.433C162.958 105.972 162.977 106.673 162.799 107.528L169.162 108.854C169.492 107.265 169.572 105.446 169.045 103.626L162.801 105.433ZM162.808 107.483C162.581 108.501 161.901 109.576 161.05 110.259L165.119 115.328C167.067 113.764 168.588 111.424 169.151 108.899L162.808 107.483ZM161.096 110.223C159.911 111.139 158.397 111.801 156.673 112.287L158.439 118.543C160.627 117.925 162.999 116.968 165.073 115.365L161.096 110.223ZM221.881 101.388L223.961 103.885L223.977 103.872L223.992 103.859L221.881 101.388ZM212.047 101.583L214.124 99.0825L214.077 99.0437L214.029 99.0065L212.047 101.583ZM209.781 98.6566L212.608 97.0537L209.774 92.0554L206.951 97.0594L209.781 98.6566ZM206.474 102.936L208.617 105.379L208.649 105.351L208.68 105.321L206.474 102.936ZM193.944 106.461L193.35 109.657L193.386 109.663L193.421 109.669L193.944 106.461ZM184.654 102.306L182.489 104.729L182.512 104.75L182.535 104.77L184.654 102.306ZM178.406 92.2949L181.487 91.2618L181.483 91.2503L181.479 91.2389L178.406 92.2949ZM176.386 79.5137L179.634 79.4311L179.634 79.4119L179.634 79.3926L176.386 79.5137ZM178.526 66.056L175.521 64.8178L175.515 64.8349L175.508 64.8519L178.526 66.056ZM182.682 59.5142L180.319 57.2827L180.313 57.2891L182.682 59.5142ZM189.824 53.7376L191.328 56.6184L191.35 56.6069L191.372 56.5949L189.824 53.7376ZM194.935 51.9644L195.749 55.1109L195.758 55.1087L195.766 55.1064L194.935 51.9644ZM204.496 51.5316L203.753 54.6955L203.802 54.707L203.851 54.7171L204.496 51.5316ZM207.885 53.4721L210.362 51.3668L210.31 51.3067L210.256 51.249L207.885 53.4721ZM210.234 59.8705L206.984 59.8173L206.984 59.869L206.984 59.9208L210.234 59.8705ZM201.925 68.4981L201.572 71.7288L201.595 71.7314L201.619 71.7335L201.925 68.4981ZM200.049 67.7156L201.809 64.9841L201.248 64.6226L200.591 64.5114L200.049 67.7156ZM197.128 67.6043L197.46 70.8372L197.639 70.8189L197.815 70.7809L197.128 67.6043ZM195.218 68.3885L196.789 71.2337L196.832 71.21L196.875 71.1849L195.218 68.3885ZM190.224 75.8544L193.425 76.4114L193.431 76.3826L193.435 76.3538L190.224 75.8544ZM191.157 84.6377L194.211 83.5282L194.204 83.5078L194.197 83.4875L191.157 84.6377ZM194.22 88.5053L192.459 91.2369L192.519 91.2752L192.58 91.3108L194.22 88.5053ZM202.062 88.3695L199.952 85.8982L199.94 85.9089L199.926 85.9199L202.062 88.3695ZM203.374 84.8187L202.832 88.023L202.927 88.0389L203.021 88.0493L203.374 84.8187ZM201.012 84.8837L200.962 81.6342L200.832 81.6362L200.701 81.6488L201.012 84.8837ZM197.179 84.6726L198.225 81.5955L198.161 81.574L198.097 81.5552L197.179 84.6726ZM194.875 82.943L197.543 81.0875L197.526 81.0639L197.509 81.0408L194.875 82.943ZM193.824 79.4573L197.072 79.5616L197.074 79.5188L197.074 79.476L193.824 79.4573ZM195.019 75.7089L192.323 73.895L192.305 73.9214L192.287 73.9482L195.019 75.7089ZM201.586 71.3932L200.826 68.2335L200.811 68.237L201.586 71.3932ZM210.816 70.809L210.484 67.5761L210.459 67.5787L210.433 67.5817L210.816 70.809ZM216.813 71.072L218.17 68.1188L218.149 68.1088L218.126 68.0992L216.813 71.072ZM220.838 76.2912L223.965 75.4079L223.962 75.3948L220.838 76.2912ZM220.916 83.1803L217.677 82.9252L217.675 82.9396L217.674 82.9541L220.916 83.1803ZM221.238 90.1652L218.042 90.7523L218.05 90.8023L218.061 90.8518L221.238 90.1652ZM222.971 95.4342L226.098 94.5508L226.073 94.4616L226.043 94.374L222.971 95.4342ZM223.408 98.8298L226.58 99.5376L226.598 99.4552L226.613 99.372L223.408 98.8298ZM219.801 98.8905C218.159 100.259 215.467 100.198 214.124 99.0825L209.971 104.083C213.877 107.327 220.067 107.129 223.961 103.885L219.801 98.8905ZM214.029 99.0065C213.627 98.6973 213.216 98.126 212.608 97.0537L206.954 100.259C207.547 101.304 208.509 102.961 210.066 104.159L214.029 99.0065ZM206.951 97.0594C206.215 98.3635 205.324 99.5718 204.266 100.55L208.68 105.321C210.346 103.781 211.629 101.994 212.611 100.254L206.951 97.0594ZM204.331 100.492C202.944 101.708 201.386 102.611 199.755 103.075L201.534 109.327C204.24 108.556 206.632 107.12 208.617 105.379L204.331 100.492ZM199.755 103.075C198.164 103.528 196.29 103.551 194.465 103.254L193.421 109.669C195.908 110.074 198.788 110.108 201.534 109.327L199.755 103.075ZM194.537 103.266C191.593 102.72 188.77 101.559 186.773 99.8414L182.535 104.77C185.645 107.444 189.64 108.968 193.35 109.657L194.537 103.266ZM186.819 99.8822C184.409 97.7289 182.617 94.6312 181.487 91.2618L175.325 93.3281C176.702 97.4366 179.01 101.621 182.489 104.729L186.819 99.8822ZM181.479 91.2389C180.227 87.5937 179.739 83.5387 179.634 79.4311L173.137 79.5965C173.251 84.0557 173.782 88.8398 175.332 93.3511L181.479 91.2389ZM179.634 79.3926C179.477 75.1872 180.058 70.9878 181.545 67.2601L175.508 64.8519C173.624 69.5757 172.955 74.7061 173.138 79.635L179.634 79.3926ZM181.531 67.2942C182.372 65.254 183.599 63.2846 185.05 61.7393L180.313 57.2891C178.263 59.471 176.629 62.13 175.521 64.8178L181.531 67.2942ZM185.044 61.7457C187.074 59.5967 189.138 57.7623 191.328 56.6184L188.319 50.8569C185.172 52.5006 182.519 54.9531 180.319 57.2827L185.044 61.7457ZM191.372 56.5949C192.559 55.9518 193.923 55.5826 195.749 55.1109L194.123 48.8178C192.431 49.2548 190.28 49.7943 188.275 50.8805L191.372 56.5949ZM195.766 55.1064C198.563 54.3675 201.326 54.1259 203.753 54.6955L205.238 48.3677C201.407 47.4683 197.49 47.9281 194.106 48.8223L195.766 55.1064ZM203.851 54.7171C204.362 54.8201 205.055 55.2055 205.514 55.6953L210.256 51.249C208.979 49.8865 207.115 48.7456 205.14 48.3462L203.851 54.7171ZM205.409 55.5774C206.417 56.7622 207.007 58.4098 206.984 59.8173L213.483 59.9236C213.534 56.8599 212.341 53.6948 210.362 51.3668L205.409 55.5774ZM206.984 59.9208C207.037 63.3267 204.588 65.486 202.233 65.2627L201.619 71.7335C208.815 72.4158 213.58 66.0354 213.483 59.8201L206.984 59.9208ZM202.278 65.2674C202.341 65.2743 202.351 65.2887 202.282 65.2572C202.196 65.2189 202.059 65.1447 201.809 64.9841L198.288 70.4474C198.97 70.8872 200.095 71.5673 201.572 71.7288L202.278 65.2674ZM200.591 64.5114C200.194 64.4443 199.42 64.3829 198.803 64.35C198.462 64.3318 198.088 64.3178 197.744 64.3174C197.505 64.3172 196.953 64.3173 196.442 64.4277L197.815 70.7809C197.628 70.8212 197.516 70.8231 197.567 70.8202C197.586 70.8191 197.64 70.8172 197.736 70.8172C197.926 70.8174 198.178 70.8257 198.457 70.8405C198.73 70.8553 199.002 70.8747 199.219 70.8935C199.48 70.9161 199.557 70.9286 199.506 70.92L200.591 64.5114ZM196.796 64.3715C195.331 64.5218 194.081 65.285 193.563 65.592L196.875 71.1849C197.156 71.0183 197.335 70.9202 197.477 70.8569C197.621 70.7923 197.6 70.8229 197.46 70.8372L196.796 64.3715ZM193.649 65.5432C189.992 67.5609 187.61 71.5102 187.012 75.355L193.435 76.3538C193.769 74.2049 195.138 72.1454 196.789 71.2337L193.649 65.5432ZM187.022 75.2972C186.414 78.792 186.898 82.5648 188.117 85.7881L194.197 83.4875C193.338 81.2193 193.04 78.6264 193.425 76.4114L187.022 75.2972ZM188.102 85.7473C188.885 87.9019 190.458 89.9467 192.459 91.2369L195.981 85.7736C195.222 85.2842 194.529 84.4031 194.211 83.5282L188.102 85.7473ZM192.58 91.3108C194.206 92.2613 196.304 92.7083 198.195 92.7269C200.017 92.7446 202.422 92.3683 204.199 90.8191L199.926 85.9199C199.942 85.907 199.836 85.9991 199.505 86.0892C199.185 86.1765 198.758 86.2323 198.259 86.2272C197.193 86.2169 196.275 85.942 195.861 85.6997L192.58 91.3108ZM204.173 90.8409C205.781 89.4671 206.54 87.4598 206.728 85.7393L200.267 85.033C200.241 85.2698 200.176 85.4939 200.094 85.6693C200.011 85.8484 199.942 85.9064 199.952 85.8982L204.173 90.8409ZM206.728 85.7393C206.726 85.758 206.724 85.7666 206.728 85.7351C206.731 85.7165 206.74 85.6559 206.747 85.5951C206.759 85.492 206.792 85.2091 206.777 84.8711C206.762 84.5753 206.699 83.8417 206.205 83.0945C205.597 82.1743 204.65 81.6888 203.727 81.588L203.021 88.0493C202.213 87.9609 201.341 87.5241 200.782 86.677C200.336 86.003 200.294 85.3669 200.284 85.1813C200.278 85.0539 200.282 84.9561 200.285 84.9047C200.29 84.8517 200.294 84.817 200.294 84.8146C200.295 84.8122 200.294 84.8135 200.293 84.8216C200.292 84.8317 200.291 84.8393 200.288 84.8596C200.283 84.8891 200.275 84.9573 200.267 85.033L206.728 85.7393ZM203.916 81.6143C203.652 81.5695 203.412 81.5588 203.289 81.5546C203.139 81.5494 202.988 81.5492 202.855 81.5508C202.586 81.5542 202.293 81.5659 202.032 81.5785C201.769 81.5909 201.505 81.606 201.305 81.6169C201.201 81.6226 201.116 81.6272 201.048 81.6304C200.973 81.6341 200.952 81.6343 200.962 81.6342L201.062 88.1332C201.235 88.1306 201.481 88.1169 201.661 88.1071C201.878 88.0951 202.11 88.0819 202.342 88.0708C202.578 88.0595 202.782 88.052 202.935 88.0502C203.011 88.0493 203.052 88.05 203.065 88.0505C203.104 88.0519 203 88.0515 202.832 88.023L203.916 81.6143ZM200.701 81.6488C199.44 81.7699 198.692 81.7542 198.225 81.5955L196.134 87.7497C198.071 88.408 200.11 88.2353 201.323 88.1187L200.701 81.6488ZM198.097 81.5552C198.115 81.5601 198.022 81.531 197.867 81.4134C197.717 81.2999 197.603 81.1742 197.543 81.0875L192.206 84.7986C193.101 86.0853 194.574 87.2933 196.26 87.7901L198.097 81.5552ZM197.509 81.0408C197.215 80.6335 197.055 80.0876 197.072 79.5616L190.576 79.353C190.516 81.2197 191.049 83.1972 192.24 84.8453L197.509 81.0408ZM197.074 79.476C197.077 78.8802 197.288 78.1871 197.751 77.4695L192.287 73.9482C191.304 75.4739 190.586 77.3577 190.574 79.4384L197.074 79.476ZM197.716 77.5227C198.624 76.1716 200.411 75.0278 202.361 74.5495L200.811 68.237C197.683 69.0048 194.336 70.9016 192.323 73.895L197.716 77.5227ZM202.347 74.5529C203.474 74.2814 204.702 74.2218 206.22 74.2122C207.629 74.2034 209.444 74.2442 211.199 74.0363L210.433 67.5817C209.147 67.7341 207.865 67.7019 206.179 67.7125C204.6 67.7224 202.732 67.7748 200.826 68.2335L202.347 74.5529ZM211.148 74.042C212.244 73.9295 213.07 73.8228 213.9 73.8157C214.701 73.8088 215.191 73.9081 215.5 74.0449L218.126 68.0992C216.63 67.4383 215.102 67.3054 213.846 67.3161C212.62 67.3265 211.35 67.4872 210.484 67.5761L211.148 74.042ZM215.457 74.0252C216.275 74.4009 217.266 75.6262 217.714 77.1877L223.962 75.3948C223.206 72.761 221.31 69.5608 218.17 68.1188L215.457 74.0252ZM217.71 77.1747C218.14 78.6946 217.886 80.2626 217.677 82.9252L224.156 83.4353C224.303 81.5654 224.802 78.3669 223.965 75.4079L217.71 77.1747ZM217.674 82.9541C217.497 85.4958 217.562 88.1395 218.042 90.7523L224.434 89.5782C224.074 87.62 224.01 85.5392 224.158 83.4066L217.674 82.9541ZM218.061 90.8518C218.514 92.947 219.412 95.0846 219.899 96.4945L226.043 94.374C225.337 92.3287 224.759 91.0725 224.414 89.4786L218.061 90.8518ZM219.843 96.3177C220.196 97.5671 220.257 97.9729 220.203 98.2876L226.613 99.372C226.951 97.3744 226.378 95.5409 226.098 94.5508L219.843 96.3177ZM220.236 98.1221C220.155 98.4859 220.022 98.7016 219.771 98.9162L223.992 103.859C225.37 102.682 226.208 101.202 226.58 99.5376L220.236 98.1221ZM235.42 97.5899L233.13 95.2845L233.123 95.2902L233.118 95.296L235.42 97.5899ZM233.251 98.7505L232.564 95.5739L232.488 95.5903L232.414 95.6102L233.251 98.7505ZM230.653 98.5338L232.123 95.6355L232.113 95.6299L232.102 95.6244L230.653 98.5338ZM227.293 87.5895L224.047 87.445L224.046 87.4652L224.045 87.4852L227.293 87.5895ZM230.632 73.036L233.605 74.3472L233.608 74.3399L233.611 74.3325L230.632 73.036ZM233.273 68.6612L230.771 66.5877L230.738 66.6276L230.706 66.6686L233.273 68.6612ZM238.433 66.3356L238.529 69.5841L238.559 69.5832L238.588 69.5819L238.433 66.3356ZM243.608 67.6808L245.307 64.9107L245.268 64.8864L245.228 64.8632L243.608 67.6808ZM249.478 73.2413L252.012 71.2066L252.005 71.1977L251.998 71.189L249.478 73.2413ZM253.677 80.0709L256.637 78.7271L256.62 78.6916L256.604 78.6565L253.677 80.0709ZM255.899 87.5441L259.137 87.2741L259.135 87.249L259.133 87.2241L255.899 87.5441ZM253.873 93.169L256.086 95.5485L256.112 95.5239L256.139 95.4988L253.873 93.169ZM248.848 95.1197L248.743 98.3678L248.753 98.3682L248.761 98.3685L248.848 95.1197ZM246.825 94.5627L248.466 91.757L248.439 91.7415L248.412 91.7264L246.825 94.5627ZM244.748 92.5479L247.397 90.6655L247.381 90.6447L247.366 90.6241L244.748 92.5479ZM242.478 87.8515L245.597 86.9348L244.672 83.7922L241.538 84.7407L242.478 87.8515ZM237.931 89.0074L237.33 85.8136L234.943 86.2623L234.697 88.6786L237.931 89.0074ZM237.126 94.2819L234.004 93.3755L233.99 93.4252L233.977 93.4755L237.126 94.2819ZM237.908 76.3044L240.808 77.7715L240.812 77.7621L240.817 77.7526L237.908 76.3044ZM236.889 82.187L233.641 82.3309L233.825 86.4676L237.8 85.3066L236.889 82.187ZM241.085 80.8045L242.247 83.8396L245.198 82.7104L244.152 79.7292L241.085 80.8045ZM240.144 77.8525L237.052 78.8517L237.064 78.8899L237.077 78.9278L240.144 77.8525ZM238.975 75.6414L236.441 77.6761L236.464 77.7056L236.489 77.7346L238.975 75.6414ZM238.411 75.6337L236.975 72.7184L236.862 72.7737L236.756 72.8372L238.411 75.6337ZM233.118 95.296C233.01 95.4037 232.816 95.5194 232.564 95.5739L233.937 101.927C235.254 101.642 236.622 100.988 237.722 99.8838L233.118 95.296ZM232.414 95.6102C232.327 95.6331 232.237 95.6404 232.165 95.6349C232.092 95.6294 232.083 95.6151 232.123 95.6355L229.183 101.432C230.789 102.247 232.593 102.289 234.087 101.891L232.414 95.6102ZM232.102 95.6244C231.823 95.4856 231.384 95.031 231.149 94.3703L225.024 96.5453C225.673 98.3734 227.063 100.377 229.205 101.443L232.102 95.6244ZM231.149 94.3703C230.494 92.5272 230.457 90.3317 230.541 87.6938L224.045 87.4852C223.962 90.0705 223.911 93.4107 225.024 96.5453L231.149 94.3703ZM230.541 87.7338C230.745 83.1324 231.777 78.4924 233.605 74.3472L227.658 71.7249C225.483 76.6577 224.284 82.0957 224.047 87.445L230.541 87.7338ZM233.611 74.3325C234.149 73.0972 234.927 71.8309 235.841 70.6538L230.706 66.6686C229.523 68.1924 228.442 69.9215 227.651 71.7397L233.611 74.3325ZM235.776 70.7348C235.949 70.5255 236.102 70.3636 236.236 70.2457C236.372 70.125 236.437 70.0962 236.424 70.1021L233.706 64.1981C232.32 64.8359 231.337 65.9039 230.771 66.5877L235.776 70.7348ZM236.424 70.1021C237.127 69.7781 237.848 69.6043 238.529 69.5841L238.337 63.0871C236.7 63.1359 235.125 63.5447 233.706 64.1981L236.424 70.1021ZM238.588 69.5819C239.649 69.5311 240.887 69.8654 241.988 70.4983L245.228 64.8632C243.269 63.7371 240.811 62.9684 238.278 63.0894L238.588 69.5819ZM241.909 70.4509C243.707 71.5544 245.293 73.2482 246.958 75.2938L251.998 71.189C250.251 69.0446 248.093 66.62 245.307 64.9107L241.909 70.4509ZM246.944 75.2761C248.403 77.0923 249.649 79.2054 250.752 81.4852L256.604 78.6565C255.36 76.0834 253.866 73.5156 252.012 71.2066L246.944 75.2761ZM250.719 81.4145C251.723 83.628 252.458 85.7879 252.664 87.8642L259.133 87.2241C258.827 84.1374 257.776 81.237 256.637 78.7271L250.719 81.4145ZM252.659 87.8142C252.75 88.8928 252.273 90.1906 251.606 90.8393L256.139 95.4988C258.329 93.3686 259.372 90.1017 259.137 87.2741L252.659 87.8142ZM251.659 90.7895C250.913 91.484 249.814 91.8941 248.934 91.8708L248.761 98.3685C251.445 98.4391 254.169 97.3315 256.086 95.5485L251.659 90.7895ZM248.952 91.8714C248.72 91.8639 248.53 91.7949 248.466 91.757L245.185 97.3681C246.308 98.0246 247.582 98.3306 248.743 98.3678L248.952 91.8714ZM248.412 91.7264C248.188 91.6008 247.84 91.289 247.397 90.6655L242.098 94.4304C242.773 95.3807 243.791 96.5891 245.238 97.3988L248.412 91.7264ZM247.366 90.6241C246.587 89.5619 246 88.3052 245.597 86.9348L239.361 88.7681C239.938 90.7303 240.826 92.6991 242.129 94.472L247.366 90.6241ZM241.538 84.7407C240.085 85.1803 238.701 85.5556 237.33 85.8136L238.531 92.2014C240.234 91.8812 241.87 91.431 243.42 90.962L241.538 84.7407ZM234.697 88.6786C234.502 90.601 234.396 92.0266 234.004 93.3755L240.247 95.1884C240.846 93.1244 241 90.9496 241.164 89.3363L234.697 88.6786ZM233.977 93.4755C233.736 94.4171 233.419 94.9969 233.13 95.2845L237.711 99.8952C239.201 98.4151 239.905 96.5263 240.274 95.0884L233.977 93.4755ZM235.007 74.8371C233.74 77.3434 233.541 80.06 233.641 82.3309L240.135 82.0432C240.058 80.2896 240.259 78.8566 240.808 77.7715L235.007 74.8371ZM237.8 85.3066C238.42 85.1255 241.618 84.0802 242.247 83.8396L239.924 77.7693C239.925 77.7688 239.92 77.7706 239.909 77.7747C239.897 77.7788 239.882 77.7842 239.863 77.7912C239.824 77.8052 239.774 77.8227 239.713 77.8441C239.589 77.8869 239.433 77.9403 239.252 78.0016C238.889 78.1239 238.443 78.2721 237.991 78.4204C237.059 78.7266 236.198 79.003 235.977 79.0676L237.8 85.3066ZM244.152 79.7292C244.01 79.324 243.879 78.8945 243.725 78.3857C243.578 77.9007 243.408 77.3363 243.211 76.7771L237.077 78.9278C237.219 79.3329 237.35 79.7624 237.505 80.2713C237.652 80.7563 237.822 81.3207 238.019 81.8798L244.152 79.7292ZM243.237 76.8532C242.885 75.766 242.327 74.577 241.461 73.5484L236.489 77.7346C236.669 77.9493 236.881 78.3228 237.052 78.8517L243.237 76.8532ZM241.509 73.6067C240.445 72.2829 238.966 72.2803 238.5 72.3101C237.904 72.3483 237.378 72.5198 236.975 72.7184L239.848 78.5487C239.601 78.6704 239.297 78.7722 238.915 78.7966C238.661 78.813 237.385 78.8527 236.441 77.6761L241.509 73.6067ZM236.756 72.8372C236.061 73.2481 235.644 73.7884 235.433 74.0991C235.213 74.4221 235.058 74.7358 234.999 74.8561L240.817 77.7526C240.878 77.6306 240.86 77.677 240.805 77.7593C240.77 77.8097 240.701 77.9048 240.592 78.0178C240.482 78.1313 240.31 78.2859 240.067 78.43L236.756 72.8372ZM273.799 89.1211L276.262 91.2408L276.273 91.2279L276.284 91.2148L273.799 89.1211ZM267.169 90.6408L265.698 93.5392L265.748 93.5648L265.8 93.5887L267.169 90.6408ZM264.348 86.1931L267.566 85.7401L267.564 85.7209L267.56 85.7018L264.348 86.1931ZM264.21 79.9553L267.432 79.5294L267.185 77.6616L265.441 76.9478L264.21 79.9553ZM257.252 76.359L255.368 79.008L255.383 79.0182L255.398 79.0284L257.252 76.359ZM254.425 73.6848L257.017 71.7244L256.999 71.6995L256.979 71.675L254.425 73.6848ZM252.147 68.3421L255.372 67.9331L255.37 67.9171L255.367 67.901L252.147 68.3421ZM252.478 65.0719L249.505 63.7589L249.499 63.7716L249.493 63.7843L252.478 65.0719ZM258.371 62.5444L257.463 65.6645L257.514 65.6794L257.566 65.6926L258.371 62.5444ZM261.039 64.0858L258.83 66.47L258.857 66.4942L258.883 66.518L261.039 64.0858ZM266.618 71.6977L264.391 74.0647L264.607 74.2683L264.858 74.4294L266.618 71.6977ZM266.934 71.7591L265.173 74.4908L266 75.0239L266.984 75.0087L266.934 71.7591ZM268.033 71.046L265.301 69.2853L265.243 69.3763L265.191 69.4709L268.033 71.046ZM268.633 69.6196L271.75 70.538L271.753 70.5262L271.757 70.5145L268.633 69.6196ZM269.902 61.6946L272.956 62.806L272.962 62.7903L272.967 62.7745L269.902 61.6946ZM270.929 60.0462L273.178 62.3916L273.195 62.3747L273.214 62.3574L270.929 60.0462ZM272.341 59.1791L273.724 62.1198L273.782 62.0926L273.839 62.0631L272.341 59.1791ZM273.682 58.5865L274.63 61.6951L274.754 61.6573L274.874 61.6098L273.682 58.5865ZM279.929 62.2933L276.856 63.3464L276.87 63.3926L276.889 63.4381L279.929 62.2933ZM280.455 65.7241L277.218 65.4462L277.214 65.479L277.212 65.5117L280.455 65.7241ZM279.968 68.4662L283.166 69.0409L283.169 69.0247L283.171 69.0085L279.968 68.4662ZM277.149 74.8245L279.704 76.8324L279.721 76.811L279.737 76.7894L277.149 74.8245ZM272.806 78.5295L271.353 75.6223L268.426 77.0848L269.909 80.0019L272.806 78.5295ZM274.89 85.773L278.137 85.9357L278.138 85.8933L278.139 85.8508L274.89 85.773ZM271.335 87.0014C271.204 87.1546 270.734 87.4937 269.951 87.6764C269.162 87.8609 268.654 87.7476 268.536 87.6928L265.8 93.5887C267.652 94.4483 269.751 94.3981 271.43 94.0057C273.118 93.6116 274.978 92.7337 276.262 91.2408L271.335 87.0014ZM268.638 87.7425C268.349 87.5958 267.718 86.8179 267.566 85.7401L261.13 86.6461C261.462 89.008 262.88 92.1097 265.698 93.5392L268.638 87.7425ZM267.56 85.7018C267.457 85.0269 267.471 84.282 267.511 83.1978C267.548 82.2165 267.61 80.882 267.432 79.5294L260.988 80.3813C261.081 81.0879 261.057 81.8471 261.016 82.9575C260.979 83.9646 260.925 85.3092 261.135 86.6844L267.56 85.7018ZM265.441 76.9478C263.1 75.9892 260.952 74.9719 259.105 73.6896L255.398 79.0284C257.823 80.7129 260.484 81.9414 262.979 82.963L265.441 76.9478ZM259.134 73.7102C258.261 73.0892 257.558 72.4387 257.017 71.7244L251.833 75.6452C252.867 77.0112 254.097 78.1041 255.368 79.008L259.134 73.7102ZM256.979 71.675C256.122 70.5849 255.536 69.2371 255.372 67.9331L248.923 68.7509C249.249 71.3174 250.346 73.7554 251.871 75.6947L256.979 71.675ZM255.367 67.901C255.264 67.15 255.346 66.6265 255.461 66.3596L249.493 63.7843C248.745 65.5197 248.731 67.3511 248.927 68.783L255.367 67.901ZM255.45 66.385C255.455 66.3752 255.501 66.2825 255.666 66.1352C255.833 65.9879 256.066 65.8348 256.344 65.7037L253.578 59.8221C252.179 60.48 250.406 61.7162 249.505 63.7589L255.45 66.385ZM256.344 65.7037C256.572 65.5967 257.031 65.539 257.463 65.6645L259.281 59.4242C257.497 58.9046 255.39 58.9695 253.578 59.8221L256.344 65.7037ZM257.566 65.6926C257.898 65.7778 258.337 66.0138 258.83 66.47L263.248 61.7017C262.227 60.756 260.859 59.8267 259.178 59.3961L257.566 65.6926ZM258.883 66.518C259.62 67.1714 260.208 68.0919 261.062 69.5284C261.819 70.8059 262.854 72.6191 264.391 74.0647L268.844 69.3308C268.102 68.6323 267.524 67.682 266.65 66.2108C265.872 64.8986 264.81 63.0851 263.195 61.6536L258.883 66.518ZM264.858 74.4294C265.078 74.5717 265.275 74.6616 265.409 74.7155C265.547 74.7716 265.667 74.8095 265.754 74.8343C265.844 74.8598 265.922 74.878 265.982 74.8908C266.043 74.9038 266.096 74.9135 266.139 74.9208C266.221 74.9348 266.291 74.9437 266.332 74.9486C266.372 74.9536 266.41 74.9577 266.422 74.9591C266.443 74.9614 266.439 74.9608 266.43 74.9598C266.421 74.9588 266.383 74.954 266.328 74.9447C266.3 74.9399 266.259 74.9327 266.21 74.9223C266.163 74.9123 266.097 74.8969 266.019 74.8745C265.942 74.8528 265.833 74.8182 265.702 74.7657C265.577 74.7152 265.387 74.6291 265.173 74.4908L268.694 69.0274C268.474 68.8851 268.276 68.7953 268.143 68.7413C268.004 68.6852 267.884 68.6473 267.797 68.6226C267.707 68.5971 267.629 68.5789 267.569 68.5661C267.509 68.5531 267.455 68.5433 267.412 68.5361C267.33 68.5221 267.26 68.5132 267.219 68.5082C267.179 68.5032 267.142 68.4991 267.129 68.4978C267.108 68.4955 267.113 68.4959 267.122 68.497C267.13 68.4981 267.169 68.5029 267.224 68.512C267.253 68.5169 267.292 68.5241 267.341 68.5345C267.388 68.5446 267.454 68.56 267.533 68.5824C267.609 68.6042 267.72 68.6386 267.849 68.6913C267.974 68.7416 268.164 68.8278 268.379 68.966L264.858 74.4294ZM266.984 75.0087C268.793 74.9806 270.208 73.8281 270.876 72.621L265.191 69.4709C265.352 69.1787 265.558 68.9772 265.769 68.8379C265.973 68.703 266.347 68.5179 266.883 68.5096L266.984 75.0087ZM270.765 72.8066C271.279 72.0089 271.574 71.135 271.75 70.538L265.515 68.7015C265.46 68.8875 265.409 69.035 265.363 69.1482C265.315 69.266 265.291 69.3024 265.301 69.2853L270.765 72.8066ZM271.757 70.5145C272.235 68.8465 272.337 67.1322 272.437 65.9044C272.549 64.5425 272.662 63.6125 272.956 62.806L266.848 60.5831C266.22 62.3101 266.067 64.0525 265.959 65.3747C265.84 66.8311 265.77 67.8126 265.508 68.7249L271.757 70.5145ZM272.967 62.7745C273.048 62.5461 273.15 62.4192 273.178 62.3916L268.679 57.7007C267.776 58.5661 267.185 59.6264 266.837 60.6145L272.967 62.7745ZM273.214 62.3574C273.149 62.4216 273.124 62.4247 273.213 62.3735C273.256 62.3488 273.315 62.3167 273.403 62.2732C273.494 62.2281 273.591 62.1822 273.724 62.1198L270.957 56.2383C270.547 56.4312 269.501 56.8876 268.643 57.7349L273.214 62.3574ZM273.839 62.0631C274.301 61.8231 274.473 61.7431 274.63 61.6951L272.734 55.478C271.918 55.7268 271.235 56.0909 270.842 56.2951L273.839 62.0631ZM274.874 61.6098C275.089 61.525 275.323 61.5114 275.694 61.7508C276.125 62.0284 276.596 62.5912 276.856 63.3464L283.004 61.2402C282.325 59.2589 281.007 57.4421 279.216 56.2874C277.365 55.0944 274.944 54.5957 272.49 55.5632L274.874 61.6098ZM276.889 63.4381C277.159 64.1583 277.266 64.8756 277.218 65.4462L283.693 66.0021C283.841 64.2826 283.513 62.5868 282.971 61.1486L276.889 63.4381ZM277.212 65.5117C277.197 65.7381 277.151 66.019 277.064 66.4414C276.992 66.7889 276.853 67.3962 276.763 67.9242L283.171 69.0085C283.234 68.639 283.309 68.3357 283.427 67.7667C283.531 67.2725 283.653 66.6309 283.699 65.9365L277.212 65.5117ZM276.768 67.8918C276.451 69.6568 275.678 71.3874 274.56 72.8595L279.737 76.7894C281.446 74.5384 282.659 71.8629 283.166 69.0409L276.768 67.8918ZM274.593 72.8165C273.611 74.0672 272.485 75.0572 271.353 75.6223L274.258 81.4368C276.483 80.3257 278.315 78.6015 279.704 76.8324L274.593 72.8165ZM269.909 80.0019C270.993 82.137 271.682 84.028 271.642 85.6951L278.139 85.8508C278.22 82.4777 276.874 79.3619 275.703 77.0571L269.909 80.0019ZM271.645 85.6102C271.626 85.9905 271.571 86.3398 271.488 86.62C271.405 86.9071 271.322 87.017 271.313 87.0274L276.284 91.2148C277.727 89.5026 278.066 87.32 278.137 85.9357L271.645 85.6102Z" fill="black"/>
</g>
</g>
<defs>
<clipPath id="clip0_2007_51">
<rect width="271.909" height="95.3307" fill="white" transform="translate(12.0664 51.2715) rotate(-3.68513)"/>
</clipPath>
</defs>
</svg>
