<svg width="538" height="125" viewBox="0 0 538 125" fill="none" xmlns="http://www.w3.org/2000/svg">
<path d="M36.6547 102.96C31.3747 103.44 25.9747 103.44 20.6947 102.24C17.6947 101.64 14.9347 100.08 12.4147 98.16C8.93469 95.64 5.81469 92.04 4.61469 87.84C2.57469 81 4.73469 72.24 11.3347 69.84C15.0547 68.4 19.3747 69.12 23.0947 70.32C24.0547 70.68 29.6947 73.08 30.6547 73.32C32.2147 73.68 33.8947 73.92 35.3347 73.32C36.1747 72.96 36.4147 72 35.8147 71.28C35.0947 70.68 31.6147 69.36 30.6547 69C25.3747 67.08 19.7347 65.52 14.8147 62.52C11.6947 60.6 9.17469 57.24 7.85469 53.64C6.29469 49.32 5.81469 44.4 6.53469 39.84C7.25469 35.88 9.17469 31.92 11.6947 28.68C13.2547 26.88 14.6947 24.84 16.4947 23.16C20.0947 19.92 24.4147 17.4 29.0947 16.08C35.2147 14.28 41.8147 14.28 48.0547 15.24C51.5347 15.72 55.0147 16.8 58.0147 18.72C60.0547 20.16 61.9747 21.96 63.4147 24C67.2547 29.16 69.7747 37.68 65.0947 42.12C62.3347 44.76 58.6147 46.56 54.7747 46.8C49.3747 47.16 43.9747 45.24 38.6947 46.2C37.6147 46.44 35.5747 46.92 35.3347 47.88C35.0947 48.6 36.0547 49.68 36.6547 50.16C38.0947 51.24 45.6547 54.96 47.2147 55.8C52.7347 58.56 58.3747 61.8 62.2147 66.6C64.6147 69.72 66.1747 73.8 66.4147 77.76C66.6547 81.24 65.8147 84.72 64.3747 87.96C62.2147 92.64 58.1347 96.72 53.5747 99C48.2947 101.52 42.4147 102.6 36.6547 102.96ZM118.099 103.08C111.739 103.68 105.139 102.72 99.1391 100.68C92.0591 98.28 85.6991 92.76 81.6191 86.52C79.9391 83.88 78.2591 81.12 77.2991 78.12C74.7791 70.68 74.7791 62.52 75.6191 54.84C76.5791 46.2 80.4191 37.68 85.5791 30.48C89.1791 25.56 93.8591 21 99.2591 17.88C104.179 14.88 110.179 13.32 115.939 13.32C121.579 13.44 127.219 14.4 132.499 16.08C137.779 17.88 142.339 22.2 145.579 26.76C148.099 30.24 149.779 34.56 150.739 38.88C152.179 45 152.539 51.24 152.419 57.48C152.179 66.96 149.659 76.8 144.739 84.84C141.859 89.88 137.779 94.56 132.859 97.68C128.539 100.56 123.379 102.48 118.099 103.08ZM112.699 73.8C116.659 75.96 120.979 72.84 123.139 69C126.259 63.72 127.219 57 126.259 51C125.779 48.12 124.819 45.24 123.019 42.84C122.059 41.52 120.499 40.2 118.819 39.84C117.139 39.36 115.219 39.84 113.779 40.92C106.939 45.48 105.019 58.56 107.539 66.36C108.499 69.24 110.059 72.36 112.699 73.8ZM223.703 94.8C218.783 100.2 210.623 102.84 203.303 102.6C193.463 102.48 183.023 99.24 175.103 93.24C169.823 89.4 165.623 83.64 163.103 77.52C160.943 72.6 160.223 66.96 159.863 61.56C159.503 53.04 161.543 44.28 165.263 36.72C169.943 27.36 178.463 18.84 188.423 15.6C195.023 13.32 202.343 12.96 209.303 13.92C213.503 14.52 217.823 15.96 221.303 18.36C223.223 19.68 224.783 21.36 225.983 23.28C228.623 27.12 230.063 31.92 230.303 36.48C230.423 40.32 229.463 44.4 227.303 47.64C225.743 50.04 223.583 52.32 221.063 53.64C217.583 55.32 213.143 55.68 209.663 54.36C205.943 52.92 202.583 49.44 201.623 45.6C200.663 44.64 199.583 43.68 198.263 43.32C196.463 42.84 194.783 43.32 193.583 44.76C189.983 49.32 188.663 55.92 190.343 61.44C190.823 63.12 191.903 64.68 193.463 65.64C195.023 66.72 197.183 67.08 199.223 66.96C204.503 66.72 209.903 65.16 215.183 65.88C219.023 66.36 223.103 68.52 225.383 71.64C227.183 74.28 227.543 77.76 227.903 80.88C228.383 85.68 226.943 91.2 223.703 94.8ZM274.15 101.88C269.47 102.12 264.91 102.48 260.23 102.36C256.03 102.24 251.71 102 247.63 100.68C245.47 99.96 243.31 98.76 241.87 96.96C240.43 95.16 239.71 92.88 239.59 90.6C239.47 85.56 241.99 77.52 246.79 75.84C250.03 74.64 253.75 74.52 257.23 74.76C256.03 65.04 256.15 55.08 257.47 45.48C253.51 46.44 248.71 46.2 245.23 44.16C243.07 42.84 241.39 40.92 240.19 38.76C237.79 34.8 237.31 29.4 238.51 24.84C239.71 20.64 242.95 16.56 246.91 14.88C251.11 13.2 255.91 13.32 260.35 13.56C261.19 13.56 266.35 12.96 267.19 12.96C269.35 12.84 281.71 12.84 283.75 12.96C288.07 13.08 292.87 13.68 296.35 16.08C298.03 17.28 299.35 18.84 300.31 20.52C304.63 28.44 301.63 39.6 294.19 44.64C292.15 46.08 289.51 46.68 286.99 46.92C288.31 54.96 288.31 63.36 286.87 71.52C289.51 71.64 292.15 72 294.55 73.08C296.35 73.92 298.15 75.24 299.35 76.92C302.11 80.52 303.55 85.56 303.07 90.12C302.71 93.6 300.67 97.2 297.91 99.12C295.15 101.04 291.55 101.64 288.19 101.88C283.51 102.12 278.83 101.52 274.15 101.88ZM328.932 100.2C326.892 101.52 324.492 102.12 322.212 102.12C319.692 102.24 317.052 101.52 315.132 99.96C312.132 97.56 310.332 93.6 309.852 89.88C308.892 82.44 310.572 74.76 312.372 67.56C315.972 53.88 322.092 40.56 330.372 29.16C333.132 25.32 336.612 21.72 340.332 18.6C342.012 17.28 344.052 15.96 346.212 15.48C349.452 14.76 352.812 14.64 356.052 15.24C361.092 16.08 365.892 18.72 369.612 22.08C375.132 27.36 379.092 34.2 382.572 41.04C385.932 47.76 388.332 55.08 390.132 62.52C391.692 69.72 392.652 77.28 391.812 84.6C391.092 90.12 387.612 96 382.812 99C378.372 101.64 372.612 102.6 367.692 101.4C365.772 100.92 363.852 99.96 362.412 98.64C360.372 96.84 358.932 94.32 357.852 91.8C355.812 87.24 354.732 82.32 354.372 77.4C349.932 77.76 345.492 78 341.052 77.88C339.492 82.68 338.052 87.6 335.652 92.04C334.092 95.16 331.932 98.28 328.932 100.2ZM348.612 42.6C345.012 47.04 343.212 52.68 342.252 58.32C343.932 58.2 353.172 57.24 354.732 57C354.372 54.12 354.252 51.12 353.892 48.24C353.652 45.84 353.052 43.44 351.972 41.4C351.732 40.92 350.892 40.92 350.412 41.04C349.692 41.28 349.092 42 348.612 42.6ZM445.728 101.76C441.648 101.88 437.448 102.24 433.368 101.88C430.248 101.52 427.128 101.64 424.128 101.16C420.648 100.56 417.168 99.24 414.288 97.32C409.968 94.44 406.608 90.12 404.688 85.32C401.448 77.76 400.488 69.24 400.248 60.96C400.008 54 400.248 47.04 401.088 40.08C401.568 35.28 402.888 30.24 405.408 26.04C407.568 22.32 411.048 18.96 415.008 17.28C417.768 15.96 421.128 15.48 424.128 16.08C426.888 16.56 429.648 18.12 431.568 20.16C434.448 23.04 436.368 27.12 437.088 31.2C437.928 35.76 437.328 40.68 436.488 45.24C435.168 51.6 433.248 57.84 432.408 64.32C432.048 66.36 431.808 71.28 433.008 72.84C434.088 74.04 436.848 73.56 438.408 73.08C442.968 71.64 447.648 69.6 452.328 69.72C455.808 69.84 458.808 71.16 461.088 73.68C467.208 80.76 466.968 91.56 459.408 97.08C455.448 99.84 450.528 101.64 445.728 101.76ZM503.061 102.96C497.781 103.44 492.381 103.44 487.101 102.24C484.101 101.64 481.341 100.08 478.821 98.16C475.341 95.64 472.221 92.04 471.021 87.84C468.981 81 471.141 72.24 477.741 69.84C481.461 68.4 485.781 69.12 489.501 70.32C490.461 70.68 496.101 73.08 497.061 73.32C498.621 73.68 500.301 73.92 501.741 73.32C502.581 72.96 502.821 72 502.221 71.28C501.501 70.68 498.021 69.36 497.061 69C491.781 67.08 486.141 65.52 481.221 62.52C478.101 60.6 475.581 57.24 474.261 53.64C472.701 49.32 472.221 44.4 472.941 39.84C473.661 35.88 475.581 31.92 478.101 28.68C479.661 26.88 481.101 24.84 482.901 23.16C486.501 19.92 490.821 17.4 495.501 16.08C501.621 14.28 508.221 14.28 514.461 15.24C517.941 15.72 521.421 16.8 524.421 18.72C526.461 20.16 528.381 21.96 529.821 24C533.661 29.16 536.181 37.68 531.501 42.12C528.741 44.76 525.021 46.56 521.181 46.8C515.781 47.16 510.381 45.24 505.101 46.2C504.021 46.44 501.981 46.92 501.741 47.88C501.501 48.6 502.461 49.68 503.061 50.16C504.501 51.24 512.061 54.96 513.621 55.8C519.141 58.56 524.781 61.8 528.621 66.6C531.021 69.72 532.581 73.8 532.821 77.76C533.061 81.24 532.221 84.72 530.781 87.96C528.621 92.64 524.541 96.72 519.981 99C514.701 101.52 508.821 102.6 503.061 102.96Z" fill="black"/>
</svg>
