<svg width="272" height="51" viewBox="0 0 272 51" fill="none" xmlns="http://www.w3.org/2000/svg">
<mask id="path-1-outside-1_2028_7" maskUnits="userSpaceOnUse" x="-1" y="3" width="274" height="42" fill="black">
<rect fill="white" x="-1" y="3" width="274" height="42"/>
<path d="M20.6573 38.472C19.5793 40.579 17.4723 41.853 15.1693 41.853C13.5523 41.804 11.8863 40.922 10.8083 39.697C9.7793 38.472 9.1423 36.953 8.7013 35.483C8.1623 33.474 7.9173 31.367 7.9663 29.26C8.0643 25.781 8.5543 22.302 9.1423 18.872C8.0153 18.872 6.8393 18.774 5.8103 18.382C4.6343 17.941 3.6053 17.206 2.7723 16.324C0.910301 14.364 1.2043 10.64 2.8703 8.533C3.6053 7.602 4.6343 6.916 5.7123 6.524C6.3983 6.328 7.0843 6.23 7.7703 6.23C9.5343 6.132 11.2983 6.279 13.0623 6.279C13.4543 6.279 13.8463 6.23 14.2383 6.23C14.2873 6.23 14.4833 6.328 14.5323 6.328C16.5903 6.23 18.6483 6.083 20.7063 6.083C22.0293 6.132 23.3523 6.328 24.4793 6.916C26.8803 8.239 28.1053 11.032 27.5663 13.629C27.2233 15.197 25.9983 16.569 24.6753 17.353C23.6463 17.941 22.3723 18.235 21.1473 18.235C21.5393 23.037 22.3233 27.79 22.1273 32.592C22.0293 34.601 21.5883 36.659 20.6573 38.472ZM49.5998 42.098C46.4148 42.245 43.2298 42.245 40.0938 41.706C38.0848 41.363 36.0758 40.579 34.5568 39.256C32.2538 37.247 30.7348 34.16 30.2938 31.073C29.7548 27.839 29.9018 24.458 30.3918 21.175C30.7838 18.235 31.4208 15.295 32.7438 12.649C33.5768 11.081 34.7038 9.611 36.0268 8.386C36.8108 7.651 37.6928 7.014 38.7218 6.671C39.8488 6.23 41.1228 6.279 42.2988 6.034C44.1608 5.691 46.0718 5.691 47.9338 5.593C50.8738 5.397 54.0098 5.495 56.6068 6.818C57.2438 7.161 57.8318 7.7 58.2728 8.337C58.7628 9.121 59.0078 10.052 59.0568 11.032C59.2528 13.972 57.2928 16.863 54.3528 16.814C53.5198 16.814 52.6378 16.618 51.8538 16.373C50.3348 15.981 48.8158 15.491 47.2478 15.295C45.9738 15.197 44.5528 15.344 43.5238 16.128C43.0828 16.471 42.7398 17.059 42.7398 17.647C42.7888 18.137 43.3278 18.137 43.8178 18.088C45.3368 17.892 46.7578 17.353 48.2768 17.206C49.2078 17.108 50.1878 17.059 51.0698 17.353C51.8538 17.696 52.5888 18.333 52.9318 19.117C53.3728 20.195 53.5198 21.371 53.4218 22.498C53.3728 23.576 53.0788 24.752 52.3928 25.585C51.9518 26.173 51.3638 26.614 50.6778 26.908C49.9428 27.202 49.1588 27.251 48.3258 27.3C47.1008 27.349 43.5728 26.81 42.6908 27.692C41.7598 28.574 42.9848 29.946 44.2588 30.24C45.5328 30.485 46.9048 30.142 48.1788 29.848C50.0408 29.456 52.0008 28.966 53.8628 29.309C55.3328 29.505 56.8518 30.338 57.6358 31.514C58.2728 32.494 58.4198 33.817 58.1748 34.944C57.7338 37.1 56.5578 39.305 54.8428 40.677C53.4218 41.804 51.4128 42.049 49.5998 42.098ZM81.0199 41.902C79.3539 41.951 77.6389 42.098 75.9729 41.951C74.6989 41.804 73.4249 41.853 72.1999 41.657C70.7789 41.412 69.3579 40.873 68.1819 40.089C66.4179 38.913 65.0459 37.149 64.2619 35.189C62.9389 32.102 62.5469 28.623 62.4489 25.242C62.3509 22.4 62.4489 19.558 62.7919 16.716C62.9879 14.756 63.5269 12.698 64.5559 10.983C65.4379 9.464 66.8589 8.092 68.4759 7.406C69.6029 6.867 70.9749 6.671 72.1999 6.916C73.3269 7.112 74.4539 7.749 75.2379 8.582C76.4139 9.758 77.1979 11.424 77.4919 13.09C77.8349 14.952 77.5899 16.961 77.2469 18.823C76.7079 21.42 75.9239 23.968 75.5809 26.614C75.4339 27.447 75.3359 29.456 75.8259 30.093C76.2669 30.583 77.3939 30.387 78.0309 30.191C79.8929 29.603 81.8039 28.77 83.7149 28.819C85.1359 28.868 86.3609 29.407 87.2919 30.436C89.7909 33.327 89.6929 37.737 86.6059 39.991C84.9889 41.118 82.9799 41.853 81.0199 41.902ZM110.85 42.098C107.665 42.245 104.48 42.245 101.344 41.706C99.3348 41.363 97.3258 40.579 95.8068 39.256C93.5038 37.247 91.9848 34.16 91.5438 31.073C91.0048 27.839 91.1518 24.458 91.6418 21.175C92.0338 18.235 92.6708 15.295 93.9938 12.649C94.8268 11.081 95.9538 9.611 97.2768 8.386C98.0608 7.651 98.9428 7.014 99.9718 6.671C101.099 6.23 102.373 6.279 103.549 6.034C105.411 5.691 107.322 5.691 109.184 5.593C112.124 5.397 115.26 5.495 117.857 6.818C118.494 7.161 119.082 7.7 119.523 8.337C120.013 9.121 120.258 10.052 120.307 11.032C120.503 13.972 118.543 16.863 115.603 16.814C114.77 16.814 113.888 16.618 113.104 16.373C111.585 15.981 110.066 15.491 108.498 15.295C107.224 15.197 105.803 15.344 104.774 16.128C104.333 16.471 103.99 17.059 103.99 17.647C104.039 18.137 104.578 18.137 105.068 18.088C106.587 17.892 108.008 17.353 109.527 17.206C110.458 17.108 111.438 17.059 112.32 17.353C113.104 17.696 113.839 18.333 114.182 19.117C114.623 20.195 114.77 21.371 114.672 22.498C114.623 23.576 114.329 24.752 113.643 25.585C113.202 26.173 112.614 26.614 111.928 26.908C111.193 27.202 110.409 27.251 109.576 27.3C108.351 27.349 104.823 26.81 103.941 27.692C103.01 28.574 104.235 29.946 105.509 30.24C106.783 30.485 108.155 30.142 109.429 29.848C111.291 29.456 113.251 28.966 115.113 29.309C116.583 29.505 118.102 30.338 118.886 31.514C119.523 32.494 119.67 33.817 119.425 34.944C118.984 37.1 117.808 39.305 116.093 40.677C114.672 41.804 112.663 42.049 110.85 42.098ZM150.557 42.147C148.401 43.274 145.461 42.686 144.04 40.873C143.501 40.236 143.207 39.403 142.962 38.619C142.178 39.501 141.247 40.334 140.169 40.971C138.846 41.706 137.376 42.196 135.857 42.294C134.338 42.392 132.77 42.049 131.398 41.51C129.291 40.628 127.233 39.256 125.861 37.443C124.293 35.287 123.46 32.592 123.166 29.946C122.823 27.055 123.117 24.066 123.656 21.224C124.195 18.186 125.273 15.197 126.988 12.649C127.968 11.228 129.242 9.905 130.663 8.925C132.378 7.749 134.24 6.671 136.2 6.132C137.376 5.789 138.601 5.74 139.826 5.691C141.982 5.593 144.236 5.838 146.196 6.769C146.98 7.112 147.715 7.798 148.156 8.533C148.891 9.905 149.136 11.62 148.793 13.09C148.156 16.275 145.167 18.578 142.08 17.598C141.639 17.451 141.296 17.157 140.953 16.814C140.708 16.716 139.385 16.324 139.042 16.324C138.601 16.275 138.111 16.422 137.67 16.569C135.71 17.157 134.044 18.872 133.309 20.783C132.574 22.596 132.378 24.752 132.672 26.712C132.819 27.79 133.358 28.917 134.142 29.701C135.318 30.779 137.915 31.514 139.336 30.73C139.973 30.387 140.463 29.701 140.708 28.966C140.757 28.819 140.855 28.623 140.708 28.574C140.463 28.476 139.385 28.329 139.14 28.28C138.307 28.182 137.376 28.035 136.641 27.594C136.102 27.3 135.612 26.712 135.367 26.124C135.024 25.34 134.975 24.458 135.171 23.674C135.367 22.792 135.857 22.008 136.494 21.371C137.768 20.146 139.679 19.509 141.443 19.46C143.55 19.411 145.559 20.195 147.617 20.391C148.94 20.538 150.459 20.636 151.537 21.42C152.713 22.302 153.35 23.968 153.448 25.438C153.546 27.006 152.958 28.525 152.517 29.995C152.076 31.514 151.782 33.082 151.733 34.65C151.733 35.924 151.978 37.149 152.125 38.374C152.174 39.158 152.223 39.942 151.929 40.677C151.635 41.314 151.194 41.804 150.557 42.147ZM167.348 41.755C165.829 42.343 163.918 42.294 162.399 41.608C160.782 40.873 159.459 39.452 158.577 37.982C157.303 35.826 156.911 33.131 156.764 30.632C156.617 27.398 156.862 24.115 157.303 20.881C157.646 18.039 158.136 15.246 158.969 12.551C159.067 12.306 159.312 11.424 159.557 11.228C159.9 10.346 160.586 9.562 161.37 8.925C162.742 7.798 164.359 6.916 166.074 6.524C169.308 5.838 172.738 5.74 175.972 6.377C179.5 7.063 183.224 8.729 185.527 11.571C186.605 12.894 187.389 14.511 187.683 16.177C187.977 18.039 187.585 20.048 186.703 21.665C186.115 22.841 185.282 23.968 184.253 24.85C183.273 25.732 182.097 26.369 180.97 27.006C182.783 28.672 185.037 29.652 187.095 30.975C187.928 31.514 188.663 32.298 189.104 33.229C190.329 35.826 188.957 39.256 186.409 40.628C185.38 41.216 184.008 41.363 182.832 41.216C181.215 41.02 179.696 40.236 178.324 39.354C175.286 37.296 173.081 34.111 171.17 31.024C171.562 33.033 171.611 35.189 171.121 37.149C170.778 38.374 170.239 39.55 169.357 40.432C168.818 41.02 168.132 41.461 167.348 41.755ZM172.493 21.763C173.816 22.302 175.923 21.665 176.805 20.538C177.246 19.95 177.442 19.117 177.295 18.431C177.05 17.206 175.923 16.226 174.845 15.687C174.257 15.442 173.571 15.246 172.934 15.393C171.219 15.883 170.533 18.382 170.729 20.195C171.17 20.832 171.758 21.469 172.493 21.763ZM199.851 41.265C199.018 41.804 198.038 42.049 197.107 42.049C196.078 42.098 195 41.804 194.216 41.167C192.991 40.187 192.256 38.57 192.06 37.051C191.668 34.013 192.354 30.877 193.089 27.937C194.559 22.351 197.058 16.912 200.439 12.257C201.566 10.689 202.987 9.219 204.506 7.945C205.192 7.406 206.025 6.867 206.907 6.671C208.23 6.377 209.602 6.328 210.925 6.573C212.983 6.916 214.943 7.994 216.462 9.366C218.716 11.522 220.333 14.315 221.754 17.108C223.126 19.852 224.106 22.841 224.841 25.879C225.478 28.819 225.87 31.906 225.527 34.895C225.233 37.149 223.812 39.55 221.852 40.775C220.039 41.853 217.687 42.245 215.678 41.755C214.894 41.559 214.11 41.167 213.522 40.628C212.689 39.893 212.101 38.864 211.66 37.835C210.827 35.973 210.386 33.964 210.239 31.955C208.426 32.102 206.613 32.2 204.8 32.151C204.163 34.111 203.575 36.12 202.595 37.933C201.958 39.207 201.076 40.481 199.851 41.265ZM207.887 17.745C206.417 19.558 205.682 21.861 205.29 24.164C205.976 24.115 209.749 23.723 210.386 23.625C210.239 22.449 210.19 21.224 210.043 20.048C209.945 19.068 209.7 18.088 209.259 17.255C209.161 17.059 208.818 17.059 208.622 17.108C208.328 17.206 208.083 17.5 207.887 17.745ZM233.382 42.49C230.883 42.931 229.266 40.285 228.776 37.835C228.531 36.512 228.433 35.189 228.482 33.866C228.678 29.848 229.462 25.83 230.442 21.91C230.883 19.999 231.373 18.137 232.01 16.275C232.353 15.197 234.215 10.052 234.803 9.072C234.852 8.974 235.048 8.925 235.097 8.827C235.538 8.239 236.028 7.651 236.616 7.21C237.694 6.426 239.066 5.936 240.389 5.887C240.585 5.887 241.222 5.789 241.369 5.887C241.467 5.985 242.055 6.034 242.202 6.083C242.692 6.23 243.182 6.573 243.574 6.916C244.211 7.602 244.652 8.484 245.093 9.366C246.122 11.522 246.857 13.776 247.494 16.079C248.18 18.382 248.768 20.685 249.356 22.988C249.454 22.743 250.091 21.224 250.238 20.979C251.757 17.402 253.472 13.923 255.53 10.64C256.951 8.386 260.136 5.985 262.635 6.916C266.31 8.19 267.731 16.324 268.417 20.146C268.564 21.028 269.544 26.418 269.691 27.3C270.181 30.142 270.524 33.033 270.23 35.875C270.083 37.688 269.495 39.697 268.172 41.02C267.29 41.853 265.722 42.294 264.546 41.902C263.37 41.461 262.39 40.383 261.802 39.256C259.891 35.728 258.911 31.661 257.882 27.741C257.196 29.407 256.461 31.024 255.677 32.641C254.746 34.552 253.717 36.414 252.296 37.982C251.659 38.619 250.875 39.158 249.993 39.354C249.356 39.501 248.67 39.403 248.033 39.158C247.151 38.717 246.318 37.982 245.73 37.149C243.868 34.503 242.839 31.318 241.761 28.231C240.928 30.975 240.095 33.768 239.017 36.414C238.135 38.521 236.714 40.53 234.852 41.804C234.411 42.147 233.921 42.392 233.382 42.49Z"/>
</mask>
<path d="M20.6573 38.472C19.5793 40.579 17.4723 41.853 15.1693 41.853C13.5523 41.804 11.8863 40.922 10.8083 39.697C9.7793 38.472 9.1423 36.953 8.7013 35.483C8.1623 33.474 7.9173 31.367 7.9663 29.26C8.0643 25.781 8.5543 22.302 9.1423 18.872C8.0153 18.872 6.8393 18.774 5.8103 18.382C4.6343 17.941 3.6053 17.206 2.7723 16.324C0.910301 14.364 1.2043 10.64 2.8703 8.533C3.6053 7.602 4.6343 6.916 5.7123 6.524C6.3983 6.328 7.0843 6.23 7.7703 6.23C9.5343 6.132 11.2983 6.279 13.0623 6.279C13.4543 6.279 13.8463 6.23 14.2383 6.23C14.2873 6.23 14.4833 6.328 14.5323 6.328C16.5903 6.23 18.6483 6.083 20.7063 6.083C22.0293 6.132 23.3523 6.328 24.4793 6.916C26.8803 8.239 28.1053 11.032 27.5663 13.629C27.2233 15.197 25.9983 16.569 24.6753 17.353C23.6463 17.941 22.3723 18.235 21.1473 18.235C21.5393 23.037 22.3233 27.79 22.1273 32.592C22.0293 34.601 21.5883 36.659 20.6573 38.472ZM49.5998 42.098C46.4148 42.245 43.2298 42.245 40.0938 41.706C38.0848 41.363 36.0758 40.579 34.5568 39.256C32.2538 37.247 30.7348 34.16 30.2938 31.073C29.7548 27.839 29.9018 24.458 30.3918 21.175C30.7838 18.235 31.4208 15.295 32.7438 12.649C33.5768 11.081 34.7038 9.611 36.0268 8.386C36.8108 7.651 37.6928 7.014 38.7218 6.671C39.8488 6.23 41.1228 6.279 42.2988 6.034C44.1608 5.691 46.0718 5.691 47.9338 5.593C50.8738 5.397 54.0098 5.495 56.6068 6.818C57.2438 7.161 57.8318 7.7 58.2728 8.337C58.7628 9.121 59.0078 10.052 59.0568 11.032C59.2528 13.972 57.2928 16.863 54.3528 16.814C53.5198 16.814 52.6378 16.618 51.8538 16.373C50.3348 15.981 48.8158 15.491 47.2478 15.295C45.9738 15.197 44.5528 15.344 43.5238 16.128C43.0828 16.471 42.7398 17.059 42.7398 17.647C42.7888 18.137 43.3278 18.137 43.8178 18.088C45.3368 17.892 46.7578 17.353 48.2768 17.206C49.2078 17.108 50.1878 17.059 51.0698 17.353C51.8538 17.696 52.5888 18.333 52.9318 19.117C53.3728 20.195 53.5198 21.371 53.4218 22.498C53.3728 23.576 53.0788 24.752 52.3928 25.585C51.9518 26.173 51.3638 26.614 50.6778 26.908C49.9428 27.202 49.1588 27.251 48.3258 27.3C47.1008 27.349 43.5728 26.81 42.6908 27.692C41.7598 28.574 42.9848 29.946 44.2588 30.24C45.5328 30.485 46.9048 30.142 48.1788 29.848C50.0408 29.456 52.0008 28.966 53.8628 29.309C55.3328 29.505 56.8518 30.338 57.6358 31.514C58.2728 32.494 58.4198 33.817 58.1748 34.944C57.7338 37.1 56.5578 39.305 54.8428 40.677C53.4218 41.804 51.4128 42.049 49.5998 42.098ZM81.0199 41.902C79.3539 41.951 77.6389 42.098 75.9729 41.951C74.6989 41.804 73.4249 41.853 72.1999 41.657C70.7789 41.412 69.3579 40.873 68.1819 40.089C66.4179 38.913 65.0459 37.149 64.2619 35.189C62.9389 32.102 62.5469 28.623 62.4489 25.242C62.3509 22.4 62.4489 19.558 62.7919 16.716C62.9879 14.756 63.5269 12.698 64.5559 10.983C65.4379 9.464 66.8589 8.092 68.4759 7.406C69.6029 6.867 70.9749 6.671 72.1999 6.916C73.3269 7.112 74.4539 7.749 75.2379 8.582C76.4139 9.758 77.1979 11.424 77.4919 13.09C77.8349 14.952 77.5899 16.961 77.2469 18.823C76.7079 21.42 75.9239 23.968 75.5809 26.614C75.4339 27.447 75.3359 29.456 75.8259 30.093C76.2669 30.583 77.3939 30.387 78.0309 30.191C79.8929 29.603 81.8039 28.77 83.7149 28.819C85.1359 28.868 86.3609 29.407 87.2919 30.436C89.7909 33.327 89.6929 37.737 86.6059 39.991C84.9889 41.118 82.9799 41.853 81.0199 41.902ZM110.85 42.098C107.665 42.245 104.48 42.245 101.344 41.706C99.3348 41.363 97.3258 40.579 95.8068 39.256C93.5038 37.247 91.9848 34.16 91.5438 31.073C91.0048 27.839 91.1518 24.458 91.6418 21.175C92.0338 18.235 92.6708 15.295 93.9938 12.649C94.8268 11.081 95.9538 9.611 97.2768 8.386C98.0608 7.651 98.9428 7.014 99.9718 6.671C101.099 6.23 102.373 6.279 103.549 6.034C105.411 5.691 107.322 5.691 109.184 5.593C112.124 5.397 115.26 5.495 117.857 6.818C118.494 7.161 119.082 7.7 119.523 8.337C120.013 9.121 120.258 10.052 120.307 11.032C120.503 13.972 118.543 16.863 115.603 16.814C114.77 16.814 113.888 16.618 113.104 16.373C111.585 15.981 110.066 15.491 108.498 15.295C107.224 15.197 105.803 15.344 104.774 16.128C104.333 16.471 103.99 17.059 103.99 17.647C104.039 18.137 104.578 18.137 105.068 18.088C106.587 17.892 108.008 17.353 109.527 17.206C110.458 17.108 111.438 17.059 112.32 17.353C113.104 17.696 113.839 18.333 114.182 19.117C114.623 20.195 114.77 21.371 114.672 22.498C114.623 23.576 114.329 24.752 113.643 25.585C113.202 26.173 112.614 26.614 111.928 26.908C111.193 27.202 110.409 27.251 109.576 27.3C108.351 27.349 104.823 26.81 103.941 27.692C103.01 28.574 104.235 29.946 105.509 30.24C106.783 30.485 108.155 30.142 109.429 29.848C111.291 29.456 113.251 28.966 115.113 29.309C116.583 29.505 118.102 30.338 118.886 31.514C119.523 32.494 119.67 33.817 119.425 34.944C118.984 37.1 117.808 39.305 116.093 40.677C114.672 41.804 112.663 42.049 110.85 42.098ZM150.557 42.147C148.401 43.274 145.461 42.686 144.04 40.873C143.501 40.236 143.207 39.403 142.962 38.619C142.178 39.501 141.247 40.334 140.169 40.971C138.846 41.706 137.376 42.196 135.857 42.294C134.338 42.392 132.77 42.049 131.398 41.51C129.291 40.628 127.233 39.256 125.861 37.443C124.293 35.287 123.46 32.592 123.166 29.946C122.823 27.055 123.117 24.066 123.656 21.224C124.195 18.186 125.273 15.197 126.988 12.649C127.968 11.228 129.242 9.905 130.663 8.925C132.378 7.749 134.24 6.671 136.2 6.132C137.376 5.789 138.601 5.74 139.826 5.691C141.982 5.593 144.236 5.838 146.196 6.769C146.98 7.112 147.715 7.798 148.156 8.533C148.891 9.905 149.136 11.62 148.793 13.09C148.156 16.275 145.167 18.578 142.08 17.598C141.639 17.451 141.296 17.157 140.953 16.814C140.708 16.716 139.385 16.324 139.042 16.324C138.601 16.275 138.111 16.422 137.67 16.569C135.71 17.157 134.044 18.872 133.309 20.783C132.574 22.596 132.378 24.752 132.672 26.712C132.819 27.79 133.358 28.917 134.142 29.701C135.318 30.779 137.915 31.514 139.336 30.73C139.973 30.387 140.463 29.701 140.708 28.966C140.757 28.819 140.855 28.623 140.708 28.574C140.463 28.476 139.385 28.329 139.14 28.28C138.307 28.182 137.376 28.035 136.641 27.594C136.102 27.3 135.612 26.712 135.367 26.124C135.024 25.34 134.975 24.458 135.171 23.674C135.367 22.792 135.857 22.008 136.494 21.371C137.768 20.146 139.679 19.509 141.443 19.46C143.55 19.411 145.559 20.195 147.617 20.391C148.94 20.538 150.459 20.636 151.537 21.42C152.713 22.302 153.35 23.968 153.448 25.438C153.546 27.006 152.958 28.525 152.517 29.995C152.076 31.514 151.782 33.082 151.733 34.65C151.733 35.924 151.978 37.149 152.125 38.374C152.174 39.158 152.223 39.942 151.929 40.677C151.635 41.314 151.194 41.804 150.557 42.147ZM167.348 41.755C165.829 42.343 163.918 42.294 162.399 41.608C160.782 40.873 159.459 39.452 158.577 37.982C157.303 35.826 156.911 33.131 156.764 30.632C156.617 27.398 156.862 24.115 157.303 20.881C157.646 18.039 158.136 15.246 158.969 12.551C159.067 12.306 159.312 11.424 159.557 11.228C159.9 10.346 160.586 9.562 161.37 8.925C162.742 7.798 164.359 6.916 166.074 6.524C169.308 5.838 172.738 5.74 175.972 6.377C179.5 7.063 183.224 8.729 185.527 11.571C186.605 12.894 187.389 14.511 187.683 16.177C187.977 18.039 187.585 20.048 186.703 21.665C186.115 22.841 185.282 23.968 184.253 24.85C183.273 25.732 182.097 26.369 180.97 27.006C182.783 28.672 185.037 29.652 187.095 30.975C187.928 31.514 188.663 32.298 189.104 33.229C190.329 35.826 188.957 39.256 186.409 40.628C185.38 41.216 184.008 41.363 182.832 41.216C181.215 41.02 179.696 40.236 178.324 39.354C175.286 37.296 173.081 34.111 171.17 31.024C171.562 33.033 171.611 35.189 171.121 37.149C170.778 38.374 170.239 39.55 169.357 40.432C168.818 41.02 168.132 41.461 167.348 41.755ZM172.493 21.763C173.816 22.302 175.923 21.665 176.805 20.538C177.246 19.95 177.442 19.117 177.295 18.431C177.05 17.206 175.923 16.226 174.845 15.687C174.257 15.442 173.571 15.246 172.934 15.393C171.219 15.883 170.533 18.382 170.729 20.195C171.17 20.832 171.758 21.469 172.493 21.763ZM199.851 41.265C199.018 41.804 198.038 42.049 197.107 42.049C196.078 42.098 195 41.804 194.216 41.167C192.991 40.187 192.256 38.57 192.06 37.051C191.668 34.013 192.354 30.877 193.089 27.937C194.559 22.351 197.058 16.912 200.439 12.257C201.566 10.689 202.987 9.219 204.506 7.945C205.192 7.406 206.025 6.867 206.907 6.671C208.23 6.377 209.602 6.328 210.925 6.573C212.983 6.916 214.943 7.994 216.462 9.366C218.716 11.522 220.333 14.315 221.754 17.108C223.126 19.852 224.106 22.841 224.841 25.879C225.478 28.819 225.87 31.906 225.527 34.895C225.233 37.149 223.812 39.55 221.852 40.775C220.039 41.853 217.687 42.245 215.678 41.755C214.894 41.559 214.11 41.167 213.522 40.628C212.689 39.893 212.101 38.864 211.66 37.835C210.827 35.973 210.386 33.964 210.239 31.955C208.426 32.102 206.613 32.2 204.8 32.151C204.163 34.111 203.575 36.12 202.595 37.933C201.958 39.207 201.076 40.481 199.851 41.265ZM207.887 17.745C206.417 19.558 205.682 21.861 205.29 24.164C205.976 24.115 209.749 23.723 210.386 23.625C210.239 22.449 210.19 21.224 210.043 20.048C209.945 19.068 209.7 18.088 209.259 17.255C209.161 17.059 208.818 17.059 208.622 17.108C208.328 17.206 208.083 17.5 207.887 17.745ZM233.382 42.49C230.883 42.931 229.266 40.285 228.776 37.835C228.531 36.512 228.433 35.189 228.482 33.866C228.678 29.848 229.462 25.83 230.442 21.91C230.883 19.999 231.373 18.137 232.01 16.275C232.353 15.197 234.215 10.052 234.803 9.072C234.852 8.974 235.048 8.925 235.097 8.827C235.538 8.239 236.028 7.651 236.616 7.21C237.694 6.426 239.066 5.936 240.389 5.887C240.585 5.887 241.222 5.789 241.369 5.887C241.467 5.985 242.055 6.034 242.202 6.083C242.692 6.23 243.182 6.573 243.574 6.916C244.211 7.602 244.652 8.484 245.093 9.366C246.122 11.522 246.857 13.776 247.494 16.079C248.18 18.382 248.768 20.685 249.356 22.988C249.454 22.743 250.091 21.224 250.238 20.979C251.757 17.402 253.472 13.923 255.53 10.64C256.951 8.386 260.136 5.985 262.635 6.916C266.31 8.19 267.731 16.324 268.417 20.146C268.564 21.028 269.544 26.418 269.691 27.3C270.181 30.142 270.524 33.033 270.23 35.875C270.083 37.688 269.495 39.697 268.172 41.02C267.29 41.853 265.722 42.294 264.546 41.902C263.37 41.461 262.39 40.383 261.802 39.256C259.891 35.728 258.911 31.661 257.882 27.741C257.196 29.407 256.461 31.024 255.677 32.641C254.746 34.552 253.717 36.414 252.296 37.982C251.659 38.619 250.875 39.158 249.993 39.354C249.356 39.501 248.67 39.403 248.033 39.158C247.151 38.717 246.318 37.982 245.73 37.149C243.868 34.503 242.839 31.318 241.761 28.231C240.928 30.975 240.095 33.768 239.017 36.414C238.135 38.521 236.714 40.53 234.852 41.804C234.411 42.147 233.921 42.392 233.382 42.49Z" fill="#DCDD2B"/>
<path d="M20.6573 38.472L18.8782 37.5584L18.8768 37.561L20.6573 38.472ZM15.1693 41.853L15.1087 43.8521L15.139 43.853H15.1693V41.853ZM10.8083 39.697L9.27689 40.9834L9.29168 41.001L9.30687 41.0183L10.8083 39.697ZM8.7013 35.483L6.76962 36.0013L6.77722 36.0296L6.78565 36.0577L8.7013 35.483ZM7.9663 29.26L5.96707 29.2037L5.96684 29.2135L7.9663 29.26ZM9.1423 18.872L11.1135 19.2099L11.5143 16.872H9.1423V18.872ZM5.8103 18.382L6.5223 16.513L6.51255 16.5093L5.8103 18.382ZM2.7723 16.324L4.22633 14.9507L4.2223 14.9465L2.7723 16.324ZM2.8703 8.533L4.43913 9.77347L4.44007 9.77229L2.8703 8.533ZM5.7123 6.524L5.16286 4.60095L5.09507 4.62032L5.02881 4.64441L5.7123 6.524ZM7.7703 6.23V8.23H7.82582L7.88124 8.22692L7.7703 6.23ZM14.5323 6.328V8.328H14.5799L14.6274 8.32573L14.5323 6.328ZM20.7063 6.083L20.7803 4.08437L20.7433 4.083H20.7063V6.083ZM24.4793 6.916L25.4445 5.16432L25.4246 5.15335L25.4044 5.14283L24.4793 6.916ZM27.5663 13.629L29.5201 14.0564L29.5224 14.0459L29.5246 14.0354L27.5663 13.629ZM24.6753 17.353L25.6676 19.0895L25.6813 19.0816L25.6949 19.0736L24.6753 17.353ZM21.1473 18.235V16.235H18.9774L19.1539 18.3977L21.1473 18.235ZM22.1273 32.592L24.1249 32.6894L24.1253 32.6815L24.1256 32.6736L22.1273 32.592ZM18.8768 37.561C18.1395 39.0021 16.7186 39.853 15.1693 39.853V43.853C18.226 43.853 21.0191 42.1559 22.4378 39.383L18.8768 37.561ZM15.2299 39.8539C14.2428 39.824 13.0758 39.2463 12.3097 38.3757L9.30687 41.0183C10.6968 42.5977 12.8618 43.784 15.1087 43.8521L15.2299 39.8539ZM12.3397 38.4106C11.5611 37.4836 11.0222 36.2592 10.617 34.9083L6.78565 36.0577C7.26239 37.6468 7.99755 39.4604 9.27689 40.9834L12.3397 38.4106ZM10.633 34.9647C10.145 33.1458 9.92104 31.2293 9.96576 29.3065L5.96684 29.2135C5.91356 31.5047 6.17962 33.8022 6.76962 36.0013L10.633 34.9647ZM9.96551 29.3163C10.0595 25.9788 10.5309 22.609 11.1135 19.2099L7.17106 18.5341C6.57775 21.995 6.06908 25.5832 5.96709 29.2037L9.96551 29.3163ZM9.1423 16.872C8.09678 16.872 7.2103 16.7751 6.52229 16.513L5.09831 20.251C6.4683 20.7729 7.93382 20.872 9.1423 20.872V16.872ZM6.51255 16.5093C5.6601 16.1897 4.87998 15.6429 4.22633 14.9508L1.31827 17.6972C2.33062 18.7691 3.6085 19.6923 5.10805 20.2547L6.51255 16.5093ZM4.2223 14.9465C3.76502 14.4651 3.46049 13.6283 3.49714 12.5517C3.53358 11.4813 3.90463 10.4495 4.43913 9.77347L1.30147 7.29253C0.169968 8.72354 -0.43898 10.6072 -0.500541 12.4156C-0.561889 14.2177 -0.0824162 16.2228 1.3223 17.7015L4.2223 14.9465ZM4.44007 9.77229C4.91577 9.16973 5.62005 8.68567 6.39579 8.40358L5.02881 4.64441C3.64855 5.14633 2.29483 6.03427 1.30054 7.29371L4.44007 9.77229ZM6.26174 8.44705C6.77624 8.30005 7.27746 8.23 7.7703 8.23V4.23C6.89115 4.23 6.02036 4.35595 5.16286 4.60095L6.26174 8.44705ZM7.88124 8.22692C9.60835 8.13097 11.0392 8.279 13.0623 8.279V4.279C11.5574 4.279 9.46025 4.13303 7.65936 4.23308L7.88124 8.22692ZM13.0623 8.279C13.3312 8.279 13.5896 8.2622 13.7751 8.2506C13.9816 8.2377 14.1152 8.23 14.2383 8.23V4.23C13.9694 4.23 13.711 4.2468 13.5255 4.25839C13.319 4.2713 13.1854 4.279 13.0623 4.279V8.279ZM14.2383 8.23C14.0874 8.23 13.9692 8.2124 13.9074 8.20169C13.8391 8.18983 13.7851 8.17658 13.7522 8.16789C13.6886 8.15108 13.6438 8.13531 13.6324 8.1313C13.6168 8.1258 13.6088 8.12258 13.6139 8.12456C13.6188 8.12647 13.6256 8.12917 13.6425 8.13595C13.6562 8.14142 13.68 8.15097 13.7046 8.16055C13.729 8.17005 13.7654 8.18399 13.807 8.19867C13.8444 8.21188 13.9129 8.2353 13.9968 8.25746C14.0399 8.26884 14.1031 8.2842 14.1797 8.29749C14.2498 8.30963 14.3753 8.328 14.5323 8.328V4.328C14.6832 4.328 14.8014 4.3456 14.8632 4.35631C14.9316 4.36816 14.9855 4.38142 15.0184 4.39011C15.082 4.40692 15.1268 4.42268 15.1382 4.4267C15.1538 4.43219 15.1618 4.43542 15.1567 4.43343C15.1518 4.43153 15.145 4.42883 15.1281 4.42204C15.1144 4.41658 15.0906 4.40703 15.066 4.39745C15.0416 4.38795 15.0052 4.37401 14.9637 4.35933C14.9262 4.34612 14.8577 4.3227 14.7738 4.30053C14.7307 4.28916 14.6675 4.2738 14.5909 4.26051C14.5208 4.24836 14.3953 4.23 14.2383 4.23V8.23ZM14.6274 8.32573C16.7488 8.22472 18.7118 8.083 20.7063 8.083V4.083C18.5848 4.083 16.4318 4.23528 14.4372 4.33026L14.6274 8.32573ZM20.6323 8.08163C21.8429 8.12647 22.8161 8.30408 23.5542 8.68917L25.4044 5.14283C23.8885 4.35191 22.2157 4.13753 20.7803 4.08437L20.6323 8.08163ZM23.5141 8.66768C25.1308 9.55849 25.9723 11.4673 25.608 13.2226L29.5246 14.0354C30.2383 10.5967 28.6298 6.91951 25.4445 5.16432L23.5141 8.66768ZM25.6125 13.2016C25.4194 14.0843 24.6443 15.0466 23.6557 15.6324L25.6949 19.0736C27.3523 18.0914 29.0272 16.3097 29.5201 14.0564L25.6125 13.2016ZM23.683 15.6165C23.001 16.0062 22.0797 16.235 21.1473 16.235V20.235C22.6649 20.235 24.2916 19.8758 25.6676 19.0895L23.683 15.6165ZM19.1539 18.3977C19.564 23.4211 20.3184 27.869 20.129 32.5104L24.1256 32.6736C24.3282 27.711 23.5146 22.6529 23.1407 18.0723L19.1539 18.3977ZM20.1297 32.4946C20.042 34.2921 19.6493 36.0566 18.8782 37.5584L22.4364 39.3856C23.5273 37.2614 24.0166 34.9099 24.1249 32.6894L20.1297 32.4946ZM49.5998 42.098L49.5458 40.0987L49.5267 40.0992L49.5076 40.1001L49.5998 42.098ZM40.0938 41.706L40.4326 39.7349L40.4304 39.7345L40.0938 41.706ZM34.5568 39.256L33.2421 40.7631L33.2433 40.7642L34.5568 39.256ZM30.2938 31.073L32.2737 30.7902L32.2705 30.7671L32.2666 30.7442L30.2938 31.073ZM30.3918 21.175L32.3699 21.4702L32.3722 21.4548L32.3743 21.4393L30.3918 21.175ZM32.7438 12.649L30.9776 11.7107L30.966 11.7325L30.955 11.7546L32.7438 12.649ZM36.0268 8.386L37.3857 9.85355L37.3947 9.84507L36.0268 8.386ZM38.7218 6.671L39.3543 8.56837L39.4029 8.55216L39.4506 8.53348L38.7218 6.671ZM42.2988 6.034L41.9365 4.06709L41.9137 4.0713L41.8909 4.07604L42.2988 6.034ZM47.9338 5.593L48.039 7.59023L48.0529 7.5895L48.0669 7.58857L47.9338 5.593ZM56.6068 6.818L57.555 5.05706L57.535 5.04626L57.5147 5.03592L56.6068 6.818ZM58.2728 8.337L59.9688 7.277L59.944 7.23718L59.9172 7.19858L58.2728 8.337ZM59.0568 11.032L57.0593 11.1319L57.0602 11.1485L57.0613 11.165L59.0568 11.032ZM54.3528 16.814L54.3862 14.8143L54.3695 14.814H54.3528V16.814ZM51.8538 16.373L52.4504 14.464L52.4023 14.449L52.3536 14.4364L51.8538 16.373ZM47.2478 15.295L47.4959 13.3104L47.4487 13.3045L47.4012 13.3009L47.2478 15.295ZM43.5238 16.128L42.3118 14.5371L42.3038 14.5432L42.296 14.5493L43.5238 16.128ZM42.7398 17.647H40.7398V17.7468L40.7498 17.846L42.7398 17.647ZM43.8178 18.088L44.0169 20.0781L44.0454 20.0752L44.0738 20.0716L43.8178 18.088ZM48.2768 17.206L48.4695 19.1967L48.4779 19.1959L48.4862 19.195L48.2768 17.206ZM51.0698 17.353L51.8715 15.5207L51.7884 15.4843L51.7023 15.4556L51.0698 17.353ZM52.9318 19.117L54.7829 18.3597L54.7738 18.3374L54.7642 18.3154L52.9318 19.117ZM53.4218 22.498L51.4294 22.3247L51.4258 22.3659L51.4239 22.4072L53.4218 22.498ZM52.3928 25.585L50.849 24.3136L50.8201 24.3487L50.7928 24.385L52.3928 25.585ZM50.6778 26.908L51.4206 28.765L51.4433 28.7559L51.4657 28.7463L50.6778 26.908ZM48.3258 27.3L48.4058 29.2984L48.4245 29.2977L48.4433 29.2965L48.3258 27.3ZM42.6908 27.692L44.0663 29.1439L44.0859 29.1253L44.1051 29.1062L42.6908 27.692ZM44.2588 30.24L43.8091 32.1888L43.845 32.1971L43.8811 32.204L44.2588 30.24ZM48.1788 29.848L47.7668 27.8909L47.7479 27.8949L47.7291 27.8992L48.1788 29.848ZM53.8628 29.309L53.5005 31.2759L53.5493 31.2849L53.5985 31.2915L53.8628 29.309ZM57.6358 31.514L59.3127 30.424L59.3064 30.4143L59.2999 30.4046L57.6358 31.514ZM58.1748 34.944L56.2205 34.5191L56.2179 34.5312L56.2154 34.5432L58.1748 34.944ZM54.8428 40.677L56.0856 42.244L56.0922 42.2387L54.8428 40.677ZM49.5076 40.1001C46.3714 40.2449 43.3558 40.2373 40.4326 39.7349L39.7551 43.6771C43.1039 44.2527 46.4583 44.2451 49.6921 44.0959L49.5076 40.1001ZM40.4304 39.7345C38.6729 39.4345 37.0386 38.7653 35.8704 37.7478L33.2433 40.7642C35.1131 42.3927 37.4968 43.2915 39.7572 43.6775L40.4304 39.7345ZM35.8716 37.7489C33.979 36.0979 32.6568 33.4713 32.2737 30.7902L28.3139 31.3558C28.8129 34.8487 30.5287 38.3961 33.2421 40.7631L35.8716 37.7489ZM32.2666 30.7442C31.773 27.7823 31.8992 24.6243 32.3699 21.4702L28.4138 20.8798C27.9045 24.2917 27.7367 27.8957 28.3211 31.4018L32.2666 30.7442ZM32.3743 21.4393C32.7544 18.5883 33.354 15.9008 34.5327 13.5434L30.955 11.7546C29.4877 14.6892 28.8132 17.8817 28.4094 20.9107L32.3743 21.4393ZM34.5101 13.5873C35.2384 12.2164 36.2279 10.9255 37.3857 9.85352L34.668 6.91848C33.1797 8.29652 31.9153 9.94563 30.9776 11.7107L34.5101 13.5873ZM37.3947 9.84507C38.065 9.21671 38.7021 8.78577 39.3543 8.56837L38.0894 4.77363C36.6836 5.24223 35.5567 6.08528 34.659 6.92692L37.3947 9.84507ZM39.4506 8.53348C39.768 8.40932 40.1595 8.33394 40.7326 8.26447C41.2283 8.20438 42.008 8.13753 42.7067 7.99196L41.8909 4.07604C41.4136 4.17547 40.9684 4.20662 40.2513 4.29353C39.6117 4.37106 38.8027 4.49168 37.993 4.80851L39.4506 8.53348ZM42.6612 8.00091C44.3537 7.68912 46.0343 7.69574 48.039 7.59023L47.8287 3.59576C46.1093 3.68626 43.968 3.69287 41.9365 4.06709L42.6612 8.00091ZM48.0669 7.58857C50.9383 7.39714 53.6099 7.53581 55.699 8.60008L57.5147 5.03592C54.4098 3.45418 50.8094 3.39685 47.8008 3.59743L48.0669 7.58857ZM55.6586 8.57894C55.9932 8.75908 56.3506 9.07405 56.6285 9.47542L59.9172 7.19858C59.3131 6.32594 58.4945 5.56292 57.555 5.05706L55.6586 8.57894ZM56.5768 9.39699C56.8478 9.83049 57.0233 10.4119 57.0593 11.1319L61.0543 10.9321C60.9923 9.69209 60.6779 8.41151 59.9688 7.277L56.5768 9.39699ZM57.0613 11.165C57.2083 13.3705 55.7624 14.8372 54.3862 14.8143L54.3195 18.8137C58.8233 18.8888 61.2974 14.5735 61.0524 10.899L57.0613 11.165ZM54.3528 14.814C53.8053 14.814 53.141 14.6799 52.4504 14.464L51.2573 18.282C52.1347 18.5561 53.2344 18.814 54.3528 18.814V14.814ZM52.3536 14.4364C50.9904 14.0847 49.2337 13.5277 47.4959 13.3104L46.9998 17.2796C48.398 17.4543 49.6793 17.8773 51.3541 18.3096L52.3536 14.4364ZM47.4012 13.3009C45.9556 13.1897 43.9261 13.3072 42.3118 14.5371L44.7359 17.7189C45.1796 17.3808 45.9921 17.2043 47.0944 17.2891L47.4012 13.3009ZM42.296 14.5493C41.4559 15.2026 40.7398 16.3381 40.7398 17.647H44.7398C44.7398 17.6941 44.7331 17.7242 44.7299 17.7361C44.7267 17.7477 44.7253 17.7478 44.73 17.7389C44.7347 17.7302 44.7416 17.7199 44.7492 17.7108C44.757 17.7015 44.7595 17.7007 44.7517 17.7067L42.296 14.5493ZM40.7498 17.846C40.8005 18.3538 41.0024 18.8802 41.4137 19.3109C41.8025 19.7179 42.2528 19.9079 42.5872 19.9992C43.1846 20.1621 43.7789 20.1019 44.0169 20.0781L43.6188 16.0979C43.5254 16.1073 43.4799 16.1088 43.4623 16.1087C43.4374 16.1086 43.5118 16.1052 43.6397 16.1401C43.7721 16.1762 44.0478 16.2774 44.3064 16.5482C44.5875 16.8426 44.7036 17.1852 44.7299 17.448L40.7498 17.846ZM44.0738 20.0716C44.9639 19.9567 45.8146 19.7424 46.5172 19.5727C47.2592 19.3933 47.8677 19.2549 48.4695 19.1967L48.0842 15.2153C47.167 15.3041 46.3055 15.5087 45.5775 15.6846C44.8101 15.8701 44.1908 16.0233 43.5619 16.1044L44.0738 20.0716ZM48.4862 19.195C49.3994 19.0989 49.9988 19.1042 50.4374 19.2504L51.7023 15.4556C50.3768 15.0138 49.0163 15.1171 48.0675 15.217L48.4862 19.195ZM50.2682 19.1853C50.6992 19.3739 51.0009 19.6933 51.0995 19.9186L54.7642 18.3154C54.1768 16.9727 53.0085 16.0181 51.8715 15.5207L50.2682 19.1853ZM51.0807 19.8743C51.3892 20.6283 51.5027 21.4814 51.4294 22.3247L55.4143 22.6713C55.537 21.2606 55.3565 19.7617 54.7829 18.3597L51.0807 19.8743ZM51.4239 22.4072C51.3853 23.2573 51.1533 23.944 50.849 24.3136L53.9367 26.8564C55.0043 25.56 55.3604 23.8947 55.4198 22.5888L51.4239 22.4072ZM50.7928 24.385C50.5821 24.6659 50.2864 24.8998 49.89 25.0697L51.4657 28.7463C52.4413 28.3282 53.3215 27.6801 53.9928 26.785L50.7928 24.385ZM49.9351 25.051C49.5506 25.2048 49.0952 25.2513 48.2084 25.3035L48.4433 29.2965C49.2225 29.2507 50.3351 29.1992 51.4206 28.765L49.9351 25.051ZM48.2459 25.3016C48.06 25.309 47.7232 25.2933 47.168 25.2612C46.663 25.232 46.0346 25.1939 45.4118 25.1839C44.7987 25.174 44.1035 25.1891 43.4615 25.2897C42.9126 25.3757 41.9731 25.5813 41.2766 26.2778L44.1051 29.1062C43.8495 29.3617 43.6818 29.3039 44.0808 29.2414C44.3866 29.1935 44.8154 29.1748 45.3476 29.1834C45.8702 29.1917 46.4087 29.224 46.9372 29.2546C47.4156 29.2822 47.9792 29.3155 48.4058 29.2984L48.2459 25.3016ZM41.3153 26.2401C40.6986 26.8244 40.3515 27.6041 40.3641 28.4506C40.3757 29.2304 40.6873 29.8814 41.0191 30.347C41.6643 31.2525 42.7174 31.9368 43.8091 32.1888L44.7086 28.2912C44.6447 28.2765 44.5467 28.2381 44.4443 28.1708C44.3395 28.1019 44.2871 28.0404 44.2768 28.0259C44.2595 28.0016 44.3597 28.1258 44.3637 28.3911C44.3658 28.5324 44.3387 28.688 44.2736 28.8383C44.2091 28.987 44.1261 29.0873 44.0663 29.1439L41.3153 26.2401ZM43.8811 32.204C45.6579 32.5457 47.4894 32.0597 48.6286 31.7968L47.7291 27.8992C46.3202 28.2243 45.4077 28.4243 44.6365 28.276L43.8811 32.204ZM48.5909 31.8051C50.6181 31.3783 52.1186 31.0213 53.5005 31.2759L54.2252 27.3421C51.8831 26.9107 49.4636 27.5337 47.7668 27.8909L48.5909 31.8051ZM53.5985 31.2915C54.6083 31.4261 55.5639 32.0116 55.9717 32.6234L59.2999 30.4046C58.1398 28.6644 56.0574 27.5839 54.1272 27.3265L53.5985 31.2915ZM55.959 32.604C56.2481 33.0489 56.3763 33.8023 56.2205 34.5191L60.1292 35.3689C60.4634 33.8317 60.2976 31.9391 59.3127 30.424L55.959 32.604ZM56.2154 34.5432C55.8489 36.3352 54.8748 38.0902 53.5935 39.1153L56.0922 42.2387C58.2409 40.5198 59.6188 37.8648 60.1343 35.3448L56.2154 34.5432ZM53.6001 39.11C52.7383 39.7934 51.3345 40.0504 49.5458 40.0987L49.6539 44.0973C51.4912 44.0476 54.1053 43.8146 56.0856 42.244L53.6001 39.11ZM81.0199 41.902L80.97 39.9026L80.9611 39.9029L81.0199 41.902ZM75.9729 41.951L75.7437 43.9378L75.7704 43.9409L75.7972 43.9433L75.9729 41.951ZM72.1999 41.657L71.8601 43.6279L71.872 43.63L71.884 43.6319L72.1999 41.657ZM68.1819 40.089L67.0725 41.7531L68.1819 40.089ZM64.2619 35.189L66.1189 34.4462L66.1098 34.4236L66.1002 34.4012L64.2619 35.189ZM62.4489 25.242L64.4481 25.1841L64.4478 25.1731L62.4489 25.242ZM62.7919 16.716L64.7775 16.9556L64.78 16.9353L64.782 16.915L62.7919 16.716ZM64.5559 10.983L66.2709 12.012L66.2783 11.9997L66.2855 11.9873L64.5559 10.983ZM68.4759 7.406L69.257 9.24716L69.2984 9.22963L69.3389 9.21027L68.4759 7.406ZM72.1999 6.916L71.8077 8.87716L71.8324 8.8821L71.8573 8.88642L72.1999 6.916ZM75.2379 8.582L73.7815 9.95273L73.8023 9.97479L73.8237 9.99621L75.2379 8.582ZM77.4919 13.09L75.5224 13.4376L75.5237 13.445L75.525 13.4523L77.4919 13.09ZM77.2469 18.823L79.2052 19.2294L79.2098 19.2074L79.2139 19.1853L77.2469 18.823ZM75.5809 26.614L77.5505 26.9616L77.5585 26.9165L77.5643 26.8711L75.5809 26.614ZM75.8259 30.093L74.2407 31.3124L74.2877 31.3736L74.3394 31.4309L75.8259 30.093ZM78.0309 30.191L78.6191 32.1026L78.6262 32.1004L78.6332 32.0982L78.0309 30.191ZM83.7149 28.819L83.7839 26.8202L83.775 26.8199L83.7662 26.8197L83.7149 28.819ZM87.2919 30.436L88.805 29.1281L88.7902 29.111L88.775 29.0942L87.2919 30.436ZM86.6059 39.991L87.7495 41.6318L87.7676 41.6192L87.7853 41.6063L86.6059 39.991ZM80.9611 39.9029C79.1407 39.9564 77.6586 40.092 76.1487 39.9587L75.7972 43.9433C77.6193 44.104 79.5671 43.9456 81.0787 43.9011L80.9611 39.9029ZM76.2022 39.9642C75.4827 39.8812 74.7642 39.8538 74.165 39.8247C73.5346 39.7941 73.0084 39.7609 72.5159 39.6821L71.884 43.6319C72.6165 43.7491 73.3398 43.7894 73.9711 43.82C74.6337 43.8522 75.1892 43.8738 75.7437 43.9378L76.2022 39.9642ZM72.5398 39.6861C71.367 39.4839 70.2134 39.0396 69.2913 38.4249L67.0725 41.7531C68.5025 42.7064 70.1909 43.3401 71.8601 43.6279L72.5398 39.6861ZM69.2913 38.4249C67.888 37.4893 66.7637 36.0583 66.1189 34.4462L62.405 35.9318C63.3282 38.2397 64.9479 40.3367 67.0725 41.7531L69.2913 38.4249ZM66.1002 34.4012C64.9259 31.661 64.5437 28.4816 64.4481 25.1841L60.4498 25.2999C60.5502 28.7644 60.952 32.543 62.4237 35.9768L66.1002 34.4012ZM64.4478 25.1731C64.3529 22.423 64.4482 19.6848 64.7775 16.9556L60.8064 16.4764C60.4497 19.4312 60.349 22.377 60.4501 25.3109L64.4478 25.1731ZM64.782 16.915C64.9582 15.1534 65.4362 13.4031 66.2709 12.012L62.841 9.95401C61.6176 11.9929 61.0177 14.3586 60.8019 16.517L64.782 16.915ZM66.2855 11.9873C66.9858 10.7812 68.0991 9.73841 69.257 9.24716L67.6948 5.56484C65.6188 6.44559 63.89 8.14682 62.8264 9.97873L66.2855 11.9873ZM69.3389 9.21027C70.0998 8.84635 71.0327 8.72217 71.8077 8.87716L72.5922 4.95484C70.9171 4.61983 69.1061 4.88765 67.613 5.60173L69.3389 9.21027ZM71.8573 8.88642C72.5275 9.00299 73.2723 9.41163 73.7815 9.95273L76.6943 7.21127C75.6356 6.08636 74.1263 5.22101 72.5426 4.94558L71.8573 8.88642ZM73.8237 9.99621C74.6662 10.8387 75.2882 12.1108 75.5224 13.4376L79.4615 12.7424C79.1077 10.7372 78.1617 8.67731 76.6522 7.16778L73.8237 9.99621ZM75.525 13.4523C75.7982 14.9353 75.6153 16.6409 75.28 18.4607L79.2139 19.1853C79.5646 17.2811 79.8717 14.9687 79.4588 12.7277L75.525 13.4523ZM75.2887 18.4166C74.8062 20.7412 73.95 23.6382 73.5975 26.3569L77.5643 26.8711C77.8979 24.2978 78.6097 22.0988 79.2052 19.2294L75.2887 18.4166ZM73.6114 26.2664C73.5128 26.8248 73.4436 27.6702 73.4653 28.4806C73.4762 28.8898 73.5116 29.3468 73.5981 29.7851C73.6743 30.1711 73.8335 30.7831 74.2407 31.3124L77.4112 28.8736C77.5734 29.0844 77.5611 29.2064 77.5224 29.0105C77.4941 28.8669 77.4713 28.6502 77.4639 28.3734C77.4488 27.8118 77.5021 27.2362 77.5505 26.9616L73.6114 26.2664ZM74.3394 31.4309C75.1899 32.376 76.3939 32.4137 76.9137 32.3984C77.5669 32.3792 78.1937 32.2334 78.6191 32.1026L77.4428 28.2794C77.3489 28.3083 77.2312 28.3388 77.1075 28.3622C76.9815 28.3861 76.8747 28.3978 76.7961 28.4001C76.7086 28.4027 76.7139 28.3918 76.7833 28.4104C76.8542 28.4293 77.0886 28.5063 77.3125 28.7551L74.3394 31.4309ZM78.6332 32.0982C79.7557 31.7437 80.4409 31.4688 81.4122 31.1868C82.276 30.936 83.005 30.8015 83.6637 30.8183L83.7662 26.8197C82.5139 26.7875 81.3319 27.045 80.2969 27.3454C79.3695 27.6147 78.1682 28.0503 77.4287 28.2838L78.6332 32.0982ZM83.646 30.8178C84.5641 30.8495 85.2656 31.1774 85.8089 31.7778L88.775 29.0942C87.4562 27.6366 85.7078 26.8865 83.7839 26.8202L83.646 30.8178ZM85.7789 31.7439C87.6653 33.9262 87.3911 36.9413 85.4266 38.3757L87.7853 41.6063C91.9947 38.5327 91.9166 32.7278 88.805 29.1281L85.7789 31.7439ZM85.4624 38.3502C84.1236 39.2833 82.4885 39.8647 80.97 39.9026L81.0699 43.9014C83.4714 43.8413 85.8543 42.9527 87.7495 41.6318L85.4624 38.3502ZM110.85 42.098L110.796 40.0987L110.777 40.0992L110.758 40.1001L110.85 42.098ZM101.344 41.706L101.683 39.7349L101.68 39.7345L101.344 41.706ZM95.8068 39.256L94.4921 40.7631L94.4933 40.7642L95.8068 39.256ZM91.5438 31.073L93.5237 30.7902L93.5204 30.7671L93.5166 30.7442L91.5438 31.073ZM91.6418 21.175L93.6199 21.4702L93.6222 21.4548L93.6243 21.4393L91.6418 21.175ZM93.9938 12.649L92.2276 11.7107L92.216 11.7325L92.205 11.7546L93.9938 12.649ZM97.2768 8.386L98.6357 9.85355L98.6447 9.84507L97.2768 8.386ZM99.9718 6.671L100.604 8.56837L100.653 8.55216L100.701 8.53348L99.9718 6.671ZM103.549 6.034L103.187 4.06709L103.164 4.0713L103.141 4.07604L103.549 6.034ZM109.184 5.593L109.289 7.59023L109.303 7.5895L109.317 7.58857L109.184 5.593ZM117.857 6.818L118.805 5.05706L118.785 5.04626L118.765 5.03592L117.857 6.818ZM119.523 8.337L121.219 7.277L121.194 7.23718L121.167 7.19858L119.523 8.337ZM120.307 11.032L118.309 11.1319L118.31 11.1485L118.311 11.165L120.307 11.032ZM115.603 16.814L115.636 14.8143L115.62 14.814H115.603V16.814ZM113.104 16.373L113.7 14.464L113.652 14.449L113.604 14.4364L113.104 16.373ZM108.498 15.295L108.746 13.3104L108.699 13.3045L108.651 13.3009L108.498 15.295ZM104.774 16.128L103.562 14.5371L103.554 14.5432L103.546 14.5493L104.774 16.128ZM103.99 17.647H101.99V17.7468L102 17.846L103.99 17.647ZM105.068 18.088L105.267 20.0781L105.295 20.0752L105.324 20.0716L105.068 18.088ZM109.527 17.206L109.719 19.1967L109.728 19.1959L109.736 19.195L109.527 17.206ZM112.32 17.353L113.121 15.5207L113.038 15.4843L112.952 15.4556L112.32 17.353ZM114.182 19.117L116.033 18.3597L116.024 18.3374L116.014 18.3154L114.182 19.117ZM114.672 22.498L112.679 22.3247L112.676 22.3659L112.674 22.4072L114.672 22.498ZM113.643 25.585L112.099 24.3136L112.07 24.3487L112.043 24.385L113.643 25.585ZM111.928 26.908L112.671 28.765L112.693 28.7559L112.716 28.7463L111.928 26.908ZM109.576 27.3L109.656 29.2984L109.675 29.2977L109.693 29.2965L109.576 27.3ZM103.941 27.692L105.316 29.1439L105.336 29.1253L105.355 29.1062L103.941 27.692ZM105.509 30.24L105.059 32.1888L105.095 32.1971L105.131 32.204L105.509 30.24ZM109.429 29.848L109.017 27.8909L108.998 27.8949L108.979 27.8992L109.429 29.848ZM115.113 29.309L114.751 31.2759L114.799 31.2849L114.849 31.2915L115.113 29.309ZM118.886 31.514L120.563 30.424L120.556 30.4143L120.55 30.4046L118.886 31.514ZM119.425 34.944L117.47 34.5191L117.468 34.5312L117.465 34.5432L119.425 34.944ZM116.093 40.677L117.336 42.244L117.342 42.2387L116.093 40.677ZM110.758 40.1001C107.621 40.2449 104.606 40.2373 101.683 39.7349L101.005 43.6771C104.354 44.2527 107.708 44.2451 110.942 44.0959L110.758 40.1001ZM101.68 39.7345C99.9229 39.4345 98.2886 38.7653 97.1204 37.7478L94.4933 40.7642C96.3631 42.3927 98.7468 43.2915 101.007 43.6775L101.68 39.7345ZM97.1216 37.7489C95.229 36.0979 93.9068 33.4713 93.5237 30.7902L89.5639 31.3558C90.0629 34.8487 91.7787 38.3961 94.4921 40.7631L97.1216 37.7489ZM93.5166 30.7442C93.023 27.7823 93.1492 24.6243 93.6199 21.4702L89.6637 20.8798C89.1545 24.2917 88.9867 27.8957 89.5711 31.4018L93.5166 30.7442ZM93.6243 21.4393C94.0044 18.5883 94.604 15.9008 95.7827 13.5434L92.205 11.7546C90.7377 14.6892 90.0632 17.8817 89.6594 20.9107L93.6243 21.4393ZM95.7601 13.5873C96.4884 12.2164 97.4779 10.9255 98.6357 9.85352L95.918 6.91848C94.4297 8.29652 93.1653 9.94563 92.2276 11.7107L95.7601 13.5873ZM98.6447 9.84507C99.315 9.21671 99.9521 8.78577 100.604 8.56837L99.3394 4.77363C97.9336 5.24223 96.8067 6.08528 95.909 6.92692L98.6447 9.84507ZM100.701 8.53348C101.018 8.40932 101.409 8.33394 101.983 8.26447C102.478 8.20438 103.258 8.13753 103.957 7.99196L103.141 4.07604C102.664 4.17547 102.218 4.20662 101.501 4.29353C100.862 4.37106 100.053 4.49168 99.243 4.80851L100.701 8.53348ZM103.911 8.00091C105.604 7.68912 107.284 7.69574 109.289 7.59023L109.079 3.59576C107.359 3.68626 105.218 3.69287 103.187 4.06709L103.911 8.00091ZM109.317 7.58857C112.188 7.39714 114.86 7.53581 116.949 8.60008L118.765 5.03592C115.66 3.45418 112.059 3.39685 109.051 3.59743L109.317 7.58857ZM116.909 8.57894C117.243 8.75908 117.601 9.07405 117.878 9.47542L121.167 7.19858C120.563 6.32594 119.744 5.56292 118.805 5.05706L116.909 8.57894ZM117.827 9.39699C118.098 9.83049 118.273 10.4119 118.309 11.1319L122.304 10.9321C122.242 9.69209 121.928 8.41151 121.219 7.277L117.827 9.39699ZM118.311 11.165C118.458 13.3705 117.012 14.8372 115.636 14.8143L115.57 18.8137C120.073 18.8888 122.547 14.5735 122.302 10.899L118.311 11.165ZM115.603 14.814C115.055 14.814 114.391 14.6799 113.7 14.464L112.507 18.282C113.385 18.5561 114.484 18.814 115.603 18.814V14.814ZM113.604 14.4364C112.24 14.0847 110.484 13.5277 108.746 13.3104L108.25 17.2796C109.648 17.4543 110.929 17.8773 112.604 18.3096L113.604 14.4364ZM108.651 13.3009C107.206 13.1897 105.176 13.3072 103.562 14.5371L105.986 17.7189C106.43 17.3808 107.242 17.2043 108.344 17.2891L108.651 13.3009ZM103.546 14.5493C102.706 15.2026 101.99 16.3381 101.99 17.647H105.99C105.99 17.6941 105.983 17.7242 105.98 17.7361C105.977 17.7477 105.975 17.7478 105.98 17.7389C105.985 17.7302 105.992 17.7199 105.999 17.7108C106.007 17.7015 106.009 17.7007 106.002 17.7067L103.546 14.5493ZM102 17.846C102.051 18.3538 102.252 18.8802 102.664 19.3109C103.052 19.7179 103.503 19.9079 103.837 19.9992C104.435 20.1621 105.029 20.1019 105.267 20.0781L104.869 16.0979C104.775 16.1073 104.73 16.1088 104.712 16.1087C104.687 16.1086 104.762 16.1052 104.89 16.1401C105.022 16.1762 105.298 16.2774 105.556 16.5482C105.838 16.8426 105.954 17.1852 105.98 17.448L102 17.846ZM105.324 20.0716C106.214 19.9567 107.065 19.7424 107.767 19.5727C108.509 19.3933 109.118 19.2549 109.719 19.1967L109.334 15.2153C108.417 15.3041 107.555 15.5087 106.828 15.6846C106.06 15.8701 105.441 16.0233 104.812 16.1044L105.324 20.0716ZM109.736 19.195C110.649 19.0989 111.249 19.1042 111.687 19.2504L112.952 15.4556C111.627 15.0138 110.266 15.1171 109.317 15.217L109.736 19.195ZM111.518 19.1853C111.949 19.3739 112.251 19.6933 112.35 19.9186L116.014 18.3154C115.427 16.9727 114.259 16.0181 113.121 15.5207L111.518 19.1853ZM112.331 19.8743C112.639 20.6283 112.753 21.4814 112.679 22.3247L116.664 22.6713C116.787 21.2606 116.606 19.7617 116.033 18.3597L112.331 19.8743ZM112.674 22.4072C112.635 23.2573 112.403 23.944 112.099 24.3136L115.187 26.8564C116.254 25.56 116.61 23.8947 116.67 22.5888L112.674 22.4072ZM112.043 24.385C111.832 24.6659 111.536 24.8998 111.14 25.0697L112.716 28.7463C113.691 28.3282 114.572 27.6801 115.243 26.785L112.043 24.385ZM111.185 25.051C110.801 25.2048 110.345 25.2513 109.458 25.3035L109.693 29.2965C110.473 29.2507 111.585 29.1992 112.671 28.765L111.185 25.051ZM109.496 25.3016C109.31 25.309 108.973 25.2933 108.418 25.2612C107.913 25.232 107.285 25.1939 106.662 25.1839C106.049 25.174 105.353 25.1891 104.712 25.2897C104.163 25.3757 103.223 25.5813 102.527 26.2778L105.355 29.1062C105.1 29.3617 104.932 29.3039 105.331 29.2414C105.637 29.1935 106.065 29.1748 106.598 29.1834C107.12 29.1917 107.659 29.224 108.187 29.2546C108.666 29.2822 109.229 29.3155 109.656 29.2984L109.496 25.3016ZM102.565 26.2401C101.949 26.8244 101.602 27.6041 101.614 28.4506C101.626 29.2304 101.937 29.8814 102.269 30.347C102.914 31.2525 103.967 31.9368 105.059 32.1888L105.959 28.2912C105.895 28.2765 105.797 28.2381 105.694 28.1708C105.59 28.1019 105.537 28.0404 105.527 28.0259C105.509 28.0016 105.61 28.1258 105.614 28.3911C105.616 28.5324 105.589 28.688 105.524 28.8383C105.459 28.987 105.376 29.0873 105.316 29.1439L102.565 26.2401ZM105.131 32.204C106.908 32.5457 108.739 32.0597 109.879 31.7968L108.979 27.8992C107.57 28.2243 106.658 28.4243 105.887 28.276L105.131 32.204ZM109.841 31.8051C111.868 31.3783 113.369 31.0213 114.751 31.2759L115.475 27.3421C113.133 26.9107 110.714 27.5337 109.017 27.8909L109.841 31.8051ZM114.849 31.2915C115.858 31.4261 116.814 32.0116 117.222 32.6234L120.55 30.4046C119.39 28.6644 117.307 27.5839 115.377 27.3265L114.849 31.2915ZM117.209 32.604C117.498 33.0489 117.626 33.8023 117.47 34.5191L121.379 35.3689C121.713 33.8317 121.548 31.9391 120.563 30.424L117.209 32.604ZM117.465 34.5432C117.099 36.3352 116.125 38.0902 114.843 39.1153L117.342 42.2387C119.491 40.5198 120.869 37.8648 121.384 35.3448L117.465 34.5432ZM114.85 39.11C113.988 39.7934 112.584 40.0504 110.796 40.0987L110.904 44.0973C112.741 44.0476 115.355 43.8146 117.336 42.244L114.85 39.11ZM150.557 42.147L151.483 43.9195L151.494 43.9138L151.505 43.9079L150.557 42.147ZM144.04 40.873L145.614 39.6392L145.591 39.6097L145.566 39.5811L144.04 40.873ZM142.962 38.619L144.871 38.0224L143.816 34.6475L141.467 37.2903L142.962 38.619ZM140.169 40.971L141.14 42.7193L141.163 42.7064L141.186 42.6929L140.169 40.971ZM135.857 42.294L135.728 40.2981L135.857 42.294ZM131.398 41.51L130.625 43.3549L130.646 43.3634L130.666 43.3715L131.398 41.51ZM125.861 37.443L124.243 38.6193L124.254 38.6347L124.266 38.6499L125.861 37.443ZM123.166 29.946L125.153 29.7251L125.153 29.7177L125.152 29.7104L123.166 29.946ZM123.656 21.224L125.621 21.5967L125.623 21.585L125.625 21.5734L123.656 21.224ZM126.988 12.649L125.341 11.5135L125.335 11.5229L125.329 11.5322L126.988 12.649ZM130.663 8.925L129.532 7.27554L129.527 7.27857L130.663 8.925ZM136.2 6.132L136.73 8.06041L136.745 8.05632L136.76 8.052L136.2 6.132ZM139.826 5.691L139.906 7.68943L139.917 7.68893L139.826 5.691ZM146.196 6.769L145.338 8.57555L145.366 8.58887L145.394 8.60131L146.196 6.769ZM148.156 8.533L149.919 7.58856L149.896 7.5457L149.871 7.50401L148.156 8.533ZM148.793 13.09L146.845 12.6355L146.838 12.6665L146.832 12.6978L148.793 13.09ZM142.08 17.598L141.447 19.4954L141.461 19.4999L141.475 19.5042L142.08 17.598ZM140.953 16.814L142.367 15.3998L142.077 15.1095L141.695 14.957L140.953 16.814ZM139.042 16.324L138.821 18.3118L138.931 18.324H139.042V16.324ZM137.67 16.569L138.244 18.4846L138.273 18.4759L138.302 18.4664L137.67 16.569ZM133.309 20.783L135.162 21.5344L135.169 21.5177L135.175 21.501L133.309 20.783ZM132.672 26.712L134.653 26.4418L134.652 26.4285L134.65 26.4153L132.672 26.712ZM134.142 29.701L132.727 31.1152L132.758 31.1459L132.79 31.1753L134.142 29.701ZM139.336 30.73L138.387 28.9691L138.378 28.9739L138.37 28.9788L139.336 30.73ZM140.708 28.966L138.81 28.3335V28.3335L140.708 28.966ZM140.708 28.574L139.965 30.431L140.019 30.4528L140.075 30.4714L140.708 28.574ZM139.14 28.28L139.532 26.3188L139.453 26.3031L139.373 26.2937L139.14 28.28ZM136.641 27.594L137.67 25.879L137.634 25.8579L137.598 25.8382L136.641 27.594ZM135.367 26.124L137.213 25.3548L137.206 25.3385L137.199 25.3224L135.367 26.124ZM135.171 23.674L137.111 24.1591L137.117 24.1335L137.123 24.1079L135.171 23.674ZM136.494 21.371L135.107 19.9293L135.093 19.9429L135.079 19.9568L136.494 21.371ZM141.443 19.46L141.396 17.4605L141.387 17.4608L141.443 19.46ZM147.617 20.391L147.838 18.4032L147.822 18.4015L147.806 18.4L147.617 20.391ZM151.537 21.42L152.737 19.82L152.725 19.8112L152.713 19.8025L151.537 21.42ZM153.448 25.438L155.444 25.3132L155.443 25.305L153.448 25.438ZM152.517 29.995L150.601 29.4203L150.598 29.4288L150.596 29.4374L152.517 29.995ZM151.733 34.65L149.734 34.5875L149.733 34.6188V34.65H151.733ZM152.125 38.374L154.121 38.2492L154.117 38.1923L154.11 38.1357L152.125 38.374ZM151.929 40.677L153.745 41.5151L153.766 41.468L153.786 41.4198L151.929 40.677ZM149.63 40.3745C148.273 41.0838 146.402 40.6454 145.614 39.6392L142.466 42.1068C144.519 44.7266 148.528 45.4642 151.483 43.9195L149.63 40.3745ZM145.566 39.5811C145.317 39.2865 145.119 38.8159 144.871 38.0224L141.053 39.2156C141.295 39.9901 141.684 41.1855 142.513 42.1649L145.566 39.5811ZM141.467 37.2903C140.785 38.057 140.01 38.7417 139.151 39.2491L141.186 42.6929C142.483 41.9263 143.57 40.945 144.456 39.9477L141.467 37.2903ZM139.197 39.2227C138.088 39.8387 136.904 40.2223 135.728 40.2981L135.985 44.2899C137.848 44.1697 139.603 43.5732 141.14 42.7193L139.197 39.2227ZM135.728 40.2981C134.578 40.3723 133.309 40.112 132.129 39.6485L130.666 43.3715C132.231 43.986 134.097 44.4117 135.985 44.2899L135.728 40.2981ZM132.17 39.6651C130.284 38.8758 128.555 37.6893 127.455 36.2361L124.266 38.6499C125.91 40.8227 128.297 42.3802 130.625 43.3549L132.17 39.6651ZM127.478 36.2667C126.17 34.4674 125.421 32.1328 125.153 29.7251L121.178 30.1669C121.498 33.0512 122.416 36.1066 124.243 38.6193L127.478 36.2667ZM125.152 29.7104C124.842 27.0992 125.102 24.3324 125.621 21.5967L121.691 20.8513C121.132 23.7996 120.803 27.0108 121.18 30.1816L125.152 29.7104ZM125.625 21.5734C126.125 18.7547 127.116 16.04 128.647 13.7658L125.329 11.5322C123.429 14.354 122.264 17.6173 121.686 20.8746L125.625 21.5734ZM128.634 13.7845C129.492 12.5409 130.598 11.3989 131.798 10.5714L129.527 7.27857C127.885 8.41114 126.444 9.91507 125.341 11.5135L128.634 13.7845ZM131.794 10.5745C133.446 9.4417 135.09 8.51134 136.73 8.06041L135.669 4.20359C133.389 4.83066 131.31 6.0563 129.532 7.27554L131.794 10.5745ZM136.76 8.052C137.661 7.78909 138.638 7.74011 139.906 7.6894L139.746 3.6926C138.563 3.73989 137.09 3.78891 135.64 4.212L136.76 8.052ZM139.917 7.68893C141.886 7.59942 143.779 7.83507 145.338 8.57555L147.054 4.96244C144.693 3.84093 142.078 3.58657 139.735 3.69306L139.917 7.68893ZM145.394 8.60131C145.757 8.75991 146.189 9.14267 146.441 9.56199L149.871 7.50401C149.24 6.45333 148.203 5.46409 146.997 4.93668L145.394 8.60131ZM146.393 9.47744C146.91 10.4425 147.072 11.6619 146.845 12.6355L150.74 13.5445C151.199 11.5781 150.872 9.36754 149.919 7.58856L146.393 9.47744ZM146.832 12.6978C146.364 15.035 144.346 16.2191 142.685 15.6918L141.475 19.5042C145.987 20.9369 149.947 17.515 150.754 13.4822L146.832 12.6978ZM142.712 15.7006C142.729 15.7063 142.717 15.7066 142.662 15.6667C142.599 15.6206 142.511 15.544 142.367 15.3998L139.538 18.2282C139.922 18.6118 140.541 19.1931 141.447 19.4954L142.712 15.7006ZM141.695 14.957C141.455 14.8608 140.962 14.7124 140.56 14.6027C140.339 14.5425 140.098 14.4808 139.875 14.4324C139.716 14.3978 139.371 14.324 139.042 14.324V18.324C138.928 18.324 138.865 18.3111 138.902 18.3168C138.92 18.3197 138.96 18.327 139.026 18.3411C139.155 18.3693 139.324 18.4117 139.508 18.4618C139.688 18.5111 139.866 18.5631 140.01 18.6073C140.178 18.6592 140.234 18.6805 140.21 18.6709L141.695 14.957ZM139.263 14.3362C138.322 14.2317 137.428 14.5414 137.037 14.6716L138.302 18.4664C138.512 18.3963 138.654 18.3541 138.768 18.3301C138.884 18.3057 138.888 18.3192 138.821 18.3118L139.263 14.3362ZM137.095 14.6533C134.46 15.4437 132.367 17.6611 131.442 20.065L135.175 21.501C135.721 20.0829 136.959 18.8703 138.244 18.4846L137.095 14.6533ZM131.455 20.0316C130.57 22.215 130.353 24.738 130.694 27.0087L134.65 26.4153C134.402 24.766 134.577 22.977 135.162 21.5344L131.455 20.0316ZM130.69 26.9822C130.894 28.4753 131.622 30.0096 132.727 31.1152L135.556 28.2868C135.094 27.8244 134.744 27.1047 134.653 26.4418L130.69 26.9822ZM132.79 31.1753C133.696 32.006 134.984 32.5878 136.205 32.8644C137.385 33.1315 138.969 33.2167 140.302 32.4812L138.37 28.9788C138.282 29.0273 137.856 29.137 137.088 28.9631C136.362 28.7987 135.763 28.474 135.493 28.2267L132.79 31.1753ZM140.284 32.4909C141.486 31.8434 142.247 30.6739 142.605 29.5985L138.81 28.3335C138.679 28.7281 138.459 28.9306 138.387 28.9691L140.284 32.4909ZM142.605 29.5985C142.602 29.6078 142.601 29.6111 142.608 29.591C142.612 29.5784 142.626 29.5412 142.639 29.5038C142.661 29.44 142.719 29.2707 142.754 29.062C142.784 28.879 142.841 28.4264 142.641 27.9104C142.394 27.2754 141.885 26.8584 141.34 26.6766L140.075 30.4714C139.604 30.3141 139.138 29.94 138.913 29.3601C138.733 28.8992 138.79 28.514 138.808 28.4045C138.821 28.3286 138.836 28.2721 138.844 28.2433C138.849 28.2276 138.852 28.2156 138.855 28.2081C138.857 28.2006 138.859 28.196 138.859 28.1954C138.859 28.1949 138.859 28.1965 138.857 28.2022C138.854 28.2089 138.852 28.2142 138.848 28.2269C138.841 28.2458 138.826 28.2874 138.81 28.3335L142.605 29.5985ZM141.45 26.717C141.294 26.6546 141.148 26.6159 141.07 26.5962C140.975 26.5723 140.879 26.5514 140.792 26.5337C140.618 26.4983 140.425 26.4646 140.252 26.4358C140.078 26.4068 139.903 26.3791 139.768 26.3577C139.699 26.3467 139.642 26.3375 139.596 26.3299C139.545 26.3214 139.529 26.3182 139.532 26.3188L138.747 30.2412C138.857 30.263 139.017 30.2885 139.139 30.3079C139.283 30.3309 139.439 30.3554 139.595 30.3814C139.753 30.4077 139.891 30.4323 139.995 30.4535C140.048 30.4642 140.078 30.4712 140.09 30.4743C140.119 30.4815 140.06 30.4689 139.965 30.431L141.45 26.717ZM139.373 26.2937C138.525 26.1939 137.995 26.0742 137.67 25.879L135.612 29.309C136.756 29.9958 138.088 30.1701 138.906 30.2663L139.373 26.2937ZM137.598 25.8382C137.518 25.7943 137.31 25.5885 137.213 25.3548L133.521 26.8932C133.913 27.8355 134.685 28.8057 135.683 29.3498L137.598 25.8382ZM137.199 25.3224C137.045 24.9698 137.015 24.5427 137.111 24.1591L133.23 23.1889C132.934 24.3733 133.003 25.7102 133.534 26.9256L137.199 25.3224ZM137.123 24.1079C137.22 23.6719 137.48 23.213 137.908 22.7852L135.079 19.9568C134.233 20.803 133.513 21.9121 133.218 23.2401L137.123 24.1079ZM137.88 22.8127C138.715 22.0098 140.108 21.4978 141.498 21.4592L141.387 17.4608C139.249 17.5201 136.82 18.2822 135.107 19.9293L137.88 22.8127ZM141.489 21.4595C142.297 21.4407 143.133 21.5806 144.138 21.7911C145.077 21.988 146.254 22.2702 147.427 22.382L147.806 18.4C146.922 18.3158 146.065 18.108 144.958 17.8762C143.917 17.6579 142.696 17.4303 141.396 17.4605L141.489 21.4595ZM147.396 22.3788C148.128 22.4601 148.702 22.5088 149.263 22.625C149.805 22.7374 150.144 22.8802 150.36 23.0375L152.713 19.8025C151.851 19.1758 150.892 18.8776 150.074 18.7082C149.275 18.5427 148.428 18.4689 147.838 18.4032L147.396 22.3788ZM150.337 23.02C150.884 23.4304 151.377 24.4435 151.452 25.571L155.443 25.305C155.322 23.4925 154.541 21.1736 152.737 19.82L150.337 23.02ZM151.452 25.5628C151.521 26.6714 151.112 27.716 150.601 29.4203L154.432 30.5697C154.803 29.334 155.57 27.3405 155.444 25.3132L151.452 25.5628ZM150.596 29.4374C150.12 31.0775 149.789 32.8148 149.734 34.5875L153.732 34.7125C153.774 33.3492 154.032 31.9505 154.437 30.5526L150.596 29.4374ZM149.733 34.65C149.733 36.0818 150.017 37.5926 150.139 38.6123L154.11 38.1357C153.939 36.7054 153.733 35.7662 153.733 34.65H149.733ZM150.129 38.4988C150.183 39.3655 150.171 39.6869 150.072 39.9342L153.786 41.4198C154.275 40.1971 154.165 38.9505 154.121 38.2492L150.129 38.4988ZM150.113 39.8389C149.991 40.1035 149.844 40.2593 149.608 40.3861L151.505 43.9079C152.543 43.3487 153.279 42.5245 153.745 41.5151L150.113 39.8389ZM167.348 41.755L166.646 39.8823L166.636 39.8861L166.626 39.8899L167.348 41.755ZM162.399 41.608L161.572 43.4287L161.576 43.4307L162.399 41.608ZM158.577 37.982L156.855 38.9995L156.862 39.011L158.577 37.982ZM156.764 30.632L154.766 30.7228L154.767 30.7361L154.768 30.7494L156.764 30.632ZM157.303 20.881L159.285 21.1512L159.287 21.1359L159.289 21.1206L157.303 20.881ZM158.969 12.551L157.112 11.8082L157.082 11.8832L157.059 11.9604L158.969 12.551ZM159.557 11.228L160.807 12.7897L161.227 12.4539L161.421 11.9529L159.557 11.228ZM161.37 8.925L162.632 10.4773L162.64 10.4705L161.37 8.925ZM166.074 6.524L165.659 4.56753L165.644 4.57079L165.629 4.57428L166.074 6.524ZM175.972 6.377L175.586 8.3393L175.591 8.34023L175.972 6.377ZM185.527 11.571L183.973 12.8302L183.977 12.8343L185.527 11.571ZM187.683 16.177L189.659 15.8651L189.656 15.8472L189.653 15.8294L187.683 16.177ZM186.703 21.665L184.948 20.7073L184.93 20.7386L184.915 20.7706L186.703 21.665ZM184.253 24.85L182.952 23.3315L182.933 23.3472L182.915 23.3634L184.253 24.85ZM180.97 27.006L179.986 25.2649L177.592 26.618L179.617 28.4787L180.97 27.006ZM187.095 30.975L188.182 29.2959L188.177 29.2926L187.095 30.975ZM189.104 33.229L190.913 32.3758L190.912 32.3728L189.104 33.229ZM186.409 40.628L185.461 38.8671L185.439 38.879L185.417 38.8915L186.409 40.628ZM182.832 41.216L183.08 39.2314L183.073 39.2305L182.832 41.216ZM178.324 39.354L177.203 41.0098L177.223 41.0233L177.243 41.0364L178.324 39.354ZM171.17 31.024L172.871 29.9713L169.207 31.407L171.17 31.024ZM171.121 37.149L173.047 37.6883L173.055 37.6613L173.062 37.6341L171.121 37.149ZM169.357 40.432L167.943 39.0178L167.912 39.0485L167.883 39.0806L169.357 40.432ZM172.493 21.763L173.248 19.9108L173.236 19.906L172.493 21.763ZM176.805 20.538L178.38 21.7706L178.393 21.7544L178.405 21.738L176.805 20.538ZM177.295 18.431L175.334 18.8232L175.337 18.8367L175.34 18.8501L177.295 18.431ZM174.845 15.687L175.74 13.8981L175.678 13.8673L175.615 13.8408L174.845 15.687ZM172.934 15.393L172.485 13.4442L172.434 13.4558L172.385 13.4699L172.934 15.393ZM170.729 20.195L168.741 20.41L168.796 20.9154L169.085 21.3334L170.729 20.195ZM166.626 39.8899C165.61 40.2832 164.256 40.252 163.223 39.7853L161.576 43.4307C163.581 44.336 166.048 44.4028 168.07 43.6201L166.626 39.8899ZM163.227 39.7873C162.09 39.2706 161.039 38.197 160.292 36.953L156.862 39.011C157.88 40.707 159.474 42.4754 161.572 43.4287L163.227 39.7873ZM160.299 36.9645C159.28 35.2402 158.904 32.9516 158.761 30.5146L154.768 30.7494C154.918 33.3104 155.326 36.4118 156.856 38.9995L160.299 36.9645ZM158.762 30.5412C158.622 27.4646 158.854 24.3088 159.285 21.1512L155.322 20.6108C154.87 23.9212 154.612 27.3314 154.766 30.7228L158.762 30.5412ZM159.289 21.1206C159.624 18.3435 160.096 15.6797 160.88 13.1416L157.059 11.9604C156.177 14.8123 155.669 17.7345 155.318 20.6414L159.289 21.1206ZM160.826 13.2938C160.858 13.2157 160.885 13.1368 160.903 13.0846C160.923 13.0281 160.945 12.9626 160.963 12.9082C161.003 12.7888 161.041 12.6792 161.079 12.5779C161.12 12.4703 161.145 12.4158 161.153 12.4011C161.156 12.395 161.141 12.426 161.104 12.4778C161.085 12.5051 161.054 12.547 161.01 12.5969C160.967 12.6458 160.9 12.7153 160.807 12.7897L158.308 9.66626C158.073 9.85448 157.916 10.0568 157.827 10.1844C157.73 10.3229 157.655 10.4568 157.599 10.5648C157.489 10.7782 157.401 10.9963 157.337 11.1643C157.271 11.3386 157.214 11.5078 157.173 11.6288C157.12 11.7856 157.111 11.8128 157.112 11.8082L160.826 13.2938ZM161.421 11.9529C161.593 11.5124 161.998 10.9923 162.632 10.4772L160.109 7.37277C159.175 8.1317 158.208 9.17961 157.693 10.5031L161.421 11.9529ZM162.64 10.4705C163.823 9.4986 165.165 8.78337 166.52 8.47371L165.629 4.57428C163.553 5.04863 161.662 6.0974 160.101 7.37955L162.64 10.4705ZM166.489 8.48047C169.49 7.84403 172.646 7.76014 175.586 8.33929L176.359 4.4147C172.831 3.71986 169.127 3.83197 165.659 4.56753L166.489 8.48047ZM175.591 8.34023C178.851 8.97427 182.071 10.482 183.974 12.8302L187.081 10.3118C184.378 6.97601 180.149 5.15173 176.354 4.41377L175.591 8.34023ZM183.977 12.8343C184.861 13.9194 185.485 15.2268 185.714 16.5246L189.653 15.8294C189.294 13.7952 188.35 11.8686 187.078 10.3077L183.977 12.8343ZM185.708 16.4889C185.929 17.8886 185.631 19.4535 184.948 20.7073L188.459 22.6227C189.539 20.6425 190.026 18.1894 189.659 15.8651L185.708 16.4889ZM184.915 20.7706C184.43 21.7387 183.754 22.6439 182.952 23.3315L185.555 26.3685C186.811 25.2921 187.8 23.9433 188.492 22.5594L184.915 20.7706ZM182.915 23.3634C182.134 24.0666 181.18 24.5904 179.986 25.2649L181.954 28.7471C183.015 28.1476 184.413 27.3974 185.591 26.3366L182.915 23.3634ZM179.617 28.4787C180.678 29.4535 181.836 30.1988 182.924 30.8412C184.079 31.5233 185.019 32.0176 186.014 32.6574L188.177 29.2926C187.114 28.6094 185.898 27.9522 184.958 27.3971C183.951 26.8022 183.076 26.2245 182.324 25.5333L179.617 28.4787ZM186.009 32.6541C186.566 33.0146 187.033 33.5271 187.297 34.0852L190.912 32.3728C190.294 31.0689 189.291 30.0134 188.182 29.2959L186.009 32.6541ZM187.296 34.0822C188.004 35.5836 187.209 37.9258 185.461 38.8671L187.358 42.3889C190.706 40.5862 192.655 36.0684 190.913 32.3758L187.296 34.0822ZM185.417 38.8915C184.877 39.2004 183.977 39.3435 183.08 39.2314L182.584 43.2006C184.04 43.3825 185.884 43.2316 187.402 42.3645L185.417 38.8915ZM183.073 39.2305C181.912 39.0898 180.703 38.5053 179.406 37.6716L177.243 41.0364C178.69 41.9667 180.519 42.9502 182.592 43.2015L183.073 39.2305ZM179.446 37.6982C176.791 35.8998 174.774 33.0463 172.871 29.9713L169.47 32.0767C171.388 35.1757 173.781 38.6922 177.203 41.0098L179.446 37.6982ZM169.207 31.407C169.558 33.2027 169.584 35.0533 169.181 36.6639L173.062 37.6341C173.639 35.3247 173.567 32.8633 173.133 30.641L169.207 31.407ZM169.195 36.6097C168.902 37.6571 168.49 38.4706 167.943 39.0178L170.772 41.8462C171.988 40.6294 172.655 39.0909 173.047 37.6883L169.195 36.6097ZM167.883 39.0806C167.582 39.4085 167.173 39.6848 166.646 39.8823L168.051 43.6277C169.092 43.2372 170.054 42.6315 170.832 41.7835L167.883 39.0806ZM171.739 23.6152C172.952 24.1095 174.301 24.0066 175.372 23.6961C176.449 23.3836 177.609 22.7563 178.38 21.7706L175.23 19.3054C175.12 19.4467 174.785 19.7014 174.258 19.8544C173.723 20.0094 173.358 19.9555 173.248 19.9108L171.739 23.6152ZM178.405 21.738C179.17 20.7181 179.527 19.3004 179.251 18.0119L175.34 18.8501C175.358 18.9335 175.322 19.1819 175.205 19.338L178.405 21.738ZM179.257 18.0388C178.832 15.9183 177.036 14.5462 175.74 13.8981L173.951 17.4759C174.811 17.9058 175.268 18.4937 175.334 18.8232L179.257 18.0388ZM175.615 13.8408C174.948 13.563 173.763 13.1491 172.485 13.4442L173.384 17.3418C173.36 17.3473 173.4 17.3324 173.537 17.3583C173.676 17.3845 173.854 17.4405 174.076 17.5332L175.615 13.8408ZM172.385 13.4699C170.685 13.9557 169.732 15.3596 169.256 16.5616C168.767 17.7949 168.61 19.2013 168.741 20.41L172.718 19.98C172.652 19.3757 172.74 18.6261 172.975 18.0342C173.222 17.4109 173.469 17.3203 173.484 17.316L172.385 13.4699ZM169.085 21.3334C169.605 22.0851 170.471 23.1083 171.751 23.62L173.236 19.906C173.045 19.8297 172.735 19.5789 172.374 19.0566L169.085 21.3334ZM199.851 41.265L198.773 39.5804L198.765 39.5859L199.851 41.265ZM197.107 42.049V40.049H197.06L197.012 40.0513L197.107 42.049ZM194.216 41.167L195.478 39.6148L195.472 39.61L195.466 39.6053L194.216 41.167ZM192.06 37.051L190.077 37.3069L192.06 37.051ZM193.089 27.937L191.155 27.428L191.152 27.44L191.149 27.4519L193.089 27.937ZM200.439 12.257L202.058 13.4323L202.063 13.4243L200.439 12.257ZM204.506 7.945L203.271 6.37236L203.246 6.39209L203.221 6.41261L204.506 7.945ZM206.907 6.671L207.341 8.62337L206.907 6.671ZM210.925 6.573L210.561 8.53956L210.579 8.54283L210.597 8.54578L210.925 6.573ZM216.462 9.366L217.845 7.92072L217.824 7.90096L217.803 7.88179L216.462 9.366ZM221.754 17.108L223.543 16.2136L223.537 16.2011L221.754 17.108ZM224.841 25.879L226.796 25.4555L226.791 25.432L226.785 25.4087L224.841 25.879ZM225.527 34.895L227.511 35.1537L227.513 35.1384L227.514 35.123L225.527 34.895ZM221.852 40.775L222.875 42.4941L222.894 42.4827L222.912 42.471L221.852 40.775ZM215.678 41.755L215.193 43.6953L215.205 43.698L215.678 41.755ZM213.522 40.628L214.874 39.1537L214.86 39.1409L214.846 39.1283L213.522 40.628ZM211.66 37.835L213.499 37.0472L213.493 37.0327L213.486 37.0183L211.66 37.835ZM210.239 31.955L212.234 31.809L212.087 29.7986L210.078 29.9615L210.239 31.955ZM204.8 32.151L204.854 30.1517L203.36 30.1113L202.898 31.5328L204.8 32.151ZM202.595 37.933L200.836 36.982L200.821 37.01L200.807 37.0386L202.595 37.933ZM207.887 17.745L209.441 19.0046L209.449 18.9944L207.887 17.745ZM205.29 24.164L203.319 23.8284L202.891 26.3405L205.433 26.1589L205.29 24.164ZM210.386 23.625L210.691 25.6017L212.612 25.3061L212.371 23.3769L210.386 23.625ZM210.043 20.048L208.053 20.247L208.056 20.2716L208.059 20.2961L210.043 20.048ZM209.259 17.255L207.471 18.1494L207.481 18.1702L207.492 18.1908L209.259 17.255ZM208.622 17.108L208.137 15.1677L208.063 15.1863L207.99 15.2106L208.622 17.108ZM198.765 39.5859C198.295 39.8897 197.703 40.049 197.107 40.049V44.049C198.374 44.049 199.742 43.7183 200.938 42.9441L198.765 39.5859ZM197.012 40.0513C196.388 40.081 195.817 39.8907 195.478 39.6148L192.955 42.7192C194.184 43.7173 195.769 44.115 197.203 44.0467L197.012 40.0513ZM195.466 39.6053C194.741 39.0255 194.191 37.936 194.044 36.7951L190.077 37.3069C190.322 39.204 191.242 41.3485 192.967 42.7287L195.466 39.6053ZM194.044 36.7951C193.706 34.1753 194.291 31.3778 195.03 28.4221L191.149 27.4519C190.418 30.3762 189.631 33.8507 190.077 37.3069L194.044 36.7951ZM195.024 28.446C196.435 23.0828 198.832 17.873 202.058 13.4323L198.821 11.0817C195.285 15.951 192.684 21.6192 191.155 27.428L195.024 28.446ZM202.063 13.4243C203.076 12.0151 204.376 10.6646 205.792 9.47738L203.221 6.41261C201.599 7.77339 200.057 9.36289 198.815 11.0897L202.063 13.4243ZM205.742 9.51764C206.362 9.03029 206.907 8.71987 207.341 8.62337L206.474 4.71863C205.144 5.01413 204.023 5.78171 203.271 6.37236L205.742 9.51764ZM207.341 8.62337C208.428 8.38194 209.527 8.34809 210.561 8.53956L211.29 4.60643C209.678 4.3079 208.033 4.37205 206.474 4.71863L207.341 8.62337ZM210.597 8.54578C212.208 8.81429 213.829 9.68228 215.122 10.8502L217.803 7.88179C216.058 6.30572 213.759 5.01771 211.254 4.60021L210.597 8.54578ZM215.08 10.8113C217.076 12.7209 218.569 15.2568 219.972 18.0149L223.537 16.2011C222.098 13.3732 220.356 10.3231 217.845 7.92072L215.08 10.8113ZM219.966 18.0024C221.251 20.5725 222.186 23.4088 222.898 26.3493L226.785 25.4087C226.027 22.2732 225.002 19.1315 223.543 16.2136L219.966 18.0024ZM222.887 26.3025C223.503 29.1446 223.848 31.9884 223.54 34.667L227.514 35.123C227.893 31.8236 227.454 28.4934 226.796 25.4555L222.887 26.3025ZM223.544 34.6363C223.32 36.3549 222.198 38.2005 220.792 39.079L222.912 42.471C225.427 40.8995 227.147 37.9431 227.511 35.1537L223.544 34.6363ZM220.83 39.0559C219.44 39.8826 217.622 40.1705 216.152 39.812L215.205 43.698C217.753 44.3195 220.639 43.8234 222.875 42.4941L220.83 39.0559ZM216.164 39.8147C215.657 39.6881 215.184 39.4379 214.874 39.1537L212.171 42.1023C213.037 42.8961 214.132 43.4299 215.193 43.6953L216.164 39.8147ZM214.846 39.1283C214.336 38.6786 213.891 37.9627 213.499 37.0472L209.822 38.6228C210.312 39.7653 211.043 41.1075 212.199 42.1277L214.846 39.1283ZM213.486 37.0183C212.764 35.404 212.367 33.6288 212.234 31.809L208.245 32.1009C208.406 34.2992 208.891 36.542 209.835 38.6517L213.486 37.0183ZM210.078 29.9615C208.296 30.106 206.564 30.1979 204.854 30.1517L204.746 34.1503C206.663 34.2021 208.557 34.098 210.401 33.9485L210.078 29.9615ZM202.898 31.5328C202.232 33.5837 201.707 35.3705 200.836 36.982L204.355 38.884C205.444 36.8695 206.095 34.6383 206.703 32.7692L202.898 31.5328ZM200.807 37.0386C200.24 38.1716 199.56 39.0771 198.773 39.5805L200.93 42.9495C202.593 41.8849 203.677 40.2424 204.384 38.8274L200.807 37.0386ZM206.334 16.4854C204.555 18.6791 203.738 21.3683 203.319 23.8284L207.262 24.4996C207.627 22.3537 208.28 20.4369 209.441 19.0046L206.334 16.4854ZM205.433 26.1589C206.152 26.1076 209.982 25.7107 210.691 25.6017L210.082 21.6483C209.517 21.7353 205.801 22.1224 205.148 22.1691L205.433 26.1589ZM212.371 23.3769C212.304 22.8388 212.258 22.2817 212.208 21.6738C212.16 21.0812 212.108 20.4378 212.028 19.7999L208.059 20.2961C208.126 20.8342 208.172 21.3913 208.222 21.9992C208.27 22.5918 208.322 23.2352 208.402 23.8731L212.371 23.3769ZM212.034 19.849C211.918 18.6894 211.621 17.4415 211.027 16.3192L207.492 18.1908C207.78 18.7345 207.973 19.4466 208.053 20.247L212.034 19.849ZM211.048 16.3606C210.558 15.3801 209.616 15.1631 209.274 15.1118C208.854 15.0487 208.452 15.0891 208.137 15.1677L209.108 19.0483C208.989 19.0779 208.856 19.0938 208.681 19.0675C208.584 19.0529 207.863 18.9339 207.471 18.1494L211.048 16.3606ZM207.99 15.2106C207.45 15.3906 207.066 15.7074 206.841 15.9214C206.609 16.1417 206.423 16.3735 206.326 16.4956L209.449 18.9944C209.495 18.9373 209.527 18.8986 209.554 18.8664C209.568 18.8513 209.578 18.8402 209.585 18.8324C209.592 18.8244 209.596 18.8211 209.596 18.8214C209.596 18.8216 209.59 18.8269 209.579 18.8357C209.568 18.8446 209.55 18.8586 209.525 18.8756C209.476 18.9084 209.386 18.9618 209.255 19.0054L207.99 15.2106ZM233.382 42.49L233.73 44.4596L233.74 44.4577L233.382 42.49ZM228.776 37.835L226.81 38.1992L226.812 38.2132L226.815 38.2272L228.776 37.835ZM228.482 33.866L226.485 33.7686L226.484 33.7803L226.484 33.792L228.482 33.866ZM230.442 21.91L232.383 22.3951L232.387 22.3774L232.391 22.3597L230.442 21.91ZM232.01 16.275L233.903 16.9224L233.91 16.902L233.916 16.8814L232.01 16.275ZM234.803 9.072L236.518 10.101L236.558 10.0351L236.592 9.96644L234.803 9.072ZM235.097 8.827L233.497 7.627L233.389 7.77127L233.309 7.93258L235.097 8.827ZM236.616 7.21L235.44 5.59253L235.428 5.60117L235.416 5.61L236.616 7.21ZM240.389 5.887V3.887H240.352L240.315 3.88837L240.389 5.887ZM241.369 5.887L242.784 4.47279L242.644 4.33275L242.479 4.22289L241.369 5.887ZM242.202 6.083L241.57 7.98037L241.599 7.98995L241.628 7.99865L242.202 6.083ZM243.574 6.916L245.04 5.5551L244.969 5.47912L244.891 5.41085L243.574 6.916ZM245.093 9.366L246.898 8.50454L246.89 8.48798L246.882 8.47157L245.093 9.366ZM247.494 16.079L245.567 16.6122L245.572 16.6311L245.578 16.65L247.494 16.079ZM249.356 22.988L247.419 23.4828L248.936 29.4249L251.213 23.7308L249.356 22.988ZM250.238 20.979L251.953 22.008L252.025 21.8887L252.079 21.7607L250.238 20.979ZM255.53 10.64L253.839 9.57339L253.836 9.57773L255.53 10.64ZM262.635 6.916L261.937 8.79016L261.959 8.79816L261.98 8.80567L262.635 6.916ZM268.417 20.146L270.39 19.8172L270.388 19.8049L270.386 19.7927L268.417 20.146ZM269.691 27.3L267.719 27.6288L267.72 27.6398L269.691 27.3ZM270.23 35.875L268.241 35.6692L268.239 35.6913L268.237 35.7134L270.23 35.875ZM268.172 41.02L269.546 42.474L269.566 42.4544L269.587 42.4342L268.172 41.02ZM264.546 41.902L263.844 43.7747L263.879 43.7877L263.914 43.7994L264.546 41.902ZM261.802 39.256L263.576 38.3309L263.568 38.3171L263.561 38.3034L261.802 39.256ZM257.882 27.741L259.817 27.2332L258.303 21.4665L256.033 26.9795L257.882 27.741ZM255.677 32.641L257.475 33.5169L257.477 33.5135L255.677 32.641ZM252.296 37.982L253.711 39.3962L253.745 39.3615L253.778 39.325L252.296 37.982ZM249.993 39.354L249.56 37.4016L249.552 37.4034L249.544 37.4052L249.993 39.354ZM248.033 39.158L247.139 40.9469L247.225 40.99L247.315 41.0247L248.033 39.158ZM245.73 37.149L244.095 38.3L244.096 38.3024L245.73 37.149ZM241.761 28.231L243.65 27.5716L241.628 21.7838L239.848 27.65L241.761 28.231ZM239.017 36.414L240.862 37.1863L240.866 37.1775L240.87 37.1686L239.017 36.414ZM234.852 41.804L233.723 40.1534L233.673 40.1878L233.624 40.2253L234.852 41.804ZM233.035 40.5204C232.679 40.5832 232.311 40.4925 231.848 39.9493C231.349 39.3635 230.936 38.4329 230.738 37.4428L226.815 38.2272C227.107 39.6871 227.747 41.3045 228.804 42.544C229.897 43.826 231.587 44.8378 233.73 44.4596L233.035 40.5204ZM230.743 37.4708C230.524 36.2899 230.438 35.1138 230.481 33.94L226.484 33.792C226.429 35.2642 226.538 36.7341 226.81 38.1992L230.743 37.4708ZM230.48 33.9634C230.667 30.1311 231.418 26.2556 232.383 22.3951L228.502 21.4249C227.507 25.4044 226.69 29.5649 226.485 33.7686L230.48 33.9634ZM232.391 22.3597C232.824 20.486 233.296 18.6961 233.903 16.9224L230.118 15.6276C229.451 17.5779 228.943 19.512 228.494 21.4603L232.391 22.3597ZM233.916 16.8814C234.071 16.3945 234.607 14.879 235.186 13.3422C235.474 12.5801 235.764 11.8323 236.016 11.2216C236.142 10.9158 236.254 10.6546 236.348 10.4483C236.395 10.3454 236.435 10.2627 236.467 10.199C236.483 10.1675 236.495 10.1433 236.505 10.1255C236.515 10.1073 236.519 10.0999 236.518 10.101L233.088 8.04301C232.851 8.43841 232.57 9.08557 232.318 9.69703C232.045 10.3603 231.738 11.1499 231.444 11.9312C230.859 13.4815 230.293 15.0775 230.105 15.6686L233.916 16.8814ZM236.592 9.96644C236.495 10.1616 236.381 10.3045 236.293 10.3993C236.205 10.4934 236.126 10.5581 236.078 10.5949C236.029 10.6322 235.991 10.6565 235.979 10.6646C235.967 10.6718 235.96 10.6762 235.979 10.6645C235.991 10.6578 236.029 10.635 236.069 10.6091C236.112 10.5823 236.178 10.5388 236.253 10.4816C236.327 10.4248 236.43 10.3395 236.537 10.2235C236.646 10.1069 236.776 9.94108 236.886 9.72141L233.309 7.93258C233.406 7.73742 233.52 7.59456 233.608 7.49976C233.696 7.40559 233.775 7.34093 233.823 7.30413C233.872 7.26676 233.909 7.24247 233.922 7.23442C233.933 7.22724 233.941 7.22285 233.921 7.23451C233.91 7.24122 233.872 7.26399 233.831 7.28993C233.789 7.31672 233.723 7.36016 233.648 7.41743C233.574 7.47413 233.471 7.55947 233.363 7.67546C233.255 7.79207 233.124 7.9579 233.015 8.17756L236.592 9.96644ZM236.697 10.027C237.112 9.47419 237.464 9.07441 237.816 8.81L235.416 5.61C234.593 6.22758 233.965 7.0038 233.497 7.627L236.697 10.027ZM237.793 8.82747C238.563 8.26748 239.554 7.91932 240.463 7.88563L240.315 3.88837C238.579 3.95268 236.826 4.58452 235.44 5.59253L237.793 8.82747ZM240.389 7.887C240.483 7.887 240.569 7.88166 240.618 7.87834C240.673 7.87457 240.73 7.86979 240.775 7.86595C240.877 7.85723 240.949 7.85083 241.019 7.84659C241.051 7.84463 241.073 7.8438 241.086 7.84353C241.101 7.84324 241.095 7.84388 241.072 7.84263C241.055 7.84172 240.984 7.83759 240.882 7.81609C240.828 7.80485 240.748 7.78502 240.651 7.74972C240.557 7.71543 240.416 7.65518 240.26 7.5511L242.479 4.22289C242.154 4.00637 241.843 3.93073 241.705 3.90164C241.538 3.86673 241.392 3.85418 241.292 3.84868C241.092 3.8377 240.902 3.84632 240.777 3.85391C240.645 3.86192 240.511 3.87389 240.434 3.88048C240.313 3.89083 240.334 3.887 240.389 3.887V7.887ZM239.955 7.3012C240.245 7.59078 240.552 7.7233 240.653 7.76546C240.793 7.82449 240.92 7.86161 241.001 7.88351C241.165 7.9276 241.327 7.95695 241.428 7.97429C241.49 7.98497 241.689 8.0172 241.692 8.01774C241.723 8.02289 241.731 8.02462 241.727 8.02376C241.724 8.02317 241.71 8.02032 241.689 8.01507C241.67 8.01045 241.627 7.99935 241.57 7.98037L242.835 4.18563C242.76 4.16052 242.694 4.1433 242.651 4.13253C242.605 4.12113 242.563 4.11211 242.53 4.10529C242.465 4.09199 242.403 4.0811 242.356 4.07322C242.308 4.06523 242.257 4.05704 242.218 4.05076C242.175 4.04387 242.14 4.03809 242.107 4.03245C242.075 4.02681 242.052 4.02253 242.036 4.01939C242.019 4.01595 242.023 4.01612 242.039 4.02065C242.049 4.02312 242.067 4.02814 242.091 4.03615C242.115 4.04388 242.153 4.05727 242.202 4.07763C242.248 4.0971 242.323 4.13097 242.412 4.18351C242.495 4.23303 242.636 4.32481 242.784 4.47279L239.955 7.3012ZM241.628 7.99865C241.712 8.02399 241.945 8.14801 242.257 8.42115L244.891 5.41085C244.42 4.99798 243.673 4.43601 242.777 4.16735L241.628 7.99865ZM242.109 8.2769C242.516 8.71504 242.836 9.32329 243.305 10.2604L246.882 8.47157C246.469 7.64471 245.907 6.48896 245.04 5.5551L242.109 8.2769ZM243.288 10.2275C244.246 12.2329 244.944 14.3609 245.567 16.6122L249.422 15.5458C248.771 13.1911 247.999 10.8111 246.898 8.50454L243.288 10.2275ZM245.578 16.65C246.25 18.9089 246.829 21.1737 247.419 23.4828L251.294 22.4932C250.708 20.1963 250.11 17.8551 249.411 15.508L245.578 16.65ZM251.213 23.7308C251.253 23.6322 251.429 23.2097 251.616 22.7744C251.709 22.5591 251.799 22.3517 251.874 22.1877C251.911 22.1052 251.941 22.0414 251.963 21.9968C251.993 21.9345 251.985 21.9549 251.953 22.008L248.523 19.95C248.362 20.2195 248.099 20.8288 247.942 21.1926C247.75 21.6393 247.558 22.0988 247.499 22.2452L251.213 23.7308ZM252.079 21.7607C253.57 18.2507 255.238 14.8717 257.225 11.7023L253.836 9.57773C251.707 12.9743 249.945 16.5533 248.397 20.1973L252.079 21.7607ZM257.222 11.7066C257.769 10.8386 258.695 9.90155 259.702 9.30221C260.747 8.67966 261.503 8.62845 261.937 8.79016L263.334 5.04183C261.269 4.27255 259.182 4.95634 257.656 5.86504C256.09 6.79695 254.712 8.18738 253.839 9.57339L257.222 11.7066ZM261.98 8.80567C262.315 8.92161 262.784 9.26642 263.323 10.0846C263.852 10.8853 264.33 11.9618 264.752 13.2145C265.597 15.7212 266.101 18.5627 266.449 20.4993L270.386 19.7927C270.048 17.9073 269.498 14.7708 268.542 11.9365C268.064 10.5187 267.455 9.08394 266.662 7.88175C265.88 6.69708 264.794 5.54739 263.29 5.02633L261.98 8.80567ZM266.445 20.4748C266.521 20.9322 266.806 22.5199 267.086 24.0767C267.37 25.6559 267.648 27.2042 267.719 27.6288L271.664 26.9712C271.588 26.5138 271.303 24.9261 271.023 23.3693C270.739 21.7901 270.461 20.2418 270.39 19.8172L266.445 20.4748ZM267.72 27.6398C268.202 30.4333 268.506 33.1061 268.241 35.6692L272.22 36.0808C272.543 32.9599 272.161 29.8507 271.662 26.9602L267.72 27.6398ZM268.237 35.7134C268.108 37.3005 267.604 38.7597 266.758 39.6058L269.587 42.4342C271.387 40.6343 272.059 38.0755 272.224 36.0366L268.237 35.7134ZM266.799 39.566C266.641 39.7151 266.347 39.8878 265.976 39.9823C265.602 40.0775 265.319 40.0514 265.179 40.0046L263.914 43.7994C264.95 44.1446 266.039 44.094 266.963 43.8585C267.891 43.6222 268.822 43.1579 269.546 42.474L266.799 39.566ZM265.249 40.0293C264.684 39.8177 264.023 39.1876 263.576 38.3309L260.029 40.1811C260.758 41.5784 262.056 43.1043 263.844 43.7747L265.249 40.0293ZM263.561 38.3034C261.791 35.0351 260.869 31.2408 259.817 27.2332L255.948 28.2488C256.954 32.0812 257.992 36.4209 260.044 40.2086L263.561 38.3034ZM256.033 26.9795C255.365 28.6015 254.647 30.181 253.878 31.7684L257.477 33.5135C258.275 31.867 259.028 30.2125 259.732 28.5025L256.033 26.9795ZM253.879 31.7651C252.969 33.6337 252.04 35.2871 250.814 36.639L253.778 39.325C255.395 37.5409 256.524 35.4703 257.475 33.5169L253.879 31.7651ZM250.882 36.5678C250.402 37.0477 249.941 37.3168 249.56 37.4016L250.427 41.3064C251.809 40.9992 252.916 40.1903 253.711 39.3962L250.882 36.5678ZM249.544 37.4052C249.398 37.4388 249.128 37.4363 248.751 37.2913L247.315 41.0247C248.212 41.3697 249.315 41.5632 250.443 41.3028L249.544 37.4052ZM248.928 37.3691C248.363 37.0865 247.776 36.5795 247.364 35.9956L244.096 38.3024C244.86 39.3845 245.94 40.3475 247.139 40.9469L248.928 37.3691ZM247.366 35.998C245.701 33.6316 244.762 30.7572 243.65 27.5716L239.873 28.8904C240.917 31.8788 242.036 35.3744 244.095 38.3L247.366 35.998ZM239.848 27.65C239.007 30.4194 238.201 33.1162 237.165 35.6594L240.87 37.1686C241.989 34.4198 242.85 31.5306 243.675 28.812L239.848 27.65ZM237.173 35.6417C236.397 37.4937 235.187 39.1514 233.723 40.1534L235.982 43.4546C238.241 41.9086 239.874 39.5483 240.862 37.1863L237.173 35.6417ZM233.624 40.2253C233.386 40.411 233.187 40.4927 233.025 40.5223L233.74 44.4577C234.656 44.2913 235.437 43.883 236.08 43.3827L233.624 40.2253Z" fill="black" mask="url(#path-1-outside-1_2028_7)"/>
</svg>
