<svg width="337" height="51" viewBox="0 0 337 51" fill="none" xmlns="http://www.w3.org/2000/svg">
<mask id="path-1-outside-1_2028_6" maskUnits="userSpaceOnUse" x="-1" y="3" width="339" height="42" fill="black">
<rect fill="white" x="-1" y="3" width="339" height="42"/>
<path d="M20.6661 38.472C19.5881 40.579 17.4811 41.853 15.1781 41.853C13.5611 41.804 11.8951 40.922 10.8171 39.697C9.78809 38.472 9.15109 36.953 8.71009 35.483C8.17109 33.474 7.92609 31.367 7.97509 29.26C8.07309 25.781 8.56309 22.302 9.15109 18.872C8.02409 18.872 6.84809 18.774 5.81909 18.382C4.64309 17.941 3.61409 17.206 2.78109 16.324C0.91909 14.364 1.21309 10.64 2.87909 8.533C3.61409 7.602 4.64309 6.916 5.72109 6.524C6.40709 6.328 7.09309 6.23 7.77909 6.23C9.54309 6.132 11.3071 6.279 13.0711 6.279C13.4631 6.279 13.8551 6.23 14.2471 6.23C14.2961 6.23 14.4921 6.328 14.5411 6.328C16.5991 6.23 18.6571 6.083 20.7151 6.083C22.0381 6.132 23.3611 6.328 24.4881 6.916C26.8891 8.239 28.1141 11.032 27.5751 13.629C27.2321 15.197 26.0071 16.569 24.6841 17.353C23.6551 17.941 22.3811 18.235 21.1561 18.235C21.5481 23.037 22.3321 27.79 22.1361 32.592C22.0381 34.601 21.5971 36.659 20.6661 38.472ZM46.6346 42.441C44.0376 42.686 41.3426 42.294 38.8926 41.461C36.0016 40.481 33.4046 38.227 31.7386 35.679C31.0526 34.601 30.3666 33.474 29.9746 32.249C28.9456 29.211 28.9456 25.879 29.2886 22.743C29.6806 19.215 31.2486 15.736 33.3556 12.796C34.8256 10.787 36.7366 8.925 38.9416 7.651C40.9506 6.426 43.4006 5.789 45.7526 5.789C48.0556 5.838 50.3586 6.23 52.5146 6.916C54.6706 7.651 56.5326 9.415 57.8556 11.277C58.8846 12.698 59.5706 14.462 59.9626 16.226C60.5506 18.725 60.6976 21.273 60.6486 23.821C60.5506 27.692 59.5216 31.71 57.5126 34.993C56.3366 37.051 54.6706 38.962 52.6616 40.236C50.8976 41.412 48.7906 42.196 46.6346 42.441ZM44.4296 30.485C46.0466 31.367 47.8106 30.093 48.6926 28.525C49.9666 26.369 50.3586 23.625 49.9666 21.175C49.7706 19.999 49.3786 18.823 48.6436 17.843C48.2516 17.304 47.6146 16.765 46.9286 16.618C46.2426 16.422 45.4586 16.618 44.8706 17.059C42.0776 18.921 41.2936 24.262 42.3226 27.447C42.7146 28.623 43.3516 29.897 44.4296 30.485ZM75.0071 41.314C72.9981 42.49 70.4501 42.49 68.5881 41.265C67.4611 40.53 66.6281 39.354 66.0891 38.129C64.9621 35.679 64.7661 32.837 64.6681 30.093C64.5701 27.006 64.6191 23.87 64.7171 20.783C64.8151 18.088 64.8151 15.344 65.3541 12.698C65.8441 10.395 67.3631 8.043 69.5191 7.014C71.9201 5.838 75.4481 6.279 76.9181 8.533C77.5061 9.415 77.7021 10.493 77.8001 11.571C77.9961 13.384 77.8981 15.197 77.8491 16.961C79.6621 14.266 81.8181 11.718 84.3661 9.66C85.8851 8.484 87.5511 7.357 89.4131 6.916C90.5401 6.72 91.7651 6.867 92.7941 7.308C94.9011 8.288 97.3511 11.62 97.2531 13.972C97.2041 15.883 96.0281 17.843 94.5581 19.068C92.5491 20.783 90.0011 21.763 87.5021 22.547C87.2081 22.645 86.5711 23.38 86.3751 23.576C86.2281 23.772 86.4241 24.311 86.4731 24.556C86.8161 25.634 87.6001 26.565 88.4331 27.349C89.4131 28.378 90.5891 29.211 91.7651 29.995C92.6961 30.583 93.6761 31.171 94.5091 31.955C95.1461 32.641 95.6851 33.523 95.8321 34.454C95.9791 35.238 95.8811 36.071 95.6361 36.806C95.1461 38.325 94.0191 39.697 92.6471 40.53C87.6981 43.666 82.5041 38.57 79.6131 33.474C79.3191 34.699 78.9761 35.924 78.4861 37.1C77.7511 38.766 76.5751 40.334 75.0071 41.314ZM119.903 42.098C116.718 42.245 113.533 42.245 110.397 41.706C108.388 41.363 106.379 40.579 104.86 39.256C102.557 37.247 101.038 34.16 100.597 31.073C100.058 27.839 100.205 24.458 100.695 21.175C101.087 18.235 101.724 15.295 103.047 12.649C103.88 11.081 105.007 9.611 106.33 8.386C107.114 7.651 107.996 7.014 109.025 6.671C110.152 6.23 111.426 6.279 112.602 6.034C114.464 5.691 116.375 5.691 118.237 5.593C121.177 5.397 124.313 5.495 126.91 6.818C127.547 7.161 128.135 7.7 128.576 8.337C129.066 9.121 129.311 10.052 129.36 11.032C129.556 13.972 127.596 16.863 124.656 16.814C123.823 16.814 122.941 16.618 122.157 16.373C120.638 15.981 119.119 15.491 117.551 15.295C116.277 15.197 114.856 15.344 113.827 16.128C113.386 16.471 113.043 17.059 113.043 17.647C113.092 18.137 113.631 18.137 114.121 18.088C115.64 17.892 117.061 17.353 118.58 17.206C119.511 17.108 120.491 17.059 121.373 17.353C122.157 17.696 122.892 18.333 123.235 19.117C123.676 20.195 123.823 21.371 123.725 22.498C123.676 23.576 123.382 24.752 122.696 25.585C122.255 26.173 121.667 26.614 120.981 26.908C120.246 27.202 119.462 27.251 118.629 27.3C117.404 27.349 113.876 26.81 112.994 27.692C112.063 28.574 113.288 29.946 114.562 30.24C115.836 30.485 117.208 30.142 118.482 29.848C120.344 29.456 122.304 28.966 124.166 29.309C125.636 29.505 127.155 30.338 127.939 31.514C128.576 32.494 128.723 33.817 128.478 34.944C128.037 37.1 126.861 39.305 125.146 40.677C123.725 41.804 121.716 42.049 119.903 42.098ZM159.016 41.51C158.036 41.951 156.86 42 155.831 41.804C154.557 41.559 153.332 40.824 152.303 40.04C150.735 38.815 149.461 37.247 148.236 35.679C146.472 33.425 145.051 30.877 143.777 28.329C143.679 31.416 143.63 34.552 142.944 37.59C142.65 38.815 142.16 40.138 141.278 41.02C140.788 41.461 140.2 41.755 139.563 41.853C136.525 42.392 134.271 39.256 133.634 36.218C133.144 33.817 133.291 31.318 133.193 28.819C133.144 27.055 133.291 17.206 133.389 15.442C133.487 13.678 133.732 11.914 134.418 10.346C135.006 8.974 135.937 7.651 137.26 6.916C138.485 6.279 140.2 6.23 141.474 6.818C142.993 7.455 144.267 8.582 145.247 9.905C147.06 12.208 148.481 14.805 149.853 17.402C150.833 19.313 151.813 21.175 152.744 23.086C152.646 20.195 152.744 17.304 153.087 14.462C153.234 12.992 153.626 11.571 154.214 10.248C154.704 9.17 155.439 8.092 156.37 7.406C157.35 6.622 158.82 6.23 160.045 6.573C160.829 6.818 161.515 7.357 162.054 7.994C163.524 9.856 164.21 12.306 164.504 14.658C165.19 19.607 164.994 24.703 164.455 29.701C164.21 32.2 163.916 34.797 162.985 37.1C162.201 38.913 160.829 40.677 159.016 41.51ZM186.074 42.441C183.477 42.686 180.782 42.294 178.332 41.461C175.441 40.481 172.844 38.227 171.178 35.679C170.492 34.601 169.806 33.474 169.414 32.249C168.385 29.211 168.385 25.879 168.728 22.743C169.12 19.215 170.688 15.736 172.795 12.796C174.265 10.787 176.176 8.925 178.381 7.651C180.39 6.426 182.84 5.789 185.192 5.789C187.495 5.838 189.798 6.23 191.954 6.916C194.11 7.651 195.972 9.415 197.295 11.277C198.324 12.698 199.01 14.462 199.402 16.226C199.99 18.725 200.137 21.273 200.088 23.821C199.99 27.692 198.961 31.71 196.952 34.993C195.776 37.051 194.11 38.962 192.101 40.236C190.337 41.412 188.23 42.196 186.074 42.441ZM183.869 30.485C185.486 31.367 187.25 30.093 188.132 28.525C189.406 26.369 189.798 23.625 189.406 21.175C189.21 19.999 188.818 18.823 188.083 17.843C187.691 17.304 187.054 16.765 186.368 16.618C185.682 16.422 184.898 16.618 184.31 17.059C181.517 18.921 180.733 24.262 181.762 27.447C182.154 28.623 182.791 29.897 183.869 30.485ZM208.126 42.49C205.627 42.931 204.01 40.285 203.52 37.835C203.275 36.512 203.177 35.189 203.226 33.866C203.422 29.848 204.206 25.83 205.186 21.91C205.627 19.999 206.117 18.137 206.754 16.275C207.097 15.197 208.959 10.052 209.547 9.072C209.596 8.974 209.792 8.925 209.841 8.827C210.282 8.239 210.772 7.651 211.36 7.21C212.438 6.426 213.81 5.936 215.133 5.887C215.329 5.887 215.966 5.789 216.113 5.887C216.211 5.985 216.799 6.034 216.946 6.083C217.436 6.23 217.926 6.573 218.318 6.916C218.955 7.602 219.396 8.484 219.837 9.366C220.866 11.522 221.601 13.776 222.238 16.079C222.924 18.382 223.512 20.685 224.1 22.988C224.198 22.743 224.835 21.224 224.982 20.979C226.501 17.402 228.216 13.923 230.274 10.64C231.695 8.386 234.88 5.985 237.379 6.916C241.054 8.19 242.475 16.324 243.161 20.146C243.308 21.028 244.288 26.418 244.435 27.3C244.925 30.142 245.268 33.033 244.974 35.875C244.827 37.688 244.239 39.697 242.916 41.02C242.034 41.853 240.466 42.294 239.29 41.902C238.114 41.461 237.134 40.383 236.546 39.256C234.635 35.728 233.655 31.661 232.626 27.741C231.94 29.407 231.205 31.024 230.421 32.641C229.49 34.552 228.461 36.414 227.04 37.982C226.403 38.619 225.619 39.158 224.737 39.354C224.1 39.501 223.414 39.403 222.777 39.158C221.895 38.717 221.062 37.982 220.474 37.149C218.612 34.503 217.583 31.318 216.505 28.231C215.672 30.975 214.839 33.768 213.761 36.414C212.879 38.521 211.458 40.53 209.596 41.804C209.155 42.147 208.665 42.392 208.126 42.49ZM262.954 41.951C261.043 42.049 259.181 42.196 257.27 42.147C255.555 42.098 253.791 42 252.125 41.461C251.243 41.167 250.361 40.677 249.773 39.942C249.185 39.207 248.891 38.276 248.842 37.345C248.793 35.287 249.822 32.004 251.782 31.318C253.105 30.828 254.624 30.779 256.045 30.877C255.555 26.908 255.604 22.841 256.143 18.921C254.526 19.313 252.566 19.215 251.145 18.382C250.263 17.843 249.577 17.059 249.087 16.177C248.107 14.56 247.911 12.355 248.401 10.493C248.891 8.778 250.214 7.112 251.831 6.426C253.546 5.74 255.506 5.789 257.319 5.887C257.662 5.887 259.769 5.642 260.112 5.642C260.994 5.593 266.041 5.593 266.874 5.642C268.638 5.691 270.598 5.936 272.019 6.916C272.705 7.406 273.244 8.043 273.636 8.729C275.4 11.963 274.175 16.52 271.137 18.578C270.304 19.166 269.226 19.411 268.197 19.509C268.736 22.792 268.736 26.222 268.148 29.554C269.226 29.603 270.304 29.75 271.284 30.191C272.019 30.534 272.754 31.073 273.244 31.759C274.371 33.229 274.959 35.287 274.763 37.149C274.616 38.57 273.783 40.04 272.656 40.824C271.529 41.608 270.059 41.853 268.687 41.951C266.776 42.049 264.865 41.804 262.954 41.951ZM303.413 39.06C301.404 41.265 298.072 42.343 295.083 42.245C291.065 42.196 286.802 40.873 283.568 38.423C281.412 36.855 279.697 34.503 278.668 32.004C277.786 29.995 277.492 27.692 277.345 25.487C277.198 22.008 278.031 18.431 279.55 15.344C281.461 11.522 284.94 8.043 289.007 6.72C291.702 5.789 294.691 5.642 297.533 6.034C299.248 6.279 301.012 6.867 302.433 7.847C303.217 8.386 303.854 9.072 304.344 9.856C305.422 11.424 306.01 13.384 306.108 15.246C306.157 16.814 305.765 18.48 304.883 19.803C304.246 20.783 303.364 21.714 302.335 22.253C300.914 22.939 299.101 23.086 297.68 22.547C296.161 21.959 294.789 20.538 294.397 18.97C294.005 18.578 293.564 18.186 293.025 18.039C292.29 17.843 291.604 18.039 291.114 18.627C289.644 20.489 289.105 23.184 289.791 25.438C289.987 26.124 290.428 26.761 291.065 27.153C291.702 27.594 292.584 27.741 293.417 27.692C295.573 27.594 297.778 26.957 299.934 27.251C301.502 27.447 303.168 28.329 304.099 29.603C304.834 30.681 304.981 32.102 305.128 33.376C305.324 35.336 304.736 37.59 303.413 39.06ZM322.738 42.392C320.582 42.588 318.377 42.588 316.221 42.098C314.996 41.853 313.869 41.216 312.84 40.432C311.419 39.403 310.145 37.933 309.655 36.218C308.822 33.425 309.704 29.848 312.399 28.868C313.918 28.28 315.682 28.574 317.201 29.064C317.593 29.211 319.896 30.191 320.288 30.289C320.925 30.436 321.611 30.534 322.199 30.289C322.542 30.142 322.64 29.75 322.395 29.456C322.101 29.211 320.68 28.672 320.288 28.525C318.132 27.741 315.829 27.104 313.82 25.879C312.546 25.095 311.517 23.723 310.978 22.253C310.341 20.489 310.145 18.48 310.439 16.618C310.733 15.001 311.517 13.384 312.546 12.061C313.183 11.326 313.771 10.493 314.506 9.807C315.976 8.484 317.74 7.455 319.651 6.916C322.15 6.181 324.845 6.181 327.393 6.573C328.814 6.769 330.235 7.21 331.46 7.994C332.293 8.582 333.077 9.317 333.665 10.15C335.233 12.257 336.262 15.736 334.351 17.549C333.224 18.627 331.705 19.362 330.137 19.46C327.932 19.607 325.727 18.823 323.571 19.215C323.13 19.313 322.297 19.509 322.199 19.901C322.101 20.195 322.493 20.636 322.738 20.832C323.326 21.273 326.413 22.792 327.05 23.135C329.304 24.262 331.607 25.585 333.175 27.545C334.155 28.819 334.792 30.485 334.89 32.102C334.988 33.523 334.645 34.944 334.057 36.267C333.175 38.178 331.509 39.844 329.647 40.775C327.491 41.804 325.09 42.245 322.738 42.392Z"/>
</mask>
<path d="M20.6661 38.472C19.5881 40.579 17.4811 41.853 15.1781 41.853C13.5611 41.804 11.8951 40.922 10.8171 39.697C9.78809 38.472 9.15109 36.953 8.71009 35.483C8.17109 33.474 7.92609 31.367 7.97509 29.26C8.07309 25.781 8.56309 22.302 9.15109 18.872C8.02409 18.872 6.84809 18.774 5.81909 18.382C4.64309 17.941 3.61409 17.206 2.78109 16.324C0.91909 14.364 1.21309 10.64 2.87909 8.533C3.61409 7.602 4.64309 6.916 5.72109 6.524C6.40709 6.328 7.09309 6.23 7.77909 6.23C9.54309 6.132 11.3071 6.279 13.0711 6.279C13.4631 6.279 13.8551 6.23 14.2471 6.23C14.2961 6.23 14.4921 6.328 14.5411 6.328C16.5991 6.23 18.6571 6.083 20.7151 6.083C22.0381 6.132 23.3611 6.328 24.4881 6.916C26.8891 8.239 28.1141 11.032 27.5751 13.629C27.2321 15.197 26.0071 16.569 24.6841 17.353C23.6551 17.941 22.3811 18.235 21.1561 18.235C21.5481 23.037 22.3321 27.79 22.1361 32.592C22.0381 34.601 21.5971 36.659 20.6661 38.472ZM46.6346 42.441C44.0376 42.686 41.3426 42.294 38.8926 41.461C36.0016 40.481 33.4046 38.227 31.7386 35.679C31.0526 34.601 30.3666 33.474 29.9746 32.249C28.9456 29.211 28.9456 25.879 29.2886 22.743C29.6806 19.215 31.2486 15.736 33.3556 12.796C34.8256 10.787 36.7366 8.925 38.9416 7.651C40.9506 6.426 43.4006 5.789 45.7526 5.789C48.0556 5.838 50.3586 6.23 52.5146 6.916C54.6706 7.651 56.5326 9.415 57.8556 11.277C58.8846 12.698 59.5706 14.462 59.9626 16.226C60.5506 18.725 60.6976 21.273 60.6486 23.821C60.5506 27.692 59.5216 31.71 57.5126 34.993C56.3366 37.051 54.6706 38.962 52.6616 40.236C50.8976 41.412 48.7906 42.196 46.6346 42.441ZM44.4296 30.485C46.0466 31.367 47.8106 30.093 48.6926 28.525C49.9666 26.369 50.3586 23.625 49.9666 21.175C49.7706 19.999 49.3786 18.823 48.6436 17.843C48.2516 17.304 47.6146 16.765 46.9286 16.618C46.2426 16.422 45.4586 16.618 44.8706 17.059C42.0776 18.921 41.2936 24.262 42.3226 27.447C42.7146 28.623 43.3516 29.897 44.4296 30.485ZM75.0071 41.314C72.9981 42.49 70.4501 42.49 68.5881 41.265C67.4611 40.53 66.6281 39.354 66.0891 38.129C64.9621 35.679 64.7661 32.837 64.6681 30.093C64.5701 27.006 64.6191 23.87 64.7171 20.783C64.8151 18.088 64.8151 15.344 65.3541 12.698C65.8441 10.395 67.3631 8.043 69.5191 7.014C71.9201 5.838 75.4481 6.279 76.9181 8.533C77.5061 9.415 77.7021 10.493 77.8001 11.571C77.9961 13.384 77.8981 15.197 77.8491 16.961C79.6621 14.266 81.8181 11.718 84.3661 9.66C85.8851 8.484 87.5511 7.357 89.4131 6.916C90.5401 6.72 91.7651 6.867 92.7941 7.308C94.9011 8.288 97.3511 11.62 97.2531 13.972C97.2041 15.883 96.0281 17.843 94.5581 19.068C92.5491 20.783 90.0011 21.763 87.5021 22.547C87.2081 22.645 86.5711 23.38 86.3751 23.576C86.2281 23.772 86.4241 24.311 86.4731 24.556C86.8161 25.634 87.6001 26.565 88.4331 27.349C89.4131 28.378 90.5891 29.211 91.7651 29.995C92.6961 30.583 93.6761 31.171 94.5091 31.955C95.1461 32.641 95.6851 33.523 95.8321 34.454C95.9791 35.238 95.8811 36.071 95.6361 36.806C95.1461 38.325 94.0191 39.697 92.6471 40.53C87.6981 43.666 82.5041 38.57 79.6131 33.474C79.3191 34.699 78.9761 35.924 78.4861 37.1C77.7511 38.766 76.5751 40.334 75.0071 41.314ZM119.903 42.098C116.718 42.245 113.533 42.245 110.397 41.706C108.388 41.363 106.379 40.579 104.86 39.256C102.557 37.247 101.038 34.16 100.597 31.073C100.058 27.839 100.205 24.458 100.695 21.175C101.087 18.235 101.724 15.295 103.047 12.649C103.88 11.081 105.007 9.611 106.33 8.386C107.114 7.651 107.996 7.014 109.025 6.671C110.152 6.23 111.426 6.279 112.602 6.034C114.464 5.691 116.375 5.691 118.237 5.593C121.177 5.397 124.313 5.495 126.91 6.818C127.547 7.161 128.135 7.7 128.576 8.337C129.066 9.121 129.311 10.052 129.36 11.032C129.556 13.972 127.596 16.863 124.656 16.814C123.823 16.814 122.941 16.618 122.157 16.373C120.638 15.981 119.119 15.491 117.551 15.295C116.277 15.197 114.856 15.344 113.827 16.128C113.386 16.471 113.043 17.059 113.043 17.647C113.092 18.137 113.631 18.137 114.121 18.088C115.64 17.892 117.061 17.353 118.58 17.206C119.511 17.108 120.491 17.059 121.373 17.353C122.157 17.696 122.892 18.333 123.235 19.117C123.676 20.195 123.823 21.371 123.725 22.498C123.676 23.576 123.382 24.752 122.696 25.585C122.255 26.173 121.667 26.614 120.981 26.908C120.246 27.202 119.462 27.251 118.629 27.3C117.404 27.349 113.876 26.81 112.994 27.692C112.063 28.574 113.288 29.946 114.562 30.24C115.836 30.485 117.208 30.142 118.482 29.848C120.344 29.456 122.304 28.966 124.166 29.309C125.636 29.505 127.155 30.338 127.939 31.514C128.576 32.494 128.723 33.817 128.478 34.944C128.037 37.1 126.861 39.305 125.146 40.677C123.725 41.804 121.716 42.049 119.903 42.098ZM159.016 41.51C158.036 41.951 156.86 42 155.831 41.804C154.557 41.559 153.332 40.824 152.303 40.04C150.735 38.815 149.461 37.247 148.236 35.679C146.472 33.425 145.051 30.877 143.777 28.329C143.679 31.416 143.63 34.552 142.944 37.59C142.65 38.815 142.16 40.138 141.278 41.02C140.788 41.461 140.2 41.755 139.563 41.853C136.525 42.392 134.271 39.256 133.634 36.218C133.144 33.817 133.291 31.318 133.193 28.819C133.144 27.055 133.291 17.206 133.389 15.442C133.487 13.678 133.732 11.914 134.418 10.346C135.006 8.974 135.937 7.651 137.26 6.916C138.485 6.279 140.2 6.23 141.474 6.818C142.993 7.455 144.267 8.582 145.247 9.905C147.06 12.208 148.481 14.805 149.853 17.402C150.833 19.313 151.813 21.175 152.744 23.086C152.646 20.195 152.744 17.304 153.087 14.462C153.234 12.992 153.626 11.571 154.214 10.248C154.704 9.17 155.439 8.092 156.37 7.406C157.35 6.622 158.82 6.23 160.045 6.573C160.829 6.818 161.515 7.357 162.054 7.994C163.524 9.856 164.21 12.306 164.504 14.658C165.19 19.607 164.994 24.703 164.455 29.701C164.21 32.2 163.916 34.797 162.985 37.1C162.201 38.913 160.829 40.677 159.016 41.51ZM186.074 42.441C183.477 42.686 180.782 42.294 178.332 41.461C175.441 40.481 172.844 38.227 171.178 35.679C170.492 34.601 169.806 33.474 169.414 32.249C168.385 29.211 168.385 25.879 168.728 22.743C169.12 19.215 170.688 15.736 172.795 12.796C174.265 10.787 176.176 8.925 178.381 7.651C180.39 6.426 182.84 5.789 185.192 5.789C187.495 5.838 189.798 6.23 191.954 6.916C194.11 7.651 195.972 9.415 197.295 11.277C198.324 12.698 199.01 14.462 199.402 16.226C199.99 18.725 200.137 21.273 200.088 23.821C199.99 27.692 198.961 31.71 196.952 34.993C195.776 37.051 194.11 38.962 192.101 40.236C190.337 41.412 188.23 42.196 186.074 42.441ZM183.869 30.485C185.486 31.367 187.25 30.093 188.132 28.525C189.406 26.369 189.798 23.625 189.406 21.175C189.21 19.999 188.818 18.823 188.083 17.843C187.691 17.304 187.054 16.765 186.368 16.618C185.682 16.422 184.898 16.618 184.31 17.059C181.517 18.921 180.733 24.262 181.762 27.447C182.154 28.623 182.791 29.897 183.869 30.485ZM208.126 42.49C205.627 42.931 204.01 40.285 203.52 37.835C203.275 36.512 203.177 35.189 203.226 33.866C203.422 29.848 204.206 25.83 205.186 21.91C205.627 19.999 206.117 18.137 206.754 16.275C207.097 15.197 208.959 10.052 209.547 9.072C209.596 8.974 209.792 8.925 209.841 8.827C210.282 8.239 210.772 7.651 211.36 7.21C212.438 6.426 213.81 5.936 215.133 5.887C215.329 5.887 215.966 5.789 216.113 5.887C216.211 5.985 216.799 6.034 216.946 6.083C217.436 6.23 217.926 6.573 218.318 6.916C218.955 7.602 219.396 8.484 219.837 9.366C220.866 11.522 221.601 13.776 222.238 16.079C222.924 18.382 223.512 20.685 224.1 22.988C224.198 22.743 224.835 21.224 224.982 20.979C226.501 17.402 228.216 13.923 230.274 10.64C231.695 8.386 234.88 5.985 237.379 6.916C241.054 8.19 242.475 16.324 243.161 20.146C243.308 21.028 244.288 26.418 244.435 27.3C244.925 30.142 245.268 33.033 244.974 35.875C244.827 37.688 244.239 39.697 242.916 41.02C242.034 41.853 240.466 42.294 239.29 41.902C238.114 41.461 237.134 40.383 236.546 39.256C234.635 35.728 233.655 31.661 232.626 27.741C231.94 29.407 231.205 31.024 230.421 32.641C229.49 34.552 228.461 36.414 227.04 37.982C226.403 38.619 225.619 39.158 224.737 39.354C224.1 39.501 223.414 39.403 222.777 39.158C221.895 38.717 221.062 37.982 220.474 37.149C218.612 34.503 217.583 31.318 216.505 28.231C215.672 30.975 214.839 33.768 213.761 36.414C212.879 38.521 211.458 40.53 209.596 41.804C209.155 42.147 208.665 42.392 208.126 42.49ZM262.954 41.951C261.043 42.049 259.181 42.196 257.27 42.147C255.555 42.098 253.791 42 252.125 41.461C251.243 41.167 250.361 40.677 249.773 39.942C249.185 39.207 248.891 38.276 248.842 37.345C248.793 35.287 249.822 32.004 251.782 31.318C253.105 30.828 254.624 30.779 256.045 30.877C255.555 26.908 255.604 22.841 256.143 18.921C254.526 19.313 252.566 19.215 251.145 18.382C250.263 17.843 249.577 17.059 249.087 16.177C248.107 14.56 247.911 12.355 248.401 10.493C248.891 8.778 250.214 7.112 251.831 6.426C253.546 5.74 255.506 5.789 257.319 5.887C257.662 5.887 259.769 5.642 260.112 5.642C260.994 5.593 266.041 5.593 266.874 5.642C268.638 5.691 270.598 5.936 272.019 6.916C272.705 7.406 273.244 8.043 273.636 8.729C275.4 11.963 274.175 16.52 271.137 18.578C270.304 19.166 269.226 19.411 268.197 19.509C268.736 22.792 268.736 26.222 268.148 29.554C269.226 29.603 270.304 29.75 271.284 30.191C272.019 30.534 272.754 31.073 273.244 31.759C274.371 33.229 274.959 35.287 274.763 37.149C274.616 38.57 273.783 40.04 272.656 40.824C271.529 41.608 270.059 41.853 268.687 41.951C266.776 42.049 264.865 41.804 262.954 41.951ZM303.413 39.06C301.404 41.265 298.072 42.343 295.083 42.245C291.065 42.196 286.802 40.873 283.568 38.423C281.412 36.855 279.697 34.503 278.668 32.004C277.786 29.995 277.492 27.692 277.345 25.487C277.198 22.008 278.031 18.431 279.55 15.344C281.461 11.522 284.94 8.043 289.007 6.72C291.702 5.789 294.691 5.642 297.533 6.034C299.248 6.279 301.012 6.867 302.433 7.847C303.217 8.386 303.854 9.072 304.344 9.856C305.422 11.424 306.01 13.384 306.108 15.246C306.157 16.814 305.765 18.48 304.883 19.803C304.246 20.783 303.364 21.714 302.335 22.253C300.914 22.939 299.101 23.086 297.68 22.547C296.161 21.959 294.789 20.538 294.397 18.97C294.005 18.578 293.564 18.186 293.025 18.039C292.29 17.843 291.604 18.039 291.114 18.627C289.644 20.489 289.105 23.184 289.791 25.438C289.987 26.124 290.428 26.761 291.065 27.153C291.702 27.594 292.584 27.741 293.417 27.692C295.573 27.594 297.778 26.957 299.934 27.251C301.502 27.447 303.168 28.329 304.099 29.603C304.834 30.681 304.981 32.102 305.128 33.376C305.324 35.336 304.736 37.59 303.413 39.06ZM322.738 42.392C320.582 42.588 318.377 42.588 316.221 42.098C314.996 41.853 313.869 41.216 312.84 40.432C311.419 39.403 310.145 37.933 309.655 36.218C308.822 33.425 309.704 29.848 312.399 28.868C313.918 28.28 315.682 28.574 317.201 29.064C317.593 29.211 319.896 30.191 320.288 30.289C320.925 30.436 321.611 30.534 322.199 30.289C322.542 30.142 322.64 29.75 322.395 29.456C322.101 29.211 320.68 28.672 320.288 28.525C318.132 27.741 315.829 27.104 313.82 25.879C312.546 25.095 311.517 23.723 310.978 22.253C310.341 20.489 310.145 18.48 310.439 16.618C310.733 15.001 311.517 13.384 312.546 12.061C313.183 11.326 313.771 10.493 314.506 9.807C315.976 8.484 317.74 7.455 319.651 6.916C322.15 6.181 324.845 6.181 327.393 6.573C328.814 6.769 330.235 7.21 331.46 7.994C332.293 8.582 333.077 9.317 333.665 10.15C335.233 12.257 336.262 15.736 334.351 17.549C333.224 18.627 331.705 19.362 330.137 19.46C327.932 19.607 325.727 18.823 323.571 19.215C323.13 19.313 322.297 19.509 322.199 19.901C322.101 20.195 322.493 20.636 322.738 20.832C323.326 21.273 326.413 22.792 327.05 23.135C329.304 24.262 331.607 25.585 333.175 27.545C334.155 28.819 334.792 30.485 334.89 32.102C334.988 33.523 334.645 34.944 334.057 36.267C333.175 38.178 331.509 39.844 329.647 40.775C327.491 41.804 325.09 42.245 322.738 42.392Z" fill="#1C1BCD"/>
<path d="M20.6661 38.472L18.887 37.5584L18.8856 37.561L20.6661 38.472ZM15.1781 41.853L15.1175 43.8521L15.1478 43.853H15.1781V41.853ZM10.8171 39.697L9.28568 40.9834L9.30047 41.001L9.31566 41.0183L10.8171 39.697ZM8.71009 35.483L6.7784 36.0013L6.78601 36.0296L6.79444 36.0577L8.71009 35.483ZM7.97509 29.26L5.97586 29.2037L5.97563 29.2135L7.97509 29.26ZM9.15109 18.872L11.1223 19.2099L11.5231 16.872H9.15109V18.872ZM5.81909 18.382L6.53109 16.513L6.52134 16.5093L5.81909 18.382ZM2.78109 16.324L4.23512 14.9507L4.23109 14.9465L2.78109 16.324ZM2.87909 8.533L4.44792 9.77347L4.44886 9.77229L2.87909 8.533ZM5.72109 6.524L5.17165 4.60095L5.10386 4.62032L5.0376 4.64441L5.72109 6.524ZM7.77909 6.23V8.23H7.8346L7.89003 8.22692L7.77909 6.23ZM14.5411 6.328V8.328H14.5887L14.6362 8.32573L14.5411 6.328ZM20.7151 6.083L20.7891 4.08437L20.7521 4.083H20.7151V6.083ZM24.4881 6.916L25.4533 5.16432L25.4334 5.15335L25.4132 5.14283L24.4881 6.916ZM27.5751 13.629L29.5289 14.0564L29.5312 14.0459L29.5334 14.0354L27.5751 13.629ZM24.6841 17.353L25.6764 19.0895L25.6901 19.0816L25.7037 19.0736L24.6841 17.353ZM21.1561 18.235V16.235H18.9862L19.1627 18.3977L21.1561 18.235ZM22.1361 32.592L24.1337 32.6894L24.1341 32.6815L24.1344 32.6736L22.1361 32.592ZM18.8856 37.561C18.1483 39.0021 16.7274 39.853 15.1781 39.853V43.853C18.2348 43.853 21.0279 42.1559 22.4466 39.383L18.8856 37.561ZM15.2387 39.8539C14.2516 39.824 13.0846 39.2463 12.3185 38.3757L9.31566 41.0183C10.7056 42.5977 12.8706 43.784 15.1175 43.8521L15.2387 39.8539ZM12.3485 38.4106C11.5698 37.4836 11.031 36.2592 10.6257 34.9083L6.79444 36.0577C7.27118 37.6468 8.00633 39.4604 9.28568 40.9834L12.3485 38.4106ZM10.6418 34.9647C10.1538 33.1458 9.92983 31.2293 9.97455 29.3065L5.97563 29.2135C5.92235 31.5047 6.18841 33.8022 6.7784 36.0013L10.6418 34.9647ZM9.9743 29.3163C10.0683 25.9788 10.5396 22.609 11.1223 19.2099L7.17985 18.5341C6.58654 21.995 6.07787 25.5832 5.97588 29.2037L9.9743 29.3163ZM9.15109 16.872C8.10557 16.872 7.21909 16.7751 6.53108 16.513L5.1071 20.251C6.47709 20.7729 7.94261 20.872 9.15109 20.872V16.872ZM6.52134 16.5093C5.66889 16.1897 4.88877 15.6429 4.23512 14.9508L1.32706 17.6972C2.33941 18.7691 3.61729 19.6923 5.11684 20.2547L6.52134 16.5093ZM4.23109 14.9465C3.77381 14.4651 3.46928 13.6283 3.50593 12.5517C3.54237 11.4813 3.91342 10.4495 4.44792 9.77347L1.31026 7.29253C0.178757 8.72354 -0.430191 10.6072 -0.491752 12.4156C-0.5531 14.2177 -0.0736271 16.2228 1.33109 17.7015L4.23109 14.9465ZM4.44886 9.77229C4.92456 9.16973 5.62884 8.68567 6.40458 8.40358L5.0376 4.64441C3.65734 5.14633 2.30362 6.03427 1.30932 7.29371L4.44886 9.77229ZM6.27053 8.44705C6.78503 8.30005 7.28625 8.23 7.77909 8.23V4.23C6.89993 4.23 6.02915 4.35595 5.17165 4.60095L6.27053 8.44705ZM7.89003 8.22692C9.61714 8.13097 11.048 8.279 13.0711 8.279V4.279C11.5662 4.279 9.46904 4.13303 7.66815 4.23308L7.89003 8.22692ZM13.0711 8.279C13.34 8.279 13.5984 8.2622 13.7838 8.2506C13.9904 8.2377 14.124 8.23 14.2471 8.23V4.23C13.9782 4.23 13.7198 4.2468 13.5343 4.25839C13.3278 4.2713 13.1942 4.279 13.0711 4.279V8.279ZM14.2471 8.23C14.0962 8.23 13.978 8.2124 13.9162 8.20169C13.8478 8.18983 13.7939 8.17658 13.761 8.16789C13.6974 8.15108 13.6526 8.13531 13.6412 8.1313C13.6256 8.1258 13.6176 8.12258 13.6227 8.12456C13.6276 8.12647 13.6344 8.12917 13.6513 8.13595C13.665 8.14142 13.6888 8.15097 13.7134 8.16055C13.7378 8.17005 13.7742 8.18399 13.8157 8.19867C13.8532 8.21188 13.9217 8.2353 14.0056 8.25746C14.0487 8.26884 14.1119 8.2842 14.1885 8.29749C14.2586 8.30963 14.3841 8.328 14.5411 8.328V4.328C14.692 4.328 14.8102 4.3456 14.872 4.35631C14.9403 4.36816 14.9943 4.38142 15.0272 4.39011C15.0908 4.40692 15.1356 4.42268 15.147 4.4267C15.1626 4.43219 15.1706 4.43542 15.1655 4.43343C15.1606 4.43153 15.1538 4.42883 15.1369 4.42204C15.1232 4.41658 15.0994 4.40703 15.0748 4.39745C15.0504 4.38795 15.014 4.37401 14.9724 4.35933C14.935 4.34612 14.8665 4.3227 14.7826 4.30053C14.7395 4.28916 14.6763 4.2738 14.5996 4.26051C14.5296 4.24836 14.4041 4.23 14.2471 4.23V8.23ZM14.6362 8.32573C16.7576 8.22472 18.7205 8.083 20.7151 8.083V4.083C18.5936 4.083 16.4406 4.23528 14.446 4.33026L14.6362 8.32573ZM20.6411 8.08163C21.8517 8.12647 22.8249 8.30408 23.563 8.68917L25.4132 5.14283C23.8973 4.35191 22.2244 4.13753 20.7891 4.08437L20.6411 8.08163ZM23.5229 8.66768C25.1395 9.55849 25.9811 11.4673 25.6168 13.2226L29.5334 14.0354C30.2471 10.5967 28.6386 6.91951 25.4533 5.16432L23.5229 8.66768ZM25.6213 13.2016C25.4282 14.0843 24.6531 15.0466 23.6645 15.6324L25.7037 19.0736C27.3611 18.0914 29.036 16.3097 29.5289 14.0564L25.6213 13.2016ZM23.6918 15.6165C23.0098 16.0062 22.0885 16.235 21.1561 16.235V20.235C22.6737 20.235 24.3004 19.8758 25.6764 19.0895L23.6918 15.6165ZM19.1627 18.3977C19.5728 23.4211 20.3272 27.869 20.1378 32.5104L24.1344 32.6736C24.337 27.711 23.5234 22.6529 23.1495 18.0723L19.1627 18.3977ZM20.1385 32.4946C20.0508 34.2921 19.6581 36.0566 18.887 37.5584L22.4452 39.3856C23.5361 37.2614 24.0254 34.9099 24.1337 32.6894L20.1385 32.4946ZM46.6346 42.441L46.8224 44.4322L46.8414 44.4304L46.8604 44.4282L46.6346 42.441ZM38.8926 41.461L39.5364 39.5675L39.5346 39.5669L38.8926 41.461ZM31.7386 35.679L30.0512 36.7528L30.0579 36.7632L30.0646 36.7735L31.7386 35.679ZM29.9746 32.249L31.8794 31.6394L31.8743 31.6234L31.8688 31.6074L29.9746 32.249ZM29.2886 22.743L27.3008 22.5221L27.3004 22.5255L29.2886 22.743ZM33.3556 12.796L31.7415 11.615L31.7357 11.6229L31.7299 11.631L33.3556 12.796ZM38.9416 7.651L39.9421 9.38273L39.9626 9.3709L39.9828 9.35859L38.9416 7.651ZM45.7526 5.789L45.7951 3.78945L45.7738 3.789H45.7526V5.789ZM52.5146 6.916L53.1599 5.02298L53.1405 5.01636L53.121 5.01015L52.5146 6.916ZM57.8556 11.277L56.2252 12.4354L56.2304 12.4427L56.2357 12.45L57.8556 11.277ZM59.9626 16.226L58.0102 16.6599L58.0129 16.672L58.0157 16.6841L59.9626 16.226ZM60.6486 23.821L62.648 23.8716L62.6482 23.8595L60.6486 23.821ZM57.5126 34.993L55.8066 33.9491L55.791 33.9747L55.7761 34.0007L57.5126 34.993ZM52.6616 40.236L51.5905 38.547L51.5712 38.5592L51.5522 38.5719L52.6616 40.236ZM44.4296 30.485L45.3873 28.7292L44.4296 30.485ZM48.6926 28.525L46.9707 27.5075L46.9599 27.5259L46.9494 27.5445L48.6926 28.525ZM49.9666 21.175L51.9415 20.859L51.9393 20.8462L49.9666 21.175ZM48.6436 17.843L47.0261 19.0193L47.0347 19.0312L47.0436 19.043L48.6436 17.843ZM46.9286 16.618L46.3791 18.541L46.4438 18.5595L46.5095 18.5736L46.9286 16.618ZM44.8706 17.059L45.98 18.7231L46.0261 18.6923L46.0706 18.659L44.8706 17.059ZM42.3226 27.447L40.4194 28.0619L40.4223 28.0707L40.4252 28.0795L42.3226 27.447ZM46.4467 40.4498C44.1671 40.6649 41.7561 40.3222 39.5364 39.5675L38.2488 43.3545C40.929 44.2658 43.908 44.7071 46.8224 44.4322L46.4467 40.4498ZM39.5346 39.5669C37.144 38.7565 34.882 36.832 33.4125 34.5845L30.0646 36.7735C31.9271 39.622 34.8591 42.2055 38.2505 43.3551L39.5346 39.5669ZM33.4259 34.6052C32.7356 33.5205 32.1836 32.5901 31.8794 31.6394L28.0697 32.8586C28.5495 34.3579 29.3695 35.6815 30.0512 36.7528L33.4259 34.6052ZM31.8688 31.6074C30.9758 28.9708 30.9469 25.976 31.2767 22.9605L27.3004 22.5255C26.9442 25.782 26.9153 29.4512 28.0803 32.8906L31.8688 31.6074ZM31.2763 22.9639C31.6216 19.8566 33.0208 16.6964 34.9812 13.961L31.7299 11.631C29.4763 14.7756 27.7395 18.5734 27.3008 22.5221L31.2763 22.9639ZM34.9696 13.977C36.3095 12.1459 38.0228 10.4916 39.9421 9.38273L37.941 5.91927C35.4503 7.35835 33.3416 9.42814 31.7415 11.615L34.9696 13.977ZM39.9828 9.35859C41.6544 8.3393 43.7391 7.789 45.7526 7.789V3.789C43.062 3.789 40.2467 4.5127 37.9003 5.94341L39.9828 9.35859ZM45.71 7.78855C47.8179 7.83339 49.9311 8.1928 51.9082 8.82185L53.121 5.01015C50.786 4.2672 48.2932 3.8426 45.7951 3.78945L45.71 7.78855ZM51.8692 8.80902C53.4753 9.35656 55.0314 10.7553 56.2252 12.4354L59.4859 10.1186C58.0337 8.07471 55.8658 5.94543 53.1599 5.02298L51.8692 8.80902ZM56.2357 12.45C57.0623 13.5915 57.6595 15.0816 58.0102 16.6599L61.9149 15.7921C61.4817 13.8424 60.7068 11.8045 59.4754 10.104L56.2357 12.45ZM58.0157 16.6841C58.5521 18.9636 58.6961 21.331 58.6489 23.7825L62.6482 23.8595C62.699 21.215 62.549 18.4863 61.9094 15.7679L58.0157 16.6841ZM58.6492 23.7704C58.5587 27.3464 57.6051 31.0102 55.8066 33.9491L59.2185 36.0369C61.4381 32.4098 62.5425 28.0376 62.6479 23.8716L58.6492 23.7704ZM55.7761 34.0007C54.7281 35.8346 53.2721 37.4806 51.5905 38.547L53.7326 41.925C56.069 40.4434 57.945 38.2674 59.249 35.9853L55.7761 34.0007ZM51.5522 38.5719C50.0492 39.5739 48.2444 40.2452 46.4087 40.4538L46.8604 44.4282C49.3367 44.1468 51.7459 43.2501 53.771 41.9001L51.5522 38.5719ZM43.4719 32.2408C45.0056 33.0774 46.5806 32.8309 47.7823 32.1861C48.9353 31.5674 49.8483 30.5499 50.4357 29.5055L46.9494 27.5445C46.6549 28.0681 46.2448 28.4716 45.891 28.6614C45.586 28.8251 45.4705 28.7746 45.3873 28.7292L43.4719 32.2408ZM50.4144 29.5425C51.959 26.9285 52.396 23.7001 51.9414 20.859L47.9917 21.491C48.3211 23.5499 47.9741 25.8095 46.9707 27.5075L50.4144 29.5425ZM51.9393 20.8462C51.7106 19.4738 51.2324 17.9614 50.2436 16.643L47.0436 19.043C47.5247 19.6846 47.8305 20.5242 47.9938 21.5038L51.9393 20.8462ZM50.261 16.6667C49.7014 15.8972 48.6859 14.9492 47.3476 14.6624L46.5095 18.5736C46.4978 18.5711 46.5669 18.5864 46.6963 18.6835C46.8208 18.7769 46.9398 18.9007 47.0261 19.0193L50.261 16.6667ZM47.478 14.695C46.0861 14.2973 44.6654 14.7129 43.6706 15.459L46.0706 18.659C46.1422 18.6053 46.2261 18.5678 46.3002 18.5512C46.3739 18.5347 46.3987 18.5466 46.3791 18.541L47.478 14.695ZM43.7612 15.3949C41.7388 16.7431 40.6722 19.1452 40.2067 21.3424C39.732 23.5836 39.7783 26.0774 40.4194 28.0619L44.2257 26.8321C43.8378 25.6316 43.7617 23.8624 44.1199 22.1714C44.4874 20.4363 45.2093 19.2369 45.98 18.7231L43.7612 15.3949ZM40.4252 28.0795C40.8404 29.325 41.6779 31.2623 43.4719 32.2408L45.3873 28.7292C45.0252 28.5317 44.5888 27.921 44.2199 26.8145L40.4252 28.0795ZM75.0071 41.314L76.0174 43.04L76.0425 43.0254L76.0671 43.01L75.0071 41.314ZM68.5881 41.265L69.6873 39.5942L69.6806 39.5898L68.5881 41.265ZM66.0891 38.129L67.9197 37.3235L67.913 37.3083L67.9061 37.2932L66.0891 38.129ZM64.6681 30.093L62.6691 30.1565L62.6694 30.1644L64.6681 30.093ZM64.7171 20.783L62.7184 20.7103L62.7181 20.7195L64.7171 20.783ZM65.3541 12.698L63.3979 12.2818L63.3961 12.2903L63.3943 12.2988L65.3541 12.698ZM69.5191 7.014L70.3805 8.81896L70.3897 8.81459L70.3988 8.81012L69.5191 7.014ZM76.9181 8.533L75.2429 9.62553L75.2484 9.63399L75.254 9.6424L76.9181 8.533ZM77.8001 11.571L75.8083 11.7521L75.8098 11.769L75.8117 11.786L77.8001 11.571ZM77.8491 16.961L75.8499 16.9055L75.6583 23.8006L79.5085 18.0774L77.8491 16.961ZM84.3661 9.66L83.1417 8.07855L83.1255 8.09117L83.1094 8.10412L84.3661 9.66ZM89.4131 6.916L89.0704 4.94558L89.0109 4.95592L88.9522 4.96984L89.4131 6.916ZM92.7941 7.308L93.6376 5.49456L93.6099 5.48171L93.5819 5.46971L92.7941 7.308ZM97.2531 13.972L95.2548 13.8887L95.2542 13.9047L95.2537 13.9207L97.2531 13.972ZM94.5581 19.068L93.2777 17.5316L93.2686 17.5392L93.2596 17.5469L94.5581 19.068ZM87.5021 22.547L86.9034 20.6387L86.8865 20.644L86.8696 20.6496L87.5021 22.547ZM86.3751 23.576L84.9609 22.1618L84.8604 22.2623L84.7751 22.376L86.3751 23.576ZM86.4731 24.556L84.5119 24.9482L84.5337 25.0568L84.5672 25.1624L86.4731 24.556ZM88.4331 27.349L89.8814 25.9697L89.8437 25.9301L89.8038 25.8926L88.4331 27.349ZM91.7651 29.995L90.6557 31.6591L90.6762 31.6728L90.6971 31.686L91.7651 29.995ZM94.5091 31.955L95.9747 30.5941L95.9289 30.5448L95.8798 30.4986L94.5091 31.955ZM95.8321 34.454L93.8566 34.7659L93.8611 34.7943L93.8663 34.8226L95.8321 34.454ZM95.6361 36.806L93.7387 36.1735L93.7357 36.1828L93.7327 36.192L95.6361 36.806ZM92.6471 40.53L91.6091 38.8204L91.5928 38.8304L91.5766 38.8406L92.6471 40.53ZM79.6131 33.474L81.3527 32.4871L78.8513 28.078L77.6683 33.0073L79.6131 33.474ZM78.4861 37.1L80.3159 37.9073L80.3243 37.8883L80.3322 37.8692L78.4861 37.1ZM73.9967 39.588C72.5872 40.4131 70.8605 40.366 69.6873 39.5942L67.4889 42.9358C70.0397 44.614 73.409 44.5669 76.0174 43.04L73.9967 39.588ZM69.6806 39.5898C68.9774 39.1311 68.3576 38.3187 67.9197 37.3235L64.2585 38.9345C64.8986 40.3893 65.9448 41.9289 67.4956 42.9402L69.6806 39.5898ZM67.9061 37.2932C66.9662 35.2499 66.7655 32.7843 66.6668 30.0216L62.6694 30.1644C62.7667 32.8897 62.958 36.1081 64.2721 38.9648L67.9061 37.2932ZM66.6671 30.0295C66.571 27.0032 66.6187 23.9148 66.7161 20.8465L62.7181 20.7195C62.6195 23.8252 62.5692 27.0088 62.6691 30.1565L66.6671 30.0295ZM66.7158 20.8557C66.8177 18.0522 66.8171 15.5357 67.3138 13.0972L63.3943 12.2988C62.8131 15.1523 62.8125 18.1238 62.7184 20.7103L66.7158 20.8557ZM67.3103 13.1142C67.7048 11.2601 68.9174 9.51729 70.3805 8.81896L68.6576 5.20904C65.8088 6.56871 63.9834 9.52987 63.3979 12.2818L67.3103 13.1142ZM70.3988 8.81012C71.1894 8.42291 72.236 8.2803 73.2146 8.45583C74.1931 8.63134 74.8855 9.07754 75.2429 9.62553L78.5933 7.44046C77.4807 5.73446 75.6741 4.83316 73.9208 4.51867C72.1676 4.20419 70.2498 4.42909 68.6394 5.21787L70.3988 8.81012ZM75.254 9.6424C75.5511 10.0881 75.7164 10.741 75.8083 11.7521L79.7919 11.3899C79.6878 10.245 79.4611 8.74193 78.5822 7.4236L75.254 9.6424ZM75.8117 11.786C75.9892 13.4277 75.901 15.0638 75.8499 16.9055L79.8483 17.0165C79.8952 15.3302 80.003 13.3402 79.7885 11.356L75.8117 11.786ZM79.5085 18.0774C81.2417 15.501 83.269 13.117 85.6228 11.2159L83.1094 8.10412C80.3672 10.319 78.0824 13.031 76.1896 15.8446L79.5085 18.0774ZM85.5904 11.2414C87.0805 10.0878 88.4581 9.1975 89.874 8.86216L88.9522 4.96984C86.6441 5.51649 84.6897 6.88016 83.1417 8.07855L85.5904 11.2414ZM89.7558 8.88642C90.5007 8.75687 91.333 8.85774 92.0062 9.14629L93.5819 5.46971C92.1972 4.87625 90.5795 4.68313 89.0704 4.94558L89.7558 8.88642ZM91.9506 9.12144C92.5726 9.41073 93.4625 10.1882 94.2052 11.2627C94.9642 12.3608 95.2775 13.3443 95.2548 13.8887L99.2514 14.0553C99.3267 12.2477 98.464 10.3892 97.4957 8.98834C96.5111 7.56383 95.1226 6.18527 93.6376 5.49456L91.9506 9.12144ZM95.2537 13.9207C95.2231 15.1157 94.4264 16.5743 93.2777 17.5316L95.8385 20.6044C97.6298 19.1117 99.1851 16.6503 99.2524 14.0233L95.2537 13.9207ZM93.2596 17.5469C91.5762 18.9839 89.3605 19.8679 86.9034 20.6387L88.1008 24.4553C90.6417 23.6581 93.522 22.5821 95.8566 20.5891L93.2596 17.5469ZM86.8696 20.6496C86.6058 20.7376 86.4026 20.8595 86.2873 20.9344C86.1588 21.018 86.0466 21.1048 85.9581 21.1777C85.7822 21.3225 85.6172 21.4809 85.4876 21.6105C85.3536 21.7445 85.2284 21.8772 85.1335 21.9784C85.0812 22.0342 85.0472 22.0707 85.0113 22.1088C84.9951 22.126 84.9827 22.1392 84.973 22.1492C84.9629 22.1598 84.9595 22.1631 84.9609 22.1618L87.7893 24.9902C87.8372 24.9424 87.8867 24.8901 87.9241 24.8503C87.9617 24.8103 88.012 24.7564 88.0516 24.7142C88.1404 24.6195 88.2296 24.5255 88.3161 24.439C88.407 24.3481 88.4686 24.2921 88.5009 24.2654C88.5166 24.2526 88.5039 24.2644 88.4673 24.2882C88.4439 24.3034 88.3249 24.3809 88.1345 24.4444L86.8696 20.6496ZM84.7751 22.376C84.3651 22.9226 84.3263 23.4996 84.3218 23.74C84.3165 24.0249 84.3575 24.2753 84.387 24.4277C84.4187 24.5911 84.4577 24.7418 84.4812 24.8319C84.5144 24.9593 84.5143 24.9601 84.5119 24.9482L88.4342 24.1638C88.4181 24.0832 88.3999 24.0094 88.3876 23.9609C88.3755 23.9129 88.3604 23.8559 88.3517 23.8222C88.3292 23.7363 88.3193 23.694 88.3141 23.6676C88.3069 23.6301 88.3234 23.6936 88.3211 23.8147C88.3199 23.8803 88.3128 24.002 88.2738 24.1558C88.2346 24.3104 88.1524 24.5395 87.9751 24.776L84.7751 22.376ZM84.5672 25.1624C85.0658 26.7295 86.1489 27.9457 87.0624 28.8054L89.8038 25.8926C89.0513 25.1843 88.5663 24.5385 88.3789 23.9496L84.5672 25.1624ZM86.9848 28.7283C88.1295 29.9302 89.4668 30.8665 90.6557 31.6591L92.8745 28.3309C91.7114 27.5555 90.6967 26.8258 89.8814 25.9697L86.9848 28.7283ZM90.6971 31.686C91.695 32.3162 92.4784 32.7903 93.1384 33.4114L95.8798 30.4986C94.8738 29.5517 93.6971 28.8497 92.8331 28.304L90.6971 31.686ZM93.0435 33.3159C93.5147 33.8233 93.7918 34.3559 93.8566 34.7659L97.8076 34.1421C97.5784 32.6901 96.7775 31.4587 95.9747 30.5941L93.0435 33.3159ZM93.8663 34.8226C93.9392 35.2109 93.898 35.6958 93.7387 36.1735L97.5335 37.4385C97.8642 36.4462 98.019 35.2651 97.7978 34.0854L93.8663 34.8226ZM93.7327 36.192C93.3995 37.2248 92.5971 38.2206 91.6091 38.8204L93.685 42.2396C95.4411 41.1734 96.8927 39.4252 97.5395 37.42L93.7327 36.192ZM91.5766 38.8406C89.9781 39.8535 88.3215 39.6608 86.4677 38.4249C84.5446 37.1428 82.7126 34.8844 81.3527 32.4871L77.8735 34.4609C79.4045 37.1596 81.615 39.9972 84.2489 41.7531C86.9522 43.5552 90.3671 44.3425 93.7176 42.2194L91.5766 38.8406ZM77.6683 33.0073C77.3843 34.1906 77.0704 35.2977 76.6399 36.3308L80.3322 37.8692C80.8818 36.5503 81.2539 35.2074 81.5579 33.9407L77.6683 33.0073ZM76.6563 36.2927C76.0401 37.6893 75.095 38.9005 73.9471 39.618L76.0671 43.01C78.0551 41.7675 79.4621 39.8427 80.3159 37.9073L76.6563 36.2927ZM119.903 42.098L119.849 40.0987L119.829 40.0992L119.81 40.1001L119.903 42.098ZM110.397 41.706L110.735 39.7349L110.733 39.7345L110.397 41.706ZM104.86 39.256L103.545 40.7631L103.546 40.7642L104.86 39.256ZM100.597 31.073L102.576 30.7902L102.573 30.7671L102.569 30.7442L100.597 31.073ZM100.695 21.175L102.673 21.4702L102.675 21.4548L102.677 21.4393L100.695 21.175ZM103.047 12.649L101.28 11.7107L101.269 11.7325L101.258 11.7546L103.047 12.649ZM106.33 8.386L107.688 9.85355L107.697 9.84507L106.33 8.386ZM109.025 6.671L109.657 8.56837L109.706 8.55216L109.753 8.53348L109.025 6.671ZM112.602 6.034L112.239 4.06709L112.216 4.0713L112.194 4.07604L112.602 6.034ZM118.237 5.593L118.342 7.59023L118.356 7.5895L118.37 7.58857L118.237 5.593ZM126.91 6.818L127.858 5.05706L127.838 5.04626L127.817 5.03592L126.91 6.818ZM128.576 8.337L130.272 7.277L130.247 7.23718L130.22 7.19858L128.576 8.337ZM129.36 11.032L127.362 11.1319L127.363 11.1485L127.364 11.165L129.36 11.032ZM124.656 16.814L124.689 14.8143L124.672 14.814H124.656V16.814ZM122.157 16.373L122.753 14.464L122.705 14.449L122.656 14.4364L122.157 16.373ZM117.551 15.295L117.799 13.3104L117.751 13.3045L117.704 13.3009L117.551 15.295ZM113.827 16.128L112.614 14.5371L112.607 14.5432L112.599 14.5493L113.827 16.128ZM113.043 17.647H111.043V17.7468L111.052 17.846L113.043 17.647ZM114.121 18.088L114.32 20.0781L114.348 20.0752L114.377 20.0716L114.121 18.088ZM118.58 17.206L118.772 19.1967L118.781 19.1959L118.789 19.195L118.58 17.206ZM121.373 17.353L122.174 15.5207L122.091 15.4843L122.005 15.4556L121.373 17.353ZM123.235 19.117L125.086 18.3597L125.077 18.3374L125.067 18.3154L123.235 19.117ZM123.725 22.498L121.732 22.3247L121.729 22.3659L121.727 22.4072L123.725 22.498ZM122.696 25.585L121.152 24.3136L121.123 24.3487L121.096 24.385L122.696 25.585ZM120.981 26.908L121.723 28.765L121.746 28.7559L121.768 28.7463L120.981 26.908ZM118.629 27.3L118.709 29.2984L118.727 29.2977L118.746 29.2965L118.629 27.3ZM112.994 27.692L114.369 29.1439L114.389 29.1253L114.408 29.1062L112.994 27.692ZM114.562 30.24L114.112 32.1888L114.148 32.1971L114.184 32.204L114.562 30.24ZM118.482 29.848L118.07 27.8909L118.051 27.8949L118.032 27.8992L118.482 29.848ZM124.166 29.309L123.803 31.2759L123.852 31.2849L123.901 31.2915L124.166 29.309ZM127.939 31.514L129.615 30.424L129.609 30.4143L129.603 30.4046L127.939 31.514ZM128.478 34.944L126.523 34.5191L126.521 34.5312L126.518 34.5432L128.478 34.944ZM125.146 40.677L126.388 42.244L126.395 42.2387L125.146 40.677ZM119.81 40.1001C116.674 40.2449 113.659 40.2373 110.735 39.7349L110.058 43.6771C113.407 44.2527 116.761 44.2451 119.995 44.0959L119.81 40.1001ZM110.733 39.7345C108.976 39.4345 107.341 38.7653 106.173 37.7478L103.546 40.7642C105.416 42.3927 107.799 43.2915 110.06 43.6775L110.733 39.7345ZM106.174 37.7489C104.282 36.0979 102.959 33.4713 102.576 30.7902L98.6167 31.3558C99.1157 34.8487 100.831 38.3961 103.545 40.7631L106.174 37.7489ZM102.569 30.7442C102.076 27.7823 102.202 24.6243 102.673 21.4702L98.7165 20.8798C98.2072 24.2917 98.0394 27.8957 98.6238 31.4018L102.569 30.7442ZM102.677 21.4393C103.057 18.5883 103.657 15.9008 104.835 13.5434L101.258 11.7546C99.7904 14.6892 99.116 17.8817 98.7121 20.9107L102.677 21.4393ZM104.813 13.5873C105.541 12.2164 106.531 10.9255 107.688 9.85352L104.971 6.91848C103.482 8.29652 102.218 9.94563 101.28 11.7107L104.813 13.5873ZM107.697 9.84507C108.368 9.21671 109.005 8.78577 109.657 8.56837L108.392 4.77363C106.986 5.24223 105.859 6.08528 104.962 6.92692L107.697 9.84507ZM109.753 8.53348C110.071 8.40932 110.462 8.33394 111.035 8.26447C111.531 8.20438 112.311 8.13753 113.009 7.99196L112.194 4.07604C111.716 4.17547 111.271 4.20662 110.554 4.29353C109.914 4.37106 109.105 4.49168 108.296 4.80851L109.753 8.53348ZM112.964 8.00091C114.656 7.68912 116.337 7.69574 118.342 7.59023L118.131 3.59576C116.412 3.68626 114.271 3.69287 112.239 4.06709L112.964 8.00091ZM118.37 7.58857C121.241 7.39714 123.913 7.53581 126.002 8.60008L127.817 5.03592C124.713 3.45418 121.112 3.39685 118.104 3.59743L118.37 7.58857ZM125.961 8.57894C126.296 8.75908 126.653 9.07405 126.931 9.47542L130.22 7.19858C129.616 6.32594 128.797 5.56292 127.858 5.05706L125.961 8.57894ZM126.88 9.39699C127.151 9.83049 127.326 10.4119 127.362 11.1319L131.357 10.9321C131.295 9.69209 130.981 8.41151 130.272 7.277L126.88 9.39699ZM127.364 11.165C127.511 13.3705 126.065 14.8372 124.689 14.8143L124.622 18.8137C129.126 18.8888 131.6 14.5735 131.355 10.899L127.364 11.165ZM124.656 14.814C124.108 14.814 123.444 14.6799 122.753 14.464L121.56 18.282C122.437 18.5561 123.537 18.814 124.656 18.814V14.814ZM122.656 14.4364C121.293 14.0847 119.536 13.5277 117.799 13.3104L117.303 17.2796C118.701 17.4543 119.982 17.8773 121.657 18.3096L122.656 14.4364ZM117.704 13.3009C116.258 13.1897 114.229 13.3072 112.614 14.5371L115.039 17.7189C115.482 17.3808 116.295 17.2043 117.397 17.2891L117.704 13.3009ZM112.599 14.5493C111.759 15.2026 111.043 16.3381 111.043 17.647H115.043C115.043 17.6941 115.036 17.7242 115.033 17.7361C115.029 17.7477 115.028 17.7478 115.033 17.7389C115.037 17.7302 115.044 17.7199 115.052 17.7108C115.06 17.7015 115.062 17.7007 115.054 17.7067L112.599 14.5493ZM111.052 17.846C111.103 18.3538 111.305 18.8802 111.716 19.3109C112.105 19.7179 112.555 19.9079 112.89 19.9992C113.487 20.1621 114.082 20.1019 114.32 20.0781L113.922 16.0979C113.828 16.1073 113.783 16.1088 113.765 16.1087C113.74 16.1086 113.815 16.1052 113.942 16.1401C114.075 16.1762 114.351 16.2774 114.609 16.5482C114.89 16.8426 115.006 17.1852 115.033 17.448L111.052 17.846ZM114.377 20.0716C115.267 19.9567 116.117 19.7424 116.82 19.5727C117.562 19.3933 118.17 19.2549 118.772 19.1967L118.387 15.2153C117.47 15.3041 116.608 15.5087 115.88 15.6846C115.113 15.8701 114.494 16.0233 113.865 16.1044L114.377 20.0716ZM118.789 19.195C119.702 19.0989 120.302 19.1042 120.74 19.2504L122.005 15.4556C120.68 15.0138 119.319 15.1171 118.37 15.217L118.789 19.195ZM120.571 19.1853C121.002 19.3739 121.304 19.6933 121.402 19.9186L125.067 18.3154C124.479 16.9727 123.311 16.0181 122.174 15.5207L120.571 19.1853ZM121.383 19.8743C121.692 20.6283 121.805 21.4814 121.732 22.3247L125.717 22.6713C125.84 21.2606 125.659 19.7617 125.086 18.3597L121.383 19.8743ZM121.727 22.4072C121.688 23.2573 121.456 23.944 121.152 24.3136L124.239 26.8564C125.307 25.56 125.663 23.8947 125.723 22.5888L121.727 22.4072ZM121.096 24.385C120.885 24.6659 120.589 24.8998 120.193 25.0697L121.768 28.7463C122.744 28.3282 123.624 27.6801 124.296 26.785L121.096 24.385ZM120.238 25.051C119.853 25.2048 119.398 25.2513 118.511 25.3035L118.746 29.2965C119.525 29.2507 120.638 29.1992 121.723 28.765L120.238 25.051ZM118.549 25.3016C118.363 25.309 118.026 25.2933 117.471 25.2612C116.966 25.232 116.337 25.1939 115.715 25.1839C115.101 25.174 114.406 25.1891 113.764 25.2897C113.215 25.3757 112.276 25.5813 111.579 26.2778L114.408 29.1062C114.152 29.3617 113.985 29.3039 114.383 29.2414C114.689 29.1935 115.118 29.1748 115.65 29.1834C116.173 29.1917 116.711 29.224 117.24 29.2546C117.718 29.2822 118.282 29.3155 118.709 29.2984L118.549 25.3016ZM111.618 26.2401C111.001 26.8244 110.654 27.6041 110.667 28.4506C110.678 29.2304 110.99 29.8814 111.322 30.347C111.967 31.2525 113.02 31.9368 114.112 32.1888L115.011 28.2912C114.947 28.2765 114.849 28.2381 114.747 28.1708C114.642 28.1019 114.59 28.0404 114.58 28.0259C114.562 28.0016 114.662 28.1258 114.666 28.3911C114.669 28.5324 114.641 28.688 114.576 28.8383C114.512 28.987 114.429 29.0873 114.369 29.1439L111.618 26.2401ZM114.184 32.204C115.961 32.5457 117.792 32.0597 118.931 31.7968L118.032 27.8992C116.623 28.2243 115.71 28.4243 114.939 28.276L114.184 32.204ZM118.894 31.8051C120.921 31.3783 122.421 31.0213 123.803 31.2759L124.528 27.3421C122.186 26.9107 119.766 27.5337 118.07 27.8909L118.894 31.8051ZM123.901 31.2915C124.911 31.4261 125.867 32.0116 126.274 32.6234L129.603 30.4046C128.443 28.6644 126.36 27.5839 124.43 27.3265L123.901 31.2915ZM126.262 32.604C126.551 33.0489 126.679 33.8023 126.523 34.5191L130.432 35.3689C130.766 33.8317 130.6 31.9391 129.615 30.424L126.262 32.604ZM126.518 34.5432C126.152 36.3352 125.178 38.0902 123.896 39.1153L126.395 42.2387C128.544 40.5198 129.922 37.8648 130.437 35.3448L126.518 34.5432ZM123.903 39.11C123.041 39.7934 121.637 40.0504 119.849 40.0987L119.957 44.0973C121.794 44.0476 124.408 43.8146 126.388 42.244L123.903 39.11ZM159.016 41.51L159.836 43.3338L159.844 43.3306L159.851 43.3274L159.016 41.51ZM155.831 41.804L155.453 43.768L155.456 43.7687L155.831 41.804ZM152.303 40.04L151.071 41.616L151.081 41.6235L151.091 41.6309L152.303 40.04ZM148.236 35.679L149.812 34.4477L149.811 34.4464L148.236 35.679ZM143.777 28.329L145.566 27.4346L141.778 28.2655L143.777 28.329ZM142.944 37.59L144.888 38.0567L144.892 38.0437L144.895 38.0305L142.944 37.59ZM141.278 41.02L142.616 42.5066L142.655 42.4714L142.692 42.4342L141.278 41.02ZM139.563 41.853L139.259 39.8763L139.236 39.8797L139.213 39.8838L139.563 41.853ZM133.634 36.218L131.674 36.6179L131.676 36.6284L133.634 36.218ZM133.193 28.819L131.193 28.8745L131.194 28.886L131.194 28.8974L133.193 28.819ZM133.389 15.442L131.392 15.3311L133.389 15.442ZM134.418 10.346L136.25 11.1476L136.253 11.1407L136.256 11.1338L134.418 10.346ZM137.26 6.916L136.337 5.14157L136.312 5.15429L136.288 5.16768L137.26 6.916ZM141.474 6.818L140.636 8.63392L140.668 8.64872L140.7 8.66239L141.474 6.818ZM145.247 9.905L143.64 11.0955L143.657 11.119L143.675 11.1421L145.247 9.905ZM149.853 17.402L151.632 16.4894L151.627 16.4785L151.621 16.4678L149.853 17.402ZM152.744 23.086L150.946 23.9619L154.743 23.0182L152.744 23.086ZM153.087 14.462L155.072 14.7016L155.075 14.6813L155.077 14.661L153.087 14.462ZM154.214 10.248L152.393 9.42039L152.389 9.42804L152.386 9.43572L154.214 10.248ZM156.37 7.406L157.556 9.01611L157.588 8.99255L157.619 8.96774L156.37 7.406ZM160.045 6.573L160.641 4.66404L160.613 4.65513L160.584 4.64707L160.045 6.573ZM162.054 7.994L163.623 6.75471L163.602 6.72805L163.58 6.70211L162.054 7.994ZM164.504 14.658L162.519 14.9061L162.521 14.9193L162.523 14.9326L164.504 14.658ZM164.455 29.701L162.466 29.4866L162.465 29.4962L162.464 29.5059L164.455 29.701ZM162.985 37.1L164.82 37.8938L164.83 37.8718L164.839 37.8496L162.985 37.1ZM158.195 39.6862C157.682 39.9169 156.944 39.9801 156.205 39.8393L155.456 43.7687C156.776 44.0199 158.389 43.9851 159.836 43.3338L158.195 39.6862ZM156.208 39.84C155.385 39.6817 154.455 39.1657 153.515 38.4491L151.091 41.6309C152.208 42.4823 153.728 43.4363 155.453 43.768L156.208 39.84ZM153.534 38.464C152.181 37.4073 151.041 36.0209 149.812 34.4477L146.66 36.9103C147.881 38.4731 149.288 40.2227 151.071 41.616L153.534 38.464ZM149.811 34.4464C148.169 32.3482 146.818 29.9388 145.566 27.4346L141.988 29.2234C143.284 31.8152 144.775 34.5018 146.661 36.9116L149.811 34.4464ZM141.778 28.2655C141.678 31.4189 141.628 34.3386 140.993 37.1495L144.895 38.0305C145.632 34.7654 145.68 31.4131 145.776 28.3925L141.778 28.2655ZM140.999 37.1233C140.728 38.2514 140.344 39.1254 139.863 39.6058L142.692 42.4342C143.975 41.1506 144.571 39.3786 144.888 38.0567L140.999 37.1233ZM139.94 39.5334C139.713 39.7373 139.477 39.8426 139.259 39.8763L139.867 43.8297C140.922 43.6674 141.862 43.1847 142.616 42.5066L139.94 39.5334ZM139.213 39.8838C138.548 40.0017 137.867 39.77 137.16 39.0125C136.43 38.2297 135.849 37.0376 135.591 35.8076L131.676 36.6284C132.055 38.4364 132.92 40.3313 134.235 41.7412C135.574 43.1765 137.539 44.2433 139.912 43.8222L139.213 39.8838ZM135.593 35.8181C135.146 33.6279 135.3 31.5082 135.191 28.7406L131.194 28.8974C131.282 31.1278 131.141 34.0061 131.674 36.6179L135.593 35.8181ZM135.192 28.7635C135.145 27.0573 135.291 17.2639 135.386 15.5529L131.392 15.3311C131.291 17.1481 131.143 27.0527 131.193 28.8745L135.192 28.7635ZM135.386 15.5529C135.479 13.872 135.707 12.3896 136.25 11.1476L132.585 9.54436C131.757 11.4384 131.494 13.484 131.392 15.3311L135.386 15.5529ZM136.256 11.1338C136.746 9.99007 137.437 9.10547 138.231 8.66431L136.288 5.16768C134.436 6.19653 133.265 7.95792 132.579 9.55816L136.256 11.1338ZM138.182 8.69043C138.862 8.33718 139.927 8.30672 140.636 8.63392L142.312 5.00208C140.473 4.15327 138.108 4.22081 136.337 5.14157L138.182 8.69043ZM140.7 8.66239C141.814 9.12949 142.821 9.98981 143.64 11.0955L146.854 8.71454C145.713 7.17418 144.171 5.78051 142.247 4.97361L140.7 8.66239ZM143.675 11.1421C145.364 13.2869 146.711 15.7365 148.084 18.3362L151.621 16.4678C150.251 13.8735 148.756 11.1291 146.818 8.66788L143.675 11.1421ZM148.073 18.3146C149.066 20.2506 150.027 22.0755 150.946 23.9619L154.542 22.2101C153.599 20.2745 152.6 18.3754 151.632 16.4894L148.073 18.3146ZM154.743 23.0182C154.648 20.2166 154.743 17.4292 155.072 14.7016L151.101 14.2224C150.744 17.1788 150.644 20.1734 150.745 23.1538L154.743 23.0182ZM155.077 14.661C155.201 13.4143 155.535 12.1997 156.041 11.0603L152.386 9.43572C151.716 10.9423 151.266 12.5697 151.097 14.263L155.077 14.661ZM156.034 11.0756C156.44 10.1835 156.992 9.43149 157.556 9.01611L155.183 5.79589C153.885 6.75251 152.967 8.15651 152.393 9.42039L156.034 11.0756ZM157.619 8.96774C158.176 8.52248 158.992 8.35526 159.505 8.49893L160.584 4.64707C158.647 4.10474 156.524 4.72151 155.12 5.84426L157.619 8.96774ZM159.448 8.48196C159.764 8.58069 160.15 8.84062 160.527 9.28589L163.58 6.70211C162.879 5.87338 161.893 5.05531 160.641 4.66404L159.448 8.48196ZM160.484 9.23329C161.629 10.6843 162.245 12.7171 162.519 14.9061L166.488 14.4099C166.174 11.8949 165.418 9.02766 163.623 6.75471L160.484 9.23329ZM162.523 14.9326C163.177 19.6549 162.996 24.5702 162.466 29.4866L166.443 29.9154C166.991 24.8358 167.202 19.5591 166.485 14.3834L162.523 14.9326ZM162.464 29.5059C162.216 32.0329 161.938 34.3522 161.13 36.3504L164.839 37.8496C165.893 35.2418 166.203 32.3671 166.445 29.8961L162.464 29.5059ZM161.149 36.3062C160.486 37.8386 159.4 39.1325 158.181 39.6926L159.851 43.3274C162.258 42.2215 163.915 39.9874 164.82 37.8938L161.149 36.3062ZM186.074 42.441L186.262 44.4322L186.281 44.4304L186.3 44.4282L186.074 42.441ZM178.332 41.461L178.976 39.5675L178.974 39.5669L178.332 41.461ZM171.178 35.679L169.491 36.7528L169.497 36.7632L169.504 36.7735L171.178 35.679ZM169.414 32.249L171.319 31.6394L171.314 31.6234L171.308 31.6074L169.414 32.249ZM168.728 22.743L166.74 22.5221L166.74 22.5255L168.728 22.743ZM172.795 12.796L171.181 11.615L171.175 11.6229L171.169 11.631L172.795 12.796ZM178.381 7.651L179.382 9.38273L179.402 9.3709L179.422 9.35859L178.381 7.651ZM185.192 5.789L185.235 3.78945L185.213 3.789H185.192V5.789ZM191.954 6.916L192.599 5.02298L192.58 5.01636L192.56 5.01015L191.954 6.916ZM197.295 11.277L195.665 12.4354L195.67 12.4427L195.675 12.45L197.295 11.277ZM199.402 16.226L197.45 16.6599L197.452 16.672L197.455 16.6841L199.402 16.226ZM200.088 23.821L202.087 23.8716L202.088 23.8595L200.088 23.821ZM196.952 34.993L195.246 33.9491L195.23 33.9747L195.216 34.0007L196.952 34.993ZM192.101 40.236L191.03 38.547L191.011 38.5592L190.992 38.5719L192.101 40.236ZM183.869 30.485L184.827 28.7292L183.869 30.485ZM188.132 28.525L186.41 27.5075L186.399 27.5259L186.389 27.5445L188.132 28.525ZM189.406 21.175L191.381 20.859L191.379 20.8462L189.406 21.175ZM188.083 17.843L186.466 19.0193L186.474 19.0312L186.483 19.043L188.083 17.843ZM186.368 16.618L185.819 18.541L185.883 18.5595L185.949 18.5736L186.368 16.618ZM184.31 17.059L185.419 18.7231L185.466 18.6923L185.51 18.659L184.31 17.059ZM181.762 27.447L179.859 28.0619L179.862 28.0707L179.865 28.0795L181.762 27.447ZM185.886 40.4498C183.607 40.6649 181.196 40.3222 178.976 39.5675L177.688 43.3545C180.368 44.2658 183.347 44.7071 186.262 44.4322L185.886 40.4498ZM178.974 39.5669C176.583 38.7565 174.321 36.832 172.852 34.5845L169.504 36.7735C171.367 39.622 174.299 42.2055 177.69 43.3551L178.974 39.5669ZM172.865 34.6052C172.175 33.5205 171.623 32.5901 171.319 31.6394L167.509 32.8586C167.989 34.3579 168.809 35.6815 169.491 36.7528L172.865 34.6052ZM171.308 31.6074C170.415 28.9708 170.386 25.976 170.716 22.9605L166.74 22.5255C166.384 25.782 166.355 29.4512 167.52 32.8906L171.308 31.6074ZM170.716 22.9639C171.061 19.8566 172.46 16.6964 174.421 13.961L171.169 11.631C168.916 14.7756 167.179 18.5734 166.74 22.5221L170.716 22.9639ZM174.409 13.977C175.749 12.1459 177.462 10.4916 179.382 9.38273L177.38 5.91927C174.89 7.35835 172.781 9.42814 171.181 11.615L174.409 13.977ZM179.422 9.35859C181.094 8.3393 183.179 7.789 185.192 7.789V3.789C182.501 3.789 179.686 4.5127 177.34 5.94341L179.422 9.35859ZM185.149 7.78855C187.257 7.83339 189.371 8.1928 191.348 8.82185L192.56 5.01015C190.225 4.2672 187.733 3.8426 185.235 3.78945L185.149 7.78855ZM191.309 8.80902C192.915 9.35656 194.471 10.7553 195.665 12.4354L198.925 10.1186C197.473 8.07471 195.305 5.94543 192.599 5.02298L191.309 8.80902ZM195.675 12.45C196.502 13.5915 197.099 15.0816 197.45 16.6599L201.354 15.7921C200.921 13.8424 200.146 11.8045 198.915 10.104L195.675 12.45ZM197.455 16.6841C197.992 18.9636 198.136 21.331 198.088 23.7825L202.088 23.8595C202.139 21.215 201.988 18.4863 201.349 15.7679L197.455 16.6841ZM198.089 23.7704C197.998 27.3464 197.045 31.0102 195.246 33.9491L198.658 36.0369C200.878 32.4098 201.982 28.0376 202.087 23.8716L198.089 23.7704ZM195.216 34.0007C194.168 35.8346 192.712 37.4806 191.03 38.547L193.172 41.925C195.508 40.4434 197.384 38.2674 198.688 35.9853L195.216 34.0007ZM190.992 38.5719C189.489 39.5739 187.684 40.2452 185.848 40.4538L186.3 44.4282C188.776 44.1468 191.185 43.2501 193.21 41.9001L190.992 38.5719ZM182.911 32.2408C184.445 33.0774 186.02 32.8309 187.222 32.1861C188.375 31.5674 189.288 30.5499 189.875 29.5055L186.389 27.5445C186.094 28.0681 185.684 28.4716 185.331 28.6614C185.025 28.8251 184.91 28.7746 184.827 28.7292L182.911 32.2408ZM189.854 29.5425C191.398 26.9285 191.835 23.7001 191.381 20.859L187.431 21.491C187.761 23.5499 187.414 25.8095 186.41 27.5075L189.854 29.5425ZM191.379 20.8462C191.15 19.4738 190.672 17.9614 189.683 16.643L186.483 19.043C186.964 19.6846 187.27 20.5242 187.433 21.5038L191.379 20.8462ZM189.7 16.6667C189.141 15.8972 188.125 14.9492 186.787 14.6624L185.949 18.5736C185.937 18.5711 186.006 18.5864 186.136 18.6835C186.26 18.7769 186.379 18.9007 186.466 19.0193L189.7 16.6667ZM186.917 14.695C185.526 14.2973 184.105 14.7129 183.11 15.459L185.51 18.659C185.582 18.6053 185.666 18.5678 185.74 18.5512C185.813 18.5347 185.838 18.5466 185.819 18.541L186.917 14.695ZM183.201 15.3949C181.178 16.7431 180.112 19.1452 179.646 21.3424C179.171 23.5836 179.218 26.0774 179.859 28.0619L183.665 26.8321C183.277 25.6316 183.201 23.8624 183.559 22.1714C183.927 20.4363 184.649 19.2369 185.419 18.7231L183.201 15.3949ZM179.865 28.0795C180.28 29.325 181.117 31.2623 182.911 32.2408L184.827 28.7292C184.465 28.5317 184.028 27.921 183.659 26.8145L179.865 28.0795ZM208.126 42.49L208.473 44.4596L208.483 44.4577L208.126 42.49ZM203.52 37.835L201.553 38.1992L201.556 38.2132L201.558 38.2272L203.52 37.835ZM203.226 33.866L201.228 33.7686L201.227 33.7803L201.227 33.792L203.226 33.866ZM205.186 21.91L207.126 22.3951L207.13 22.3774L207.134 22.3597L205.186 21.91ZM206.754 16.275L208.646 16.9224L208.653 16.902L208.659 16.8814L206.754 16.275ZM209.547 9.072L211.262 10.101L211.301 10.0351L211.335 9.96644L209.547 9.072ZM209.841 8.827L208.241 7.627L208.132 7.77127L208.052 7.93258L209.841 8.827ZM211.36 7.21L210.183 5.59253L210.171 5.60117L210.16 5.61L211.36 7.21ZM215.133 5.887V3.887H215.096L215.059 3.88837L215.133 5.887ZM216.113 5.887L217.527 4.47279L217.387 4.33275L217.222 4.22289L216.113 5.887ZM216.946 6.083L216.313 7.98037L216.342 7.98995L216.371 7.99865L216.946 6.083ZM218.318 6.916L219.783 5.5551L219.713 5.47912L219.635 5.41085L218.318 6.916ZM219.837 9.366L221.642 8.50454L221.634 8.48798L221.625 8.47157L219.837 9.366ZM222.238 16.079L220.31 16.6122L220.315 16.6311L220.321 16.65L222.238 16.079ZM224.1 22.988L222.162 23.4828L223.679 29.4249L225.956 23.7308L224.1 22.988ZM224.982 20.979L226.697 22.008L226.768 21.8887L226.822 21.7607L224.982 20.979ZM230.274 10.64L228.582 9.57339L228.579 9.57773L230.274 10.64ZM237.379 6.916L236.68 8.79016L236.702 8.79816L236.723 8.80567L237.379 6.916ZM243.161 20.146L245.133 19.8172L245.131 19.8049L245.129 19.7927L243.161 20.146ZM244.435 27.3L242.462 27.6288L242.464 27.6398L244.435 27.3ZM244.974 35.875L242.984 35.6692L242.982 35.6913L242.98 35.7134L244.974 35.875ZM242.916 41.02L244.289 42.474L244.31 42.4544L244.33 42.4342L242.916 41.02ZM239.29 41.902L238.587 43.7747L238.622 43.7877L238.657 43.7994L239.29 41.902ZM236.546 39.256L238.319 38.3309L238.312 38.3171L238.304 38.3034L236.546 39.256ZM232.626 27.741L234.56 27.2332L233.046 21.4665L230.776 26.9795L232.626 27.741ZM230.421 32.641L232.219 33.5169L232.22 33.5135L230.421 32.641ZM227.04 37.982L228.454 39.3962L228.489 39.3615L228.522 39.325L227.04 37.982ZM224.737 39.354L224.303 37.4016L224.295 37.4034L224.287 37.4052L224.737 39.354ZM222.777 39.158L221.882 40.9469L221.968 40.99L222.059 41.0247L222.777 39.158ZM220.474 37.149L218.838 38.3L218.84 38.3024L220.474 37.149ZM216.505 28.231L218.393 27.5716L216.372 21.7838L214.591 27.65L216.505 28.231ZM213.761 36.414L215.605 37.1863L215.609 37.1775L215.613 37.1686L213.761 36.414ZM209.596 41.804L208.466 40.1534L208.416 40.1878L208.368 40.2253L209.596 41.804ZM207.778 40.5204C207.422 40.5832 207.054 40.4925 206.591 39.9493C206.092 39.3635 205.679 38.4329 205.481 37.4428L201.558 38.2272C201.85 39.6871 202.491 41.3045 203.547 42.544C204.64 43.826 206.33 44.8378 208.473 44.4596L207.778 40.5204ZM205.486 37.4708C205.267 36.2899 205.181 35.1138 205.224 33.94L201.227 33.792C201.172 35.2642 201.282 36.7341 201.553 38.1992L205.486 37.4708ZM205.223 33.9634C205.41 30.1311 206.161 26.2556 207.126 22.3951L203.245 21.4249C202.25 25.4044 201.433 29.5649 201.228 33.7686L205.223 33.9634ZM207.134 22.3597C207.567 20.486 208.039 18.6961 208.646 16.9224L204.861 15.6276C204.194 17.5779 203.686 19.512 203.237 21.4603L207.134 22.3597ZM208.659 16.8814C208.814 16.3945 209.35 14.879 209.93 13.3422C210.217 12.5801 210.508 11.8323 210.759 11.2216C210.885 10.9158 210.998 10.6546 211.092 10.4483C211.138 10.3454 211.178 10.2627 211.21 10.199C211.226 10.1675 211.238 10.1433 211.248 10.1255C211.258 10.1073 211.262 10.0999 211.262 10.101L207.832 8.04301C207.594 8.43841 207.313 9.08557 207.061 9.69703C206.788 10.3603 206.481 11.1499 206.187 11.9312C205.602 13.4815 205.036 15.0775 204.848 15.6686L208.659 16.8814ZM211.335 9.96644C211.238 10.1616 211.124 10.3045 211.036 10.3993C210.948 10.4934 210.869 10.5581 210.821 10.5949C210.772 10.6322 210.735 10.6565 210.722 10.6646C210.711 10.6718 210.703 10.6762 210.723 10.6645C210.734 10.6578 210.772 10.635 210.813 10.6091C210.855 10.5823 210.921 10.5388 210.996 10.4816C211.07 10.4248 211.173 10.3395 211.281 10.2235C211.389 10.1069 211.52 9.94108 211.629 9.72141L208.052 7.93258C208.149 7.73742 208.263 7.59456 208.351 7.49976C208.439 7.40559 208.518 7.34093 208.566 7.30413C208.615 7.26676 208.653 7.24247 208.665 7.23442C208.676 7.22724 208.684 7.22285 208.665 7.23451C208.653 7.24122 208.615 7.26399 208.574 7.28993C208.532 7.31672 208.466 7.36016 208.391 7.41743C208.317 7.47413 208.214 7.55947 208.107 7.67546C207.998 7.79207 207.868 7.9579 207.758 8.17756L211.335 9.96644ZM211.441 10.027C211.855 9.47419 212.207 9.07441 212.56 8.81L210.16 5.61C209.336 6.22758 208.708 7.0038 208.241 7.627L211.441 10.027ZM212.536 8.82747C213.306 8.26748 214.297 7.91932 215.207 7.88563L215.059 3.88837C213.322 3.95268 211.569 4.58452 210.183 5.59253L212.536 8.82747ZM215.133 7.887C215.227 7.887 215.312 7.88166 215.361 7.87834C215.416 7.87457 215.473 7.86979 215.518 7.86595C215.62 7.85723 215.692 7.85083 215.762 7.84659C215.794 7.84463 215.816 7.8438 215.829 7.84353C215.844 7.84324 215.838 7.84388 215.815 7.84263C215.799 7.84172 215.727 7.83759 215.625 7.81609C215.571 7.80485 215.491 7.78502 215.394 7.74972C215.3 7.71543 215.159 7.65518 215.003 7.5511L217.222 4.22289C216.897 4.00637 216.586 3.93073 216.448 3.90164C216.282 3.86673 216.135 3.85418 216.035 3.84868C215.835 3.8377 215.645 3.84632 215.52 3.85391C215.388 3.86192 215.255 3.87389 215.177 3.88048C215.056 3.89083 215.077 3.887 215.133 3.887V7.887ZM214.698 7.3012C214.988 7.59078 215.295 7.7233 215.396 7.76546C215.536 7.82449 215.663 7.86161 215.744 7.88351C215.908 7.9276 216.07 7.95695 216.171 7.97429C216.233 7.98497 216.432 8.0172 216.435 8.01774C216.466 8.02289 216.474 8.02462 216.47 8.02376C216.467 8.02317 216.453 8.02032 216.432 8.01507C216.413 8.01045 216.37 7.99935 216.313 7.98037L217.578 4.18563C217.503 4.16052 217.438 4.1433 217.394 4.13253C217.348 4.12113 217.307 4.11211 217.273 4.10529C217.208 4.09199 217.146 4.0811 217.099 4.07322C217.052 4.06523 217 4.05704 216.961 4.05076C216.919 4.04387 216.883 4.03809 216.85 4.03245C216.818 4.02681 216.795 4.02253 216.78 4.01939C216.763 4.01595 216.766 4.01612 216.783 4.02065C216.792 4.02312 216.81 4.02814 216.834 4.03615C216.858 4.04388 216.897 4.05727 216.945 4.07763C216.991 4.0971 217.066 4.13097 217.155 4.18351C217.239 4.23303 217.379 4.32481 217.527 4.47279L214.698 7.3012ZM216.371 7.99865C216.455 8.02399 216.688 8.14801 217.001 8.42115L219.635 5.41085C219.163 4.99798 218.416 4.43601 217.52 4.16735L216.371 7.99865ZM216.852 8.2769C217.259 8.71504 217.579 9.32329 218.048 10.2604L221.625 8.47157C221.212 7.64471 220.65 6.48896 219.783 5.5551L216.852 8.2769ZM218.032 10.2275C218.989 12.2329 219.687 14.3609 220.31 16.6122L224.165 15.5458C223.514 13.1911 222.742 10.8111 221.642 8.50454L218.032 10.2275ZM220.321 16.65C220.994 18.9089 221.572 21.1737 222.162 23.4828L226.037 22.4932C225.451 20.1963 224.853 17.8551 224.154 15.508L220.321 16.65ZM225.956 23.7308C225.996 23.6322 226.172 23.2097 226.359 22.7744C226.452 22.5591 226.543 22.3517 226.617 22.1877C226.654 22.1052 226.684 22.0414 226.706 21.9968C226.736 21.9345 226.728 21.9549 226.697 22.008L223.267 19.95C223.105 20.2195 222.842 20.8288 222.685 21.1926C222.493 21.6393 222.301 22.0988 222.243 22.2452L225.956 23.7308ZM226.822 21.7607C228.313 18.2507 229.981 14.8717 231.968 11.7023L228.579 9.57773C226.45 12.9743 224.688 16.5533 223.141 20.1973L226.822 21.7607ZM231.965 11.7066C232.513 10.8386 233.438 9.90155 234.445 9.30221C235.491 8.67966 236.246 8.62845 236.68 8.79016L238.077 5.04183C236.012 4.27255 233.925 4.95634 232.399 5.86504C230.833 6.79695 229.455 8.18738 228.582 9.57339L231.965 11.7066ZM236.723 8.80567C237.058 8.92161 237.527 9.26642 238.067 10.0846C238.595 10.8853 239.073 11.9618 239.495 13.2145C240.34 15.7212 240.844 18.5627 241.192 20.4993L245.129 19.7927C244.791 17.9073 244.241 14.7708 243.286 11.9365C242.808 10.5187 242.198 9.08394 241.405 7.88175C240.624 6.69708 239.537 5.54739 238.034 5.02633L236.723 8.80567ZM241.188 20.4748C241.264 20.9322 241.549 22.5199 241.829 24.0767C242.113 25.6559 242.391 27.2042 242.462 27.6288L246.407 26.9712C246.331 26.5138 246.046 24.9261 245.766 23.3693C245.482 21.7901 245.204 20.2418 245.133 19.8172L241.188 20.4748ZM242.464 27.6398C242.945 30.4333 243.249 33.1061 242.984 35.6692L246.963 36.0808C247.286 32.9599 246.904 29.8507 246.405 26.9602L242.464 27.6398ZM242.98 35.7134C242.851 37.3005 242.347 38.7597 241.501 39.6058L244.33 42.4342C246.13 40.6343 246.802 38.0755 246.967 36.0366L242.98 35.7134ZM241.542 39.566C241.384 39.7151 241.09 39.8878 240.719 39.9823C240.345 40.0775 240.062 40.0514 239.922 40.0046L238.657 43.7994C239.693 44.1446 240.782 44.094 241.706 43.8585C242.634 43.6222 243.565 43.1579 244.289 42.474L241.542 39.566ZM239.992 40.0293C239.427 39.8177 238.766 39.1876 238.319 38.3309L234.772 40.1811C235.501 41.5784 236.8 43.1043 238.587 43.7747L239.992 40.0293ZM238.304 38.3034C236.534 35.0351 235.612 31.2408 234.56 27.2332L230.691 28.2488C231.697 32.0812 232.735 36.4209 234.787 40.2086L238.304 38.3034ZM230.776 26.9795C230.108 28.6015 229.391 30.181 228.621 31.7684L232.22 33.5135C233.019 31.867 233.771 30.2125 234.475 28.5025L230.776 26.9795ZM228.623 31.7651C227.712 33.6337 226.783 35.2871 225.558 36.639L228.522 39.325C230.138 37.5409 231.267 35.4703 232.219 33.5169L228.623 31.7651ZM225.625 36.5678C225.145 37.0477 224.684 37.3168 224.303 37.4016L225.17 41.3064C226.553 40.9992 227.66 40.1903 228.454 39.3962L225.625 36.5678ZM224.287 37.4052C224.141 37.4388 223.871 37.4363 223.495 37.2913L222.059 41.0247C222.956 41.3697 224.058 41.5632 225.186 41.3028L224.287 37.4052ZM223.671 37.3691C223.106 37.0865 222.52 36.5795 222.107 35.9956L218.84 38.3024C219.603 39.3845 220.683 40.3475 221.882 40.9469L223.671 37.3691ZM222.109 35.998C220.444 33.6316 219.505 30.7572 218.393 27.5716L214.616 28.8904C215.66 31.8788 216.779 35.3744 218.838 38.3L222.109 35.998ZM214.591 27.65C213.75 30.4194 212.944 33.1162 211.908 35.6594L215.613 37.1686C216.733 34.4198 217.593 31.5306 218.418 28.812L214.591 27.65ZM211.916 35.6417C211.14 37.4937 209.931 39.1514 208.466 40.1534L210.725 43.4546C212.984 41.9086 214.617 39.5483 215.605 37.1863L211.916 35.6417ZM208.368 40.2253C208.129 40.411 207.93 40.4927 207.768 40.5223L208.483 44.4577C209.399 44.2913 210.18 43.883 210.823 43.3827L208.368 40.2253ZM262.954 41.951L263.056 43.9484L263.082 43.9471L263.107 43.9451L262.954 41.951ZM257.27 42.147L257.213 44.1462L257.219 44.1463L257.27 42.147ZM252.125 41.461L251.492 43.3584L251.501 43.3612L251.509 43.3639L252.125 41.461ZM249.773 39.942L251.335 38.6926V38.6926L249.773 39.942ZM248.842 37.345L246.842 37.3926L246.843 37.4214L246.845 37.4501L248.842 37.345ZM251.782 31.318L252.443 33.2057L252.46 33.1998L252.476 33.1935L251.782 31.318ZM256.045 30.877L255.907 32.8723L258.327 33.0391L258.03 30.6319L256.045 30.877ZM256.143 18.921L258.124 19.1934L258.524 16.2858L255.672 16.9773L256.143 18.921ZM251.145 18.382L250.102 20.0886L250.118 20.0981L250.133 20.1074L251.145 18.382ZM249.087 16.177L250.835 15.2057L250.817 15.1727L250.797 15.1404L249.087 16.177ZM248.401 10.493L246.478 9.94356L246.472 9.96373L246.467 9.98401L248.401 10.493ZM251.831 6.426L251.088 4.56905L251.069 4.57674L251.05 4.58484L251.831 6.426ZM257.319 5.887L257.211 7.88408L257.265 7.887H257.319V5.887ZM260.112 5.642V7.642H260.167L260.223 7.63892L260.112 5.642ZM266.874 5.642L266.756 7.63855L266.787 7.64037L266.818 7.64123L266.874 5.642ZM272.019 6.916L273.181 5.28853L273.168 5.27894L273.154 5.26957L272.019 6.916ZM273.636 8.729L275.392 7.77129L275.382 7.75391L275.372 7.73672L273.636 8.729ZM271.137 18.578L270.015 16.9222L269.999 16.933L269.983 16.9441L271.137 18.578ZM268.197 19.509L268.007 17.518L265.877 17.7209L266.223 19.833L268.197 19.509ZM268.148 29.554L266.178 29.2064L265.783 31.4486L268.057 31.5519L268.148 29.554ZM271.284 30.191L272.13 28.3786L272.117 28.3728L272.105 28.3672L271.284 30.191ZM273.244 31.759L271.616 32.9215L271.636 32.949L271.657 32.9759L273.244 31.759ZM274.763 37.149L272.774 36.9396L272.773 36.9432L274.763 37.149ZM272.656 40.824L273.798 42.4658L272.656 40.824ZM268.687 41.951L268.789 43.9484L268.809 43.9473L268.829 43.9459L268.687 41.951ZM262.851 39.9536C260.868 40.0553 259.131 40.1941 257.321 40.1477L257.219 44.1463C259.231 44.1979 261.218 44.0427 263.056 43.9484L262.851 39.9536ZM257.327 40.1478C255.615 40.0989 254.108 40.0005 252.741 39.5581L251.509 43.3639C253.474 43.9995 255.495 44.0971 257.213 44.1462L257.327 40.1478ZM252.757 39.5636C252.089 39.3408 251.598 39.0218 251.335 38.6926L248.211 41.1914C249.124 42.3322 250.397 42.9932 251.492 43.3584L252.757 39.5636ZM251.335 38.6926C251.057 38.3456 250.871 37.8395 250.839 37.2399L246.845 37.4501C246.911 38.7125 247.313 40.0684 248.211 41.1914L251.335 38.6926ZM250.841 37.2974C250.824 36.5691 251.008 35.5167 251.398 34.6013C251.82 33.6118 252.265 33.2679 252.443 33.2057L251.121 29.4303C249.339 30.0541 248.289 31.6947 247.719 33.0327C247.117 34.4448 246.811 36.0629 246.842 37.3926L250.841 37.2974ZM252.476 33.1935C253.405 32.8497 254.589 32.7813 255.907 32.8723L256.182 28.8817C254.659 28.7767 252.805 28.8063 251.087 29.4425L252.476 33.1935ZM258.03 30.6319C257.562 26.8409 257.608 22.9479 258.124 19.1934L254.161 18.6486C253.6 22.7341 253.548 26.9751 254.06 31.1221L258.03 30.6319ZM255.672 16.9773C254.395 17.2869 253.003 17.153 252.156 16.6566L250.133 20.1074C252.129 21.277 254.657 21.3391 256.614 20.8647L255.672 16.9773ZM252.188 16.6754C251.65 16.3468 251.188 15.841 250.835 15.2057L247.339 17.1483C247.966 18.277 248.876 19.3392 250.102 20.0886L252.188 16.6754ZM250.797 15.1404C250.145 14.0642 249.958 12.4341 250.335 11.002L246.467 9.98401C245.864 12.2759 246.069 15.0558 247.376 17.2136L250.797 15.1404ZM250.324 11.0424C250.675 9.81528 251.635 8.6818 252.612 8.26716L251.05 4.58484C248.793 5.5422 247.107 7.74071 246.478 9.94356L250.324 11.0424ZM252.574 8.28295C253.826 7.7819 255.364 7.78425 257.211 7.88408L257.427 3.88991C255.648 3.79375 253.265 3.6981 251.088 4.56905L252.574 8.28295ZM257.319 7.887C257.517 7.887 257.819 7.8601 258.034 7.8404C258.295 7.8165 258.611 7.78493 258.914 7.75457C259.223 7.72368 259.52 7.694 259.761 7.67197C260.048 7.64572 260.139 7.642 260.112 7.642V3.642C259.914 3.642 259.612 3.6689 259.397 3.68859C259.135 3.71249 258.82 3.74406 258.516 3.77442C258.207 3.80531 257.91 3.83499 257.67 3.85703C257.383 3.88327 257.292 3.887 257.319 3.887V7.887ZM260.223 7.63892C261.033 7.5939 266.004 7.59427 266.756 7.63855L266.991 3.64545C266.078 3.59172 260.955 3.5921 260.001 3.64508L260.223 7.63892ZM266.818 7.64123C268.539 7.68903 269.978 7.93821 270.883 8.56242L273.154 5.26957C271.217 3.93378 268.736 3.69296 266.929 3.64277L266.818 7.64123ZM270.856 8.54347C271.279 8.84535 271.632 9.25375 271.899 9.72128L275.372 7.73672C274.855 6.83225 274.131 5.96665 273.181 5.28853L270.856 8.54347ZM271.88 9.6867C273.125 11.9694 272.245 15.4115 270.015 16.9222L272.259 20.2338C276.105 17.6285 277.675 11.9566 275.392 7.77129L271.88 9.6867ZM269.983 16.9441C269.572 17.2344 268.907 17.4323 268.007 17.518L268.386 21.5C269.545 21.3897 271.036 21.0976 272.29 20.2119L269.983 16.9441ZM266.223 19.833C266.727 22.8998 266.726 26.1026 266.178 29.2064L270.117 29.9016C270.746 26.3414 270.745 22.6842 270.17 19.185L266.223 19.833ZM268.057 31.5519C269.037 31.5965 269.821 31.726 270.463 32.0148L272.105 28.3672C270.787 27.774 269.415 27.6095 268.239 27.5561L268.057 31.5519ZM270.438 32.0034C270.94 32.2377 271.372 32.5793 271.616 32.9215L274.871 30.5965C274.136 29.5667 273.098 28.8303 272.13 28.3786L270.438 32.0034ZM271.657 32.9759C272.474 34.0419 272.916 35.5901 272.774 36.9396L276.752 37.3584C277.002 34.9839 276.268 32.4161 274.831 30.5421L271.657 32.9759ZM272.773 36.9432C272.682 37.8262 272.13 38.7536 271.514 39.1822L273.798 42.4658C275.436 41.3264 276.55 39.3138 276.752 37.3548L272.773 36.9432ZM271.514 39.1822C270.856 39.6394 269.855 39.8625 268.544 39.9561L268.829 43.9459C270.263 43.8435 272.201 43.5766 273.798 42.4658L271.514 39.1822ZM268.584 39.9536C267.73 39.9974 266.867 39.9651 265.884 39.9337C264.934 39.9032 263.878 39.874 262.8 39.9569L263.107 43.9451C263.941 43.881 264.795 43.9008 265.756 43.9316C266.685 43.9614 267.733 44.0026 268.789 43.9484L268.584 39.9536ZM303.413 39.06L304.892 40.407L304.9 40.3979L303.413 39.06ZM295.083 42.245L295.149 40.2461L295.128 40.2454L295.108 40.2451L295.083 42.245ZM283.568 38.423L284.776 36.8288L284.76 36.817L284.745 36.8055L283.568 38.423ZM278.668 32.004L280.518 31.2425L280.509 31.2212L280.5 31.2L278.668 32.004ZM277.345 25.487L275.347 25.5714L275.348 25.5958L275.35 25.62L277.345 25.487ZM279.55 15.344L277.761 14.4496L277.756 14.461L279.55 15.344ZM289.007 6.72L289.626 8.6219L289.643 8.61629L289.66 8.61038L289.007 6.72ZM297.533 6.034L297.816 4.05408L297.807 4.05276L297.533 6.034ZM302.433 7.847L301.298 9.49343L301.3 9.49508L302.433 7.847ZM304.344 9.856L302.648 10.916L302.671 10.953L302.696 10.9891L304.344 9.856ZM306.108 15.246L308.107 15.1835L308.107 15.1622L308.106 15.1409L306.108 15.246ZM304.883 19.803L303.219 18.6936L303.213 18.7033L303.206 18.713L304.883 19.803ZM302.335 22.253L303.205 24.0541L303.234 24.0399L303.263 24.0247L302.335 22.253ZM297.68 22.547L296.958 24.4122L296.971 24.417L297.68 22.547ZM294.397 18.97L296.338 18.4849L296.203 17.9475L295.812 17.5558L294.397 18.97ZM293.025 18.039L293.552 16.1094L293.541 16.1065L293.025 18.039ZM291.114 18.627L289.578 17.3466L289.561 17.3669L289.545 17.3877L291.114 18.627ZM289.791 25.438L291.714 24.8886L291.71 24.8721L291.705 24.8557L289.791 25.438ZM291.065 27.153L292.204 25.5086L292.159 25.4779L292.114 25.4497L291.065 27.153ZM293.417 27.692L293.327 25.6941L293.313 25.6947L293.3 25.6954L293.417 27.692ZM299.934 27.251L299.664 29.2327L299.675 29.2342L299.686 29.2356L299.934 27.251ZM304.099 29.603L305.752 28.4763L305.733 28.4493L305.714 28.423L304.099 29.603ZM305.128 33.376L307.118 33.177L307.117 33.1619L307.115 33.1468L305.128 33.376ZM301.935 37.713C300.412 39.3843 297.704 40.3299 295.149 40.2461L295.018 44.2439C298.44 44.3561 302.396 43.1457 304.892 40.407L301.935 37.713ZM295.108 40.2451C291.474 40.2008 287.636 38.9956 284.776 36.8288L282.361 40.0172C285.968 42.7504 290.656 44.1912 295.059 44.2449L295.108 40.2451ZM284.745 36.8055C282.931 35.4868 281.428 33.4528 280.518 31.2425L276.819 32.7655C277.967 35.5532 279.893 38.2232 282.392 40.0405L284.745 36.8055ZM280.5 31.2C279.764 29.5247 279.485 27.5129 279.341 25.354L275.35 25.62C275.5 27.8711 275.809 30.4653 276.837 32.808L280.5 31.2ZM279.344 25.4026C279.212 22.286 279.961 19.0398 281.345 16.227L277.756 14.461C276.102 17.8222 275.185 21.73 275.347 25.5714L279.344 25.4026ZM281.339 16.2384C283.067 12.7833 286.176 9.74415 289.626 8.6219L288.389 4.8181C283.704 6.34185 279.856 10.2607 277.761 14.4496L281.339 16.2384ZM289.66 8.61038C291.995 7.80375 294.657 7.65614 297.26 8.01524L297.807 4.05276C294.726 3.62786 291.409 3.77424 288.354 4.82962L289.66 8.61038ZM297.25 8.0139C298.737 8.22622 300.189 8.7286 301.298 9.49342L303.569 6.20057C301.836 5.0054 299.76 4.33178 297.816 4.0541L297.25 8.0139ZM301.3 9.49508C301.845 9.86932 302.295 10.35 302.648 10.916L306.04 8.796C305.414 7.79395 304.59 6.90268 303.566 6.19891L301.3 9.49508ZM302.696 10.9891C303.538 12.2139 304.03 13.8068 304.111 15.3511L308.106 15.1409C307.991 12.9612 307.306 10.6341 305.992 8.72294L302.696 10.9891ZM304.109 15.3085C304.147 16.5307 303.834 17.771 303.219 18.6936L306.547 20.9124C307.696 19.189 308.167 17.0973 308.107 15.1835L304.109 15.3085ZM303.206 18.713C302.692 19.5041 302.043 20.1485 301.407 20.4813L303.263 24.0247C304.686 23.2795 305.8 22.0619 306.56 20.893L303.206 18.713ZM301.466 20.4519C300.474 20.9309 299.233 20.9968 298.39 20.677L296.971 24.417C298.97 25.1752 301.355 24.9471 303.205 24.0541L301.466 20.4519ZM298.402 20.6819C297.413 20.2989 296.553 19.3466 296.338 18.4849L292.457 19.4551C293.026 21.7294 294.91 23.6191 296.958 24.4121L298.402 20.6819ZM295.812 17.5558C295.417 17.1615 294.649 16.4089 293.552 16.1095L292.499 19.9685C292.467 19.9597 292.492 19.9588 292.587 20.0282C292.687 20.101 292.809 20.2096 292.983 20.3842L295.812 17.5558ZM293.541 16.1065C292.098 15.7218 290.596 16.1254 289.578 17.3466L292.651 19.9074C292.661 19.8954 292.658 19.902 292.638 19.9155C292.617 19.9293 292.589 19.9437 292.556 19.9537C292.523 19.9635 292.498 19.9655 292.486 19.9655C292.474 19.9655 292.481 19.9638 292.51 19.9715L293.541 16.1065ZM289.545 17.3877C287.682 19.7473 286.995 23.1195 287.878 26.0203L291.705 24.8557C291.216 23.2485 291.607 21.2307 292.684 19.8663L289.545 17.3877ZM287.868 25.9874C288.186 27.1012 288.91 28.1751 290.017 28.8563L292.114 25.4497C291.946 25.3469 291.788 25.1468 291.714 24.8886L287.868 25.9874ZM289.927 28.7974C291.067 29.5865 292.454 29.7521 293.535 29.6885L293.3 25.6954C292.715 25.7299 292.338 25.6015 292.204 25.5086L289.927 28.7974ZM293.508 29.6899C294.689 29.6363 295.95 29.4294 296.921 29.3094C297.973 29.1793 298.852 29.122 299.664 29.2327L300.205 25.2693C298.86 25.086 297.559 25.2002 296.43 25.3396C295.221 25.4891 294.301 25.6497 293.327 25.6941L293.508 29.6899ZM299.686 29.2356C300.783 29.3727 301.921 30.0125 302.485 30.783L305.714 28.423C304.415 26.6455 302.221 25.5213 300.182 25.2664L299.686 29.2356ZM302.447 30.7297C302.849 31.3194 302.978 32.1894 303.142 33.6052L307.115 33.1468C306.984 32.0146 306.82 30.0426 305.752 28.4763L302.447 30.7297ZM303.138 33.575C303.289 35.0777 302.809 36.7419 301.927 37.7221L304.9 40.3979C306.664 38.4381 307.36 35.5943 307.118 33.177L303.138 33.575ZM322.738 42.392L322.614 40.3959L322.586 40.3977L322.557 40.4002L322.738 42.392ZM316.221 42.098L316.665 40.1477L316.639 40.142L316.614 40.1368L316.221 42.098ZM312.84 40.432L314.053 38.8411L314.033 38.8264L314.013 38.8121L312.84 40.432ZM309.655 36.218L311.578 35.6686L311.575 35.6575L311.572 35.6464L309.655 36.218ZM312.399 28.868L313.083 30.7476L313.102 30.7406L313.121 30.7331L312.399 28.868ZM317.201 29.064L317.904 27.1913L317.86 27.1749L317.815 27.1606L317.201 29.064ZM320.288 30.289L319.803 32.2293L319.821 32.2337L319.839 32.2378L320.288 30.289ZM322.199 30.289L322.969 32.1352L322.978 32.1313L322.987 32.1273L322.199 30.289ZM322.395 29.456L323.932 28.1756L323.815 28.036L323.676 27.9196L322.395 29.456ZM320.288 28.525L320.991 26.6523L320.981 26.6488L320.972 26.6454L320.288 28.525ZM313.82 25.879L312.772 27.5823L312.779 27.5866L313.82 25.879ZM310.978 22.253L309.097 22.9323L309.101 22.9415L310.978 22.253ZM310.439 16.618L308.472 16.2602L308.468 16.2831L308.464 16.3061L310.439 16.618ZM312.546 12.061L311.035 10.7511L311 10.7912L310.968 10.8331L312.546 12.061ZM314.506 9.807L313.169 8.32041L313.155 8.33253L313.142 8.34489L314.506 9.807ZM319.651 6.916L320.194 8.8409L320.205 8.83787L320.216 8.83473L319.651 6.916ZM327.393 6.573L327.089 8.54974L327.105 8.55211L327.12 8.55424L327.393 6.573ZM331.46 7.994L332.614 6.36006L332.577 6.33391L332.539 6.30946L331.46 7.994ZM333.665 10.15L332.032 11.3034L332.046 11.3239L332.061 11.344L333.665 10.15ZM334.351 17.549L332.975 16.0981L332.969 16.1037L334.351 17.549ZM330.137 19.46L330.013 17.4639L330.004 17.4644L330.137 19.46ZM323.571 19.215L323.214 17.2473L323.176 17.2542L323.138 17.2626L323.571 19.215ZM322.199 19.901L324.097 20.5334L324.121 20.4606L324.14 20.3861L322.199 19.901ZM322.738 20.832L321.489 22.3937L321.513 22.4133L321.538 22.432L322.738 20.832ZM327.05 23.135L326.102 24.8959L326.129 24.9103L326.156 24.9239L327.05 23.135ZM333.175 27.545L334.761 26.3256L334.749 26.3105L334.737 26.2956L333.175 27.545ZM334.89 32.102L332.894 32.223L332.895 32.2313L332.895 32.2396L334.89 32.102ZM334.057 36.267L335.873 37.1051L335.879 37.0922L335.885 37.0793L334.057 36.267ZM329.647 40.775L330.509 42.58L330.525 42.5721L330.542 42.5639L329.647 40.775ZM322.557 40.4002C320.513 40.586 318.539 40.5737 316.665 40.1477L315.778 44.0483C318.216 44.6023 320.652 44.59 322.92 44.3838L322.557 40.4002ZM316.614 40.1368C315.802 39.9745 314.955 39.529 314.053 38.8411L311.628 42.0229C312.783 42.903 314.191 43.7315 315.829 44.0592L316.614 40.1368ZM314.013 38.8121C312.822 37.9495 311.907 36.8178 311.578 35.6686L307.732 36.7674C308.384 39.0482 310.017 40.8565 311.667 42.0519L314.013 38.8121ZM311.572 35.6464C311.269 34.6294 311.283 33.4566 311.603 32.493C311.919 31.5401 312.458 30.975 313.083 30.7476L311.716 26.9884C309.646 27.741 308.397 29.4544 307.806 31.2332C307.22 33.0014 307.209 35.0136 307.739 36.7896L311.572 35.6464ZM313.121 30.7331C313.981 30.4006 315.187 30.5158 316.587 30.9674L317.815 27.1606C316.177 26.6322 313.856 26.1594 311.677 27.0029L313.121 30.7331ZM316.499 30.9367C316.659 30.9965 317.266 31.2509 317.988 31.546C318.327 31.6848 318.677 31.8263 318.97 31.9405C319.205 32.032 319.555 32.1672 319.803 32.2293L320.774 28.3487C320.826 28.3618 320.741 28.3377 320.422 28.2133C320.161 28.1117 319.837 27.9806 319.502 27.8438C318.876 27.5876 318.136 27.2785 317.904 27.1913L316.499 30.9367ZM319.839 32.2378C320.489 32.3877 321.741 32.6468 322.969 32.1352L321.43 28.4428C321.481 28.4218 321.471 28.4424 321.338 28.4374C321.199 28.4322 321.011 28.4032 320.738 28.3402L319.839 32.2378ZM322.987 32.1273C323.706 31.8192 324.27 31.196 324.463 30.3944C324.656 29.5894 324.433 28.7773 323.932 28.1756L320.859 30.7364C320.603 30.4287 320.453 29.9596 320.573 29.4609C320.692 28.9655 321.036 28.6118 321.412 28.4507L322.987 32.1273ZM323.676 27.9196C323.388 27.6794 323.029 27.505 322.867 27.4269C322.639 27.3168 322.384 27.2059 322.148 27.1076C321.673 26.9096 321.192 26.7279 320.991 26.6523L319.586 30.3977C319.777 30.4691 320.203 30.6304 320.609 30.7999C320.815 30.8854 320.994 30.9643 321.127 31.0287C321.194 31.0611 321.233 31.0817 321.249 31.0909C321.283 31.1102 321.216 31.0762 321.115 30.9924L323.676 27.9196ZM320.972 26.6454C318.612 25.7872 316.645 25.2586 314.862 24.1714L312.779 27.5866C315.014 28.9494 317.653 29.6948 319.605 30.4046L320.972 26.6454ZM314.869 24.1757C314.038 23.6646 313.267 22.6849 312.856 21.5645L309.101 22.9415C309.768 24.7611 311.055 26.5254 312.772 27.5823L314.869 24.1757ZM312.86 21.5737C312.336 20.1246 312.174 18.4564 312.415 16.9299L308.464 16.3061C308.117 18.5036 308.347 20.8534 309.097 22.9323L312.86 21.5737ZM312.407 16.9758C312.635 15.7215 313.264 14.3967 314.125 13.2889L310.968 10.8331C309.771 12.3713 308.832 14.2805 308.472 16.2602L312.407 16.9758ZM314.058 13.3709C314.881 12.4213 315.229 11.8688 315.871 11.2691L313.142 8.34489C312.314 9.11724 311.486 10.2307 311.035 10.7511L314.058 13.3709ZM315.844 11.2936C317.112 10.1527 318.61 9.28782 320.194 8.8409L319.109 4.9911C316.871 5.62218 314.841 6.81528 313.169 8.32041L315.844 11.2936ZM320.216 8.83473C322.351 8.2067 324.733 8.18727 327.089 8.54974L327.698 4.59625C324.958 4.17473 321.95 4.1553 319.087 4.99727L320.216 8.83473ZM327.12 8.55424C328.329 8.72102 329.457 9.0866 330.382 9.67854L332.539 6.30946C331.013 5.3334 329.3 4.81697 327.667 4.59176L327.12 8.55424ZM330.307 9.62794C330.992 10.1116 331.6 10.6919 332.032 11.3034L335.299 8.99664C334.555 7.94214 333.595 7.0524 332.614 6.36006L330.307 9.62794ZM332.061 11.344C332.681 12.1775 333.181 13.277 333.337 14.2712C333.496 15.2764 333.271 15.8176 332.975 16.0981L335.728 18.9999C337.343 17.4674 337.559 15.3626 337.289 13.6483C337.017 11.923 336.218 10.2295 335.27 8.95598L332.061 11.344ZM332.969 16.1037C332.142 16.895 331.056 17.3987 330.013 17.4639L330.262 21.4561C332.355 21.3253 334.307 20.359 335.734 18.9943L332.969 16.1037ZM330.004 17.4644C329.131 17.5226 328.253 17.3982 327.069 17.2592C325.973 17.1306 324.615 16.9924 323.214 17.2473L323.929 21.1827C324.684 21.0456 325.507 21.1034 326.603 21.232C327.611 21.3503 328.938 21.5444 330.271 21.4556L330.004 17.4644ZM323.138 17.2626C322.925 17.3098 322.459 17.4128 322.014 17.5908C321.792 17.6796 321.482 17.8227 321.183 18.0497C320.898 18.2664 320.438 18.7015 320.259 19.4159L324.14 20.3861C324.01 20.9045 323.691 21.1681 323.603 21.2348C323.502 21.3117 323.446 21.3262 323.5 21.3047C323.54 21.2885 323.608 21.2658 323.707 21.2391C323.803 21.2132 323.901 21.1906 324.005 21.1674L323.138 17.2626ZM320.302 19.2686C320.101 19.8723 320.196 20.4101 320.299 20.7395C320.403 21.0739 320.561 21.3423 320.685 21.5263C320.932 21.8903 321.238 22.1926 321.489 22.3937L323.988 19.2703C323.994 19.2754 323.981 19.2592 323.995 19.2802C324.004 19.2927 324.066 19.3835 324.117 19.5464C324.166 19.7043 324.249 20.0767 324.097 20.5334L320.302 19.2686ZM321.538 22.432C321.819 22.6421 322.25 22.8862 322.608 23.0828C323.012 23.3047 323.491 23.5558 323.958 23.7972C324.937 24.3029 325.799 24.7325 326.102 24.8959L327.999 21.3741C327.665 21.1945 326.665 20.6931 325.794 20.2433C325.336 20.007 324.893 19.7741 324.533 19.5766C324.353 19.4776 324.204 19.3928 324.089 19.3245C323.959 19.2475 323.923 19.2201 323.938 19.232L321.538 22.432ZM326.156 24.9239C328.39 26.041 330.341 27.2031 331.614 28.7944L334.737 26.2956C332.874 23.9669 330.219 22.483 327.945 21.3461L326.156 24.9239ZM331.59 28.7644C332.332 29.7288 332.821 31.014 332.894 32.223L336.887 31.981C336.764 29.956 335.979 27.9092 334.761 26.3256L331.59 28.7644ZM332.895 32.2396C332.965 33.251 332.724 34.3421 332.23 35.4547L335.885 37.0793C336.567 35.5459 337.012 33.7949 336.886 31.9644L332.895 32.2396ZM332.242 35.4289C331.559 36.9082 330.228 38.2485 328.753 38.9861L330.542 42.5639C332.791 41.4395 334.792 39.4478 335.873 37.1051L332.242 35.4289ZM328.786 38.97C326.942 39.8503 324.818 40.2581 322.614 40.3959L322.863 44.3881C325.363 44.2319 328.041 43.7577 330.509 42.58L328.786 38.97Z" fill="black" mask="url(#path-1-outside-1_2028_6)"/>
</svg>
